<svg width="137" height="60" viewBox="0 0 137 60" fill="none" xmlns="http://www.w3.org/2000/svg">
<path d="M25.9868 6.86548C28.1349 3.46583 31.8971 0.940018 35.9515 0.665527C36.3519 4.38751 34.8133 8.19764 32.1993 10.8317C30.0865 12.8967 27.188 14.453 24.161 14.1609C23.7002 11.6048 24.7277 9.0463 25.9868 6.86548Z" fill="white"/>
<path d="M32.8391 15.1278C37.9865 14.2111 43.6853 16.3365 46.6115 20.7536C43.8238 22.607 41.5145 25.3443 40.6961 28.6433C39.8575 31.7634 40.2957 35.1882 41.7991 38.0389C43.1741 40.6 45.5135 42.5843 48.1703 43.7201C46.8155 47.9734 44.4962 51.8641 41.6707 55.299C40.3133 56.8981 38.7193 58.472 36.6216 59.0034C34.4508 59.6556 32.1869 58.9379 30.2202 57.9986C27.4501 56.6916 24.1688 56.5607 21.3156 57.6788C19.1222 58.5199 16.8658 59.7589 14.4357 59.22C11.8444 58.608 10.0086 56.4952 8.42965 54.4907C5.63691 51.0709 3.46868 47.1449 2.13904 42.9319C0.527357 37.9457 -0.213011 32.5264 0.945388 27.3615C1.88722 23.2441 4.26194 19.3081 7.94615 17.1122C11.2602 15.0522 15.5311 14.3723 19.2028 15.8681C21.4113 16.543 23.6122 18.1043 26.0121 17.3791C28.2836 16.6261 30.4594 15.5257 32.8391 15.1278Z" fill="white"/>
<path d="M65.0178 21.1867C66.3096 21.1892 67.599 21.1766 68.8883 21.1967C71.5904 28.6835 74.2875 36.1703 77.0475 43.6344C75.806 43.6672 74.5645 43.647 73.323 43.652C72.6204 41.6299 71.9631 39.5951 71.2404 37.5805C68.3545 37.6057 65.466 37.5679 62.5776 37.6007C61.9505 39.6304 61.2026 41.6173 60.5579 43.642C59.3164 43.6596 58.0774 43.6521 56.8359 43.647C59.5632 36.1602 62.293 28.6734 65.0178 21.1867ZM63.5496 34.7727C65.7934 34.7878 68.0397 34.7853 70.2834 34.7752C69.1124 31.4788 68.08 28.132 66.8762 24.8482C65.8211 28.1748 64.6375 31.4586 63.5496 34.7727Z" fill="white"/>
<path d="M115.241 21.1892C116.367 21.1841 117.493 21.1867 118.618 21.1867C118.618 28.676 118.618 36.1627 118.621 43.652C117.493 43.652 116.367 43.6521 115.241 43.6495C115.244 36.1628 115.246 28.676 115.241 21.1892Z" fill="white"/>
<path d="M79.0336 27.2857C80.1567 27.2883 81.2798 27.2883 82.403 27.2883C82.4105 28.2553 82.4131 29.2248 82.403 30.1943C83.1786 28.5701 84.7248 27.3663 86.4901 27.0238C88.5098 26.772 90.7158 27.2631 92.1889 28.7363C93.9316 30.4638 94.5486 33.0223 94.5007 35.4122C94.5586 37.7567 93.9845 40.2422 92.3728 42.0176C90.2398 44.43 86.0847 44.7297 83.7049 42.5262C83.1786 42.0427 82.7757 41.4459 82.403 40.8415C82.4181 43.6091 82.403 46.3741 82.4105 49.1392C81.2824 49.1392 80.1567 49.1392 79.031 49.1417C79.031 41.8564 79.0235 34.5711 79.0336 27.2857ZM85.6037 30.0458C83.9769 30.494 82.884 32.0478 82.5768 33.6494C82.0731 35.9385 82.4282 38.7363 84.3521 40.2925C85.9386 41.5441 88.4997 41.2671 89.7588 39.6781C90.7586 38.4139 91.0482 36.7393 90.9575 35.1654C90.9273 33.5436 90.4715 31.7708 89.1544 30.7131C88.1774 29.9022 86.8049 29.7964 85.6037 30.0458Z" fill="white"/>
<path d="M100.507 30.1492C101.18 28.6634 102.539 27.5604 104.098 27.1197C106.309 26.6463 108.817 27.2255 110.399 28.8976C111.998 30.6528 112.58 33.1006 112.555 35.4224C112.585 37.7518 112.028 40.2298 110.424 41.9951C108.384 44.337 104.496 44.6896 102.046 42.8059C101.373 42.3048 100.91 41.5921 100.5 40.8744C100.442 43.6294 100.49 46.3844 100.474 49.1419C99.3286 49.1368 98.1803 49.1494 97.037 49.1293C97.0421 47.4974 97.0244 45.8656 97.0471 44.2338C97.0496 43.8132 97.0496 43.3952 97.0471 42.9772C97.0395 41.8842 97.1025 40.7938 97.0496 39.7009C97.027 38.4443 97.032 37.1877 97.0471 35.9311C97.0496 35.508 97.0471 35.0849 97.0521 34.6644C97.0396 34.1607 97.0421 33.6571 97.0572 33.156C97.0244 31.1942 97.0118 29.2224 97.1302 27.2683C98.2433 27.306 99.3589 27.2834 100.474 27.2884C100.472 28.2403 100.459 29.1947 100.507 30.1492ZM103.522 30.0862C101.865 30.6125 100.852 32.2645 100.578 33.9114C100.228 36.0041 100.479 38.4519 102.086 39.9981C103.615 41.5745 106.491 41.3831 107.833 39.6581C108.865 38.331 109.14 36.5732 109.019 34.9338C108.931 33.4053 108.485 31.7483 107.254 30.7384C106.229 29.8873 104.773 29.7689 103.522 30.0862Z" fill="white"/>
<path d="M124.328 28.4265C126.342 26.8274 129.191 26.6033 131.583 27.3689C133.759 28.0815 135.35 30.0256 135.95 32.1964C136.398 33.5361 136.347 34.9639 136.322 36.359C132.442 36.3641 128.561 36.354 124.68 36.3641C124.771 37.9304 125.252 39.6504 126.655 40.5444C128.722 41.7758 132.084 41.3402 132.993 38.8471C134.036 38.8572 135.078 38.8496 136.121 38.8572C135.816 41.0078 134.086 42.7579 132.092 43.4782C130.737 44.0775 129.216 43.9793 127.775 43.8886C125.589 43.6696 123.55 42.3399 122.502 40.4034C121.392 38.3762 121.182 35.9637 121.482 33.7023C121.777 31.6927 122.696 29.6907 124.328 28.4265ZM126.332 30.6502C125.383 31.4812 124.904 32.7328 124.801 33.9692C127.534 33.9717 130.266 33.9717 132.998 33.9692C132.867 32.8738 132.555 31.7481 131.797 30.9146C130.412 29.4338 127.863 29.3482 126.332 30.6502Z" fill="white"/>
</svg>
