<svg width="128" height="48" viewBox="0 0 128 48" fill="none" xmlns="http://www.w3.org/2000/svg">
<g filter="url(#filter0_d_212_6264)">
<path d="M22.6196 4.58215C24.4148 2.0696 27.559 0.202865 30.9474 0C31.282 2.75078 29.9961 5.5667 27.8116 7.51346C26.0458 9.0396 23.6235 10.1898 21.0938 9.9739C20.7086 8.08483 21.5673 6.19391 22.6196 4.58215Z" fill="white"/>
</g>
<g filter="url(#filter1_d_212_6264)">
<path d="M27.7715 10.1416C31.5414 9.52276 35.7152 10.9578 37.8583 13.94C35.8166 15.1914 34.1254 17.0396 33.5259 19.2669C32.9118 21.3735 33.2327 23.6858 34.3338 25.6105C35.3408 27.3397 37.0542 28.6795 39 29.4463C38.0077 32.318 36.3091 34.9449 34.2397 37.264C33.2456 38.3437 32.0781 39.4063 30.5418 39.7651C28.9519 40.2054 27.2939 39.7209 25.8534 39.0867C23.8246 38.2042 21.4214 38.1158 19.3318 38.8707C17.7253 39.4386 16.0728 40.2751 14.293 39.9113C12.3951 39.4981 11.0506 38.0716 9.89418 36.7182C7.84878 34.4093 6.26079 31.7586 5.28697 28.9141C4.10658 25.5476 3.56434 21.8887 4.41274 18.4015C5.10253 15.6215 6.84176 12.9641 9.54006 11.4814C11.9672 10.0906 15.0953 9.63157 17.7843 10.6415C19.4018 11.0972 21.0138 12.1513 22.7715 11.6617C24.4351 11.1533 26.0286 10.4103 27.7715 10.1416Z" fill="white"/>
<path d="M27.8477 10.6358L27.8477 10.6358L27.8525 10.635C31.2833 10.0718 35.0344 11.2927 37.1295 13.8144C35.2229 15.1004 33.64 16.9252 33.0445 19.1319C32.3919 21.3755 32.7364 23.8253 33.8998 25.8588L33.9017 25.8621C34.8952 27.5681 36.521 28.9 38.3688 29.7235C37.386 32.3474 35.797 34.7672 33.8692 36.9282C32.8863 37.9954 31.8068 38.9562 30.4281 39.2782L30.4181 39.2805L30.4083 39.2832C28.9924 39.6754 27.471 39.2526 26.0549 38.6291L26.0528 38.6282C23.909 37.6957 21.3744 37.6017 19.1635 38.3999C18.8714 38.5032 18.5902 38.61 18.3138 38.7151C17.7876 38.9151 17.2784 39.1086 16.7423 39.259C15.9489 39.4816 15.1782 39.5812 14.3963 39.4221C12.682 39.0476 11.4351 37.7519 10.2743 36.3934L10.2744 36.3934L10.2684 36.3867C8.26339 34.1233 6.71081 31.5294 5.76003 28.7521L5.75881 28.7486C4.59797 25.4379 4.08069 21.8826 4.8983 18.5208C5.56082 15.8519 7.22587 13.3235 9.78084 11.9196L9.78088 11.9197L9.78865 11.9153C12.1085 10.586 15.0811 10.1603 17.6085 11.1096L17.6284 11.117L17.6488 11.1228C18.0287 11.2298 18.4133 11.3735 18.8202 11.529C18.8577 11.5434 18.8953 11.5578 18.9332 11.5723C19.3 11.7128 19.6854 11.8605 20.0754 11.9831C20.9399 12.2548 21.8919 12.4258 22.9057 12.1433L22.9057 12.1435L22.9176 12.1398C23.4766 11.969 24.0379 11.7687 24.5862 11.5729C24.8628 11.4742 25.136 11.3767 25.4041 11.2847C26.2191 11.0049 27.0202 10.7634 27.8477 10.6358Z" stroke="black"/>
</g>
<path d="M56.1818 12.0016C57.4737 12.0041 58.763 11.9915 60.0524 12.0117C62.7545 19.4985 65.4515 26.9852 68.2115 34.4494C66.97 34.4821 65.7285 34.462 64.487 34.467C63.7844 32.4448 63.1272 30.4101 62.4044 28.3955C59.5185 28.4207 56.6301 28.3829 53.7416 28.4156C53.1146 30.4453 52.3667 32.4322 51.722 34.4569C50.4805 34.4746 49.2415 34.467 48 34.462C50.7273 26.9752 53.4571 19.4884 56.1818 12.0016ZM54.7137 25.5876C56.9574 25.6027 59.2037 25.6002 61.4475 25.5901C60.2765 22.2937 59.244 18.947 58.0403 15.6632C56.9851 18.9898 55.8016 22.2736 54.7137 25.5876Z" fill="white"/>
<path d="M106.406 12.0041C107.532 11.9991 108.658 12.0016 109.783 12.0016C109.783 19.4909 109.783 26.9777 109.786 34.467C108.658 34.467 107.532 34.467 106.406 34.4645C106.409 26.9777 106.411 19.4909 106.406 12.0041Z" fill="white"/>
<path d="M70.1986 18.1007C71.3217 18.1032 72.4449 18.1032 73.568 18.1032C73.5756 19.0702 73.5781 20.0397 73.568 21.0093C74.3437 19.385 75.8899 18.1813 77.6552 17.8388C79.6748 17.587 81.8808 18.078 83.354 19.5512C85.0966 21.2787 85.7136 23.8373 85.6657 26.2271C85.7237 28.5716 85.1495 31.0571 83.5378 32.8325C81.4049 35.245 77.2497 35.5447 74.87 33.3412C74.3437 32.8577 73.9407 32.2609 73.568 31.6565C73.5831 34.424 73.568 37.1891 73.5756 39.9541C72.4474 39.9541 71.3217 39.9541 70.1961 39.9567C70.1961 32.6713 70.1885 25.386 70.1986 18.1007ZM76.7687 20.8607C75.1419 21.3089 74.049 22.8627 73.7418 24.4643C73.2381 26.7534 73.5932 29.5512 75.5172 31.1075C77.1037 32.3591 79.6647 32.0821 80.9239 30.493C81.9236 29.2289 82.2132 27.5542 82.1226 25.9803C82.0923 24.3586 81.6365 22.5857 80.3195 21.528C79.3424 20.7172 77.9699 20.6114 76.7687 20.8607Z" fill="white"/>
<path d="M91.6717 20.9641C92.3441 19.4783 93.704 18.3753 95.2628 17.9346C97.4738 17.4612 99.982 18.0404 101.563 19.7125C103.163 21.4678 103.744 23.9155 103.719 26.2373C103.749 28.5667 103.193 31.0447 101.589 32.81C99.5489 35.152 95.6607 35.5045 93.2104 33.6209C92.538 33.1197 92.0747 32.4071 91.6642 31.6894C91.6063 34.4443 91.6541 37.1993 91.639 39.9568C90.4932 39.9518 89.3449 39.9644 88.2016 39.9442C88.2066 38.3124 88.189 36.6806 88.2117 35.0487C88.2142 34.6282 88.2142 34.2101 88.2117 33.7921C88.2041 32.6992 88.2671 31.6088 88.2142 30.5159C88.1915 29.2592 88.1965 28.0026 88.2117 26.746C88.2142 26.323 88.2117 25.8999 88.2167 25.4793C88.2041 24.9757 88.2066 24.472 88.2217 23.9709C88.189 22.0092 88.1764 20.0374 88.2948 18.0832C89.4078 18.121 90.5234 18.0983 91.639 18.1034C91.6365 19.0553 91.6239 20.0097 91.6717 20.9641ZM94.6861 20.9011C93.0291 21.4275 92.0167 23.0794 91.7423 24.7264C91.3922 26.8191 91.644 29.2668 93.2507 30.813C94.7793 32.3894 97.6551 32.1981 98.9974 30.473C100.03 29.1459 100.304 27.3882 100.183 25.7488C100.095 24.2202 99.6496 22.5632 98.4182 21.5534C97.3932 20.7022 95.9377 20.5838 94.6861 20.9011Z" fill="white"/>
<path d="M115.492 19.2415C117.506 17.6424 120.355 17.4183 122.747 18.1838C124.923 18.8965 126.514 20.8406 127.114 23.0113C127.562 24.351 127.512 25.7789 127.486 27.174C123.606 27.179 119.725 27.169 115.844 27.179C115.935 28.7454 116.416 30.4654 117.819 31.3593C119.886 32.5908 123.248 32.1551 124.157 29.662C125.2 29.6721 126.242 29.6646 127.285 29.6721C126.98 31.8227 125.25 33.5729 123.256 34.2931C121.901 34.8925 120.38 34.7942 118.939 34.7036C116.754 34.4845 114.714 33.1549 113.666 31.2183C112.556 29.1911 112.347 26.7786 112.646 24.5172C112.941 22.5077 113.86 20.5056 115.492 19.2415ZM117.496 21.4651C116.547 22.2961 116.069 23.5477 115.965 24.7842C118.698 24.7867 121.43 24.7867 124.162 24.7842C124.031 23.6887 123.719 22.5631 122.961 21.7295C121.576 20.2488 119.028 20.1632 117.496 21.4651Z" fill="white"/>
<defs>
<filter id="filter0_d_212_6264" x="17" y="0" width="18" height="18" filterUnits="userSpaceOnUse" color-interpolation-filters="sRGB">
<feFlood flood-opacity="0" result="BackgroundImageFix"/>
<feColorMatrix in="SourceAlpha" type="matrix" values="0 0 0 0 0 0 0 0 0 0 0 0 0 0 0 0 0 0 127 0" result="hardAlpha"/>
<feOffset dy="4"/>
<feGaussianBlur stdDeviation="2"/>
<feComposite in2="hardAlpha" operator="out"/>
<feColorMatrix type="matrix" values="0 0 0 0 0 0 0 0 0 0 0 0 0 0 0 0 0 0 0.25 0"/>
<feBlend mode="normal" in2="BackgroundImageFix" result="effect1_dropShadow_212_6264"/>
<feBlend mode="normal" in="SourceGraphic" in2="effect1_dropShadow_212_6264" result="shape"/>
</filter>
<filter id="filter1_d_212_6264" x="0" y="10" width="43" height="38" filterUnits="userSpaceOnUse" color-interpolation-filters="sRGB">
<feFlood flood-opacity="0" result="BackgroundImageFix"/>
<feColorMatrix in="SourceAlpha" type="matrix" values="0 0 0 0 0 0 0 0 0 0 0 0 0 0 0 0 0 0 127 0" result="hardAlpha"/>
<feOffset dy="4"/>
<feGaussianBlur stdDeviation="2"/>
<feComposite in2="hardAlpha" operator="out"/>
<feColorMatrix type="matrix" values="0 0 0 0 0 0 0 0 0 0 0 0 0 0 0 0 0 0 0.25 0"/>
<feBlend mode="normal" in2="BackgroundImageFix" result="effect1_dropShadow_212_6264"/>
<feBlend mode="normal" in="SourceGraphic" in2="effect1_dropShadow_212_6264" result="shape"/>
</filter>
</defs>
</svg>
