<svg width="175" height="162" viewBox="0 0 175 162" fill="none" xmlns="http://www.w3.org/2000/svg">
<path d="M82.3517 70.3282C85.6677 68.9656 89.2519 68.2667 92.8347 68.2015C94.7065 68.1338 96.6264 68.4192 98.3019 69.2918C98.4423 69.3383 98.5945 69.4996 98.7492 69.4025C100.814 68.518 103.032 68.0155 105.266 67.8361C107.239 67.6812 109.28 67.823 111.122 68.594C112.598 69.201 113.902 70.2914 114.615 71.7358C115.331 73.1646 115.487 74.7931 115.535 76.3689C115.691 81.4992 115.852 86.6294 116.004 91.7589C113.961 91.8225 111.919 91.8758 109.876 91.9519C109.706 87.0304 109.571 82.1068 109.416 77.1848C109.407 76.1543 109.21 75.0508 108.518 74.2487C107.88 73.5153 106.892 73.2117 105.951 73.1514C104.557 73.0365 103.172 73.361 101.873 73.8467C102.123 74.8045 102.201 75.7976 102.222 76.7852C102.379 81.9124 102.536 87.0386 102.694 92.1658C100.628 92.2229 98.5624 92.3049 96.4959 92.3464C96.3756 87.9118 96.2262 83.4781 96.0955 79.0438C96.0566 78.0454 96.0704 77.0401 95.9043 76.0528C95.7873 75.4166 95.5723 74.7626 95.1028 74.2969C94.5729 73.7915 93.825 73.6143 93.1161 73.5593C91.5937 73.4525 90.0451 73.6451 88.6141 74.1877C88.7906 80.3192 88.992 86.4499 89.1716 92.5813C87.1319 92.6479 85.0904 92.6929 83.0501 92.7782C82.7887 85.2971 82.5811 77.8113 82.3517 70.3282Z" fill="white"/>
<path d="M122.902 69.6651C125.443 67.6564 128.811 66.8615 132.005 67.1701C134.151 67.3138 136.332 67.9148 138.05 69.2537C137.23 70.7659 136.4 72.2742 135.592 73.7933C134.529 73.0554 133.296 72.5239 131.996 72.4289C130.37 72.2983 128.646 72.5399 127.266 73.4595C126.124 74.2173 125.347 75.4377 124.991 76.748C124.575 78.2841 124.573 79.9174 124.868 81.4762C125.174 83.0421 125.986 84.584 127.36 85.4597C128.861 86.4403 130.752 86.5752 132.483 86.3096C133.663 86.1251 134.718 85.5266 135.703 84.8804C136.741 86.1739 137.815 87.4362 138.87 88.7146C137.174 90.3874 134.856 91.287 132.532 91.6392C130.01 91.9809 127.362 91.778 125.011 90.7539C122.902 89.8438 121.117 88.2113 120.032 86.1851C118.63 83.5879 118.297 80.5297 118.629 77.6294C118.993 74.5716 120.446 71.579 122.902 69.6651Z" fill="white"/>
<path d="M14.998 73.9261C17.005 71.9089 19.7954 70.8237 22.5949 70.5388C24.5599 70.3355 26.5828 70.3948 28.4875 70.9607C30.2577 71.4716 31.8867 72.5167 33.0002 73.9966C34.5009 75.9655 35.0899 78.4714 35.2298 80.9041C35.3607 85.3446 35.5124 89.7855 35.6309 94.2274C32.3971 94.312 29.1631 94.4246 25.9295 94.5185C23.9315 94.5279 21.9105 94.5297 19.9489 94.1003C18.4571 93.7779 17.04 93.1504 15.7629 92.3195C14.9325 91.7508 14.2092 91.0243 13.6374 90.1956C12.2798 88.2286 11.7395 85.8238 11.5875 83.4703L11.5608 82.6001C11.5639 79.4196 12.6942 76.1713 14.998 73.9261ZM19.0086 77.9024C17.8422 79.4646 17.5627 81.5129 17.7557 83.4099C17.8936 85.0337 18.4003 86.7479 19.6753 87.8464C21.0519 89.0486 22.9595 89.3396 24.7264 89.3673C26.2059 89.3251 27.6855 89.286 29.1645 89.2272C29.0849 87.0022 29.025 84.7776 28.9558 82.5523C28.8989 81.4071 28.8106 80.2515 28.4668 79.1514C28.1527 78.1044 27.567 77.0967 26.6448 76.4769C25.6019 75.7767 24.2889 75.6334 23.0641 75.7311C21.4914 75.8467 19.9438 76.6128 19.0086 77.9024Z" fill="white"/>
<path d="M60.1631 71.4228C62.3674 69.8568 65.0914 69.175 67.7666 69.0992C69.9775 69.0325 72.2662 69.3419 74.2271 70.4235C75.7742 71.2648 77.0186 72.6183 77.7877 74.1979C78.7631 76.1466 79.069 78.348 79.1351 80.504C79.2625 84.6252 79.3815 88.7467 79.5172 92.8676C76.331 92.985 73.1427 93.0651 69.9551 93.17C67.1167 93.2 64.1575 93.2108 61.5125 92.0371C60.3116 91.4953 59.126 90.8389 58.2309 89.8532C56.8459 88.3765 56.0482 86.44 55.6685 84.4721C55.2209 82.0841 55.2113 79.5708 55.9654 77.2424C56.6895 74.9181 58.1631 72.8218 60.1631 71.4228ZM62.6421 77.0928C61.6075 78.8625 61.5439 81.0172 61.872 82.9919C62.1099 84.4292 62.7619 85.8734 63.9708 86.7458C65.3435 87.7531 67.1024 87.9958 68.7623 88.0186C70.247 87.9772 71.7315 87.9286 73.2161 87.8831C73.151 85.7593 73.0859 83.6354 73.0209 81.5127C72.991 80.2319 72.8797 78.9349 72.4659 77.7156C72.1063 76.642 71.4456 75.6232 70.455 75.0376C69.2341 74.3138 67.7311 74.2334 66.3615 74.4807C64.8175 74.7541 63.4163 75.7272 62.6421 77.0928Z" fill="white"/>
<path d="M45.7787 70.4627C48.5748 69.6304 51.5376 69.5645 54.4273 69.7922C54.7686 69.8294 55.116 69.8281 55.4523 69.9059C55.4662 70.0901 55.3876 70.2667 55.3558 70.4461C54.9686 72.0922 54.5867 73.7403 54.2017 75.3874C52.4637 75.0145 50.6129 74.785 48.8804 75.3016C47.346 75.7541 46.0728 76.9452 45.4836 78.4265C45.0772 79.4116 44.9079 80.4849 44.9187 81.5475C45.0502 85.6706 45.1663 89.7953 45.303 93.9193C43.2127 93.9959 41.1217 94.0496 39.0312 94.1167C38.8994 89.8515 38.7697 85.5852 38.639 81.3199C38.6474 78.7884 39.0763 76.133 40.565 74.0217C41.7932 72.243 43.7327 71.0709 45.7787 70.4627Z" fill="white"/>
<path d="M149.578 66.8057C151.895 66.4723 154.31 66.8151 156.429 67.8131C159.707 69.3199 162.222 72.3621 163.1 75.861C163.773 78.4961 163.558 81.3554 162.458 83.8478C161.147 86.8807 158.548 89.3299 155.433 90.4395C152.98 91.3277 150.24 91.392 147.747 90.6232C144.444 89.6304 141.627 87.1606 140.195 84.0241C139.158 81.7869 138.835 79.2293 139.262 76.801C139.89 73.0901 142.359 69.7635 145.702 68.0475C146.912 67.4193 148.228 66.9974 149.578 66.8057ZM150.316 72.4149C148.079 72.7302 146.065 74.2707 145.193 76.3559C144.399 78.1887 144.518 80.3845 145.5 82.1225C146.451 83.8707 148.229 85.1436 150.193 85.4701C152.159 85.8299 154.266 85.1981 155.723 83.8344C157.143 82.5423 157.959 80.6207 157.892 78.7012C157.833 76.8126 156.913 74.9721 155.433 73.7959C154.018 72.6478 152.118 72.1346 150.316 72.4149Z" fill="white"/>
</svg>
