<svg width="120" height="40" viewBox="0 0 120 40" fill="none" xmlns="http://www.w3.org/2000/svg">
<path d="M51.3283 21.351C51.3283 26.9909 46.9162 31.1469 41.5016 31.1469C36.0869 31.1469 31.6748 26.9909 31.6748 21.351C31.6748 15.6714 36.0869 11.5552 41.5016 11.5552C46.9162 11.5552 51.3283 15.6714 51.3283 21.351ZM47.0266 21.351C47.0266 17.8266 44.4695 15.4152 41.5016 15.4152C38.5337 15.4152 35.9765 17.8266 35.9765 21.351C35.9765 24.8401 38.5337 27.2868 41.5016 27.2868C44.4695 27.2868 47.0266 24.8357 47.0266 21.351Z" fill="white"/>
<path d="M72.5275 21.351C72.5275 26.9909 68.1154 31.1469 62.7008 31.1469C57.2861 31.1469 52.874 26.9909 52.874 21.351C52.874 15.6758 57.2861 11.5552 62.7008 11.5552C68.1154 11.5552 72.5275 15.6714 72.5275 21.351ZM68.2259 21.351C68.2259 17.8266 65.6687 15.4152 62.7008 15.4152C59.7329 15.4152 57.1757 17.8266 57.1757 21.351C57.1757 24.8401 59.7329 27.2868 62.7008 27.2868C65.6687 27.2868 68.2259 24.8357 68.2259 21.351Z" fill="white"/>
<path d="M92.8435 12.1465V29.7331C92.8435 36.9674 88.5771 39.922 83.5335 39.922C78.7857 39.922 75.9282 36.7465 74.8506 34.1496L78.5958 32.5906C79.2627 34.1849 80.8968 36.0664 83.5291 36.0664C86.7575 36.0664 88.7582 34.0745 88.7582 30.3249V28.916H88.6081C87.6453 30.1041 85.7903 31.142 83.4496 31.142C78.5516 31.142 74.0645 26.8756 74.0645 21.3859C74.0645 15.8564 78.5516 11.5547 83.4496 11.5547C85.7859 11.5547 87.6408 12.5926 88.6081 13.7453H88.7582V12.1509H92.8435V12.1465ZM89.063 21.3859C89.063 17.9366 86.762 15.4147 83.8338 15.4147C80.8659 15.4147 78.3794 17.9366 78.3794 21.3859C78.3794 24.7998 80.8659 27.2863 83.8338 27.2863C86.762 27.2863 89.063 24.7998 89.063 21.3859Z" fill="white"/>
<path d="M99.5785 1.83887V30.5463H95.3828V1.83887L99.5785 1.83887Z" fill="white"/>
<path d="M115.929 24.5751L119.268 26.801C118.191 28.3954 115.594 31.1425 111.107 31.1425C105.542 31.1425 101.386 26.8408 101.386 21.3466C101.386 15.5212 105.577 11.5508 110.625 11.5508C115.709 11.5508 118.195 15.5963 119.008 17.7825L119.454 18.8955L106.359 24.3189C107.361 26.2843 108.92 27.2869 111.107 27.2869C113.297 27.2869 114.816 26.2092 115.929 24.5751ZM105.652 21.0507L114.406 17.4159C113.924 16.1925 112.476 15.3402 110.771 15.3402C108.585 15.3402 105.542 17.2702 105.652 21.0507Z" fill="white"/>
<path d="M15.7931 18.8024V14.6465L29.7979 14.6465C29.9348 15.3708 30.0055 16.2276 30.0055 17.1551C30.0055 20.2731 29.1531 24.1288 26.406 26.8758C23.734 29.6582 20.3201 31.1422 15.7975 31.1422C7.41498 31.1422 0.366211 24.3143 0.366211 15.9317C0.366211 7.54913 7.41498 0.721191 15.7975 0.721191C20.4349 0.721191 23.7384 2.5408 26.2205 4.91247L23.288 7.84504C21.5081 6.1756 19.0967 4.87714 15.7931 4.87714C9.67182 4.87714 4.88431 9.81039 4.88431 15.9317C4.88431 22.053 9.67182 26.9862 15.7931 26.9862C19.7636 26.9862 22.0248 25.3919 23.4735 23.9433C24.6483 22.7685 25.4211 21.0902 25.7259 18.798L15.7931 18.8024Z" fill="white"/>
</svg>
