<svg width="670" height="60" viewBox="0 0 670 60" fill="none" xmlns="http://www.w3.org/2000/svg">
<g filter="url(#filter0_d_173_3627)">
<mask id="path-1-outside-1_173_3627" maskUnits="userSpaceOnUse" x="4.24609" y="-0.427246" width="662" height="52" fill="black">
<rect fill="white" x="4.24609" y="-0.427246" width="662" height="52"/>
<path d="M31.4661 27.9728C33.9061 28.4928 35.8661 29.7128 37.3461 31.6328C38.8261 33.5128 39.5661 35.6728 39.5661 38.1128C39.5661 41.6328 38.3261 44.4328 35.8461 46.5128C33.4061 48.5528 29.9861 49.5728 25.5861 49.5728H5.96609V7.45275H24.9261C29.2061 7.45275 32.5461 8.43275 34.9461 10.3928C37.3861 12.3528 38.6061 15.0128 38.6061 18.3728C38.6061 20.8528 37.9461 22.9128 36.6261 24.5528C35.3461 26.1928 33.6261 27.3328 31.4661 27.9728ZM16.2261 24.4928H22.9461C24.6261 24.4928 25.9061 24.1328 26.7861 23.4128C27.7061 22.6528 28.1661 21.5528 28.1661 20.1128C28.1661 18.6728 27.7061 17.5728 26.7861 16.8128C25.9061 16.0528 24.6261 15.6728 22.9461 15.6728H16.2261V24.4928ZM23.7861 41.2928C25.5061 41.2928 26.8261 40.9128 27.7461 40.1528C28.7061 39.3528 29.1861 38.2128 29.1861 36.7328C29.1861 35.2528 28.6861 34.0928 27.6861 33.2528C26.7261 32.4128 25.3861 31.9928 23.6661 31.9928H16.2261V41.2928H23.7861ZM77.0769 32.2928C77.0769 33.2528 77.0169 34.2528 76.8969 35.2928H53.6769C53.8369 37.3728 54.4969 38.9728 55.6569 40.0928C56.8569 41.1728 58.3169 41.7128 60.0369 41.7128C62.5969 41.7128 64.3769 40.6328 65.3769 38.4728H76.2969C75.7369 40.6728 74.7169 42.6528 73.2369 44.4128C71.7969 46.1728 69.9769 47.5528 67.7769 48.5528C65.5769 49.5528 63.1169 50.0528 60.3969 50.0528C57.1169 50.0528 54.1969 49.3528 51.6369 47.9528C49.0769 46.5528 47.0769 44.5528 45.6369 41.9528C44.1969 39.3528 43.4769 36.3128 43.4769 32.8328C43.4769 29.3528 44.1769 26.3128 45.5769 23.7128C47.0169 21.1128 49.0169 19.1128 51.5769 17.7128C54.1369 16.3128 57.0769 15.6128 60.3969 15.6128C63.6369 15.6128 66.5169 16.2928 69.0369 17.6528C71.5569 19.0128 73.5169 20.9528 74.9169 23.4728C76.3569 25.9928 77.0769 28.9328 77.0769 32.2928ZM66.5769 29.5928C66.5769 27.8328 65.9769 26.4328 64.7769 25.3928C63.5769 24.3528 62.0769 23.8328 60.2769 23.8328C58.5569 23.8328 57.0969 24.3328 55.8969 25.3328C54.7369 26.3328 54.0169 27.7528 53.7369 29.5928H66.5769ZM101.15 40.8728V49.5728H95.9295C92.2095 49.5728 89.3095 48.6728 87.2295 46.8728C85.1495 45.0328 84.1095 42.0528 84.1095 37.9328V24.6128H80.0295V16.0928H84.1095V7.93275H94.3695V16.0928H101.09V24.6128H94.3695V38.0528C94.3695 39.0528 94.6095 39.7728 95.0895 40.2128C95.5695 40.6528 96.3695 40.8728 97.4895 40.8728H101.15ZM125.525 40.8728V49.5728H120.305C116.585 49.5728 113.685 48.6728 111.605 46.8728C109.525 45.0328 108.485 42.0528 108.485 37.9328V24.6128H104.405V16.0928H108.485V7.93275H118.745V16.0928H125.465V24.6128H118.745V38.0528C118.745 39.0528 118.985 39.7728 119.465 40.2128C119.945 40.6528 120.745 40.8728 121.865 40.8728H125.525ZM162.8 32.2928C162.8 33.2528 162.74 34.2528 162.62 35.2928H139.4C139.56 37.3728 140.22 38.9728 141.38 40.0928C142.58 41.1728 144.04 41.7128 145.76 41.7128C148.32 41.7128 150.1 40.6328 151.1 38.4728H162.02C161.46 40.6728 160.44 42.6528 158.96 44.4128C157.52 46.1728 155.7 47.5528 153.5 48.5528C151.3 49.5528 148.84 50.0528 146.12 50.0528C142.84 50.0528 139.92 49.3528 137.36 47.9528C134.8 46.5528 132.8 44.5528 131.36 41.9528C129.92 39.3528 129.2 36.3128 129.2 32.8328C129.2 29.3528 129.9 26.3128 131.3 23.7128C132.74 21.1128 134.74 19.1128 137.3 17.7128C139.86 16.3128 142.8 15.6128 146.12 15.6128C149.36 15.6128 152.24 16.2928 154.76 17.6528C157.28 19.0128 159.24 20.9528 160.64 23.4728C162.08 25.9928 162.8 28.9328 162.8 32.2928ZM152.3 29.5928C152.3 27.8328 151.7 26.4328 150.5 25.3928C149.3 24.3528 147.8 23.8328 146 23.8328C144.28 23.8328 142.82 24.3328 141.62 25.3328C140.46 26.3328 139.74 27.7528 139.46 29.5928H152.3ZM178.472 21.6728C179.672 19.8328 181.172 18.3928 182.972 17.3528C184.772 16.2728 186.772 15.7328 188.972 15.7328V26.5928H186.152C183.592 26.5928 181.672 27.1528 180.392 28.2728C179.112 29.3528 178.472 31.2728 178.472 34.0328V49.5728H168.212V16.0928H178.472V21.6728ZM216.851 41.6528H230.291V49.5728H206.591V7.45275H216.851V41.6528ZM268.245 16.0928V49.5728H257.985V45.0128C256.945 46.4928 255.525 47.6928 253.725 48.6128C251.965 49.4928 250.005 49.9328 247.845 49.9328C245.285 49.9328 243.025 49.3728 241.065 48.2528C239.105 47.0928 237.585 45.4328 236.505 43.2728C235.425 41.1128 234.885 38.5728 234.885 35.6528V16.0928H245.085V34.2728C245.085 36.5128 245.665 38.2528 246.825 39.4928C247.985 40.7328 249.545 41.3528 251.505 41.3528C253.505 41.3528 255.085 40.7328 256.245 39.4928C257.405 38.2528 257.985 36.5128 257.985 34.2728V16.0928H268.245ZM273.575 32.8328C273.575 29.3528 274.275 26.3128 275.675 23.7128C277.115 21.1128 279.095 19.1128 281.615 17.7128C284.175 16.3128 287.095 15.6128 290.375 15.6128C294.575 15.6128 298.075 16.7128 300.875 18.9128C303.715 21.1128 305.575 24.2128 306.455 28.2128H295.535C294.615 25.6528 292.835 24.3728 290.195 24.3728C288.315 24.3728 286.815 25.1128 285.695 26.5928C284.575 28.0328 284.015 30.1128 284.015 32.8328C284.015 35.5528 284.575 37.6528 285.695 39.1328C286.815 40.5728 288.315 41.2928 290.195 41.2928C292.835 41.2928 294.615 40.0128 295.535 37.4528H306.455C305.575 41.3728 303.715 44.4528 300.875 46.6928C298.035 48.9328 294.535 50.0528 290.375 50.0528C287.095 50.0528 284.175 49.3528 281.615 47.9528C279.095 46.5528 277.115 44.5528 275.675 41.9528C274.275 39.3528 273.575 36.3128 273.575 32.8328ZM332.403 49.5728L322.203 35.5328V49.5728H311.943V5.17275H322.203V29.7128L332.343 16.0928H345.003L331.083 32.8928L345.123 49.5728H332.403ZM399.427 49.5728H389.167L372.007 23.5928V49.5728H361.747V7.45275H372.007L389.167 33.5528V7.45275H399.427V49.5728ZM438.425 32.2928C438.425 33.2528 438.365 34.2528 438.245 35.2928H415.025C415.185 37.3728 415.845 38.9728 417.005 40.0928C418.205 41.1728 419.665 41.7128 421.385 41.7128C423.945 41.7128 425.725 40.6328 426.725 38.4728H437.645C437.085 40.6728 436.065 42.6528 434.585 44.4128C433.145 46.1728 431.325 47.5528 429.125 48.5528C426.925 49.5528 424.465 50.0528 421.745 50.0528C418.465 50.0528 415.545 49.3528 412.985 47.9528C410.425 46.5528 408.425 44.5528 406.985 41.9528C405.545 39.3528 404.825 36.3128 404.825 32.8328C404.825 29.3528 405.525 26.3128 406.925 23.7128C408.365 21.1128 410.365 19.1128 412.925 17.7128C415.485 16.3128 418.425 15.6128 421.745 15.6128C424.985 15.6128 427.865 16.2928 430.385 17.6528C432.905 19.0128 434.865 20.9528 436.265 23.4728C437.705 25.9928 438.425 28.9328 438.425 32.2928ZM427.925 29.5928C427.925 27.8328 427.325 26.4328 426.125 25.3928C424.925 24.3528 423.425 23.8328 421.625 23.8328C419.905 23.8328 418.445 24.3328 417.245 25.3328C416.085 26.3328 415.365 27.7528 415.085 29.5928H427.925ZM463.637 49.5728L457.217 40.2728L451.817 49.5728H440.717L451.757 32.4728L440.417 16.0928H451.937L458.357 25.3328L463.757 16.0928H474.857L463.637 32.9528L475.157 49.5728H463.637ZM497.771 40.8728V49.5728H492.551C488.831 49.5728 485.931 48.6728 483.851 46.8728C481.771 45.0328 480.731 42.0528 480.731 37.9328V24.6128H476.651V16.0928H480.731V7.93275H490.991V16.0928H497.711V24.6128H490.991V38.0528C490.991 39.0528 491.231 39.7728 491.711 40.2128C492.191 40.6528 492.991 40.8728 494.111 40.8728H497.771ZM546.5 7.45275V15.6728H535.34V49.5728H525.08V15.6728H513.92V7.45275H546.5ZM556.81 12.6128C555.01 12.6128 553.53 12.0928 552.37 11.0528C551.25 9.97275 550.69 8.65275 550.69 7.09275C550.69 5.49275 551.25 4.17275 552.37 3.13275C553.53 2.05275 555.01 1.51275 556.81 1.51275C558.57 1.51275 560.01 2.05275 561.13 3.13275C562.29 4.17275 562.87 5.49275 562.87 7.09275C562.87 8.65275 562.29 9.97275 561.13 11.0528C560.01 12.0928 558.57 12.6128 556.81 12.6128ZM561.91 16.0928V49.5728H551.65V16.0928H561.91ZM612.065 15.7328C616.225 15.7328 619.525 16.9928 621.965 19.5128C624.445 22.0328 625.685 25.5328 625.685 30.0128V49.5728H615.485V31.3928C615.485 29.2328 614.905 27.5728 613.745 26.4128C612.625 25.2128 611.065 24.6128 609.065 24.6128C607.065 24.6128 605.485 25.2128 604.325 26.4128C603.205 27.5728 602.645 29.2328 602.645 31.3928V49.5728H592.445V31.3928C592.445 29.2328 591.865 27.5728 590.705 26.4128C589.585 25.2128 588.025 24.6128 586.025 24.6128C584.025 24.6128 582.445 25.2128 581.285 26.4128C580.165 27.5728 579.605 29.2328 579.605 31.3928V49.5728H569.345V16.0928H579.605V20.2928C580.645 18.8928 582.005 17.7928 583.685 16.9928C585.365 16.1528 587.265 15.7328 589.385 15.7328C591.905 15.7328 594.145 16.2728 596.105 17.3528C598.105 18.4328 599.665 19.9728 600.785 21.9728C601.945 20.1328 603.525 18.6328 605.525 17.4728C607.525 16.3128 609.705 15.7328 612.065 15.7328ZM664.421 32.2928C664.421 33.2528 664.361 34.2528 664.241 35.2928H641.021C641.181 37.3728 641.841 38.9728 643.001 40.0928C644.201 41.1728 645.661 41.7128 647.381 41.7128C649.941 41.7128 651.721 40.6328 652.721 38.4728H663.641C663.081 40.6728 662.061 42.6528 660.581 44.4128C659.141 46.1728 657.321 47.5528 655.121 48.5528C652.921 49.5528 650.461 50.0528 647.741 50.0528C644.461 50.0528 641.541 49.3528 638.981 47.9528C636.421 46.5528 634.421 44.5528 632.981 41.9528C631.541 39.3528 630.821 36.3128 630.821 32.8328C630.821 29.3528 631.521 26.3128 632.921 23.7128C634.361 21.1128 636.361 19.1128 638.921 17.7128C641.481 16.3128 644.421 15.6128 647.741 15.6128C650.981 15.6128 653.861 16.2928 656.381 17.6528C658.901 19.0128 660.861 20.9528 662.261 23.4728C663.701 25.9928 664.421 28.9328 664.421 32.2928ZM653.921 29.5928C653.921 27.8328 653.321 26.4328 652.121 25.3928C650.921 24.3528 649.421 23.8328 647.621 23.8328C645.901 23.8328 644.441 24.3328 643.241 25.3328C642.081 26.3328 641.361 27.7528 641.081 29.5928H653.921Z"/>
</mask>
<path d="M31.4661 27.9728C33.9061 28.4928 35.8661 29.7128 37.3461 31.6328C38.8261 33.5128 39.5661 35.6728 39.5661 38.1128C39.5661 41.6328 38.3261 44.4328 35.8461 46.5128C33.4061 48.5528 29.9861 49.5728 25.5861 49.5728H5.96609V7.45275H24.9261C29.2061 7.45275 32.5461 8.43275 34.9461 10.3928C37.3861 12.3528 38.6061 15.0128 38.6061 18.3728C38.6061 20.8528 37.9461 22.9128 36.6261 24.5528C35.3461 26.1928 33.6261 27.3328 31.4661 27.9728ZM16.2261 24.4928H22.9461C24.6261 24.4928 25.9061 24.1328 26.7861 23.4128C27.7061 22.6528 28.1661 21.5528 28.1661 20.1128C28.1661 18.6728 27.7061 17.5728 26.7861 16.8128C25.9061 16.0528 24.6261 15.6728 22.9461 15.6728H16.2261V24.4928ZM23.7861 41.2928C25.5061 41.2928 26.8261 40.9128 27.7461 40.1528C28.7061 39.3528 29.1861 38.2128 29.1861 36.7328C29.1861 35.2528 28.6861 34.0928 27.6861 33.2528C26.7261 32.4128 25.3861 31.9928 23.6661 31.9928H16.2261V41.2928H23.7861ZM77.0769 32.2928C77.0769 33.2528 77.0169 34.2528 76.8969 35.2928H53.6769C53.8369 37.3728 54.4969 38.9728 55.6569 40.0928C56.8569 41.1728 58.3169 41.7128 60.0369 41.7128C62.5969 41.7128 64.3769 40.6328 65.3769 38.4728H76.2969C75.7369 40.6728 74.7169 42.6528 73.2369 44.4128C71.7969 46.1728 69.9769 47.5528 67.7769 48.5528C65.5769 49.5528 63.1169 50.0528 60.3969 50.0528C57.1169 50.0528 54.1969 49.3528 51.6369 47.9528C49.0769 46.5528 47.0769 44.5528 45.6369 41.9528C44.1969 39.3528 43.4769 36.3128 43.4769 32.8328C43.4769 29.3528 44.1769 26.3128 45.5769 23.7128C47.0169 21.1128 49.0169 19.1128 51.5769 17.7128C54.1369 16.3128 57.0769 15.6128 60.3969 15.6128C63.6369 15.6128 66.5169 16.2928 69.0369 17.6528C71.5569 19.0128 73.5169 20.9528 74.9169 23.4728C76.3569 25.9928 77.0769 28.9328 77.0769 32.2928ZM66.5769 29.5928C66.5769 27.8328 65.9769 26.4328 64.7769 25.3928C63.5769 24.3528 62.0769 23.8328 60.2769 23.8328C58.5569 23.8328 57.0969 24.3328 55.8969 25.3328C54.7369 26.3328 54.0169 27.7528 53.7369 29.5928H66.5769ZM101.15 40.8728V49.5728H95.9295C92.2095 49.5728 89.3095 48.6728 87.2295 46.8728C85.1495 45.0328 84.1095 42.0528 84.1095 37.9328V24.6128H80.0295V16.0928H84.1095V7.93275H94.3695V16.0928H101.09V24.6128H94.3695V38.0528C94.3695 39.0528 94.6095 39.7728 95.0895 40.2128C95.5695 40.6528 96.3695 40.8728 97.4895 40.8728H101.15ZM125.525 40.8728V49.5728H120.305C116.585 49.5728 113.685 48.6728 111.605 46.8728C109.525 45.0328 108.485 42.0528 108.485 37.9328V24.6128H104.405V16.0928H108.485V7.93275H118.745V16.0928H125.465V24.6128H118.745V38.0528C118.745 39.0528 118.985 39.7728 119.465 40.2128C119.945 40.6528 120.745 40.8728 121.865 40.8728H125.525ZM162.8 32.2928C162.8 33.2528 162.74 34.2528 162.62 35.2928H139.4C139.56 37.3728 140.22 38.9728 141.38 40.0928C142.58 41.1728 144.04 41.7128 145.76 41.7128C148.32 41.7128 150.1 40.6328 151.1 38.4728H162.02C161.46 40.6728 160.44 42.6528 158.96 44.4128C157.52 46.1728 155.7 47.5528 153.5 48.5528C151.3 49.5528 148.84 50.0528 146.12 50.0528C142.84 50.0528 139.92 49.3528 137.36 47.9528C134.8 46.5528 132.8 44.5528 131.36 41.9528C129.92 39.3528 129.2 36.3128 129.2 32.8328C129.2 29.3528 129.9 26.3128 131.3 23.7128C132.74 21.1128 134.74 19.1128 137.3 17.7128C139.86 16.3128 142.8 15.6128 146.12 15.6128C149.36 15.6128 152.24 16.2928 154.76 17.6528C157.28 19.0128 159.24 20.9528 160.64 23.4728C162.08 25.9928 162.8 28.9328 162.8 32.2928ZM152.3 29.5928C152.3 27.8328 151.7 26.4328 150.5 25.3928C149.3 24.3528 147.8 23.8328 146 23.8328C144.28 23.8328 142.82 24.3328 141.62 25.3328C140.46 26.3328 139.74 27.7528 139.46 29.5928H152.3ZM178.472 21.6728C179.672 19.8328 181.172 18.3928 182.972 17.3528C184.772 16.2728 186.772 15.7328 188.972 15.7328V26.5928H186.152C183.592 26.5928 181.672 27.1528 180.392 28.2728C179.112 29.3528 178.472 31.2728 178.472 34.0328V49.5728H168.212V16.0928H178.472V21.6728ZM216.851 41.6528H230.291V49.5728H206.591V7.45275H216.851V41.6528ZM268.245 16.0928V49.5728H257.985V45.0128C256.945 46.4928 255.525 47.6928 253.725 48.6128C251.965 49.4928 250.005 49.9328 247.845 49.9328C245.285 49.9328 243.025 49.3728 241.065 48.2528C239.105 47.0928 237.585 45.4328 236.505 43.2728C235.425 41.1128 234.885 38.5728 234.885 35.6528V16.0928H245.085V34.2728C245.085 36.5128 245.665 38.2528 246.825 39.4928C247.985 40.7328 249.545 41.3528 251.505 41.3528C253.505 41.3528 255.085 40.7328 256.245 39.4928C257.405 38.2528 257.985 36.5128 257.985 34.2728V16.0928H268.245ZM273.575 32.8328C273.575 29.3528 274.275 26.3128 275.675 23.7128C277.115 21.1128 279.095 19.1128 281.615 17.7128C284.175 16.3128 287.095 15.6128 290.375 15.6128C294.575 15.6128 298.075 16.7128 300.875 18.9128C303.715 21.1128 305.575 24.2128 306.455 28.2128H295.535C294.615 25.6528 292.835 24.3728 290.195 24.3728C288.315 24.3728 286.815 25.1128 285.695 26.5928C284.575 28.0328 284.015 30.1128 284.015 32.8328C284.015 35.5528 284.575 37.6528 285.695 39.1328C286.815 40.5728 288.315 41.2928 290.195 41.2928C292.835 41.2928 294.615 40.0128 295.535 37.4528H306.455C305.575 41.3728 303.715 44.4528 300.875 46.6928C298.035 48.9328 294.535 50.0528 290.375 50.0528C287.095 50.0528 284.175 49.3528 281.615 47.9528C279.095 46.5528 277.115 44.5528 275.675 41.9528C274.275 39.3528 273.575 36.3128 273.575 32.8328ZM332.403 49.5728L322.203 35.5328V49.5728H311.943V5.17275H322.203V29.7128L332.343 16.0928H345.003L331.083 32.8928L345.123 49.5728H332.403ZM399.427 49.5728H389.167L372.007 23.5928V49.5728H361.747V7.45275H372.007L389.167 33.5528V7.45275H399.427V49.5728ZM438.425 32.2928C438.425 33.2528 438.365 34.2528 438.245 35.2928H415.025C415.185 37.3728 415.845 38.9728 417.005 40.0928C418.205 41.1728 419.665 41.7128 421.385 41.7128C423.945 41.7128 425.725 40.6328 426.725 38.4728H437.645C437.085 40.6728 436.065 42.6528 434.585 44.4128C433.145 46.1728 431.325 47.5528 429.125 48.5528C426.925 49.5528 424.465 50.0528 421.745 50.0528C418.465 50.0528 415.545 49.3528 412.985 47.9528C410.425 46.5528 408.425 44.5528 406.985 41.9528C405.545 39.3528 404.825 36.3128 404.825 32.8328C404.825 29.3528 405.525 26.3128 406.925 23.7128C408.365 21.1128 410.365 19.1128 412.925 17.7128C415.485 16.3128 418.425 15.6128 421.745 15.6128C424.985 15.6128 427.865 16.2928 430.385 17.6528C432.905 19.0128 434.865 20.9528 436.265 23.4728C437.705 25.9928 438.425 28.9328 438.425 32.2928ZM427.925 29.5928C427.925 27.8328 427.325 26.4328 426.125 25.3928C424.925 24.3528 423.425 23.8328 421.625 23.8328C419.905 23.8328 418.445 24.3328 417.245 25.3328C416.085 26.3328 415.365 27.7528 415.085 29.5928H427.925ZM463.637 49.5728L457.217 40.2728L451.817 49.5728H440.717L451.757 32.4728L440.417 16.0928H451.937L458.357 25.3328L463.757 16.0928H474.857L463.637 32.9528L475.157 49.5728H463.637ZM497.771 40.8728V49.5728H492.551C488.831 49.5728 485.931 48.6728 483.851 46.8728C481.771 45.0328 480.731 42.0528 480.731 37.9328V24.6128H476.651V16.0928H480.731V7.93275H490.991V16.0928H497.711V24.6128H490.991V38.0528C490.991 39.0528 491.231 39.7728 491.711 40.2128C492.191 40.6528 492.991 40.8728 494.111 40.8728H497.771ZM546.5 7.45275V15.6728H535.34V49.5728H525.08V15.6728H513.92V7.45275H546.5ZM556.81 12.6128C555.01 12.6128 553.53 12.0928 552.37 11.0528C551.25 9.97275 550.69 8.65275 550.69 7.09275C550.69 5.49275 551.25 4.17275 552.37 3.13275C553.53 2.05275 555.01 1.51275 556.81 1.51275C558.57 1.51275 560.01 2.05275 561.13 3.13275C562.29 4.17275 562.87 5.49275 562.87 7.09275C562.87 8.65275 562.29 9.97275 561.13 11.0528C560.01 12.0928 558.57 12.6128 556.81 12.6128ZM561.91 16.0928V49.5728H551.65V16.0928H561.91ZM612.065 15.7328C616.225 15.7328 619.525 16.9928 621.965 19.5128C624.445 22.0328 625.685 25.5328 625.685 30.0128V49.5728H615.485V31.3928C615.485 29.2328 614.905 27.5728 613.745 26.4128C612.625 25.2128 611.065 24.6128 609.065 24.6128C607.065 24.6128 605.485 25.2128 604.325 26.4128C603.205 27.5728 602.645 29.2328 602.645 31.3928V49.5728H592.445V31.3928C592.445 29.2328 591.865 27.5728 590.705 26.4128C589.585 25.2128 588.025 24.6128 586.025 24.6128C584.025 24.6128 582.445 25.2128 581.285 26.4128C580.165 27.5728 579.605 29.2328 579.605 31.3928V49.5728H569.345V16.0928H579.605V20.2928C580.645 18.8928 582.005 17.7928 583.685 16.9928C585.365 16.1528 587.265 15.7328 589.385 15.7328C591.905 15.7328 594.145 16.2728 596.105 17.3528C598.105 18.4328 599.665 19.9728 600.785 21.9728C601.945 20.1328 603.525 18.6328 605.525 17.4728C607.525 16.3128 609.705 15.7328 612.065 15.7328ZM664.421 32.2928C664.421 33.2528 664.361 34.2528 664.241 35.2928H641.021C641.181 37.3728 641.841 38.9728 643.001 40.0928C644.201 41.1728 645.661 41.7128 647.381 41.7128C649.941 41.7128 651.721 40.6328 652.721 38.4728H663.641C663.081 40.6728 662.061 42.6528 660.581 44.4128C659.141 46.1728 657.321 47.5528 655.121 48.5528C652.921 49.5528 650.461 50.0528 647.741 50.0528C644.461 50.0528 641.541 49.3528 638.981 47.9528C636.421 46.5528 634.421 44.5528 632.981 41.9528C631.541 39.3528 630.821 36.3128 630.821 32.8328C630.821 29.3528 631.521 26.3128 632.921 23.7128C634.361 21.1128 636.361 19.1128 638.921 17.7128C641.481 16.3128 644.421 15.6128 647.741 15.6128C650.981 15.6128 653.861 16.2928 656.381 17.6528C658.901 19.0128 660.861 20.9528 662.261 23.4728C663.701 25.9928 664.421 28.9328 664.421 32.2928ZM653.921 29.5928C653.921 27.8328 653.321 26.4328 652.121 25.3928C650.921 24.3528 649.421 23.8328 647.621 23.8328C645.901 23.8328 644.441 24.3328 643.241 25.3328C642.081 26.3328 641.361 27.7528 641.081 29.5928H653.921Z" fill="#C45050"/>
<path d="M31.4661 27.9728L31.182 27.014L31.2577 28.9508L31.4661 27.9728ZM37.3461 31.6328L36.554 32.2433L36.5604 32.2513L37.3461 31.6328ZM35.8461 46.5128L36.4875 47.2799L36.4887 47.2789L35.8461 46.5128ZM5.96609 49.5728H4.96609V50.5728H5.96609V49.5728ZM5.96609 7.45275V6.45275H4.96609V7.45275H5.96609ZM34.9461 10.3928L34.3135 11.1673L34.3198 11.1724L34.9461 10.3928ZM36.6261 24.5528L35.8471 23.9257L35.8424 23.9316L35.8378 23.9375L36.6261 24.5528ZM16.2261 24.4928H15.2261V25.4928H16.2261V24.4928ZM26.7861 23.4128L27.4193 24.1867L27.423 24.1837L26.7861 23.4128ZM26.7861 16.8128L26.1325 17.5696L26.1408 17.5767L26.1492 17.5837L26.7861 16.8128ZM16.2261 15.6728V14.6728H15.2261V15.6728H16.2261ZM27.7461 40.1528L28.383 40.9237L28.3863 40.921L27.7461 40.1528ZM27.6861 33.2528L27.0276 34.0053L27.0352 34.012L27.0429 34.0185L27.6861 33.2528ZM16.2261 31.9928V30.9928H15.2261V31.9928H16.2261ZM16.2261 41.2928H15.2261V42.2928H16.2261V41.2928ZM31.2577 28.9508C33.4731 29.4229 35.2234 30.517 36.5541 32.2433L38.1381 31.0222C36.5088 28.9085 34.3391 27.5626 31.6745 26.9947L31.2577 28.9508ZM36.5604 32.2513C37.8986 33.9513 38.5661 35.8923 38.5661 38.1128H40.5661C40.5661 35.4532 39.7536 33.0742 38.1318 31.0142L36.5604 32.2513ZM38.5661 38.1128C38.5661 41.3664 37.4354 43.8747 35.2035 45.7466L36.4887 47.2789C39.2168 44.9908 40.5661 41.8991 40.5661 38.1128H38.5661ZM35.2047 45.7456C33.0029 47.5864 29.8409 48.5728 25.5861 48.5728V50.5728C30.1313 50.5728 33.8093 49.5191 36.4875 47.2799L35.2047 45.7456ZM25.5861 48.5728H5.96609V50.5728H25.5861V48.5728ZM6.96609 49.5728V7.45275H4.96609V49.5728H6.96609ZM5.96609 8.45275H24.9261V6.45275H5.96609V8.45275ZM24.9261 8.45275C29.0627 8.45275 32.1496 9.40004 34.3136 11.1673L35.5786 9.61822C32.9426 7.46547 29.3495 6.45275 24.9261 6.45275V8.45275ZM34.3198 11.1724C36.5043 12.9271 37.6061 15.2902 37.6061 18.3728H39.6061C39.6061 14.7353 38.2679 11.7784 35.5723 9.61313L34.3198 11.1724ZM37.6061 18.3728C37.6061 20.667 36.9996 22.4938 35.8471 23.9257L37.4051 25.1798C38.8926 23.3317 39.6061 21.0385 39.6061 18.3728H37.6061ZM35.8378 23.9375C34.6967 25.3995 33.1597 26.428 31.182 27.014L31.7502 28.9316C34.0925 28.2375 35.9955 26.9861 37.4144 25.168L35.8378 23.9375ZM16.2261 25.4928H22.9461V23.4928H16.2261V25.4928ZM22.9461 25.4928C24.7504 25.4928 26.2927 25.1085 27.4193 24.1867L26.1529 22.6388C25.5195 23.157 24.5018 23.4928 22.9461 23.4928V25.4928ZM27.423 24.1837C28.6207 23.1943 29.1661 21.783 29.1661 20.1128H27.1661C27.1661 21.3225 26.7915 22.1112 26.1492 22.6418L27.423 24.1837ZM29.1661 20.1128C29.1661 18.4425 28.6207 17.0312 27.423 16.0418L26.1492 17.5837C26.7915 18.1143 27.1661 18.903 27.1661 20.1128H29.1661ZM27.4397 16.0559C26.312 15.082 24.7613 14.6728 22.9461 14.6728V16.6728C24.4909 16.6728 25.5002 17.0235 26.1325 17.5696L27.4397 16.0559ZM22.9461 14.6728H16.2261V16.6728H22.9461V14.6728ZM15.2261 15.6728V24.4928H17.2261V15.6728H15.2261ZM23.7861 42.2928C25.6383 42.2928 27.2193 41.885 28.383 40.9237L27.1092 39.3818C26.4329 39.9405 25.3739 40.2928 23.7861 40.2928V42.2928ZM28.3863 40.921C29.6171 39.8953 30.1861 38.4489 30.1861 36.7328H28.1861C28.1861 37.9766 27.7951 38.8102 27.1059 39.3845L28.3863 40.921ZM30.1861 36.7328C30.1861 35.0015 29.5872 33.5437 28.3293 32.487L27.0429 34.0185C27.785 34.6418 28.1861 35.504 28.1861 36.7328H30.1861ZM28.3446 32.5002C27.1471 31.4523 25.5432 30.9928 23.6661 30.9928V32.9928C25.229 32.9928 26.3051 33.3732 27.0276 34.0053L28.3446 32.5002ZM23.6661 30.9928H16.2261V32.9928H23.6661V30.9928ZM15.2261 31.9928V41.2928H17.2261V31.9928H15.2261ZM16.2261 42.2928H23.7861V40.2928H16.2261V42.2928ZM76.8969 35.2928V36.2928H77.7881L77.8903 35.4074L76.8969 35.2928ZM53.6769 35.2928V34.2928H52.597L52.6798 35.3694L53.6769 35.2928ZM55.6569 40.0928L54.9623 40.8122L54.9749 40.8243L54.9879 40.836L55.6569 40.0928ZM65.3769 38.4728V37.4728H64.7379L64.4694 38.0526L65.3769 38.4728ZM76.2969 38.4728L77.266 38.7194L77.5833 37.4728H76.2969V38.4728ZM73.2369 44.4128L72.4714 43.7691L72.4629 43.7795L73.2369 44.4128ZM67.7769 48.5528L68.1907 49.4631L67.7769 48.5528ZM51.6369 47.9528L51.1571 48.8301L51.1571 48.8301L51.6369 47.9528ZM45.6369 41.9528L46.5117 41.4683L46.5117 41.4683L45.6369 41.9528ZM45.5769 23.7128L44.702 23.2282L44.6964 23.2387L45.5769 23.7128ZM51.5769 17.7128L52.0567 18.5901L52.0567 18.5901L51.5769 17.7128ZM69.0369 17.6528L68.5619 18.5328L68.5619 18.5328L69.0369 17.6528ZM74.9169 23.4728L74.0427 23.9584L74.0486 23.9689L74.9169 23.4728ZM66.5769 29.5928V30.5928H67.5769V29.5928H66.5769ZM64.7769 25.3928L65.4318 24.6371L65.4318 24.6371L64.7769 25.3928ZM55.8969 25.3328L55.2567 24.5645L55.2503 24.5699L55.2439 24.5753L55.8969 25.3328ZM53.7369 29.5928L52.7483 29.4423L52.5732 30.5928H53.7369V29.5928ZM76.0769 32.2928C76.0769 33.2112 76.0195 34.1728 75.9035 35.1781L77.8903 35.4074C78.0143 34.3327 78.0769 33.2943 78.0769 32.2928H76.0769ZM76.8969 34.2928H53.6769V36.2928H76.8969V34.2928ZM52.6798 35.3694C52.8529 37.6199 53.5795 39.4771 54.9623 40.8122L56.3515 39.3734C55.4142 38.4684 54.8208 37.1256 54.6739 35.2161L52.6798 35.3694ZM54.9879 40.836C56.3842 42.0927 58.0875 42.7128 60.0369 42.7128V40.7128C58.5463 40.7128 57.3295 40.2528 56.3258 39.3495L54.9879 40.836ZM60.0369 42.7128C61.4579 42.7128 62.7319 42.4122 63.8106 41.7577C64.894 41.1004 65.7132 40.1266 66.2843 38.8929L64.4694 38.0526C64.0406 38.9789 63.4698 39.6251 62.7731 40.0478C62.0719 40.4733 61.1759 40.7128 60.0369 40.7128V42.7128ZM65.3769 39.4728H76.2969V37.4728H65.3769V39.4728ZM75.3278 38.2261C74.8054 40.2782 73.8559 42.1229 72.4715 43.7692L74.0022 45.0564C75.5779 43.1826 76.6683 41.0673 77.266 38.7194L75.3278 38.2261ZM72.4629 43.7795C71.1262 45.4133 69.4323 46.7018 67.3631 47.6424L68.1907 49.4631C70.5214 48.4037 72.4676 46.9322 74.0108 45.046L72.4629 43.7795ZM67.3631 47.6424C65.3084 48.5763 62.9921 49.0528 60.3969 49.0528V51.0528C63.2417 51.0528 65.8453 50.5292 68.1907 49.4631L67.3631 47.6424ZM60.3969 49.0528C57.2634 49.0528 54.5121 48.3854 52.1167 47.0754L51.1571 48.8301C53.8817 50.3202 56.9703 51.0528 60.3969 51.0528V49.0528ZM52.1167 47.0754C49.7261 45.7681 47.8617 43.9058 46.5117 41.4683L44.7621 42.4373C46.2921 45.1997 48.4276 47.3375 51.1571 48.8301L52.1167 47.0754ZM46.5117 41.4683C45.1668 39.0401 44.4769 36.1724 44.4769 32.8328H42.4769C42.4769 36.4531 43.2269 39.6654 44.7621 42.4373L46.5117 41.4683ZM44.4769 32.8328C44.4769 29.4887 45.1487 26.6172 46.4573 24.1869L44.6964 23.2387C43.205 26.0083 42.4769 29.2168 42.4769 32.8328H44.4769ZM46.4517 24.1973C47.8017 21.7597 49.6661 19.8975 52.0567 18.5901L51.0971 16.8354C48.3676 18.3281 46.2321 20.4658 44.7021 23.2283L46.4517 24.1973ZM52.0567 18.5901C54.4503 17.2811 57.2212 16.6128 60.3969 16.6128V14.6128C56.9326 14.6128 53.8234 15.3444 51.0971 16.8354L52.0567 18.5901ZM60.3969 16.6128C63.4932 16.6128 66.2061 17.2614 68.5619 18.5328L69.5118 16.7727C66.8276 15.3241 63.7806 14.6128 60.3969 14.6128V16.6128ZM68.5619 18.5328C70.9128 19.8015 72.7348 21.6041 74.0427 23.9584L75.791 22.9871C74.299 20.3014 72.201 18.224 69.5118 16.7727L68.5619 18.5328ZM74.0486 23.9689C75.3895 26.3154 76.0769 29.079 76.0769 32.2928H78.0769C78.0769 28.7865 77.3243 25.6701 75.7851 22.9766L74.0486 23.9689ZM67.5769 29.5928C67.5769 27.578 66.8763 25.8889 65.4318 24.6371L64.1219 26.1484C65.0775 26.9766 65.5769 28.0875 65.5769 29.5928H67.5769ZM65.4318 24.6371C64.0257 23.4184 62.2832 22.8328 60.2769 22.8328V24.8328C61.8705 24.8328 63.1281 25.2871 64.1219 26.1484L65.4318 24.6371ZM60.2769 22.8328C58.3482 22.8328 56.6549 23.3993 55.2567 24.5645L56.5371 26.101C57.5388 25.2662 58.7655 24.8328 60.2769 24.8328V22.8328ZM55.2439 24.5753C53.8664 25.7628 53.0561 27.4193 52.7483 29.4423L54.7255 29.7432C54.9776 28.0862 55.6073 26.9027 56.5498 26.0902L55.2439 24.5753ZM53.7369 30.5928H66.5769V28.5928H53.7369V30.5928ZM101.15 40.8728H102.15V39.8728H101.15V40.8728ZM101.15 49.5728V50.5728H102.15V49.5728H101.15ZM87.2295 46.8728L86.5669 47.6218L86.5752 47.6289L87.2295 46.8728ZM84.1095 24.6128H85.1095V23.6128H84.1095V24.6128ZM80.0295 24.6128H79.0295V25.6128H80.0295V24.6128ZM80.0295 16.0928V15.0928H79.0295V16.0928H80.0295ZM84.1095 16.0928V17.0928H85.1095V16.0928H84.1095ZM84.1095 7.93275V6.93275H83.1095V7.93275H84.1095ZM94.3695 7.93275H95.3695V6.93275H94.3695V7.93275ZM94.3695 16.0928H93.3695V17.0928H94.3695V16.0928ZM101.09 16.0928H102.09V15.0928H101.09V16.0928ZM101.09 24.6128V25.6128H102.09V24.6128H101.09ZM94.3695 24.6128V23.6128H93.3695V24.6128H94.3695ZM95.0895 40.2128L94.4138 40.9499L94.4138 40.9499L95.0895 40.2128ZM100.15 40.8728V49.5728H102.15V40.8728H100.15ZM101.15 48.5728H95.9295V50.5728H101.15V48.5728ZM95.9295 48.5728C92.3646 48.5728 89.7267 47.7113 87.8839 46.1166L86.5752 47.6289C88.8924 49.6342 92.0544 50.5728 95.9295 50.5728V48.5728ZM87.8921 46.1238C86.1131 44.55 85.1095 41.9065 85.1095 37.9328H83.1095C83.1095 42.199 84.186 45.5155 86.567 47.6218L87.8921 46.1238ZM85.1095 37.9328V24.6128H83.1095V37.9328H85.1095ZM84.1095 23.6128H80.0295V25.6128H84.1095V23.6128ZM81.0295 24.6128V16.0928H79.0295V24.6128H81.0295ZM80.0295 17.0928H84.1095V15.0928H80.0295V17.0928ZM85.1095 16.0928V7.93275H83.1095V16.0928H85.1095ZM84.1095 8.93275H94.3695V6.93275H84.1095V8.93275ZM93.3695 7.93275V16.0928H95.3695V7.93275H93.3695ZM94.3695 17.0928H101.09V15.0928H94.3695V17.0928ZM100.09 16.0928V24.6128H102.09V16.0928H100.09ZM101.09 23.6128H94.3695V25.6128H101.09V23.6128ZM93.3695 24.6128V38.0528H95.3695V24.6128H93.3695ZM93.3695 38.0528C93.3695 39.1841 93.6383 40.239 94.4138 40.9499L95.7653 39.4756C95.5808 39.3065 95.3695 38.9215 95.3695 38.0528H93.3695ZM94.4138 40.9499C95.172 41.6449 96.2852 41.8728 97.4895 41.8728V39.8728C96.4538 39.8728 95.9671 39.6606 95.7653 39.4756L94.4138 40.9499ZM97.4895 41.8728H101.15V39.8728H97.4895V41.8728ZM125.525 40.8728H126.525V39.8728H125.525V40.8728ZM125.525 49.5728V50.5728H126.525V49.5728H125.525ZM111.605 46.8728L110.942 47.6218L110.95 47.6289L111.605 46.8728ZM108.485 24.6128H109.485V23.6128H108.485V24.6128ZM104.405 24.6128H103.405V25.6128H104.405V24.6128ZM104.405 16.0928V15.0928H103.405V16.0928H104.405ZM108.485 16.0928V17.0928H109.485V16.0928H108.485ZM108.485 7.93275V6.93275H107.485V7.93275H108.485ZM118.745 7.93275H119.745V6.93275H118.745V7.93275ZM118.745 16.0928H117.745V17.0928H118.745V16.0928ZM125.465 16.0928H126.465V15.0928H125.465V16.0928ZM125.465 24.6128V25.6128H126.465V24.6128H125.465ZM118.745 24.6128V23.6128H117.745V24.6128H118.745ZM119.465 40.2128L118.789 40.9499L118.789 40.9499L119.465 40.2128ZM124.525 40.8728V49.5728H126.525V40.8728H124.525ZM125.525 48.5728H120.305V50.5728H125.525V48.5728ZM120.305 48.5728C116.74 48.5728 114.102 47.7113 112.259 46.1166L110.95 47.6289C113.267 49.6342 116.429 50.5728 120.305 50.5728V48.5728ZM112.267 46.1238C110.488 44.55 109.485 41.9065 109.485 37.9328H107.485C107.485 42.199 108.561 45.5155 110.942 47.6218L112.267 46.1238ZM109.485 37.9328V24.6128H107.485V37.9328H109.485ZM108.485 23.6128H104.405V25.6128H108.485V23.6128ZM105.405 24.6128V16.0928H103.405V24.6128H105.405ZM104.405 17.0928H108.485V15.0928H104.405V17.0928ZM109.485 16.0928V7.93275H107.485V16.0928H109.485ZM108.485 8.93275H118.745V6.93275H108.485V8.93275ZM117.745 7.93275V16.0928H119.745V7.93275H117.745ZM118.745 17.0928H125.465V15.0928H118.745V17.0928ZM124.465 16.0928V24.6128H126.465V16.0928H124.465ZM125.465 23.6128H118.745V25.6128H125.465V23.6128ZM117.745 24.6128V38.0528H119.745V24.6128H117.745ZM117.745 38.0528C117.745 39.1841 118.013 40.239 118.789 40.9499L120.14 39.4756C119.956 39.3065 119.745 38.9215 119.745 38.0528H117.745ZM118.789 40.9499C119.547 41.6449 120.66 41.8728 121.865 41.8728V39.8728C120.829 39.8728 120.342 39.6606 120.14 39.4756L118.789 40.9499ZM121.865 41.8728H125.525V39.8728H121.865V41.8728ZM162.62 35.2928V36.2928H163.511L163.613 35.4074L162.62 35.2928ZM139.4 35.2928V34.2928H138.32L138.402 35.3694L139.4 35.2928ZM141.38 40.0928L140.685 40.8122L140.698 40.8243L140.711 40.836L141.38 40.0928ZM151.1 38.4728V37.4728H150.461L150.192 38.0526L151.1 38.4728ZM162.02 38.4728L162.989 38.7194L163.306 37.4728H162.02V38.4728ZM158.96 44.4128L158.194 43.7691L158.186 43.7795L158.96 44.4128ZM153.5 48.5528L153.913 49.4631L153.5 48.5528ZM137.36 47.9528L136.88 48.8301L136.88 48.8301L137.36 47.9528ZM131.36 41.9528L132.234 41.4683L132.234 41.4683L131.36 41.9528ZM131.3 23.7128L130.425 23.2282L130.419 23.2387L131.3 23.7128ZM137.3 17.7128L137.779 18.5901L137.779 18.5901L137.3 17.7128ZM154.76 17.6528L154.285 18.5328L154.285 18.5328L154.76 17.6528ZM160.64 23.4728L159.765 23.9584L159.771 23.9689L160.64 23.4728ZM152.3 29.5928V30.5928H153.3V29.5928H152.3ZM150.5 25.3928L151.154 24.6371L151.154 24.6371L150.5 25.3928ZM141.62 25.3328L140.979 24.5645L140.973 24.5699L140.967 24.5753L141.62 25.3328ZM139.46 29.5928L138.471 29.4423L138.296 30.5928H139.46V29.5928ZM161.8 32.2928C161.8 33.2112 161.742 34.1728 161.626 35.1781L163.613 35.4074C163.737 34.3327 163.8 33.2943 163.8 32.2928H161.8ZM162.62 34.2928H139.4V36.2928H162.62V34.2928ZM138.402 35.3694C138.576 37.6199 139.302 39.4771 140.685 40.8122L142.074 39.3734C141.137 38.4684 140.543 37.1256 140.397 35.2161L138.402 35.3694ZM140.711 40.836C142.107 42.0927 143.81 42.7128 145.76 42.7128V40.7128C144.269 40.7128 143.052 40.2528 142.048 39.3495L140.711 40.836ZM145.76 42.7128C147.181 42.7128 148.455 42.4122 149.533 41.7577C150.617 41.1004 151.436 40.1266 152.007 38.8929L150.192 38.0526C149.763 38.9789 149.192 39.6251 148.496 40.0478C147.795 40.4733 146.899 40.7128 145.76 40.7128V42.7128ZM151.1 39.4728H162.02V37.4728H151.1V39.4728ZM161.05 38.2261C160.528 40.2782 159.579 42.1229 158.194 43.7692L159.725 45.0564C161.301 43.1826 162.391 41.0673 162.989 38.7194L161.05 38.2261ZM158.186 43.7795C156.849 45.4133 155.155 46.7018 153.086 47.6424L153.913 49.4631C156.244 48.4037 158.19 46.9322 159.733 45.046L158.186 43.7795ZM153.086 47.6424C151.031 48.5763 148.715 49.0528 146.12 49.0528V51.0528C148.964 51.0528 151.568 50.5292 153.913 49.4631L153.086 47.6424ZM146.12 49.0528C142.986 49.0528 140.235 48.3854 137.839 47.0754L136.88 48.8301C139.604 50.3202 142.693 51.0528 146.12 51.0528V49.0528ZM137.839 47.0754C135.449 45.7681 133.584 43.9058 132.234 41.4683L130.485 42.4373C132.015 45.1997 134.15 47.3375 136.88 48.8301L137.839 47.0754ZM132.234 41.4683C130.889 39.0401 130.2 36.1724 130.2 32.8328H128.2C128.2 36.4531 128.95 39.6654 130.485 42.4373L132.234 41.4683ZM130.2 32.8328C130.2 29.4887 130.871 26.6172 132.18 24.1869L130.419 23.2387C128.928 26.0083 128.2 29.2168 128.2 32.8328H130.2ZM132.174 24.1973C133.524 21.7597 135.389 19.8975 137.779 18.5901L136.82 16.8354C134.09 18.3281 131.955 20.4658 130.425 23.2283L132.174 24.1973ZM137.779 18.5901C140.173 17.2811 142.944 16.6128 146.12 16.6128V14.6128C142.655 14.6128 139.546 15.3444 136.82 16.8354L137.779 18.5901ZM146.12 16.6128C149.216 16.6128 151.929 17.2614 154.285 18.5328L155.234 16.7727C152.55 15.3241 149.503 14.6128 146.12 14.6128V16.6128ZM154.285 18.5328C156.635 19.8015 158.457 21.6041 159.765 23.9584L161.514 22.9871C160.022 20.3014 157.924 18.224 155.234 16.7727L154.285 18.5328ZM159.771 23.9689C161.112 26.3154 161.8 29.079 161.8 32.2928H163.8C163.8 28.7865 163.047 25.6701 161.508 22.9766L159.771 23.9689ZM153.3 29.5928C153.3 27.578 152.599 25.8889 151.154 24.6371L149.845 26.1484C150.8 26.9766 151.3 28.0875 151.3 29.5928H153.3ZM151.154 24.6371C149.748 23.4184 148.006 22.8328 146 22.8328V24.8328C147.593 24.8328 148.851 25.2871 149.845 26.1484L151.154 24.6371ZM146 22.8328C144.071 22.8328 142.378 23.3993 140.979 24.5645L142.26 26.101C143.261 25.2662 144.488 24.8328 146 24.8328V22.8328ZM140.967 24.5753C139.589 25.7628 138.779 27.4193 138.471 29.4423L140.448 29.7432C140.7 28.0862 141.33 26.9027 142.272 26.0902L140.967 24.5753ZM139.46 30.5928H152.3V28.5928H139.46V30.5928ZM178.472 21.6728H177.472V25.0367L179.31 22.219L178.472 21.6728ZM182.972 17.3528L183.472 18.2186L183.48 18.2145L183.487 18.2102L182.972 17.3528ZM188.972 15.7328H189.972V14.7328H188.972V15.7328ZM188.972 26.5928V27.5928H189.972V26.5928H188.972ZM180.392 28.2728L181.037 29.037L181.044 29.0312L181.051 29.0253L180.392 28.2728ZM178.472 49.5728V50.5728H179.472V49.5728H178.472ZM168.212 49.5728H167.212V50.5728H168.212V49.5728ZM168.212 16.0928V15.0928H167.212V16.0928H168.212ZM178.472 16.0928H179.472V15.0928H178.472V16.0928ZM179.31 22.219C180.429 20.5029 181.816 19.1756 183.472 18.2186L182.472 16.4869C180.528 17.6099 178.915 19.1626 177.635 21.1265L179.31 22.219ZM183.487 18.2102C185.124 17.2281 186.944 16.7328 188.972 16.7328V14.7328C186.6 14.7328 184.421 15.3174 182.458 16.4953L183.487 18.2102ZM187.972 15.7328V26.5928H189.972V15.7328H187.972ZM188.972 25.5928H186.152V27.5928H188.972V25.5928ZM186.152 25.5928C183.468 25.5928 181.269 26.1769 179.734 27.5202L181.051 29.0253C182.076 28.1286 183.716 27.5928 186.152 27.5928V25.5928ZM179.747 27.5085C178.131 28.8725 177.472 31.1645 177.472 34.0328H179.472C179.472 31.381 180.094 29.833 181.037 29.037L179.747 27.5085ZM177.472 34.0328V49.5728H179.472V34.0328H177.472ZM178.472 48.5728H168.212V50.5728H178.472V48.5728ZM169.212 49.5728V16.0928H167.212V49.5728H169.212ZM168.212 17.0928H178.472V15.0928H168.212V17.0928ZM177.472 16.0928V21.6728H179.472V16.0928H177.472ZM216.851 41.6528H215.851V42.6528H216.851V41.6528ZM230.291 41.6528H231.291V40.6528H230.291V41.6528ZM230.291 49.5728V50.5728H231.291V49.5728H230.291ZM206.591 49.5728H205.591V50.5728H206.591V49.5728ZM206.591 7.45275V6.45275H205.591V7.45275H206.591ZM216.851 7.45275H217.851V6.45275H216.851V7.45275ZM216.851 42.6528H230.291V40.6528H216.851V42.6528ZM229.291 41.6528V49.5728H231.291V41.6528H229.291ZM230.291 48.5728H206.591V50.5728H230.291V48.5728ZM207.591 49.5728V7.45275H205.591V49.5728H207.591ZM206.591 8.45275H216.851V6.45275H206.591V8.45275ZM215.851 7.45275V41.6528H217.851V7.45275H215.851ZM268.245 16.0928H269.245V15.0928H268.245V16.0928ZM268.245 49.5728V50.5728H269.245V49.5728H268.245ZM257.985 49.5728H256.985V50.5728H257.985V49.5728ZM257.985 45.0128H258.985V41.8504L257.167 44.4378L257.985 45.0128ZM253.725 48.6128L254.172 49.5072L254.18 49.5032L253.725 48.6128ZM241.065 48.2528L240.556 49.1133L240.562 49.1172L240.569 49.121L241.065 48.2528ZM236.505 43.2728L235.61 43.72L236.505 43.2728ZM234.885 16.0928V15.0928H233.885V16.0928H234.885ZM245.085 16.0928H246.085V15.0928H245.085V16.0928ZM246.825 39.4928L246.095 40.1759L246.095 40.1759L246.825 39.4928ZM257.985 16.0928V15.0928H256.985V16.0928H257.985ZM267.245 16.0928V49.5728H269.245V16.0928H267.245ZM268.245 48.5728H257.985V50.5728H268.245V48.5728ZM258.985 49.5728V45.0128H256.985V49.5728H258.985ZM257.167 44.4378C256.231 45.7696 254.942 46.8675 253.27 47.7223L254.18 49.5032C256.108 48.518 257.659 47.2159 258.803 45.5877L257.167 44.4378ZM253.278 47.7183C251.67 48.5223 249.865 48.9328 247.845 48.9328V50.9328C250.145 50.9328 252.26 50.4632 254.172 49.5072L253.278 47.7183ZM247.845 48.9328C245.435 48.9328 243.351 48.4071 241.561 47.3845L240.569 49.121C242.699 50.3384 245.135 50.9328 247.845 50.9328V48.9328ZM241.574 47.3922C239.79 46.3361 238.399 44.8245 237.399 42.8255L235.61 43.72C236.771 46.041 238.42 47.8494 240.556 49.1133L241.574 47.3922ZM237.399 42.8255C236.402 40.8305 235.885 38.4496 235.885 35.6528H233.885C233.885 38.6959 234.448 41.395 235.61 43.72L237.399 42.8255ZM235.885 35.6528V16.0928H233.885V35.6528H235.885ZM234.885 17.0928H245.085V15.0928H234.885V17.0928ZM244.085 16.0928V34.2728H246.085V16.0928H244.085ZM244.085 34.2728C244.085 36.6833 244.712 38.6978 246.095 40.1759L247.555 38.8096C246.618 37.8078 246.085 36.3422 246.085 34.2728H244.085ZM246.095 40.1759C247.473 41.6498 249.315 42.3528 251.505 42.3528V40.3528C249.775 40.3528 248.496 39.8157 247.555 38.8096L246.095 40.1759ZM251.505 42.3528C253.728 42.3528 255.592 41.6541 256.975 40.1759L255.515 38.8096C254.577 39.8114 253.282 40.3528 251.505 40.3528V42.3528ZM256.975 40.1759C258.358 38.6978 258.985 36.6833 258.985 34.2728H256.985C256.985 36.3422 256.452 37.8078 255.515 38.8096L256.975 40.1759ZM258.985 34.2728V16.0928H256.985V34.2728H258.985ZM257.985 17.0928H268.245V15.0928H257.985V17.0928ZM275.675 23.7128L274.8 23.2282L274.794 23.2387L275.675 23.7128ZM281.615 17.7128L281.135 16.8354L281.129 16.8386L281.615 17.7128ZM300.875 18.9128L300.257 19.6991L300.262 19.7033L300.875 18.9128ZM306.455 28.2128V29.2128H307.698L307.431 27.9979L306.455 28.2128ZM295.535 28.2128L294.593 28.551L294.831 29.2128H295.535V28.2128ZM285.695 26.5928L286.484 27.2067L286.492 27.1962L285.695 26.5928ZM285.695 39.1328L284.897 39.7362L284.905 39.7467L285.695 39.1328ZM295.535 37.4528V36.4528H294.831L294.593 37.1146L295.535 37.4528ZM306.455 37.4528L307.43 37.6718L307.704 36.4528H306.455V37.4528ZM300.875 46.6928L300.255 45.9076L300.255 45.9076L300.875 46.6928ZM281.615 47.9528L281.129 48.8269L281.135 48.8301L281.615 47.9528ZM275.675 41.9528L274.794 42.4269L274.8 42.4373L275.675 41.9528ZM274.575 32.8328C274.575 29.4887 275.246 26.6172 276.555 24.1869L274.794 23.2387C273.303 26.0083 272.575 29.2168 272.575 32.8328H274.575ZM276.549 24.1973C277.902 21.7557 279.749 19.8931 282.1 18.5869L281.129 16.8386C278.44 18.3324 276.327 20.4698 274.8 23.2283L276.549 24.1973ZM282.094 18.5901C284.49 17.2802 287.241 16.6128 290.375 16.6128V14.6128C286.948 14.6128 283.859 15.3453 281.135 16.8354L282.094 18.5901ZM290.375 16.6128C294.392 16.6128 297.663 17.6613 300.257 19.6991L301.492 18.1264C298.486 15.7642 294.757 14.6128 290.375 14.6128V16.6128ZM300.262 19.7033C302.891 21.74 304.641 24.6223 305.478 28.4276L307.431 27.9979C306.508 23.8032 304.538 20.4855 301.487 18.1222L300.262 19.7033ZM306.455 27.2128H295.535V29.2128H306.455V27.2128ZM296.476 27.8746C295.964 26.4503 295.183 25.3047 294.093 24.5209C293.001 23.7353 291.68 23.3728 290.195 23.3728V25.3728C291.349 25.3728 292.238 25.6502 292.926 26.1446C293.616 26.6408 294.185 27.4152 294.593 28.551L296.476 27.8746ZM290.195 23.3728C288.006 23.3728 286.209 24.2558 284.897 25.9893L286.492 27.1962C287.42 25.9698 288.623 25.3728 290.195 25.3728V23.3728ZM284.905 25.9788C283.596 27.662 283.015 29.9949 283.015 32.8328H285.015C285.015 30.2307 285.553 28.4035 286.484 27.2067L284.905 25.9788ZM283.015 32.8328C283.015 35.6732 283.597 38.0182 284.897 39.7362L286.492 38.5293C285.552 37.2873 285.015 35.4323 285.015 32.8328H283.015ZM284.905 39.7467C286.221 41.4388 288.017 42.2928 290.195 42.2928V40.2928C288.612 40.2928 287.408 39.7067 286.484 38.5188L284.905 39.7467ZM290.195 42.2928C291.68 42.2928 293.001 41.9302 294.093 41.1446C295.183 40.3608 295.964 39.2152 296.476 37.791L294.593 37.1146C294.185 38.2503 293.616 39.0247 292.926 39.5209C292.238 40.0153 291.349 40.2928 290.195 40.2928V42.2928ZM295.535 38.4528H306.455V36.4528H295.535V38.4528ZM305.479 37.2337C304.643 40.9561 302.895 43.8257 300.255 45.9076L301.494 47.4779C304.534 45.0798 306.506 41.7895 307.43 37.6718L305.479 37.2337ZM300.255 45.9076C297.618 47.988 294.345 49.0528 290.375 49.0528V51.0528C294.724 51.0528 298.451 49.8775 301.494 47.4779L300.255 45.9076ZM290.375 49.0528C287.241 49.0528 284.49 48.3854 282.094 47.0754L281.135 48.8301C283.859 50.3202 286.948 51.0528 290.375 51.0528V49.0528ZM282.1 47.0786C279.749 45.7724 277.902 43.9099 276.549 41.4683L274.8 42.4373C276.327 45.1957 278.44 47.3331 281.129 48.8269L282.1 47.0786ZM276.555 41.4787C275.246 39.0483 274.575 36.1768 274.575 32.8328H272.575C272.575 36.4487 273.303 39.6572 274.794 42.4269L276.555 41.4787ZM332.403 49.5728L331.594 50.1605L331.893 50.5728H332.403V49.5728ZM322.203 35.5328L323.012 34.945L321.203 32.4549V35.5328H322.203ZM322.203 49.5728V50.5728H323.203V49.5728H322.203ZM311.943 49.5728H310.943V50.5728H311.943V49.5728ZM311.943 5.17275V4.17275H310.943V5.17275H311.943ZM322.203 5.17275H323.203V4.17275H322.203V5.17275ZM322.203 29.7128H321.203V32.7305L323.005 30.3099L322.203 29.7128ZM332.343 16.0928V15.0928H331.84L331.541 15.4956L332.343 16.0928ZM345.003 16.0928L345.773 16.7308L347.13 15.0928H345.003V16.0928ZM331.083 32.8928L330.313 32.2547L329.78 32.8978L330.318 33.5367L331.083 32.8928ZM345.123 49.5728V50.5728H347.271L345.888 48.9288L345.123 49.5728ZM333.212 48.985L323.012 34.945L321.394 36.1205L331.594 50.1605L333.212 48.985ZM321.203 35.5328V49.5728H323.203V35.5328H321.203ZM322.203 48.5728H311.943V50.5728H322.203V48.5728ZM312.943 49.5728V5.17275H310.943V49.5728H312.943ZM311.943 6.17275H322.203V4.17275H311.943V6.17275ZM321.203 5.17275V29.7128H323.203V5.17275H321.203ZM323.005 30.3099L333.145 16.6899L331.541 15.4956L321.401 29.1156L323.005 30.3099ZM332.343 17.0928H345.003V15.0928H332.343V17.0928ZM344.233 15.4547L330.313 32.2547L331.853 33.5308L345.773 16.7308L344.233 15.4547ZM330.318 33.5367L344.358 50.2167L345.888 48.9288L331.848 32.2488L330.318 33.5367ZM345.123 48.5728H332.403V50.5728H345.123V48.5728ZM399.427 49.5728V50.5728H400.427V49.5728H399.427ZM389.167 49.5728L388.333 50.1239L388.629 50.5728H389.167V49.5728ZM372.007 23.5928L372.842 23.0416L371.007 20.2643V23.5928H372.007ZM372.007 49.5728V50.5728H373.007V49.5728H372.007ZM361.747 49.5728H360.747V50.5728H361.747V49.5728ZM361.747 7.45275V6.45275H360.747V7.45275H361.747ZM372.007 7.45275L372.843 6.90338L372.547 6.45275H372.007V7.45275ZM389.167 33.5528L388.332 34.1021L390.167 36.894V33.5528H389.167ZM389.167 7.45275V6.45275H388.167V7.45275H389.167ZM399.427 7.45275H400.427V6.45275H399.427V7.45275ZM399.427 48.5728H389.167V50.5728H399.427V48.5728ZM390.002 49.0216L372.842 23.0416L371.173 24.1439L388.333 50.1239L390.002 49.0216ZM371.007 23.5928V49.5728H373.007V23.5928H371.007ZM372.007 48.5728H361.747V50.5728H372.007V48.5728ZM362.747 49.5728V7.45275H360.747V49.5728H362.747ZM361.747 8.45275H372.007V6.45275H361.747V8.45275ZM371.172 8.00212L388.332 34.1021L390.003 33.0034L372.843 6.90338L371.172 8.00212ZM390.167 33.5528V7.45275H388.167V33.5528H390.167ZM389.167 8.45275H399.427V6.45275H389.167V8.45275ZM398.427 7.45275V49.5728H400.427V7.45275H398.427ZM438.245 35.2928V36.2928H439.136L439.238 35.4074L438.245 35.2928ZM415.025 35.2928V34.2928H413.945L414.027 35.3694L415.025 35.2928ZM417.005 40.0928L416.31 40.8122L416.323 40.8243L416.336 40.836L417.005 40.0928ZM426.725 38.4728V37.4728H426.086L425.817 38.0526L426.725 38.4728ZM437.645 38.4728L438.614 38.7194L438.931 37.4728H437.645V38.4728ZM434.585 44.4128L433.819 43.7691L433.811 43.7795L434.585 44.4128ZM429.125 48.5528L429.538 49.4631L429.125 48.5528ZM412.985 47.9528L412.505 48.8301L412.505 48.8301L412.985 47.9528ZM406.985 41.9528L407.859 41.4683L407.859 41.4683L406.985 41.9528ZM406.925 23.7128L406.05 23.2282L406.044 23.2387L406.925 23.7128ZM412.925 17.7128L413.404 18.5901L413.404 18.5901L412.925 17.7128ZM430.385 17.6528L429.91 18.5328L429.91 18.5328L430.385 17.6528ZM436.265 23.4728L435.39 23.9584L435.396 23.9689L436.265 23.4728ZM427.925 29.5928V30.5928H428.925V29.5928H427.925ZM426.125 25.3928L426.779 24.6371L426.779 24.6371L426.125 25.3928ZM417.245 25.3328L416.604 24.5645L416.598 24.5699L416.592 24.5753L417.245 25.3328ZM415.085 29.5928L414.096 29.4423L413.921 30.5928H415.085V29.5928ZM437.425 32.2928C437.425 33.2112 437.367 34.1728 437.251 35.1781L439.238 35.4074C439.362 34.3327 439.425 33.2943 439.425 32.2928H437.425ZM438.245 34.2928H415.025V36.2928H438.245V34.2928ZM414.027 35.3694C414.201 37.6199 414.927 39.4771 416.31 40.8122L417.699 39.3734C416.762 38.4684 416.168 37.1256 416.022 35.2161L414.027 35.3694ZM416.336 40.836C417.732 42.0927 419.435 42.7128 421.385 42.7128V40.7128C419.894 40.7128 418.677 40.2528 417.673 39.3495L416.336 40.836ZM421.385 42.7128C422.806 42.7128 424.08 42.4122 425.158 41.7577C426.242 41.1004 427.061 40.1266 427.632 38.8929L425.817 38.0526C425.388 38.9789 424.817 39.6251 424.121 40.0478C423.42 40.4733 422.524 40.7128 421.385 40.7128V42.7128ZM426.725 39.4728H437.645V37.4728H426.725V39.4728ZM436.675 38.2261C436.153 40.2782 435.204 42.1229 433.819 43.7692L435.35 45.0564C436.926 43.1826 438.016 41.0673 438.614 38.7194L436.675 38.2261ZM433.811 43.7795C432.474 45.4133 430.78 46.7018 428.711 47.6424L429.538 49.4631C431.869 48.4037 433.815 46.9322 435.358 45.046L433.811 43.7795ZM428.711 47.6424C426.656 48.5763 424.34 49.0528 421.745 49.0528V51.0528C424.589 51.0528 427.193 50.5292 429.538 49.4631L428.711 47.6424ZM421.745 49.0528C418.611 49.0528 415.86 48.3854 413.464 47.0754L412.505 48.8301C415.229 50.3202 418.318 51.0528 421.745 51.0528V49.0528ZM413.464 47.0754C411.074 45.7681 409.209 43.9058 407.859 41.4683L406.11 42.4373C407.64 45.1997 409.775 47.3375 412.505 48.8301L413.464 47.0754ZM407.859 41.4683C406.514 39.0401 405.825 36.1724 405.825 32.8328H403.825C403.825 36.4531 404.575 39.6654 406.11 42.4373L407.859 41.4683ZM405.825 32.8328C405.825 29.4887 406.496 26.6172 407.805 24.1869L406.044 23.2387C404.553 26.0083 403.825 29.2168 403.825 32.8328H405.825ZM407.799 24.1973C409.149 21.7597 411.014 19.8975 413.404 18.5901L412.445 16.8354C409.715 18.3281 407.58 20.4658 406.05 23.2283L407.799 24.1973ZM413.404 18.5901C415.798 17.2811 418.569 16.6128 421.745 16.6128V14.6128C418.28 14.6128 415.171 15.3444 412.445 16.8354L413.404 18.5901ZM421.745 16.6128C424.841 16.6128 427.554 17.2614 429.91 18.5328L430.859 16.7727C428.175 15.3241 425.128 14.6128 421.745 14.6128V16.6128ZM429.91 18.5328C432.26 19.8015 434.082 21.6041 435.39 23.9584L437.139 22.9871C435.647 20.3014 433.549 18.224 430.859 16.7727L429.91 18.5328ZM435.396 23.9689C436.737 26.3154 437.425 29.079 437.425 32.2928H439.425C439.425 28.7865 438.672 25.6701 437.133 22.9766L435.396 23.9689ZM428.925 29.5928C428.925 27.578 428.224 25.8889 426.779 24.6371L425.47 26.1484C426.425 26.9766 426.925 28.0875 426.925 29.5928H428.925ZM426.779 24.6371C425.373 23.4184 423.631 22.8328 421.625 22.8328V24.8328C423.218 24.8328 424.476 25.2871 425.47 26.1484L426.779 24.6371ZM421.625 22.8328C419.696 22.8328 418.003 23.3993 416.604 24.5645L417.885 26.101C418.886 25.2662 420.113 24.8328 421.625 24.8328V22.8328ZM416.592 24.5753C415.214 25.7628 414.404 27.4193 414.096 29.4423L416.073 29.7432C416.325 28.0862 416.955 26.9027 417.897 26.0902L416.592 24.5753ZM415.085 30.5928H427.925V28.5928H415.085V30.5928ZM463.637 49.5728L462.814 50.1409L463.112 50.5728H463.637V49.5728ZM457.217 40.2728L458.04 39.7046L457.144 38.4069L456.352 39.7706L457.217 40.2728ZM451.817 49.5728V50.5728H452.393L452.682 50.0749L451.817 49.5728ZM440.717 49.5728L439.877 49.0304L438.881 50.5728H440.717V49.5728ZM451.757 32.4728L452.597 33.0151L452.96 32.4533L452.579 31.9035L451.757 32.4728ZM440.417 16.0928V15.0928H438.509L439.595 16.662L440.417 16.0928ZM451.937 16.0928L452.758 15.5222L452.46 15.0928H451.937V16.0928ZM458.357 25.3328L457.536 25.9033L458.43 27.1901L459.221 25.8373L458.357 25.3328ZM463.757 16.0928V15.0928H463.183L462.894 15.5882L463.757 16.0928ZM474.857 16.0928L475.69 16.6468L476.724 15.0928H474.857V16.0928ZM463.637 32.9528L462.805 32.3987L462.428 32.9642L462.815 33.5224L463.637 32.9528ZM475.157 49.5728V50.5728H477.067L475.979 49.0031L475.157 49.5728ZM464.46 49.0046L458.04 39.7046L456.394 40.8409L462.814 50.1409L464.46 49.0046ZM456.352 39.7706L450.952 49.0706L452.682 50.0749L458.082 40.7749L456.352 39.7706ZM451.817 48.5728H440.717V50.5728H451.817V48.5728ZM441.557 50.1151L452.597 33.0151L450.917 31.9304L439.877 49.0304L441.557 50.1151ZM452.579 31.9035L441.239 15.5235L439.595 16.662L450.935 33.042L452.579 31.9035ZM440.417 17.0928H451.937V15.0928H440.417V17.0928ZM451.116 16.6633L457.536 25.9033L459.178 24.7622L452.758 15.5222L451.116 16.6633ZM459.221 25.8373L464.621 16.5973L462.894 15.5882L457.494 24.8282L459.221 25.8373ZM463.757 17.0928H474.857V15.0928H463.757V17.0928ZM474.025 15.5387L462.805 32.3987L464.47 33.5068L475.69 16.6468L474.025 15.5387ZM462.815 33.5224L474.335 50.1424L475.979 49.0031L464.459 32.3831L462.815 33.5224ZM475.157 48.5728H463.637V50.5728H475.157V48.5728ZM497.771 40.8728H498.771V39.8728H497.771V40.8728ZM497.771 49.5728V50.5728H498.771V49.5728H497.771ZM483.851 46.8728L483.188 47.6218L483.196 47.6289L483.851 46.8728ZM480.731 24.6128H481.731V23.6128H480.731V24.6128ZM476.651 24.6128H475.651V25.6128H476.651V24.6128ZM476.651 16.0928V15.0928H475.651V16.0928H476.651ZM480.731 16.0928V17.0928H481.731V16.0928H480.731ZM480.731 7.93275V6.93275H479.731V7.93275H480.731ZM490.991 7.93275H491.991V6.93275H490.991V7.93275ZM490.991 16.0928H489.991V17.0928H490.991V16.0928ZM497.711 16.0928H498.711V15.0928H497.711V16.0928ZM497.711 24.6128V25.6128H498.711V24.6128H497.711ZM490.991 24.6128V23.6128H489.991V24.6128H490.991ZM491.711 40.2128L491.035 40.9499L491.035 40.9499L491.711 40.2128ZM496.771 40.8728V49.5728H498.771V40.8728H496.771ZM497.771 48.5728H492.551V50.5728H497.771V48.5728ZM492.551 48.5728C488.986 48.5728 486.348 47.7113 484.505 46.1166L483.196 47.6289C485.513 49.6342 488.676 50.5728 492.551 50.5728V48.5728ZM484.513 46.1238C482.734 44.55 481.731 41.9065 481.731 37.9328H479.731C479.731 42.199 480.807 45.5155 483.188 47.6218L484.513 46.1238ZM481.731 37.9328V24.6128H479.731V37.9328H481.731ZM480.731 23.6128H476.651V25.6128H480.731V23.6128ZM477.651 24.6128V16.0928H475.651V24.6128H477.651ZM476.651 17.0928H480.731V15.0928H476.651V17.0928ZM481.731 16.0928V7.93275H479.731V16.0928H481.731ZM480.731 8.93275H490.991V6.93275H480.731V8.93275ZM489.991 7.93275V16.0928H491.991V7.93275H489.991ZM490.991 17.0928H497.711V15.0928H490.991V17.0928ZM496.711 16.0928V24.6128H498.711V16.0928H496.711ZM497.711 23.6128H490.991V25.6128H497.711V23.6128ZM489.991 24.6128V38.0528H491.991V24.6128H489.991ZM489.991 38.0528C489.991 39.1841 490.259 40.239 491.035 40.9499L492.386 39.4756C492.202 39.3065 491.991 38.9215 491.991 38.0528H489.991ZM491.035 40.9499C491.793 41.6449 492.906 41.8728 494.111 41.8728V39.8728C493.075 39.8728 492.588 39.6606 492.386 39.4756L491.035 40.9499ZM494.111 41.8728H497.771V39.8728H494.111V41.8728ZM546.5 7.45275H547.5V6.45275H546.5V7.45275ZM546.5 15.6728V16.6728H547.5V15.6728H546.5ZM535.34 15.6728V14.6728H534.34V15.6728H535.34ZM535.34 49.5728V50.5728H536.34V49.5728H535.34ZM525.08 49.5728H524.08V50.5728H525.08V49.5728ZM525.08 15.6728H526.08V14.6728H525.08V15.6728ZM513.92 15.6728H512.92V16.6728H513.92V15.6728ZM513.92 7.45275V6.45275H512.92V7.45275H513.92ZM545.5 7.45275V15.6728H547.5V7.45275H545.5ZM546.5 14.6728H535.34V16.6728H546.5V14.6728ZM534.34 15.6728V49.5728H536.34V15.6728H534.34ZM535.34 48.5728H525.08V50.5728H535.34V48.5728ZM526.08 49.5728V15.6728H524.08V49.5728H526.08ZM525.08 14.6728H513.92V16.6728H525.08V14.6728ZM514.92 15.6728V7.45275H512.92V15.6728H514.92ZM513.92 8.45275H546.5V6.45275H513.92V8.45275ZM552.37 11.0528L551.676 11.7726L551.689 11.7852L551.702 11.7973L552.37 11.0528ZM552.37 3.13275L553.05 3.86554L553.051 3.86464L552.37 3.13275ZM561.13 3.13275L560.436 3.8526L560.449 3.8652L560.462 3.87732L561.13 3.13275ZM561.13 11.0528L561.81 11.7855L561.811 11.7846L561.13 11.0528ZM561.91 16.0928H562.91V15.0928H561.91V16.0928ZM561.91 49.5728V50.5728H562.91V49.5728H561.91ZM551.65 49.5728H550.65V50.5728H551.65V49.5728ZM551.65 16.0928V15.0928H550.65V16.0928H551.65ZM556.81 11.6128C555.215 11.6128 553.986 11.1584 553.037 10.3082L551.702 11.7973C553.074 13.0271 554.804 13.6128 556.81 13.6128V11.6128ZM553.064 10.3329C552.14 9.44194 551.69 8.38204 551.69 7.09275H549.69C549.69 8.92346 550.36 10.5036 551.676 11.7726L553.064 10.3329ZM551.69 7.09275C551.69 5.75614 552.144 4.70657 553.05 3.86554L551.689 2.39996C550.355 3.63894 549.69 5.22937 549.69 7.09275H551.69ZM553.051 3.86464C554.001 2.98058 555.226 2.51275 556.81 2.51275V0.51275C554.794 0.51275 553.059 1.12492 551.688 2.40086L553.051 3.86464ZM556.81 2.51275C558.348 2.51275 559.527 2.97635 560.436 3.8526L561.824 2.41291C560.493 1.12915 558.792 0.51275 556.81 0.51275V2.51275ZM560.462 3.87732C561.404 4.72188 561.87 5.76816 561.87 7.09275H563.87C563.87 5.21734 563.175 3.62362 561.797 2.38818L560.462 3.87732ZM561.87 7.09275C561.87 8.37015 561.409 9.42659 560.448 10.3209L561.811 11.7846C563.171 10.5189 563.87 8.93536 563.87 7.09275H561.87ZM560.449 10.32C559.542 11.1622 558.358 11.6128 556.81 11.6128V13.6128C558.781 13.6128 560.477 13.0233 561.81 11.7855L560.449 10.32ZM560.91 16.0928V49.5728H562.91V16.0928H560.91ZM561.91 48.5728H551.65V50.5728H561.91V48.5728ZM552.65 49.5728V16.0928H550.65V49.5728H552.65ZM551.65 17.0928H561.91V15.0928H551.65V17.0928ZM621.965 19.5128L621.247 20.2084L621.252 20.2142L621.965 19.5128ZM625.685 49.5728V50.5728H626.685V49.5728H625.685ZM615.485 49.5728H614.485V50.5728H615.485V49.5728ZM613.745 26.4128L613.014 27.0951L613.026 27.1077L613.038 27.1199L613.745 26.4128ZM604.325 26.4128L603.606 25.7177L603.606 25.7182L604.325 26.4128ZM602.645 49.5728V50.5728H603.645V49.5728H602.645ZM592.445 49.5728H591.445V50.5728H592.445V49.5728ZM590.705 26.4128L589.974 27.0951L589.986 27.1077L589.998 27.1199L590.705 26.4128ZM581.285 26.4128L580.566 25.7177L580.566 25.7182L581.285 26.4128ZM579.605 49.5728V50.5728H580.605V49.5728H579.605ZM569.345 49.5728H568.345V50.5728H569.345V49.5728ZM569.345 16.0928V15.0928H568.345V16.0928H569.345ZM579.605 16.0928H580.605V15.0928H579.605V16.0928ZM579.605 20.2928H578.605V23.3158L580.408 20.8891L579.605 20.2928ZM583.685 16.9928L584.115 17.8956L584.124 17.8915L584.132 17.8872L583.685 16.9928ZM596.105 17.3528L595.622 18.2286L595.63 18.2327L596.105 17.3528ZM600.785 21.9728L599.912 22.4614L600.734 23.9286L601.631 22.5061L600.785 21.9728ZM605.525 17.4728L605.023 16.6077L605.525 17.4728ZM612.065 16.7328C616.009 16.7328 619.03 17.9188 621.247 20.2084L622.683 18.8171C620.02 16.0667 616.441 14.7328 612.065 14.7328V16.7328ZM621.252 20.2142C623.502 22.5005 624.685 25.7217 624.685 30.0128H626.685C626.685 25.3438 625.388 21.565 622.678 18.8113L621.252 20.2142ZM624.685 30.0128V49.5728H626.685V30.0128H624.685ZM625.685 48.5728H615.485V50.5728H625.685V48.5728ZM616.485 49.5728V31.3928H614.485V49.5728H616.485ZM616.485 31.3928C616.485 29.0547 615.853 27.1069 614.452 25.7056L613.038 27.1199C613.957 28.0386 614.485 29.4108 614.485 31.3928H616.485ZM614.476 25.7304C613.127 24.2846 611.277 23.6128 609.065 23.6128V25.6128C610.853 25.6128 612.123 26.1409 613.014 27.0951L614.476 25.7304ZM609.065 23.6128C606.852 23.6128 604.991 24.2848 603.606 25.7177L605.044 27.1078C605.979 26.1407 607.278 25.6128 609.065 25.6128V23.6128ZM603.606 25.7182C602.251 27.1207 601.645 29.0639 601.645 31.3928H603.645C603.645 29.4016 604.159 28.0248 605.044 27.1073L603.606 25.7182ZM601.645 31.3928V49.5728H603.645V31.3928H601.645ZM602.645 48.5728H592.445V50.5728H602.645V48.5728ZM593.445 49.5728V31.3928H591.445V49.5728H593.445ZM593.445 31.3928C593.445 29.0547 592.813 27.1069 591.412 25.7056L589.998 27.1199C590.917 28.0386 591.445 29.4108 591.445 31.3928H593.445ZM591.436 25.7304C590.087 24.2846 588.237 23.6128 586.025 23.6128V25.6128C587.813 25.6128 589.083 26.1409 589.974 27.0951L591.436 25.7304ZM586.025 23.6128C583.812 23.6128 581.951 24.2848 580.566 25.7177L582.004 27.1078C582.939 26.1407 584.238 25.6128 586.025 25.6128V23.6128ZM580.566 25.7182C579.211 27.1207 578.605 29.0639 578.605 31.3928H580.605C580.605 29.4016 581.119 28.0248 582.004 27.1073L580.566 25.7182ZM578.605 31.3928V49.5728H580.605V31.3928H578.605ZM579.605 48.5728H569.345V50.5728H579.605V48.5728ZM570.345 49.5728V16.0928H568.345V49.5728H570.345ZM569.345 17.0928H579.605V15.0928H569.345V17.0928ZM578.605 16.0928V20.2928H580.605V16.0928H578.605ZM580.408 20.8891C581.344 19.6289 582.572 18.6302 584.115 17.8956L583.255 16.0899C581.438 16.9553 579.946 18.1566 578.802 19.6964L580.408 20.8891ZM584.132 17.8872C585.656 17.1251 587.4 16.7328 589.385 16.7328V14.7328C587.13 14.7328 585.074 15.1804 583.238 16.0983L584.132 17.8872ZM589.385 16.7328C591.758 16.7328 593.828 17.2399 595.622 18.2286L596.588 16.4769C594.462 15.3056 592.052 14.7328 589.385 14.7328V16.7328ZM595.63 18.2327C597.461 19.2217 598.884 20.6253 599.912 22.4614L601.658 21.4842C600.446 19.3202 598.749 17.6438 596.58 16.4728L595.63 18.2327ZM601.631 22.5061C602.699 20.8114 604.158 19.4219 606.027 18.3378L605.023 16.6077C602.892 17.8436 601.191 19.4541 599.939 21.4395L601.631 22.5061ZM606.027 18.3378C607.871 17.2681 609.877 16.7328 612.065 16.7328V14.7328C609.533 14.7328 607.179 15.3574 605.023 16.6077L606.027 18.3378ZM664.241 35.2928V36.2928H665.132L665.234 35.4074L664.241 35.2928ZM641.021 35.2928V34.2928H639.941L640.024 35.3694L641.021 35.2928ZM643.001 40.0928L642.306 40.8122L642.319 40.8243L642.332 40.836L643.001 40.0928ZM652.721 38.4728V37.4728H652.082L651.813 38.0526L652.721 38.4728ZM663.641 38.4728L664.61 38.7194L664.927 37.4728H663.641V38.4728ZM660.581 44.4128L659.815 43.7691L659.807 43.7795L660.581 44.4128ZM655.121 48.5528L655.534 49.4631L655.121 48.5528ZM638.981 47.9528L638.501 48.8301L638.501 48.8301L638.981 47.9528ZM632.981 41.9528L633.855 41.4683L633.855 41.4683L632.981 41.9528ZM632.921 23.7128L632.046 23.2282L632.04 23.2387L632.921 23.7128ZM638.921 17.7128L639.4 18.5901L639.4 18.5901L638.921 17.7128ZM656.381 17.6528L655.906 18.5328L655.906 18.5328L656.381 17.6528ZM662.261 23.4728L661.386 23.9584L661.392 23.9689L662.261 23.4728ZM653.921 29.5928V30.5928H654.921V29.5928H653.921ZM652.121 25.3928L652.776 24.6371L652.776 24.6371L652.121 25.3928ZM643.241 25.3328L642.6 24.5645L642.594 24.5699L642.588 24.5753L643.241 25.3328ZM641.081 29.5928L640.092 29.4423L639.917 30.5928H641.081V29.5928ZM663.421 32.2928C663.421 33.2112 663.363 34.1728 663.247 35.1781L665.234 35.4074C665.358 34.3327 665.421 33.2943 665.421 32.2928H663.421ZM664.241 34.2928H641.021V36.2928H664.241V34.2928ZM640.024 35.3694C640.197 37.6199 640.923 39.4771 642.306 40.8122L643.695 39.3734C642.758 38.4684 642.165 37.1256 642.018 35.2161L640.024 35.3694ZM642.332 40.836C643.728 42.0927 645.431 42.7128 647.381 42.7128V40.7128C645.89 40.7128 644.673 40.2528 643.67 39.3495L642.332 40.836ZM647.381 42.7128C648.802 42.7128 650.076 42.4122 651.154 41.7577C652.238 41.1004 653.057 40.1266 653.628 38.8929L651.813 38.0526C651.384 38.9789 650.814 39.6251 650.117 40.0478C649.416 40.4733 648.52 40.7128 647.381 40.7128V42.7128ZM652.721 39.4728H663.641V37.4728H652.721V39.4728ZM662.672 38.2261C662.149 40.2782 661.2 42.1229 659.815 43.7692L661.346 45.0564C662.922 43.1826 664.012 41.0673 664.61 38.7194L662.672 38.2261ZM659.807 43.7795C658.47 45.4133 656.776 46.7018 654.707 47.6424L655.534 49.4631C657.865 48.4037 659.811 46.9322 661.355 45.046L659.807 43.7795ZM654.707 47.6424C652.652 48.5763 650.336 49.0528 647.741 49.0528V51.0528C650.585 51.0528 653.189 50.5292 655.534 49.4631L654.707 47.6424ZM647.741 49.0528C644.607 49.0528 641.856 48.3854 639.46 47.0754L638.501 48.8301C641.225 50.3202 644.314 51.0528 647.741 51.0528V49.0528ZM639.46 47.0754C637.07 45.7681 635.205 43.9058 633.855 41.4683L632.106 42.4373C633.636 45.1997 635.771 47.3375 638.501 48.8301L639.46 47.0754ZM633.855 41.4683C632.511 39.0401 631.821 36.1724 631.821 32.8328H629.821C629.821 36.4531 630.571 39.6654 632.106 42.4373L633.855 41.4683ZM631.821 32.8328C631.821 29.4887 632.492 26.6172 633.801 24.1869L632.04 23.2387C630.549 26.0083 629.821 29.2168 629.821 32.8328H631.821ZM633.795 24.1973C635.145 21.7597 637.01 19.8975 639.4 18.5901L638.441 16.8354C635.711 18.3281 633.576 20.4658 632.046 23.2283L633.795 24.1973ZM639.4 18.5901C641.794 17.2811 644.565 16.6128 647.741 16.6128V14.6128C644.276 14.6128 641.167 15.3444 638.441 16.8354L639.4 18.5901ZM647.741 16.6128C650.837 16.6128 653.55 17.2614 655.906 18.5328L656.856 16.7727C654.171 15.3241 651.124 14.6128 647.741 14.6128V16.6128ZM655.906 18.5328C658.257 19.8015 660.079 21.6041 661.386 23.9584L663.135 22.9871C661.643 20.3014 659.545 18.224 656.856 16.7727L655.906 18.5328ZM661.392 23.9689C662.733 26.3154 663.421 29.079 663.421 32.2928H665.421C665.421 28.7865 664.668 25.6701 663.129 22.9766L661.392 23.9689ZM654.921 29.5928C654.921 27.578 654.22 25.8889 652.776 24.6371L651.466 26.1484C652.421 26.9766 652.921 28.0875 652.921 29.5928H654.921ZM652.776 24.6371C651.369 23.4184 649.627 22.8328 647.621 22.8328V24.8328C649.214 24.8328 650.472 25.2871 651.466 26.1484L652.776 24.6371ZM647.621 22.8328C645.692 22.8328 643.999 23.3993 642.6 24.5645L643.881 26.101C644.883 25.2662 646.109 24.8328 647.621 24.8328V22.8328ZM642.588 24.5753C641.21 25.7628 640.4 27.4193 640.092 29.4423L642.069 29.7432C642.321 28.0862 642.951 26.9027 643.894 26.0902L642.588 24.5753ZM641.081 30.5928H653.921V28.5928H641.081V30.5928Z" fill="black" mask="url(#path-1-outside-1_173_3627)"/>
</g>
<defs>
<filter id="filter0_d_173_3627" x="0.966309" y="0.512695" width="668.454" height="58.54" filterUnits="userSpaceOnUse" color-interpolation-filters="sRGB">
<feFlood flood-opacity="0" result="BackgroundImageFix"/>
<feColorMatrix in="SourceAlpha" type="matrix" values="0 0 0 0 0 0 0 0 0 0 0 0 0 0 0 0 0 0 127 0" result="hardAlpha"/>
<feOffset dy="4"/>
<feGaussianBlur stdDeviation="2"/>
<feComposite in2="hardAlpha" operator="out"/>
<feColorMatrix type="matrix" values="0 0 0 0 0 0 0 0 0 0 0 0 0 0 0 0 0 0 0.25 0"/>
<feBlend mode="normal" in2="BackgroundImageFix" result="effect1_dropShadow_173_3627"/>
<feBlend mode="normal" in="SourceGraphic" in2="effect1_dropShadow_173_3627" result="shape"/>
</filter>
</defs>
</svg>
