<svg width="188" height="20" viewBox="0 0 188 20" fill="none" xmlns="http://www.w3.org/2000/svg">
<path d="M17.2477 19.5728H12.7865L5.32491 8.27607V19.5728H0.863632V1.25804H5.32491L12.7865 12.6069V1.25804H17.2477V19.5728ZM29.1432 19.7554C27.4213 19.7554 25.8386 19.3553 24.395 18.5553C22.9688 17.7552 21.8295 16.6421 20.9773 15.2158C20.1424 13.7722 19.725 12.1547 19.725 10.3632C19.725 8.57175 20.1424 6.96291 20.9773 5.53669C21.8295 4.11048 22.9688 2.99733 24.395 2.19726C25.8386 1.39719 27.4213 0.997149 29.1432 0.997149C30.8651 0.997149 32.4392 1.39719 33.8654 2.19726C35.309 2.99733 36.4396 4.11048 37.257 5.53669C38.0919 6.96291 38.5093 8.57175 38.5093 10.3632C38.5093 12.1547 38.0919 13.7722 37.257 15.2158C36.4222 16.6421 35.2916 17.7552 33.8654 18.5553C32.4392 19.3553 30.8651 19.7554 29.1432 19.7554ZM29.1432 15.6854C30.6042 15.6854 31.7696 15.1984 32.6392 14.2244C33.5263 13.2504 33.9698 11.9634 33.9698 10.3632C33.9698 8.74568 33.5263 7.45861 32.6392 6.502C31.7696 5.528 30.6042 5.04099 29.1432 5.04099C27.6648 5.04099 26.4821 5.5193 25.5951 6.47591C24.7255 7.43252 24.2906 8.72829 24.2906 10.3632C24.2906 11.9808 24.7255 13.2765 25.5951 14.2505C26.4821 15.2071 27.6648 15.6854 29.1432 15.6854ZM53.1467 19.7554C51.8074 19.7554 50.6073 19.538 49.5463 19.1031C48.4854 18.6683 47.6331 18.0248 46.9896 17.1725C46.3634 16.3203 46.033 15.2941 45.9982 14.094H50.7464C50.816 14.7723 51.0508 15.2941 51.4508 15.6594C51.8509 16.0072 52.3727 16.1811 53.0162 16.1811C53.6771 16.1811 54.1989 16.0333 54.5816 15.7376C54.9642 15.4245 55.1555 14.9984 55.1555 14.4592C55.1555 14.007 54.999 13.6331 54.6859 13.3374C54.3902 13.0417 54.0163 12.7982 53.5641 12.6069C53.1293 12.4156 52.5031 12.1982 51.6857 11.9547C50.5029 11.5894 49.5376 11.2242 48.7897 10.8589C48.0418 10.4937 47.3983 9.95449 46.8591 9.24138C46.3199 8.52827 46.0504 7.59775 46.0504 6.44982C46.0504 4.74532 46.6678 3.41476 47.9027 2.45815C49.1376 1.48415 50.7464 0.997149 52.7292 0.997149C54.7468 0.997149 56.373 1.48415 57.6079 2.45815C58.8428 3.41476 59.5038 4.75401 59.5907 6.47591H54.7642C54.7294 5.88455 54.512 5.42364 54.112 5.09317C53.7119 4.74532 53.1988 4.57139 52.5727 4.57139C52.0335 4.57139 51.5987 4.71923 51.2682 5.01491C50.9378 5.29319 50.7725 5.70192 50.7725 6.2411C50.7725 6.83246 51.0508 7.29337 51.6074 7.62384C52.164 7.9543 53.0336 8.31086 54.2163 8.6935C55.399 9.09354 56.3556 9.47618 57.0861 9.84143C57.834 10.2067 58.4776 10.7372 59.0168 11.4329C59.5559 12.1286 59.8255 13.0243 59.8255 14.1201C59.8255 15.1637 59.5559 16.1116 59.0168 16.9638C58.495 17.8161 57.7297 18.4944 56.7209 18.9988C55.7121 19.5032 54.5207 19.7554 53.1467 19.7554ZM70.6848 15.7898V19.5728H68.415C66.7975 19.5728 65.5365 19.1814 64.6321 18.3987C63.7276 17.5987 63.2754 16.3029 63.2754 14.5114V8.71959H61.5014V5.01491H63.2754V1.46676H67.7367V5.01491H70.6587V8.71959H67.7367V14.5636C67.7367 14.9984 67.8411 15.3115 68.0498 15.5028C68.2585 15.6941 68.6064 15.7898 69.0934 15.7898H70.6848ZM79.7965 19.7815C78.3703 19.7815 77.0832 19.4771 75.9353 18.8683C74.8047 18.2596 73.909 17.3899 73.2481 16.2594C72.6045 15.1289 72.2828 13.807 72.2828 12.2938C72.2828 10.798 72.6132 9.48488 73.2742 8.35434C73.9351 7.20641 74.8395 6.32807 75.9875 5.71932C77.1354 5.11057 78.4225 4.80619 79.8487 4.80619C81.2749 4.80619 82.562 5.11057 83.7099 5.71932C84.8578 6.32807 85.7623 7.20641 86.4232 8.35434C87.0841 9.48488 87.4146 10.798 87.4146 12.2938C87.4146 13.7896 87.0754 15.1115 86.3971 16.2594C85.7362 17.3899 84.823 18.2596 83.6577 18.8683C82.5098 19.4771 81.2227 19.7815 79.7965 19.7815ZM79.7965 15.9202C80.6487 15.9202 81.3706 15.6072 81.9619 14.981C82.5707 14.3549 82.875 13.4592 82.875 12.2938C82.875 11.1285 82.5794 10.2328 81.988 9.60663C81.414 8.98048 80.7009 8.66741 79.8487 8.66741C78.979 8.66741 78.2572 8.98048 77.6833 9.60663C77.1093 10.2154 76.8223 11.1111 76.8223 12.2938C76.8223 13.4592 77.1006 14.3549 77.6572 14.981C78.2311 15.6072 78.9442 15.9202 79.7965 15.9202ZM88.8943 12.2938C88.8943 10.7806 89.1987 9.45879 89.8075 8.32825C90.4336 7.19771 91.2946 6.32807 92.3903 5.71932C93.5035 5.11057 94.7731 4.80619 96.1993 4.80619C98.0256 4.80619 99.5475 5.2845 100.765 6.2411C102 7.19771 102.809 8.54566 103.191 10.285H98.443C98.043 9.17181 97.269 8.61523 96.1211 8.61523C95.3036 8.61523 94.6514 8.937 94.1644 9.58054C93.6774 10.2067 93.4339 11.1111 93.4339 12.2938C93.4339 13.4765 93.6774 14.3897 94.1644 15.0332C94.6514 15.6594 95.3036 15.9724 96.1211 15.9724C97.269 15.9724 98.043 15.4159 98.443 14.3027H103.191C102.809 16.0072 102 17.3465 100.765 18.3205C99.5301 19.2945 98.0082 19.7815 96.1993 19.7815C94.7731 19.7815 93.5035 19.4771 92.3903 18.8683C91.2946 18.2596 90.4336 17.3899 89.8075 16.2594C89.1987 15.1289 88.8943 13.807 88.8943 12.2938ZM114.474 19.5728L110.039 13.4678V19.5728H105.578V0.266648H110.039V10.9372L114.448 5.01491H119.953L113.9 12.3199L120.005 19.5728H114.474ZM143.096 1.25804V19.5728H138.635V12.0329H131.695V19.5728H127.234V1.25804H131.695V8.43261H138.635V1.25804H143.096ZM160.04 12.059C160.04 12.4765 160.014 12.9113 159.961 13.3635H149.865C149.934 14.2679 150.221 14.9636 150.726 15.4506C151.248 15.9202 151.882 16.1551 152.63 16.1551C153.744 16.1551 154.518 15.6854 154.952 14.7462H159.701C159.457 15.7028 159.014 16.5638 158.37 17.3291C157.744 18.0944 156.953 18.6944 155.996 19.1292C155.039 19.5641 153.97 19.7815 152.787 19.7815C151.361 19.7815 150.091 19.4771 148.978 18.8683C147.865 18.2596 146.995 17.3899 146.369 16.2594C145.743 15.1289 145.43 13.807 145.43 12.2938C145.43 10.7806 145.734 9.45879 146.343 8.32825C146.969 7.19771 147.839 6.32807 148.952 5.71932C150.065 5.11057 151.343 4.80619 152.787 4.80619C154.196 4.80619 155.448 5.10187 156.544 5.69323C157.64 6.28459 158.492 7.12814 159.101 8.22389C159.727 9.31965 160.04 10.598 160.04 12.059ZM155.474 10.885C155.474 10.1197 155.213 9.51097 154.691 9.05875C154.17 8.60654 153.517 8.38043 152.735 8.38043C151.987 8.38043 151.352 8.59784 150.83 9.03266C150.326 9.46749 150.013 10.0849 149.891 10.885H155.474ZM166.855 7.44121C167.376 6.64114 168.029 6.015 168.811 5.56278C169.594 5.09317 170.464 4.85837 171.42 4.85837V9.58054H170.194C169.081 9.58054 168.246 9.82404 167.689 10.311C167.133 10.7806 166.855 11.6155 166.855 12.8156V19.5728H162.393V5.01491H166.855V7.44121ZM187.276 12.059C187.276 12.4765 187.249 12.9113 187.197 13.3635H177.101C177.17 14.2679 177.457 14.9636 177.962 15.4506C178.483 15.9202 179.118 16.1551 179.866 16.1551C180.979 16.1551 181.753 15.6854 182.188 14.7462H186.936C186.693 15.7028 186.249 16.5638 185.606 17.3291C184.98 18.0944 184.188 18.6944 183.232 19.1292C182.275 19.5641 181.205 19.7815 180.023 19.7815C178.597 19.7815 177.327 19.4771 176.214 18.8683C175.101 18.2596 174.231 17.3899 173.605 16.2594C172.979 15.1289 172.666 13.807 172.666 12.2938C172.666 10.7806 172.97 9.45879 173.579 8.32825C174.205 7.19771 175.074 6.32807 176.188 5.71932C177.301 5.11057 178.579 4.80619 180.023 4.80619C181.432 4.80619 182.684 5.10187 183.78 5.69323C184.875 6.28459 185.728 7.12814 186.336 8.22389C186.963 9.31965 187.276 10.598 187.276 12.059ZM182.71 10.885C182.71 10.1197 182.449 9.51097 181.927 9.05875C181.405 8.60654 180.753 8.38043 179.971 8.38043C179.223 8.38043 178.588 8.59784 178.066 9.03266C177.562 9.46749 177.249 10.0849 177.127 10.885H182.71Z" fill="#438059"/>
</svg>
