<svg width="183" height="12" viewBox="0 0 183 12" fill="none" xmlns="http://www.w3.org/2000/svg">
<path d="M134.23 10.6044C133.689 10.6053 133.151 10.6062 132.625 10.6034C132.628 9.42936 132.625 8.25859 132.622 7.0894C132.617 5.01811 132.612 2.9518 132.638 0.881314C133.365 0.891477 134.098 0.888411 134.826 0.885366C135.275 0.88349 135.722 0.881623 136.164 0.88286C136.205 4.12016 136.189 7.36677 136.15 10.6074C135.518 10.6022 134.873 10.6033 134.23 10.6044Z" fill="white" stroke="white"/>
<path d="M5.39089 8.66154L5.40385 8.67457L5.41774 8.68661C6.30089 9.45244 7.50501 9.47332 8.38931 9.48865C8.40453 9.48892 8.41965 9.48918 8.43468 9.48944L8.43468 9.48952L8.44363 9.48952C12.6923 9.48816 16.9409 9.48816 21.19 9.48816H21.1989C25.2788 9.48816 29.3591 9.48817 33.4401 9.48696C33.4405 9.77226 33.4403 10.0575 33.439 10.3431C29.7442 10.3394 26.05 10.3407 22.3562 10.3421C16.7171 10.3441 11.0787 10.3462 5.43976 10.3301C3.25407 10.2933 1.05896 8.77447 0.826469 6.62558C0.774931 4.79447 0.784244 2.95682 0.809143 1.11494C1.57097 1.12519 2.33774 1.12378 3.10007 1.12238C3.56111 1.12153 4.02052 1.12068 4.47625 1.12242C4.47257 2.80324 4.47504 4.48587 4.47752 6.16743C4.47191 7.01725 4.71399 7.98131 5.39089 8.66154Z" fill="white" stroke="white"/>
<path d="M47.581 8.66944L47.5972 8.68595L47.6148 8.7009C48.4211 9.38544 49.4868 9.52231 50.3731 9.5113C53.695 9.50883 57.0182 9.50916 60.3417 9.5095C64.3312 9.5099 68.3211 9.51031 72.3095 9.50586L72.809 9.5053V9.00586C72.809 7.61035 72.8083 6.21486 72.8076 4.81952C72.807 3.5915 72.8064 2.3636 72.8063 1.13573C72.9337 1.13631 73.0613 1.13693 73.1889 1.13755C74.2812 1.14283 75.3797 1.14814 76.4773 1.13358C76.4939 3.20908 76.4909 5.28366 76.488 7.36066C76.4865 8.37064 76.4851 9.38118 76.4859 10.3927C71.4688 10.3668 66.4404 10.3707 61.4138 10.3746C56.8268 10.3782 52.2413 10.3818 47.6673 10.3627C45.4688 10.3129 43.2717 8.78812 43.0441 6.62658C43.005 5.16992 43.0133 3.71505 43.0216 2.25246C43.0237 1.88287 43.0258 1.51278 43.0272 1.14205C43.4871 1.14357 43.9431 1.14217 44.3973 1.14078C45.1697 1.13842 45.937 1.13607 46.7093 1.14812C46.6938 2.06672 46.6964 2.99124 46.6991 3.90969C46.701 4.57642 46.703 5.23995 46.6979 5.8957C46.6729 6.78901 46.8169 7.88857 47.581 8.66944Z" fill="white" stroke="white"/>
<path d="M99.7517 1.14178C106.744 1.13524 113.735 1.1287 120.725 1.15849C120.72 1.43414 120.717 1.7098 120.717 1.9857C114.046 1.99567 107.375 1.99269 100.703 1.98972C98.9944 1.98896 97.2856 1.98819 95.5769 1.98765V1.98756L95.5671 1.98774C95.4451 1.99009 95.316 1.9908 95.1824 1.99154C94.8098 1.99359 94.402 1.99584 94.0127 2.03432C93.4732 2.08765 92.9061 2.21354 92.3813 2.53068C91.3061 3.1205 90.9662 4.36637 90.9306 5.32961C90.8755 6.37881 90.9878 7.77043 91.9995 8.65245C92.8838 9.4278 94.0732 9.51115 95.0104 9.51115L95.0107 9.51115C101.562 9.50707 108.115 9.50758 114.668 9.50809C116.684 9.50824 118.699 9.5084 120.715 9.50842C120.715 9.7931 120.716 10.0776 120.718 10.362C114.899 10.3559 109.08 10.3575 103.26 10.359C99.519 10.3599 95.7778 10.3609 92.0369 10.3598C90.6441 10.331 89.2446 9.80285 88.2732 8.8364L88.2661 8.82932L88.2587 8.82252C86.7885 7.47279 86.5434 4.98086 87.6708 3.32942C88.6762 1.88247 90.5079 1.11408 92.3031 1.14704L92.3031 1.14713L92.3124 1.14713C94.7923 1.14643 97.272 1.14411 99.7517 1.14178Z" fill="white" stroke="white"/>
<path d="M176.437 1.14417V1.14411C170.511 1.13741 164.586 1.13895 158.661 1.1405C155.123 1.14143 151.584 1.14235 148.046 1.14152C148.04 4.21372 148.042 7.28422 148.046 10.3593C152.044 10.3573 156.041 10.3579 160.038 10.3585C165.588 10.3594 171.138 10.3603 176.689 10.3541M176.437 1.14417L176.691 10.8541M176.437 1.14417L176.445 1.14405C178.172 1.11846 179.956 1.77151 180.955 3.1223L180.955 3.12241L180.963 3.13301C182.106 4.59351 182.079 6.84491 180.967 8.33494M176.437 1.14417L181.363 8.64057M176.689 10.3541C176.69 10.3541 176.69 10.3541 176.69 10.3541L176.691 10.8541M176.689 10.3541C176.689 10.3541 176.689 10.3541 176.689 10.3541L176.691 10.8541M176.689 10.3541C178.328 10.349 179.951 9.60754 180.967 8.33494M176.691 10.8541C178.474 10.8487 180.246 10.0427 181.363 8.64057M180.967 8.33494C180.965 8.33689 180.964 8.33883 180.962 8.34078L181.363 8.64057M180.967 8.33494C180.968 8.33301 180.97 8.33108 180.971 8.32915L181.363 8.64057M152.246 1.97919L151.744 1.97731L151.744 2.47856C151.741 4.65166 151.741 6.82204 151.744 8.99515L151.744 9.49246L152.242 9.49452C156.586 9.51249 160.932 9.50987 165.278 9.50726C168.172 9.50552 171.066 9.50378 173.959 9.50812C174.603 9.52223 175.339 9.42746 175.991 9.14494C176.651 8.85884 177.251 8.36626 177.536 7.5837L177.538 7.57976C177.98 6.33071 178.023 4.81717 177.403 3.55966L177.398 3.54992L177.393 3.5404C176.669 2.21759 175.093 1.99828 173.992 1.9928L173.991 1.9928C170.744 1.98548 167.501 1.98744 164.258 1.9894C160.255 1.99182 156.252 1.99424 152.246 1.97919Z" fill="white" stroke="white"/>
</svg>
