<svg width="176" height="142" viewBox="0 0 176 142" fill="none" xmlns="http://www.w3.org/2000/svg">
<path d="M27.3099 65.5966L27.3449 62.969C27.6046 62.9562 27.8644 62.9435 28.1239 62.9469C35.3285 62.8157 39.9629 69.3016 39.9629 69.3016C39.9629 69.3016 34.7757 76.3056 29.3097 76.2328C28.5798 76.2231 27.8676 76.1 27.1894 75.8639L27.2957 67.8838C30.0972 68.2618 30.6484 69.502 32.2817 72.3303L36.0704 69.2335C36.0704 69.2335 33.377 65.6125 28.7706 65.5512C28.2842 65.5285 27.7972 65.5544 27.3099 65.5966ZM27.4257 56.9028L27.3734 60.828L28.1526 60.7897C38.1647 60.5824 44.5874 69.2172 44.5874 69.2172C44.5874 69.2172 36.9726 78.2329 29.1709 78.129C28.4897 78.1199 27.8255 78.0462 27.162 77.9238L27.1296 80.3568C27.6802 80.429 28.2473 80.4852 28.7987 80.4925C36.0652 80.5893 41.3698 76.9449 46.5211 72.6334C47.3555 73.3259 50.7884 75.0101 51.4926 75.7332C46.6051 79.7238 35.289 82.8339 28.8985 82.7488C28.2821 82.7406 27.6987 82.7004 27.1156 82.6277L27.07 86.0501L54.676 86.4176L55.0641 57.2708L27.4257 56.9028ZM27.1732 75.8637L27.1456 77.9398C20.4466 76.6501 18.6744 69.6346 18.6744 69.6346C18.6744 69.6346 21.9496 66.1092 27.3099 65.5966L27.2797 67.8674L27.2635 67.8671C24.462 67.4892 22.2211 70.0874 22.2211 70.0874C22.2211 70.0874 23.4111 74.532 27.1732 75.8637ZM15.337 69.2982C15.337 69.2982 19.389 63.4795 27.3611 62.9692L27.3896 60.8282C18.5566 61.4244 10.834 68.784 10.834 68.784C10.834 68.784 14.9822 81.3306 27.0832 82.6273L27.1134 80.3565C18.2397 79.1353 15.337 69.2982 15.337 69.2982Z" fill="white"/>
<path d="M166.526 81.3531L166.532 80.9151L166.807 80.9188C166.953 80.9207 167.164 80.9398 167.162 81.1182C167.159 81.2966 167.045 81.36 166.866 81.3576L166.526 81.3531ZM166.522 81.6612L166.716 81.6638L167.144 82.432L167.615 82.4382L167.139 81.637C167.382 81.6565 167.579 81.4806 167.598 81.2376L167.599 81.1727C167.605 80.751 167.314 80.6173 166.828 80.6108L166.13 80.6016L166.106 82.4182L166.512 82.4236L166.522 81.6612ZM168.567 81.5425C168.582 80.472 167.763 79.8446 166.838 79.8323C165.914 79.82 165.078 80.4253 165.064 81.4958C165.05 82.5663 165.869 83.1937 166.793 83.206C167.718 83.2183 168.553 82.613 168.567 81.5425ZM168.048 81.5356C168.072 82.2172 167.529 82.794 166.847 82.8174L166.798 82.8167C166.084 82.8397 165.492 82.264 165.469 81.5499C165.446 80.8358 166.021 80.2432 166.736 80.2203C167.45 80.1973 168.042 80.773 168.065 81.4871C168.049 81.5031 168.049 81.5193 168.048 81.5356ZM104.496 62.6661L104.241 81.8054L109.642 81.8773L109.897 62.738L104.496 62.6661ZM62.001 62.0679L61.7459 81.2233L67.1957 81.2959L67.3938 66.4224L71.6431 66.4952C73.038 66.5138 74.0067 66.8674 74.6622 67.5899C75.5097 68.5096 75.8307 69.9902 75.7951 72.6664L75.6787 81.4088L80.9663 81.4792L81.1071 70.904C81.2077 63.3456 76.4041 62.2596 71.7004 62.197L62.001 62.0679ZM113.206 62.7821L112.951 81.9213L121.71 82.0379C126.381 82.1001 127.916 81.3419 129.578 79.6282C130.762 78.4273 131.544 75.7447 131.583 72.809C131.618 70.1165 131.018 67.7076 129.919 66.2004C127.975 63.4978 125.095 62.9404 120.781 62.8829L113.206 62.7821ZM118.503 67.0056L120.823 67.0365C124.196 67.0814 126.35 68.6188 126.298 72.5439C126.245 76.4691 124.052 77.9648 120.678 77.9199L118.358 77.889L118.503 67.0056ZM96.7107 62.5625L91.9997 77.6678L87.8872 62.445L82.0481 62.3672L87.9568 81.5885L95.7422 81.6922L102.225 62.6359L96.7107 62.5625ZM133.988 82.2014L139.389 82.2733L139.644 63.1341L134.243 63.0622L133.988 82.2014ZM149.392 63.2639L141.596 82.2865L146.916 82.3573L148.161 78.9834L157.082 79.1022L158.172 82.491L163.963 82.5681L156.61 63.36L149.392 63.2639ZM152.849 66.7978L156.006 75.7947L149.356 75.7061L152.849 66.7978Z" fill="white"/>
</svg>
