<svg width="109" height="56" viewBox="0 0 109 56" fill="none" xmlns="http://www.w3.org/2000/svg">
<path d="M27.6152 1.5196C28.08 1.20302 28.5402 0.733552 29.144 0.758261C29.6923 0.932766 29.9996 1.46091 30.3486 1.87942C30.642 2.28711 31.062 2.79827 30.8103 3.32488C30.4428 3.93024 29.8096 4.29469 29.2707 4.72864C26.3689 6.9169 23.4688 9.1098 20.567 11.2981C20.2613 11.5374 19.8304 11.7366 19.8319 12.1891C20.408 12.3405 21.0056 12.2756 21.594 12.2849C25.9643 12.2895 30.3347 12.2787 34.705 12.2895C35.6625 12.3343 36.7852 12.3605 37.4724 13.1358C38.0932 13.9558 38.0824 15.0522 38.1025 16.036C38.1087 17.5355 38.0778 19.0365 38.1179 20.536C38.121 21.1676 38.7341 21.5892 39.3271 21.5614C42.164 21.58 45.0024 21.5599 47.8393 21.5707C48.2454 21.563 48.7056 21.5414 49.0191 21.2449C49.3341 20.9391 49.3388 20.4634 49.3542 20.0558C49.3557 17.9988 49.3527 15.9402 49.3527 13.8832C49.3588 13.4199 49.4005 12.8825 49.7804 12.5613C50.2453 12.2385 50.846 12.2988 51.3834 12.2802C51.8853 12.3003 52.4443 12.2632 52.8752 12.5675C53.2659 12.9396 53.2736 13.5234 53.2844 14.0268C53.2752 16.3448 53.2952 18.6613 53.2752 20.9792C53.218 22.0062 53.1053 23.166 52.3192 23.918C51.4421 24.7041 50.1897 24.7195 49.0793 24.7782C32.8395 24.7813 16.5997 24.7782 0.358398 24.7797C0.458778 24.0014 0.773812 23.2231 1.38535 22.7089C2.38606 21.8348 3.77283 21.6109 5.05614 21.5676C14.1196 21.5692 23.1815 21.5661 32.2434 21.5707C32.7469 21.5553 33.2796 21.6278 33.7553 21.424C34.1985 21.1939 34.1414 20.6271 34.1522 20.2071C34.1275 18.8682 34.1846 17.5293 34.1244 16.1919C34.1043 15.6236 33.4588 15.4862 33.0001 15.4985C27.8561 15.4924 22.712 15.4985 17.5696 15.4955C16.7279 15.4707 15.8199 15.3163 15.1805 14.7233C14.3991 14.0423 14.2045 12.8254 14.6632 11.9111C14.9983 11.207 15.5774 10.6587 16.1936 10.1985C19.9987 7.30298 23.8116 4.41669 27.6152 1.5196Z" fill="white"/>
<path d="M57.9145 1.26174C58.7407 1.07796 59.6271 1.06561 60.4502 1.28027C61.1019 1.52272 61.1081 2.32884 61.1359 2.9095C61.1405 8.523 61.1405 14.1381 61.1359 19.7516C61.1467 20.1932 61.0741 20.6766 61.3227 21.0704C61.5482 21.4827 62.0779 21.5538 62.5041 21.5677C66.5702 21.5723 70.6379 21.5615 74.704 21.5723C75.1812 21.5707 75.7063 21.5893 76.1109 21.2881C76.4151 21.021 76.4367 20.5808 76.446 20.204C76.4506 18.11 76.4336 16.0159 76.4522 13.9219C76.4769 13.3474 76.5556 12.5567 77.2289 12.3899C78.0196 12.2339 78.8551 12.2309 79.6458 12.3945C80.282 12.5629 80.3839 13.3149 80.4071 13.8724C80.4488 16.0885 80.4009 18.3076 80.4303 20.5237C80.4025 21.1769 81.0511 21.5893 81.6503 21.5615C84.484 21.5785 87.3178 21.5615 90.1531 21.5707C90.5624 21.563 91.0272 21.5399 91.3422 21.2418C91.6418 20.9299 91.6434 20.465 91.6604 20.062C91.6619 18.0019 91.6588 15.9433 91.6604 13.8848C91.6681 13.4277 91.6928 12.9011 92.0634 12.5768C92.4835 12.2587 93.0471 12.3034 93.5475 12.2803C94.0926 12.3034 94.7088 12.2355 95.1798 12.5706C95.5427 12.8949 95.5643 13.4261 95.5813 13.8802C95.5798 15.9372 95.5798 17.9957 95.5782 20.0527C95.5798 20.4681 95.6292 20.9191 95.9072 21.2511C96.2376 21.5275 96.6886 21.5723 97.104 21.5707C99.1085 21.5677 101.113 21.5661 103.116 21.5707C103.544 21.5677 104.016 21.563 104.368 21.2835C104.632 21.0503 104.699 20.6828 104.7 20.3492C104.714 18.2026 104.683 16.0561 104.714 13.9095C104.725 13.3335 104.827 12.5552 105.493 12.3899C106.271 12.2309 107.091 12.2401 107.871 12.3837C108.47 12.5057 108.626 13.1929 108.651 13.7149C108.678 15.4152 108.654 17.117 108.661 18.8188C108.648 20.1176 108.746 21.4441 108.394 22.712C108.212 23.3513 107.811 23.9536 107.207 24.264C106.337 24.718 105.327 24.7365 104.37 24.7782C90.6241 24.7798 76.8768 24.7798 63.1311 24.7798C61.8895 24.7736 60.6309 24.8385 59.4124 24.559C58.7036 24.3922 58.0256 23.9721 57.6905 23.3081C57.1855 22.3074 57.201 21.1553 57.1763 20.062C57.1763 14.6539 57.1778 9.24573 57.1763 3.83762C57.1794 3.21836 57.1469 2.59137 57.2767 1.98138C57.3616 1.66325 57.5793 1.34667 57.9145 1.26174Z" fill="white"/>
<path d="M43.7125 28.1278C44.7209 27.7093 45.8235 28.5231 46.1169 29.4806C46.3347 30.3238 45.8065 31.0974 45.2367 31.6611C44.5572 32.3221 43.9549 33.156 43.016 33.4602C41.7389 33.8525 40.3536 32.4549 40.7382 31.1824C40.9389 30.4874 41.498 29.9902 41.989 29.4929C42.5126 28.9818 43.0114 28.3949 43.7125 28.1278Z" fill="white"/>
<path d="M69.1804 32.9212C69.7271 32.8857 70.3031 32.8486 70.8251 33.0479C71.3532 33.3536 71.2776 34.0486 71.3146 34.569C71.327 40.5469 71.3131 46.5234 71.3223 52.4998C71.2745 52.8303 71.5787 53.1345 71.9076 53.1051C74.6982 53.1129 77.4903 53.1113 80.2808 53.1051C80.5464 53.1376 80.8815 52.9692 80.8043 52.6511C80.7364 51.6334 80.182 50.7254 79.5859 49.927C78.0215 47.9179 75.705 46.6191 73.296 45.8917C72.9099 45.7713 72.4806 45.5319 72.4466 45.0779C72.4296 44.4834 72.6226 43.8255 73.0813 43.4209C73.5106 43.0919 74.0774 43.2603 74.5468 43.3977C77.081 44.1575 79.5364 45.4254 81.3232 47.4144C83.0173 49.2753 84.0072 51.8187 83.8033 54.3483C83.7585 54.8363 83.4759 55.3243 83.0142 55.5235C82.503 55.7938 81.9085 55.7304 81.3525 55.7366C77.9535 55.7335 74.5546 55.7335 71.1571 55.7366C70.4992 55.7304 69.8182 55.6471 69.2345 55.3289C68.7279 55.0494 68.4252 54.5058 68.311 53.9545C68.138 53.1144 68.1766 52.2527 68.1735 51.4018C68.1797 45.64 68.1612 39.8783 68.1828 34.1181C68.121 33.5065 68.5164 32.8872 69.1804 32.9212Z" fill="white"/>
<path d="M86.6667 37.1232C87.5022 36.7541 88.4149 37.4598 88.6295 38.2613C88.7639 38.9454 88.3022 39.5384 87.8559 40.0002C87.3895 40.4588 86.9478 40.9947 86.3224 41.2387C85.28 41.6649 84.0399 40.4141 84.4569 39.3747C84.6329 38.8806 85.0298 38.5192 85.3788 38.1439C85.7541 37.7455 86.1448 37.3286 86.6667 37.1232Z" fill="white"/>
<path d="M63.4441 39.9599C64.0618 39.7669 64.7413 39.7839 65.3714 39.9167C65.9335 40.0557 66.0524 40.7105 66.0524 41.2046C66.0524 45.0175 66.054 48.8304 66.0509 52.6432C66.02 53.4694 65.9552 54.3898 65.3668 55.0292C64.7738 55.5975 63.9059 55.7194 63.1198 55.7349C59.4676 55.7349 55.8169 55.7318 52.1662 55.7364C51.6256 55.7519 51.0404 55.6175 50.662 55.2083C50.2404 54.7203 50.2404 54.0377 50.2698 53.4308C50.3809 51.0541 51.5145 48.8195 53.1128 47.0915C54.6077 45.4854 56.4547 44.162 58.5379 43.4392C59.2035 43.2261 59.937 43.0346 60.6273 43.2462C61.14 43.4778 61.3238 44.0847 61.2991 44.6083C61.2898 46.1556 61.3192 47.703 61.2852 49.2504C61.3284 49.7739 60.8636 50.1801 60.3586 50.1569C59.7548 50.1554 58.8576 50.336 58.5425 49.6643C58.2955 48.608 58.5487 47.5069 58.3665 46.4444C57.1511 46.8614 56.1705 47.7478 55.3011 48.6651C54.2803 49.8094 53.3043 51.1869 53.2904 52.7822C53.3491 53.1312 53.7444 53.105 54.0178 53.1111C56.6925 53.108 59.3672 53.1065 62.0435 53.1111C62.3044 53.1096 62.5994 53.1158 62.7924 52.9042C62.8944 52.6741 62.8882 52.4162 62.8959 52.1707C62.8897 48.5771 62.8897 44.9835 62.8944 41.3899C62.9144 40.8834 62.9021 40.2039 63.4441 39.9599Z" fill="white"/>
<path d="M37.4256 45.4624C40.4339 43.7698 43.9379 43.1274 47.3631 43.1583C47.8233 43.1583 48.3468 43.3004 48.5615 43.7528C48.7267 44.23 48.7731 44.7721 48.6325 45.2616C48.4905 45.7141 47.9546 45.8423 47.5345 45.8454C44.7486 45.9133 41.9288 46.321 39.3467 47.4113C38.7707 47.68 38.1329 47.9255 37.7514 48.4629C40.4462 48.5062 43.1441 48.4737 45.8405 48.4799C46.6203 48.4876 47.4851 48.4861 48.1523 48.9509C48.8873 49.598 48.8086 50.6713 48.8256 51.5608C48.7777 52.614 48.9692 53.7305 48.5507 54.7312C48.2001 55.5389 47.2226 55.7196 46.435 55.7335C40.9528 55.7366 35.4705 55.7335 29.9883 55.735C30.0887 55.1296 30.274 54.5027 30.7388 54.0734C31.5372 53.2997 32.7093 53.1452 33.7733 53.1097C37.5383 53.1082 41.3033 53.1066 45.0683 53.1113C45.2783 53.102 45.5285 53.1205 45.6706 52.929C45.7632 52.3715 45.7046 51.8048 45.6937 51.2427C45.4899 51.1701 45.283 51.0913 45.0652 51.1006C42.1789 51.1037 39.2942 51.1021 36.4095 51.1037C35.6883 51.0882 34.8991 51.0218 34.3169 50.5524C33.7316 50.0072 33.8598 49.0652 34.2181 48.4274C34.9285 47.1209 36.1701 46.2052 37.4256 45.4624Z" fill="white"/>
<path d="M84.4442 43.3266C85.3151 43.2339 86.1954 43.3127 87.0695 43.2833C87.5621 43.2926 88.1412 43.2308 88.5273 43.6076C88.8145 43.8516 88.8624 44.2501 88.8593 44.6037C88.8547 47.8992 88.8562 51.1948 88.8578 54.4887C88.8562 54.9505 88.7883 55.5481 88.2956 55.7412C87.698 55.9002 87.034 55.9203 86.4456 55.7195C85.973 55.5188 85.9576 54.9289 85.9468 54.4934C85.9483 52.126 85.9483 49.7601 85.9483 47.3927C85.9437 46.9263 85.9931 46.4522 85.8773 45.9967C85.2148 45.972 84.472 46.1496 83.8805 45.7758C83.4296 45.3805 83.462 44.6948 83.5392 44.1528C83.584 43.6926 83.9917 43.3467 84.4442 43.3266Z" fill="white"/>
<path d="M93.2986 47.2956C95.737 44.4526 99.5638 43.0349 103.262 43.1677C103.926 43.1677 104.329 43.8426 104.308 44.4479C104.322 45.9474 104.312 47.447 104.312 48.9465C104.306 49.3696 104.248 49.9348 103.763 50.0738C103.202 50.2298 102.581 50.2143 102.016 50.0846C101.581 49.9703 101.449 49.4962 101.445 49.1009C101.408 48.111 101.451 47.1196 101.425 46.1297C99.119 46.0386 96.9694 47.3265 95.4853 49.0113C94.6097 50.0475 93.7943 51.2598 93.6677 52.645C93.5966 52.9416 93.8916 53.1253 94.1541 53.1037C97.8141 53.1191 101.476 53.1006 105.137 53.113C106.124 53.1593 107.196 53.3029 107.972 53.9762C108.498 54.4117 108.757 55.0758 108.865 55.7352C103.397 55.7352 97.9299 55.7336 92.4631 55.7352C91.9025 55.7398 91.2771 55.556 90.959 55.0603C90.6408 54.5831 90.6702 53.9793 90.6872 53.4326C90.8153 51.1641 91.8222 49.0005 93.2986 47.2956Z" fill="white"/>
</svg>
