<svg width="189" height="50" viewBox="0 0 189 50" fill="none" xmlns="http://www.w3.org/2000/svg">
<path d="M25.4036 41.6831C25.3027 41.6831 25.2064 41.6794 25.1331 41.6759C25.075 41.6809 25.015 41.6831 24.9549 41.6831C22.8347 41.6831 21.4171 40.6808 20.166 39.7957C19.2694 39.1623 18.4237 38.5643 17.433 38.3995C16.9465 38.3188 16.4624 38.2779 15.9948 38.2779C15.1522 38.2779 14.4862 38.4086 14.0001 38.5037C13.7009 38.562 13.4429 38.6121 13.2435 38.6121C13.0347 38.6121 12.781 38.5658 12.6752 38.2048C12.5914 37.92 12.5313 37.644 12.4733 37.3783C12.3281 36.7143 12.2229 36.309 11.9742 36.2705C9.31502 35.8602 7.74383 35.2558 7.43086 34.5239C7.39807 34.4469 7.37974 34.3695 7.37568 34.293C7.36349 34.0748 7.51751 33.8835 7.73259 33.8478C9.84439 33.5001 11.7221 32.3839 13.3139 30.5292C14.547 29.0933 15.1525 27.7214 15.2175 27.57C15.2204 27.5632 15.2237 27.556 15.2271 27.5495C15.5339 26.9269 15.595 26.389 15.4091 25.951C15.0664 25.1429 13.9316 24.7829 13.1809 24.5447C12.9941 24.4856 12.8175 24.4297 12.6768 24.3738C12.0113 24.1109 10.9167 23.5555 11.0625 22.7888C11.1688 22.2298 11.9082 21.8405 12.5058 21.8405C12.6717 21.8405 12.8188 21.8696 12.9425 21.9277C13.6178 22.2441 14.2253 22.4044 14.7478 22.4044C15.3976 22.4044 15.7114 22.157 15.7873 22.0867C15.7686 21.7401 15.7457 21.3737 15.7236 21.027C15.7236 21.0267 15.7231 21.0225 15.7231 21.0225C15.5706 18.5963 15.3804 15.577 16.1527 13.8455C18.4643 8.66267 23.3664 8.25964 24.8134 8.25964C24.8519 8.25964 25.444 8.25378 25.444 8.25378C25.4708 8.25331 25.4998 8.25293 25.5298 8.25293C26.9807 8.25293 31.8931 8.65643 34.2061 13.8424C34.9784 15.575 34.788 18.5969 34.635 21.0256L34.6279 21.1419C34.6069 21.4716 34.5875 21.7838 34.5712 22.0863C34.6426 22.1521 34.9298 22.3789 35.514 22.4019C36.0121 22.3828 36.5845 22.2232 37.2148 21.9281C37.4096 21.8366 37.6254 21.8176 37.7718 21.8176C37.9932 21.8176 38.2185 21.8607 38.4063 21.939L38.4163 21.9429C38.9512 22.1327 39.3015 22.5121 39.309 22.9107C39.3157 23.2823 39.0396 23.8376 37.6815 24.374C37.5424 24.4291 37.3649 24.4854 37.1775 24.5449C36.426 24.7834 35.2922 25.1432 34.9495 25.9508C34.7634 26.3888 34.8246 26.9265 35.1315 27.5489C35.1349 27.5557 35.1379 27.5626 35.1412 27.5698C35.2357 27.7913 37.5229 33.0066 42.6261 33.8474C42.8411 33.8832 42.9954 34.0747 42.9831 34.2925C42.9786 34.3708 42.9597 34.449 42.9266 34.5255C42.6158 35.2534 41.0447 35.8569 38.3847 36.2678C38.1351 36.3063 38.0299 36.7098 37.8861 37.3704C37.8266 37.6432 37.766 37.9106 37.6833 38.1916C37.6059 38.4559 37.4337 38.5851 37.1572 38.5851H37.1156C36.9356 38.5851 36.6805 38.5524 36.3588 38.4895C35.7966 38.3801 35.166 38.2782 34.3641 38.2782C33.8965 38.2782 33.4126 38.3192 32.9255 38.3998C31.9358 38.5646 31.0903 39.1616 30.1952 39.7944C28.9417 40.6807 27.5236 41.6831 25.4036 41.6831Z" fill="white"/>
<path d="M25.5295 8.68023C26.8954 8.68023 31.5991 9.04716 33.8157 14.0166C34.5456 15.653 34.3585 18.6173 34.2084 20.9985C34.185 21.3764 34.1617 21.7426 34.1428 22.0924L34.1349 22.2427L34.2352 22.3547C34.2758 22.3997 34.6552 22.7962 35.499 22.8288L35.5126 22.8295L35.5268 22.8293C36.0847 22.808 36.7131 22.6347 37.3956 22.315C37.4961 22.268 37.6299 22.245 37.7715 22.245C37.9328 22.245 38.1042 22.2753 38.2456 22.3349L38.2669 22.3434C38.6248 22.4688 38.8778 22.7052 38.8816 22.9191C38.8837 23.0401 38.7933 23.4758 37.5248 23.9769C37.4008 24.0259 37.2376 24.0779 37.0484 24.1376C36.2229 24.3997 34.9757 24.7953 34.556 25.7844C34.3196 26.3415 34.3844 26.999 34.7482 27.7383C34.8979 28.0877 37.2542 33.3954 42.5565 34.2691C42.5555 34.2942 42.549 34.3217 42.5349 34.3541C42.445 34.5658 41.8738 35.2971 38.3192 35.8456C37.763 35.9308 37.6267 36.5543 37.4687 37.2791C37.4116 37.5386 37.3536 37.8005 37.2739 38.0711C37.2495 38.1528 37.245 38.1574 37.1574 38.1574C37.1453 38.1574 37.1311 38.1574 37.1156 38.1574C36.958 38.1574 36.7187 38.1247 36.4414 38.0703C35.9363 37.9719 35.2463 37.8513 34.3641 37.8513C33.8718 37.8513 33.3647 37.8941 32.8558 37.979C31.768 38.1599 30.8835 38.7855 29.9466 39.4478C28.6885 40.3368 27.3881 41.2567 25.4041 41.2567C25.3174 41.2567 25.2329 41.2538 25.1481 41.2495L25.1258 41.2486L25.1034 41.2503C25.0547 41.2545 25.0057 41.2567 24.9556 41.2567C22.9718 41.2567 21.6709 40.3371 20.4134 39.4478C19.4763 38.7855 18.5913 38.1599 17.5037 37.979C16.9953 37.8943 16.4877 37.8513 15.9957 37.8513C15.1137 37.8513 14.4229 37.9862 13.9188 38.0848C13.6415 38.139 13.4014 38.1855 13.2442 38.1855C13.1155 38.1855 13.113 38.1779 13.0858 38.0849C13.0061 37.8142 12.9478 37.546 12.891 37.2869C12.7326 36.5614 12.5962 35.9345 12.0403 35.8492C8.48604 35.3002 7.91471 34.5677 7.82456 34.3566C7.81048 34.3233 7.80415 34.295 7.80273 34.2698C13.1049 33.3969 15.4608 28.089 15.611 27.7383C15.9754 26.9996 16.0401 26.3422 15.803 25.7844C15.3832 24.7958 14.1363 24.3997 13.3113 24.138C13.1216 24.078 12.9584 24.0259 12.8343 23.9769C11.7631 23.5537 11.4336 23.1273 11.4825 22.869C11.5393 22.571 12.0558 22.2681 12.5066 22.2681C12.6079 22.2681 12.6967 22.2844 12.7624 22.3151C13.4944 22.6582 14.1627 22.8322 14.7489 22.8322C15.6703 22.8322 16.0804 22.4035 16.1245 22.3545L16.2243 22.2428L16.2163 22.0932C16.1977 21.7437 16.1747 21.3775 16.1505 21.0004C16.001 18.6186 15.8138 15.6563 16.5435 14.0198C18.7518 9.06861 23.4325 8.68694 24.8142 8.68694C24.8483 8.68694 25.449 8.6808 25.449 8.6808C25.4735 8.68061 25.5009 8.68023 25.5295 8.68023ZM25.5295 7.82617H25.5279C25.4964 7.82617 25.4668 7.82617 25.4387 7.82655C25.2142 7.82882 24.8451 7.83241 24.8119 7.83279C24.0024 7.83279 22.3829 7.94713 20.6432 8.715C19.6485 9.15375 18.7538 9.747 17.984 10.4783C17.0663 11.3497 16.3186 12.424 15.7623 13.6719C14.9474 15.4991 15.1408 18.5767 15.2962 21.05L15.2968 21.0539C15.3134 21.3187 15.3309 21.5953 15.3468 21.8648C15.2273 21.9197 15.0335 21.9777 14.7478 21.9777C14.2882 21.9777 13.7416 21.8307 13.1237 21.5412C12.9419 21.4565 12.7344 21.4137 12.5054 21.4137C12.1376 21.4137 11.7497 21.522 11.4133 21.7198C10.9901 21.9683 10.7166 22.3195 10.6423 22.709C10.5934 22.9666 10.5958 23.4757 11.1613 23.992C11.4724 24.2763 11.9294 24.5384 12.5192 24.7715C12.674 24.8325 12.8577 24.8907 13.0523 24.9524C13.7275 25.167 14.7493 25.4912 15.0158 26.1184C15.1509 26.4364 15.0927 26.8548 14.8436 27.3606C14.837 27.3743 14.8305 27.3879 14.8246 27.402C14.7623 27.5475 14.1813 28.8634 12.9896 30.2513C12.3125 31.0405 11.5666 31.7001 10.774 32.2123C9.80653 32.8376 8.7597 33.2464 7.66288 33.427C7.23216 33.4977 6.92458 33.8815 6.94858 34.3176C6.95595 34.4432 6.98543 34.5685 7.03655 34.6898C7.03693 34.6905 7.03741 34.6913 7.03778 34.692C7.21194 35.0993 7.61572 35.4454 8.27219 35.7506C9.07437 36.1232 10.2741 36.4366 11.8377 36.6819C11.9167 36.8321 11.9987 37.2097 12.0555 37.4683C12.115 37.7431 12.177 38.0256 12.2653 38.3257C12.3607 38.6509 12.608 39.0395 13.2433 39.0395C13.484 39.0395 13.7609 38.9852 14.0815 38.923C14.5511 38.8309 15.1932 38.7052 15.9946 38.7052C16.4389 38.7052 16.8994 38.7443 17.3629 38.8214C18.2564 38.9701 19.0266 39.5142 19.9178 40.1443C21.2222 41.0664 22.6988 42.1101 24.9547 42.1101C25.0162 42.1101 25.0779 42.1081 25.1388 42.1039C25.2134 42.1074 25.3058 42.1101 25.4033 42.1101C27.6599 42.1101 29.136 41.066 30.439 40.1447L30.4411 40.1428C31.3325 39.5134 32.1019 38.9701 32.9951 38.8214C33.4584 38.7444 33.9188 38.7052 34.3633 38.7052C35.1289 38.7052 35.7351 38.8028 36.2764 38.9084C36.6296 38.9779 36.9041 39.0114 37.1147 39.0114L37.1353 39.0118H37.1567C37.6213 39.0118 37.9627 38.7567 38.0931 38.3104C38.1796 38.0166 38.2414 37.7407 38.3024 37.4613C38.3555 37.219 38.4403 36.8306 38.5193 36.6787C40.084 36.4331 41.2833 36.1203 42.0855 35.7478C42.7405 35.444 43.1438 35.0983 43.319 34.6926C43.3715 34.571 43.4022 34.4449 43.4091 34.3166C43.4338 33.8813 43.1257 33.4968 42.6947 33.4261C37.8202 32.6227 35.6242 27.614 35.5333 27.4012C35.5275 27.3872 35.5209 27.3733 35.514 27.3598C35.2648 26.8539 35.2072 26.4359 35.3424 26.1174C35.6083 25.4908 36.6295 25.1665 37.3051 24.952C37.5008 24.8904 37.6851 24.8318 37.8387 24.7712C38.5038 24.5085 38.9792 24.2235 39.2929 23.8998C39.6675 23.514 39.7404 23.1443 39.7359 22.9024C39.7244 22.3171 39.277 21.797 38.5653 21.5423C38.3249 21.4429 38.0507 21.3905 37.7716 21.3905C37.5816 21.3905 37.3001 21.4165 37.0338 21.5409C36.4635 21.8078 35.9526 21.9537 35.5141 21.9745C35.2808 21.9626 35.1173 21.9121 35.0113 21.8638C35.0247 21.6355 35.0394 21.401 35.0546 21.1564L35.061 21.0517C35.2172 18.5768 35.4113 15.4968 34.596 13.6683C34.0373 12.416 33.287 11.3389 32.3655 10.4656C31.5928 9.73386 30.695 9.14071 29.6968 8.70225C27.9596 7.94004 26.3401 7.82617 25.5295 7.82617Z" fill="white"/>
<path d="M146.697 10.4275C148.256 10.4275 149.816 10.3978 151.375 10.4431C151.426 10.841 151.474 11.2388 151.48 11.641C151.486 14.1881 151.452 16.7367 151.494 19.2839C152.039 18.8025 152.56 18.2673 153.23 17.9544C154.643 17.2535 156.352 17.3413 157.786 17.9374C158.714 18.416 159.497 19.1933 159.95 20.1377C160.484 21.2307 160.729 22.4541 160.727 23.6675C160.727 26.57 160.717 29.4726 160.734 32.3738L160.586 32.3695C160.515 32.3667 160.37 32.3596 160.298 32.3554C160.366 29.1809 160.321 26.0037 160.321 22.8279C160.377 21.2194 159.692 19.5671 158.389 18.593C157.475 17.8723 156.26 17.7632 155.14 17.7958C153.948 17.793 152.723 18.2786 151.97 19.2216C151.772 19.4807 151.505 19.6619 151.191 19.7441C151.057 18.7473 151.143 17.7392 151.122 16.7367C151.103 14.7729 151.159 12.8091 151.095 10.8466C150.608 10.7447 150.111 10.7221 149.617 10.7376C148.701 10.7659 147.773 10.6626 146.868 10.8608C146.8 10.8396 146.663 10.7971 146.594 10.7773C146.619 10.6895 146.672 10.5153 146.697 10.4275Z" fill="white"/>
<path d="M146.595 10.7773C146.664 10.7972 146.801 10.8396 146.869 10.8609C146.899 16.7368 146.875 22.6127 146.882 28.4886C146.895 29.7261 146.823 30.9679 146.956 32.2011L146.906 32.3172L146.772 32.3328L146.678 32.3427C146.704 25.7248 146.678 19.107 146.691 12.4891C146.708 11.9157 146.609 11.3479 146.595 10.7773Z" fill="white"/>
<path d="M126.54 19.7656L126.567 19.8916C126.608 20.0984 126.656 20.3037 126.703 20.5104C126.659 20.8771 126.595 21.2424 126.551 21.6091C126.443 22.3666 126.632 23.1213 126.647 23.8788C126.676 25.4816 127.352 26.9852 128.212 28.3105C128.295 28.4252 128.382 28.5399 128.471 28.6517C129.27 29.6556 130.154 30.6453 131.328 31.2159C131.366 31.2923 131.443 31.4424 131.481 31.5175C130.482 31.1281 129.708 30.3508 128.959 29.6103C127.97 28.6446 127.32 27.3859 126.861 26.0989C126.613 25.0681 126.411 24.026 126.281 22.974C126.136 21.8994 126.322 20.8176 126.54 19.7656Z" fill="white"/>
<path d="M146.868 10.8606C147.773 10.6623 148.7 10.7657 149.616 10.7374C150.111 10.7218 150.608 10.7444 151.095 10.8464C150.871 12.4223 151.029 14.018 150.984 15.6038C150.935 17.0083 151.103 18.427 150.871 19.8217C150.718 19.8656 150.566 19.9095 150.416 19.9562C150.254 19.6164 150.153 19.2468 150.173 18.866C150.204 16.4604 150.174 14.0534 150.194 11.6478C150.354 11.7157 150.51 11.7908 150.67 11.8644C150.657 11.6053 150.732 11.1324 150.334 11.1706C149.289 11.1919 148.242 11.2513 147.198 11.131C147.116 11.6719 147.083 12.2198 147.09 12.7677C147.099 18.1977 147.078 23.6276 147.102 29.0575C147.062 30.101 147.461 31.2181 146.955 32.2008C146.821 30.9675 146.894 29.7258 146.881 28.4883C146.874 22.6124 146.898 16.7365 146.868 10.8606Z" fill="white"/>
<path d="M151.095 10.8467C151.159 12.8091 151.103 14.7729 151.122 16.7368C151.143 17.7392 151.057 18.7473 151.191 19.7441C151.505 19.662 151.772 19.4807 151.97 19.2216C152.723 18.2787 153.948 17.793 155.14 17.7958C156.26 17.7633 157.475 17.8723 158.389 18.593C159.692 19.5671 160.377 21.2195 160.321 22.8279C160.321 26.0037 160.366 29.181 160.298 32.3554C158.895 32.3016 157.489 32.354 156.084 32.3257C156.007 29.4401 156.083 26.5517 156.048 23.6647C156.04 23.1196 155.776 22.6198 155.48 22.178C154.895 21.4219 153.747 21.1373 152.892 21.5819C152.468 21.7986 152.101 22.1058 151.736 22.4045C151.825 22.0435 151.74 21.572 152.08 21.3256C152.42 21.0425 152.79 20.7834 153.203 20.6191C153.69 20.4365 154.211 20.5979 154.698 20.7027C154.7 20.806 154.704 21.0142 154.707 21.1175C154.106 21.1487 153.506 21.1586 152.906 21.1444L152.901 21.2619C153.592 21.2931 154.279 21.2166 154.966 21.143C155.385 21.0849 155.699 21.4417 155.951 21.7263C156.436 22.3692 156.879 23.1182 156.863 23.9493C156.848 26.5942 156.828 29.239 156.863 31.8825C157.718 32.1076 158.607 32.0651 159.478 31.9759C159.634 29.3127 159.446 26.6395 159.572 23.9734C159.597 23.3475 159.497 22.726 159.456 22.103C159.417 20.7862 158.578 19.6011 157.516 18.8776C157.119 18.5703 156.593 18.6978 156.133 18.6907C155.439 18.7332 154.735 18.634 154.048 18.7714C153.38 18.947 152.853 19.4227 152.294 19.8036C152.185 19.7724 152.079 19.7427 151.973 19.713C151.824 19.8914 151.729 20.1915 151.45 20.1731C151.188 20.217 151.042 19.9664 150.871 19.822C151.103 18.4273 150.935 17.0086 150.984 15.6041C151.03 14.0183 150.871 12.4226 151.095 10.8467Z" fill="white"/>
<path d="M147.198 11.1313C148.242 11.2517 149.29 11.1922 150.335 11.171C150.732 11.1328 150.657 11.6057 150.67 11.8648C150.51 11.7911 150.354 11.7161 150.194 11.6481C149.339 11.3664 148.429 11.5165 147.55 11.5561C147.477 17.6232 147.558 23.6945 147.51 29.763C147.49 30.546 147.489 31.3304 147.551 32.1119C148.192 32.1686 148.838 32.2394 149.482 32.1643C149.969 32.119 150.486 31.9505 150.948 32.2025C149.614 32.4248 148.249 32.1983 146.905 32.3172L146.955 32.2011C147.462 31.2185 147.062 30.1014 147.102 29.0579C147.078 23.6279 147.099 18.198 147.091 12.7681C147.084 12.2202 147.116 11.6722 147.198 11.1313Z" fill="white"/>
<path d="M134.74 11.5177C136.211 11.2643 137.719 11.2898 139.197 11.4767C141.162 11.8873 143.156 12.6533 144.522 14.1853C144.623 14.2929 144.64 14.5095 144.522 14.6129C144.063 15.0957 143.534 15.5105 143.113 16.0316C142.57 16.7027 141.998 17.3653 141.267 17.8397C140.801 17.3653 140.317 16.9009 139.751 16.5484C138.258 15.6125 136.217 15.6904 134.713 16.5583C134.283 16.8202 133.917 17.1784 133.47 17.4078C133.323 17.4701 133.177 17.5338 133.032 17.5961C133.089 17.5268 133.201 17.3894 133.256 17.32C133.321 17.2379 133.388 17.1586 133.457 17.0793C134.217 16.4309 135.172 16.1123 136.082 15.7413C136.841 15.6521 137.613 15.6422 138.374 15.7258C139.483 16.091 140.529 16.6333 141.375 17.4489C142.185 16.6432 142.972 15.8164 143.799 15.0291C144.041 14.7672 144.47 14.4274 144.148 14.0564C143.685 13.7279 143.234 13.381 142.75 13.0851C142.379 12.843 141.938 13.0738 141.557 13.163C141.76 13.0667 141.961 12.969 142.163 12.8671C141.678 12.4664 141.067 12.3106 140.481 12.128C140.059 11.9029 139.585 11.8604 139.118 11.8377C137.702 11.4101 136.197 11.5121 134.777 11.8561C134.081 11.8873 133.416 12.094 132.785 12.3744C132.654 12.4239 132.525 12.4763 132.399 12.5287C130.536 13.2904 128.973 14.7134 127.907 16.4068C127.246 17.4744 126.902 18.692 126.566 19.8913L126.539 19.7653C126.583 19.257 126.692 18.7572 126.8 18.2602C126.977 17.3838 127.522 16.6532 127.962 15.8957C129.422 13.5056 132.068 12.1039 134.74 11.5177Z" fill="white"/>
<path d="M147.55 11.5559C148.429 11.5163 149.34 11.3662 150.195 11.6479C150.175 14.0535 150.205 16.4605 150.173 18.8661C150.154 19.247 150.254 19.6166 150.417 19.9564C150.567 19.9096 150.719 19.8657 150.872 19.8219C151.043 19.9663 151.189 20.2169 151.451 20.173C151.73 20.1914 151.824 19.8912 151.973 19.7128C152.079 19.7426 152.185 19.7723 152.294 19.8034C152.854 19.4226 153.38 18.9468 154.049 18.7713C154.735 18.6339 155.439 18.733 156.133 18.6906C156.593 18.6976 157.12 18.5702 157.516 18.8775C158.578 19.601 159.418 20.7861 159.456 22.1028C159.497 22.7258 159.598 23.3474 159.572 23.9732C159.446 26.6393 159.634 29.3125 159.479 31.9758C158.608 32.065 157.719 32.1075 156.864 31.8824C156.828 29.2389 156.848 26.594 156.864 23.9492C156.879 23.118 156.436 22.369 155.952 21.7262C155.7 21.4416 155.385 21.0848 154.966 21.1429C154.28 21.2165 153.593 21.293 152.902 21.2618L152.906 21.1443C153.506 21.1584 154.107 21.1485 154.707 21.1174C154.704 21.014 154.7 20.8059 154.699 20.7025C154.212 20.5978 153.691 20.4363 153.203 20.619C152.79 20.7832 152.42 21.0423 152.081 21.3255C151.741 21.5719 151.826 22.0434 151.737 22.4044C151.496 22.8915 151.333 23.4097 151.163 23.9237C151.003 24.1884 150.893 24.4815 150.925 24.7959C150.962 27.2637 150.922 29.733 150.948 32.2023C150.486 31.9503 149.97 32.1188 149.483 32.1641C148.838 32.2392 148.193 32.1684 147.551 32.1117C147.489 31.3302 147.49 30.5458 147.51 29.7628C147.558 23.6943 147.478 17.623 147.55 11.5559Z" fill="white"/>
<path d="M60.3243 12.9621C62.9239 11.2673 66.3645 11.1186 69.2218 12.2244C68.9938 12.4269 68.7658 12.6308 68.5393 12.8347C68.8423 12.8474 69.1453 12.8602 69.4483 12.8786C69.747 13.4166 70.3842 13.5724 70.8033 13.983C70.8911 14.2109 70.6829 14.3922 70.564 14.5592C70.0359 15.1468 69.4908 15.733 68.8338 16.1804C68.5874 15.9355 68.3397 15.6934 68.0905 15.4527C67.9418 15.6084 67.7931 15.7642 67.6459 15.9213C67.2537 15.716 66.8473 15.5404 66.4325 15.3847C66.4962 15.1936 66.5599 15.0038 66.6236 14.8127C65.7727 14.5139 64.7745 14.4318 63.9674 14.8948C63.4634 15.1865 62.9565 15.4937 62.543 15.9072C62.2542 16.1705 62.417 16.5882 62.4156 16.9238C62.4935 17.4646 62.3575 18.0848 62.7087 18.552C62.9763 18.9471 63.3798 19.2203 63.8017 19.4285C63.6998 19.5814 63.5993 19.7343 63.4973 19.8872C63.7479 20.0203 63.9901 20.1789 64.2662 20.2511C64.6569 20.2709 65.0336 20.135 65.4144 20.0699L65.5291 20.1067C65.379 20.2369 65.2304 20.3658 65.0817 20.496C65.2559 20.6277 65.43 20.758 65.6056 20.8882C65.7939 20.7013 65.9836 20.5116 66.179 20.3304L66.2923 20.3615C66.2328 20.5442 66.1734 20.7268 66.1153 20.9095C67.3259 21.4744 68.6568 21.8694 69.6791 22.7657C70.2214 23.2216 70.4422 23.9961 71.1304 24.2835C70.9152 25.3695 71.0001 26.481 70.9321 27.5783C71.1403 27.7496 71.3498 27.9209 71.5594 28.0908C71.4022 28.5368 71.2224 28.9744 70.9973 29.3892C70.8514 29.2674 70.7056 29.1457 70.5598 29.0239C70.0826 29.62 69.672 30.2925 69.0193 30.7187C68.5917 30.9665 68.4685 31.4607 68.3297 31.8967C68.2321 31.935 68.0381 32.0128 67.9404 32.0525C68.0267 31.8104 68.1159 31.5697 68.2051 31.3304C67.6331 31.4408 67.0724 31.598 66.5217 31.7863C65.3621 32.1969 64.1232 31.901 62.9267 31.9406C62.5331 31.9534 62.2287 32.2422 61.9016 32.4263C61.8422 32.4192 61.7246 32.4036 61.6652 32.3951C61.8096 32.1672 61.954 31.9378 62.097 31.7084C61.457 31.53 60.8142 31.7127 60.2323 31.9859C59.8557 31.8274 59.4762 31.6787 59.1053 31.513C59.2851 31.3743 59.4635 31.2341 59.6433 31.0954C59.3587 31.1123 59.0755 31.1293 58.7923 31.1463C58.8518 31.0614 58.9127 30.975 58.9736 30.8901C58.9453 30.8391 58.89 30.7386 58.8617 30.689C58.6649 30.7343 58.4695 30.7796 58.2727 30.8235C58.1977 30.4115 57.94 29.9357 58.2175 29.5492C58.7159 28.8384 59.4408 28.3372 60.0624 27.744C60.0581 27.5684 60.0539 27.3942 60.0497 27.2201C60.255 27.3319 60.4617 27.441 60.6627 27.5599C60.9615 27.8388 61.2829 28.0979 61.651 28.2792C61.576 28.6176 61.6708 28.9956 62.0206 29.1372C62.3519 29.1499 62.6761 29.0664 62.9989 29.0055C62.9664 29.1853 62.9338 29.3666 62.9012 29.5478C63.0768 29.552 63.2538 29.5634 63.4294 29.545C63.537 29.4189 63.6191 29.2774 63.7055 29.1386C64.3823 29.2179 65.1129 29.2405 65.6976 28.8328C66.1691 28.5694 66.5712 28.2027 66.9323 27.8048C67.0427 27.9379 67.1531 28.0696 67.2636 28.2013C67.5269 27.9606 67.8781 27.7369 67.9092 27.3461C67.98 26.7755 68.0253 26.161 67.8087 25.6173C67.5737 25.3171 67.207 25.4785 66.9195 25.5833C66.6618 25.3157 66.3857 25.0637 66.0898 24.8386C66.2413 24.6842 66.3928 24.5313 66.5443 24.377C66.1153 24.0754 65.7033 23.7129 65.1907 23.5671C64.6654 23.5544 64.1642 23.7611 63.6488 23.8319C62.2514 23.4623 60.8241 22.9653 59.6985 22.0323C59.8967 21.902 60.095 21.7732 60.2932 21.6457C60.0312 21.296 59.6773 21.0312 59.2355 20.9732C59.2072 20.4592 59.0769 19.958 58.8702 19.4865C58.7286 19.6961 58.5885 19.9056 58.4469 20.1152C58.3902 19.6125 58.3747 19.0943 58.5885 18.6242C58.8207 18.1018 58.7428 17.5269 58.6649 16.9804C58.5021 16.9535 58.3407 16.9266 58.1779 16.8997C58.2869 16.4877 58.3832 16.0714 58.4709 15.6537C58.5998 15.8477 58.7286 16.0417 58.8589 16.2342C59.1534 15.6282 59.3941 14.9783 59.85 14.4686C60.1587 14.109 60.5353 13.7947 60.7449 13.36C60.6118 13.2184 60.4673 13.091 60.3243 12.9621Z" fill="white"/>
<path d="M75.0527 18.3125C76.412 18.1865 77.7811 18.2573 79.1432 18.2757C79.163 18.8421 79.156 19.4084 79.173 19.9748L79.1815 20.105C79.5652 20.1631 79.9857 20.2749 80.3581 20.105C80.9995 19.785 81.4044 19.1168 82.0826 18.8548C83.1587 18.4456 84.3806 19.0063 85.417 18.4513C85.72 19.0077 86.2949 19.3036 86.738 19.727C87.2223 20.1999 87.184 20.9404 87.5054 21.5025C87.6725 21.7574 87.9061 21.957 88.1214 22.168C87.8396 23.2625 87.8962 24.3966 87.9104 25.5151C87.8792 27.6786 87.9642 29.8463 87.8693 32.0084C87.0255 32.0792 86.1788 32.0721 85.3363 32.0155C85.2443 31.602 85.1706 31.1829 85.1749 30.7582C85.2018 28.7731 85.1806 26.7894 85.1947 24.8044C85.2032 23.724 85.0206 22.5729 84.3268 21.7064C83.6769 20.9503 82.6801 20.3868 81.655 20.5709C81.0193 20.6388 80.5124 21.0622 80.089 21.5068C80.1896 21.6753 80.2915 21.8423 80.3935 22.0108C79.9772 22.488 79.5397 23.0246 79.4646 23.6745C79.391 26.5388 79.5213 29.4088 79.4038 32.2717C77.9595 32.2604 76.5153 32.2859 75.0697 32.259C75.0655 27.6106 75.0995 22.9609 75.0527 18.3125Z" fill="white"/>
<path d="M134.777 11.856C136.197 11.5119 137.702 11.41 139.118 11.8376C139.095 12.0939 139.076 12.3501 139.057 12.6064C139.592 12.6843 140.103 12.5144 140.482 12.1278C141.068 12.3105 141.678 12.4662 142.164 12.8669C141.961 12.9689 141.76 13.0666 141.558 13.1628C141.938 13.0736 142.379 12.8429 142.75 13.085C143.234 13.3809 143.686 13.7278 144.149 14.0563C144.132 14.1426 144.096 14.314 144.079 14.4003C143.875 14.2998 143.673 14.1993 143.47 14.0987C143.404 14.4216 143.339 14.7699 143.075 14.9978C142.495 15.5755 141.926 16.1659 141.3 16.6955C140.892 16.3712 140.399 16.1928 139.878 16.1928C139.99 16.0923 140.103 15.9904 140.217 15.8898C139.659 15.5429 139.105 15.1224 138.433 15.0431C137.558 14.9511 136.644 14.903 135.801 15.1989C136.003 15.3079 136.203 15.4566 136.443 15.4637C137.255 15.516 138.067 15.4368 138.88 15.4566C138.712 15.5472 138.542 15.6364 138.375 15.7256C137.613 15.6421 136.841 15.652 136.082 15.7412C135.786 15.6576 135.508 15.5288 135.238 15.3872C134.635 15.6463 133.973 15.8615 133.505 16.3415C133.299 16.5411 133.442 16.8385 133.457 17.0792C133.388 17.1585 133.321 17.2378 133.256 17.3199C133.101 17.2817 132.946 17.2434 132.792 17.2066C132.19 17.6908 131.614 18.2515 131.304 18.9722C131.161 19.2837 131.302 19.6207 131.36 19.935C131.178 20.0228 130.994 20.1078 130.824 20.2182C130.811 20.7576 131.038 21.2759 131.039 21.8181C131.047 22.3831 131.179 22.9962 130.899 23.52C130.817 23.7253 130.675 23.959 130.818 24.1742C131.055 24.4446 131.4 24.5791 131.707 24.7533C131.702 25.3324 131.678 25.9469 132.029 26.4438C132.193 26.332 132.357 26.2201 132.521 26.1083C133.219 27.0229 134.128 27.973 135.322 28.1401C135.537 28.1556 135.716 28.2831 135.9 28.3864C135.767 28.385 135.502 28.3808 135.369 28.3779C135.617 28.511 135.869 28.6682 136.159 28.6724C137.085 28.7404 138.026 28.5578 138.94 28.7843C137.805 28.8537 136.576 28.4813 135.519 29.0321C136.176 29.2898 136.889 29.277 137.583 29.2544C138.557 29.243 139.52 28.9344 140.348 28.4289C140.77 28.1783 140.99 27.5652 141.518 27.5327C142.132 27.8781 142.578 28.4502 143.08 28.9358C143.289 29.185 143.711 29.563 143.374 29.8816C142.653 30.5839 141.766 31.1205 140.82 31.4589C140.894 31.6189 140.97 31.7789 141.048 31.9403C140.551 31.7747 140.017 31.5382 139.505 31.7902C139.626 31.9998 139.749 32.2093 139.874 32.4175L139.749 32.4429C138.547 31.8185 137.173 31.9913 135.87 31.9998C135.577 31.987 135.326 32.1414 135.091 32.2943C136.384 32.6992 137.757 32.2164 139.051 32.6143C138.378 32.7219 137.694 32.6822 137.015 32.6907C136.323 32.6836 135.624 32.7261 134.94 32.6072C134.587 32.1867 134.232 31.7223 133.705 31.5155C133.219 31.3315 132.727 31.1672 132.228 31.0285C131.914 30.9265 131.615 31.1205 131.328 31.2154C131.399 31.0525 131.469 30.8897 131.54 30.7269C131.219 30.4211 130.878 30.1379 130.519 29.8774C129.929 29.4554 129.448 28.9075 128.934 28.3992C128.778 28.4827 128.623 28.5677 128.471 28.6512C128.381 28.5394 128.295 28.4247 128.211 28.31C128.36 28.2279 128.51 28.1457 128.662 28.065C128.48 27.5964 128.335 27.1065 128.068 26.6789C127.807 26.3674 127.189 26.4 127.152 25.903C127.033 25.1016 127.6 24.3059 127.222 23.5229C127.029 23.6418 126.839 23.7622 126.647 23.8783C126.631 23.1208 126.443 22.3661 126.551 21.6086C126.595 21.2419 126.658 20.8766 126.702 20.5099C126.844 20.7449 127.001 20.97 127.161 21.1952C127.539 20.306 127.281 19.3588 127.058 18.4682C127.236 18.6805 127.417 18.8901 127.603 19.0968C127.724 18.6522 127.618 18.2048 127.458 17.7871C127.598 17.865 127.74 17.9429 127.883 18.0207C128.197 17.0707 128.73 16.2282 129.394 15.4849C130.205 14.3111 131.536 13.7065 132.783 13.1147C132.654 12.9193 132.526 12.7239 132.4 12.5285C132.526 12.4761 132.654 12.4238 132.785 12.3742C133.003 12.3515 133.222 12.336 133.442 12.319C133.236 12.4889 133.031 12.6602 132.83 12.8344C133.532 13.0736 134.211 12.6899 134.862 12.4676C134.832 12.2638 134.804 12.0599 134.777 11.856Z" fill="white"/>
<path d="M108.623 18.2812C108.688 18.3322 108.821 18.4327 108.886 18.4837C108.806 19.8345 108.844 21.1881 108.834 22.5416C108.834 26.8842 108.834 31.2253 108.834 35.5678C108.847 36.6396 108.797 37.7143 108.882 38.7861C110.079 38.871 111.282 38.864 112.48 38.7847C112.614 37.1961 112.511 35.6018 112.541 34.0103C112.503 32.9427 112.682 31.8468 112.362 30.809C112.173 31.0808 112.04 31.3923 112.055 31.7322C112.016 33.931 112.095 36.1327 112.028 38.3316C111.129 38.4038 110.226 38.4095 109.327 38.3288C109.253 37.315 109.317 36.2998 109.306 35.2846C109.301 30.6122 109.307 25.9384 109.301 21.2659C109.297 20.5141 109.347 19.7651 109.433 19.0189C110.285 18.9977 111.14 19.0373 111.99 18.9481C112.021 18.774 112.054 18.6012 112.086 18.4271C112.137 18.4427 112.241 18.4724 112.292 18.4866C112.36 18.8037 112.435 19.118 112.507 19.4352C112.534 19.574 112.562 19.7141 112.59 19.8557C113.308 19.6702 113.668 18.934 114.315 18.614C114.571 18.7202 114.822 18.8561 115.099 18.9028C115.557 18.7938 115.991 18.5588 116.477 18.6069C117.563 18.6805 118.734 18.4073 119.728 18.9821C119.867 18.7896 120.007 18.597 120.147 18.4044C121.659 19.2752 122.868 20.684 123.379 22.3647C122.792 23.7197 122.999 25.212 123.035 26.6406C123.065 27.1688 122.795 27.6374 122.609 28.1117C122.374 28.6625 122.216 29.2614 121.837 29.7386C121.274 30.4295 120.611 31.0511 119.831 31.4929C119.864 31.6217 119.899 31.7506 119.935 31.8808C119.511 31.7024 119.058 31.5665 118.598 31.6883C118.659 31.8766 118.72 32.0649 118.782 32.2546C119.006 32.2801 119.231 32.307 119.457 32.3353L119.435 32.3495C119.341 32.3651 119.152 32.3976 119.057 32.4132C118.851 32.3523 118.706 32.4174 118.619 32.61L118.5 32.6284C117.724 32.6327 116.947 32.627 116.171 32.6341C116.092 32.4443 115.952 32.3665 115.751 32.4005C115.642 32.3934 115.426 32.3806 115.317 32.375C115.303 32.3707 115.273 32.3636 115.259 32.3594C115.177 32.3268 115.012 32.2589 114.929 32.2249C114.854 32.1782 114.704 32.0819 114.629 32.0337C114.401 31.895 114.18 31.7477 113.967 31.5892C113.668 31.17 113.3 30.8019 112.824 30.5881C112.637 31.4815 112.718 32.3976 112.712 33.3024C112.695 35.1997 112.743 37.0984 112.689 38.9956C111.35 39.0367 110.008 39.0367 108.668 38.9942C108.599 32.0904 108.691 25.1837 108.623 18.2812ZM113.889 21.501C113.196 22.1962 112.454 22.9098 112.113 23.8542C111.986 24.1175 112.132 24.388 112.229 24.6329C112.474 24.3809 112.535 24.0368 112.563 23.7013C112.617 23.7735 112.723 23.9179 112.777 23.9901C112.698 24.8184 112.689 25.6637 112.789 26.4906C112.729 26.4962 112.609 26.509 112.549 26.516C112.534 26.2159 112.517 25.9171 112.498 25.6198C112.214 25.6495 111.901 25.7331 111.938 26.0899C112.075 26.6406 112.372 27.1518 112.691 27.6204C112.916 27.9461 113.342 27.8809 113.685 27.8781C113.817 28.0367 113.968 28.1797 114.132 28.3071C114.006 28.4147 113.88 28.5238 113.756 28.6328C114.057 29.0547 114.389 29.5489 114.938 29.6522C115.378 29.6352 115.762 29.3521 116.202 29.3138C116.599 29.3421 116.944 29.5729 117.331 29.6551C117.734 29.5404 118.036 29.2275 118.335 28.9499C118.182 28.8409 118.03 28.7333 117.882 28.6257C118.438 28.2717 118.953 27.7988 119.251 27.2013C119.433 27.3344 119.599 27.6247 119.857 27.4576C119.946 27.2098 119.772 26.996 119.677 26.7822C119.847 26.7454 120.027 26.7284 120.184 26.6463C120.378 26.3716 120.314 26.0247 120.297 25.7132C120.133 25.6665 119.97 25.6198 119.809 25.5731C119.8 25.2559 119.789 24.9387 119.775 24.623C119.902 24.6188 120.029 24.6159 120.157 24.6131C120.263 24.3002 120.44 23.9335 120.216 23.6276C119.937 23.5016 119.637 23.4379 119.343 23.3643C118.905 22.4624 118.083 21.7289 117.147 21.3764C116.511 21.3141 115.862 21.307 115.231 21.3905C115.221 21.3282 115.204 21.2022 115.196 21.1399C115.967 21.1512 116.739 21.1753 117.508 21.113C117.491 21.0167 117.455 20.8228 117.437 20.7265C116.801 20.616 116.148 20.6274 115.506 20.6217C114.888 20.7123 114.339 21.0847 113.889 21.501Z" fill="white"/>
<path d="M132.785 12.3742C133.417 12.0938 134.082 11.8871 134.777 11.856C134.804 12.0598 134.833 12.2637 134.862 12.4676C134.211 12.6899 133.533 13.0736 132.83 12.8343C133.032 12.6602 133.237 12.4889 133.442 12.319C133.223 12.3359 133.003 12.3515 132.785 12.3742Z" fill="white"/>
<path d="M139.118 11.8379C139.586 11.8605 140.06 11.903 140.482 12.1281C140.104 12.5147 139.593 12.6846 139.058 12.6067C139.076 12.3504 139.096 12.0942 139.118 11.8379Z" fill="white"/>
<path d="M143.471 14.0991C143.673 14.1996 143.876 14.3002 144.079 14.4007C144.096 14.3143 144.132 14.143 144.149 14.0566C144.47 14.4276 144.041 14.7674 143.799 15.0294C142.972 15.8166 142.185 16.6435 141.375 17.4491C140.53 16.6336 139.483 16.0913 138.375 15.726C138.542 15.6368 138.712 15.5476 138.88 15.457C138.068 15.4371 137.255 15.5164 136.444 15.464C136.203 15.457 136.003 15.3083 135.801 15.1993C136.645 14.9033 137.558 14.9515 138.433 15.0435C139.105 15.1228 139.659 15.5433 140.217 15.8902C140.104 15.9907 139.99 16.0927 139.879 16.1932C140.4 16.1932 140.892 16.3716 141.3 16.6959C141.926 16.1663 142.495 15.5759 143.076 14.9982C143.339 14.7702 143.404 14.4219 143.471 14.0991Z" fill="white"/>
<path d="M163.904 26.2233C164.367 25.4998 165.064 24.9504 165.851 24.6177C165.894 24.8088 165.938 25.0014 165.981 25.1925C165.322 25.5408 164.699 25.9769 164.275 26.6027C164.151 26.4753 164.026 26.3493 163.904 26.2233Z" fill="white"/>
<path d="M68.5389 12.8344C68.7655 12.6305 68.9934 12.4266 69.2214 12.2241C70.1771 12.5583 71.0762 13.0609 71.8337 13.7377C71.8351 13.8581 71.8408 14.0973 71.8422 14.2177C70.919 15.1621 70.0157 16.132 69.1959 17.1684C68.8193 17.0792 68.5871 16.7535 68.3365 16.4888C68.1368 16.2651 67.906 16.0697 67.6455 15.921C67.7928 15.7638 67.9414 15.6081 68.0901 15.4523C68.3393 15.693 68.5871 15.9352 68.8334 16.1801C69.4904 15.7327 70.0355 15.1465 70.5636 14.5589C70.6826 14.3918 70.8907 14.2106 70.8029 13.9827C70.3838 13.572 69.7467 13.4163 69.4479 12.8783C69.1449 12.8599 68.8419 12.8471 68.5389 12.8344Z" fill="white"/>
<path d="M127.907 16.4069C128.973 14.7135 130.537 13.2906 132.4 12.5288C132.526 12.7242 132.655 12.9196 132.784 13.115C131.536 13.7068 130.205 14.3114 129.394 15.4852C128.73 16.2285 128.198 17.071 127.883 18.021C127.74 17.9432 127.599 17.8653 127.458 17.7874C127.618 18.2051 127.725 18.6525 127.603 19.0971C127.417 18.8904 127.236 18.6808 127.058 18.4684C127.281 19.359 127.539 20.3063 127.161 21.1954C127.001 20.9703 126.844 20.7452 126.702 20.5102C126.656 20.3034 126.607 20.0981 126.566 19.8914C126.902 18.6922 127.246 17.4745 127.907 16.4069Z" fill="white"/>
<path d="M180.413 14.4601C181.812 14.3369 183.22 14.4007 184.622 14.4247C184.68 15.6112 184.577 16.802 184.673 17.9871C184.418 17.9319 184.165 17.8752 183.914 17.82C183.851 16.9422 183.873 16.0615 183.862 15.1808C183 15.0024 182.105 14.9939 181.252 15.2219C181.2 16.1224 181.269 17.0271 181.173 17.9262C180.697 18.1117 180.375 18.5096 180.132 18.9428C179.791 18.9966 179.451 19.0462 179.112 19.0929C179.062 19.5601 179.051 20.0316 179.079 20.5017C179.487 20.5697 179.902 20.6235 180.295 20.758C180.392 21.0228 180.064 21.1601 179.938 21.3456C179.381 21.3569 178.824 21.347 178.271 21.2946C178.279 20.2681 178.272 19.2416 178.278 18.2151C178.971 18.2391 179.668 18.2363 180.362 18.1697C180.495 16.9379 180.413 15.6962 180.413 14.4601Z" fill="white"/>
<path d="M58.114 16.074C58.4638 14.8323 59.1873 13.6245 60.3242 12.9619C60.4672 13.0908 60.6117 13.2182 60.7448 13.3598C60.5352 13.7945 60.1586 14.1088 59.8499 14.4684C59.394 14.9781 59.1533 15.628 58.8588 16.234C58.7285 16.0415 58.5997 15.8475 58.4708 15.6535C58.3831 16.0712 58.2868 16.4875 58.1778 16.8995C58.3406 16.9264 58.502 16.9533 58.6648 16.9802C58.7427 17.5267 58.8206 18.1016 58.5884 18.624C58.3746 19.0941 58.3901 19.6123 58.4468 20.115C58.5884 19.9054 58.7285 19.6959 58.8701 19.4863C59.0768 19.9578 59.2071 20.459 59.2354 20.973C59.6772 21.031 60.0312 21.2958 60.2931 21.6455C60.0949 21.773 59.8966 21.9018 59.6984 22.0321C58.5176 21.1316 57.821 19.6336 57.9158 18.1511C57.9456 17.4573 57.8096 16.7253 58.114 16.074Z" fill="white"/>
<path d="M123.379 22.3647C123.565 22.8773 123.766 23.3983 123.77 23.952C123.787 24.8978 123.819 25.8478 123.733 26.7908C123.573 27.7904 123.111 28.7051 122.748 29.6396C122.018 30.8785 120.85 31.8158 119.514 32.3283L119.457 32.3354C119.231 32.3071 119.005 32.2802 118.782 32.2547C118.719 32.065 118.659 31.8767 118.598 31.6883C119.058 31.5666 119.511 31.7025 119.934 31.8809C119.899 31.7506 119.863 31.6218 119.831 31.493C120.611 31.0512 121.274 30.4296 121.837 29.7387C122.215 29.2615 122.374 28.6626 122.609 28.1118C122.794 27.6375 123.065 27.1688 123.035 26.6407C122.998 25.2121 122.792 23.7197 123.379 22.3647Z" fill="white"/>
<path d="M126.647 23.8783C126.84 23.7622 127.03 23.6419 127.222 23.5229C127.6 24.3059 127.034 25.1017 127.153 25.9031C127.19 26.4 127.807 26.3675 128.069 26.679C128.335 27.1066 128.481 27.5965 128.662 28.0651C128.511 28.1458 128.361 28.2279 128.212 28.3101C127.353 26.9848 126.676 25.4811 126.647 23.8783Z" fill="white"/>
<path d="M180.269 14.252C181.719 14.0184 183.2 14.2251 184.661 14.126C185.035 15.372 184.657 16.6859 184.916 17.9503C185.992 18.1159 187.088 17.9276 188.16 18.1315C188.19 19.2345 188.18 20.336 188.168 21.439C187.206 21.7477 186.192 21.4957 185.209 21.6231C184.841 21.6641 184.828 22.1059 184.816 22.3891C184.794 23.3844 184.834 24.3798 184.817 25.3738C184.824 26.3323 184.714 27.3348 185.099 28.2424C185.223 28.5184 185.481 28.6969 185.726 28.8625C185.743 28.871 185.777 28.8866 185.795 28.8951C186.468 29.14 187.197 28.8653 187.87 28.9786C187.88 28.9899 187.901 29.0112 187.911 29.0225C188.073 29.3368 188.034 29.7035 188.048 30.0476C188.028 30.8334 188.103 31.6249 187.976 32.4051L187.836 32.4249C187.344 32.4815 186.861 32.5934 186.384 32.725C185.672 32.8567 184.92 32.868 184.21 32.725C183.907 32.6472 183.605 32.5693 183.301 32.507C182.331 32.3838 181.548 31.6929 181.018 30.9127C180.86 30.6989 180.81 30.4384 180.775 30.1821C181.358 31.0883 182.086 32.0412 183.193 32.3017C184.067 32.473 184.959 32.7165 185.856 32.5735C186.485 32.4787 187.109 32.3597 187.745 32.3031C187.81 31.2766 187.8 30.2472 187.751 29.2207C187.51 29.2448 187.271 29.2675 187.033 29.2887C186.587 29.2774 186.125 29.3184 185.693 29.1867C185.213 28.9446 184.963 28.4377 184.653 28.0243C184.65 25.8056 184.582 23.5841 184.685 21.3668C185.75 21.3201 186.818 21.3881 187.884 21.3158C187.922 20.3007 187.923 19.2826 187.88 18.2674C186.825 18.2165 185.768 18.225 184.715 18.2589C184.704 18.191 184.682 18.0551 184.673 17.9871C184.576 16.802 184.68 15.6112 184.622 14.4247C183.22 14.4007 181.811 14.3369 180.412 14.4601C180.412 15.6962 180.494 16.9379 180.361 18.1697C179.667 18.2363 178.971 18.2391 178.277 18.2151C178.271 19.2416 178.278 20.2681 178.27 21.2946C178.824 21.347 179.38 21.3569 179.938 21.3456C180.038 21.3442 180.242 21.3427 180.343 21.3413C180.542 22.4868 180.411 23.6521 180.445 24.8074C180.452 25.8948 180.436 26.9822 180.442 28.0696C180.442 28.7889 180.674 29.4756 180.775 30.1821C180.339 29.6257 180.286 28.8837 180.261 28.2041C180.249 26.2205 180.263 24.2368 180.259 22.2532C180.273 22.0054 180.176 21.7123 179.9 21.6684C179.326 21.5707 178.741 21.6882 178.168 21.6004C177.936 21.4829 177.994 21.2012 177.973 20.9888C177.971 20.2299 177.98 19.4709 177.97 18.712C177.985 18.46 177.924 18.1315 178.178 17.9758C178.791 17.8583 179.424 18.0126 180.038 17.8922C180.195 17.7407 180.262 17.5227 180.254 17.3075C180.269 16.2894 180.228 15.27 180.269 14.252Z" fill="white"/>
<path d="M184.661 14.126C184.818 14.2619 185.046 14.3752 185.029 14.6201C185.09 15.6523 185.015 16.6901 185.046 17.7252C186.064 17.8413 187.091 17.7492 188.114 17.7761C188.324 18.3991 188.28 19.0632 188.28 19.7116C188.272 20.4068 188.344 21.1219 188.12 21.7944C187.123 21.8355 186.128 21.7873 185.133 21.8298C185.056 23.9664 185.134 26.1058 185.099 28.2423C184.714 27.3348 184.824 26.3323 184.817 25.3738C184.834 24.3798 184.794 23.3844 184.815 22.3891C184.828 22.1059 184.841 21.6641 185.209 21.6231C186.192 21.4957 187.205 21.7477 188.168 21.439C188.18 20.336 188.19 19.2345 188.16 18.1315C187.088 17.9276 185.992 18.1159 184.916 17.9503C184.657 16.6859 185.035 15.372 184.661 14.126Z" fill="white"/>
<path d="M63.9674 14.8946C64.7744 14.4316 65.7726 14.5137 66.6236 14.8125C66.5599 15.0036 66.4961 15.1933 66.4324 15.3845C65.5376 15.3236 64.5748 15.2386 63.7493 15.6648C63.1759 15.9254 62.8205 16.4662 62.4156 16.9235C62.417 16.588 62.2541 16.1703 62.543 15.9069C62.9564 15.4935 63.4633 15.1863 63.9674 14.8946Z" fill="white"/>
<path d="M132.792 17.207C132.946 17.2438 133.1 17.2821 133.256 17.3203C133.201 17.3897 133.089 17.527 133.032 17.5964C132.38 18.2944 131.907 19.1567 131.636 20.0699C131.356 21.4221 131.328 22.8309 131.624 24.1817C131.835 24.8599 132.152 25.5027 132.521 26.1087C132.357 26.2206 132.193 26.3324 132.029 26.4443C131.677 25.9473 131.702 25.3328 131.707 24.7537C131.4 24.5795 131.054 24.445 130.818 24.1746C130.675 23.9594 130.817 23.7258 130.899 23.5205C131.179 22.9966 131.047 22.3835 131.039 21.8186C131.037 21.2763 130.811 20.7581 130.824 20.2186C130.994 20.1082 131.178 20.0232 131.36 19.9354C131.302 19.6211 131.161 19.2841 131.304 18.9726C131.614 18.252 132.19 17.6913 132.792 17.207Z" fill="white"/>
<path d="M113.889 21.5013C114.339 21.0851 114.888 20.7127 115.506 20.6221C116.149 20.6277 116.801 20.6164 117.437 20.7268C117.455 20.8231 117.491 21.0171 117.508 21.1134C116.739 21.1757 115.967 21.1516 115.196 21.1403C115.204 21.2026 115.221 21.3286 115.231 21.3909C114.7 21.7095 114.115 21.9714 113.702 22.4486C113.305 22.9031 113.024 23.4453 112.777 23.9905C112.724 23.9182 112.617 23.7738 112.564 23.7016C112.535 24.0372 112.474 24.3812 112.229 24.6333C112.132 24.3883 111.986 24.1179 112.113 23.8545C112.455 22.9101 113.196 22.1965 113.889 21.5013Z" fill="white"/>
<path d="M66.9189 25.5832C67.2064 25.4785 67.5731 25.317 67.8081 25.6172C68.0248 26.1609 67.9794 26.7754 67.9086 27.346C67.8775 27.7368 67.5264 27.9605 67.263 28.2012C67.1526 28.0695 67.0421 27.9378 66.9317 27.8047C67.2389 27.1081 67.2616 26.2699 66.9189 25.5832Z" fill="white"/>
<path d="M69.0186 30.7187C69.6714 30.2926 70.082 29.62 70.5591 29.0239C70.705 29.1457 70.8508 29.2675 70.9966 29.3892C70.4388 30.5078 69.4618 31.3856 68.3291 31.8968C68.4679 31.4607 68.591 30.9665 69.0186 30.7187Z" fill="white"/>
<path d="M66.5214 31.786C67.0722 31.5977 67.6329 31.4405 68.2049 31.3301C68.1157 31.5694 68.0265 31.8101 67.9401 32.0522C66.983 32.4118 65.9805 32.7276 64.9455 32.6879C63.9289 32.6483 62.867 32.8295 61.9014 32.426C62.2284 32.2419 62.5329 31.9531 62.9265 31.9403C64.1229 31.9007 65.3618 32.1966 66.5214 31.786Z" fill="white"/>
<path d="M181.252 15.2215C182.104 14.9935 182.999 15.002 183.862 15.1804C183.873 16.0611 183.85 16.9418 183.914 17.8196C184.165 17.8749 184.418 17.9315 184.673 17.9867C184.683 18.0547 184.704 18.1906 184.715 18.2586C184.749 18.4596 184.783 18.6607 184.817 18.8617C185.559 19.0656 186.334 19.0345 187.095 19.0585C187.132 19.5584 187.144 20.061 187.132 20.5622C186.458 20.6967 185.77 20.5948 185.093 20.667C184.693 20.8327 184.408 21.1923 184.125 21.5052C183.815 21.8153 183.86 22.2797 183.852 22.6804C183.88 24.1472 183.862 25.6127 183.854 27.0795C183.836 27.4661 183.948 27.8384 184.118 28.1811C184.295 28.1287 184.473 28.0763 184.653 28.0239C184.963 28.4374 185.214 28.9443 185.694 29.1864C186.126 29.318 186.587 29.277 187.033 29.2883C186.538 29.369 186.058 29.5234 185.614 29.7584C186.09 29.9283 186.583 30.0416 187.081 30.1265C187.095 30.5725 187.165 31.0383 187.009 31.4688C186.712 31.6274 186.38 31.701 186.059 31.7916C186.184 31.9318 186.308 32.0734 186.436 32.215C185.691 32.3905 184.915 32.4514 184.173 32.2362C184.299 32.0634 184.427 31.8921 184.557 31.7208C184.06 31.6684 183.559 31.6812 183.069 31.5962C182.729 31.4914 182.461 31.2394 182.199 31.0129C181.692 30.5782 181.575 29.8872 181.351 29.2926C181.205 29.5403 181.06 29.7881 180.912 30.0331C180.662 29.1963 181.261 28.4657 181.215 27.6416C181.205 26.036 181.195 24.4304 181.221 22.8248C181.212 22.4751 181.231 22.1154 181.123 21.7799C180.919 21.5519 180.625 21.4372 180.343 21.341C180.243 21.3424 180.039 21.3438 179.938 21.3452C180.064 21.1597 180.391 21.0224 180.295 20.7576C179.901 20.6231 179.486 20.5693 179.079 20.5013C179.05 20.0313 179.062 19.5598 179.111 19.0925C179.451 19.0458 179.791 18.9962 180.132 18.9424C180.374 18.5092 180.697 18.1113 181.173 17.9258C181.269 17.0268 181.2 16.122 181.252 15.2215Z" fill="white"/>
<path d="M63.7488 15.6648C64.5743 15.2386 65.5371 15.3236 66.4319 15.3845C66.8468 15.5402 67.2531 15.7158 67.6453 15.9211C67.9058 16.0698 68.1366 16.2651 68.3363 16.4889C67.6255 16.2227 66.9912 15.754 66.2252 15.6478C65.268 15.4057 64.2075 15.6053 63.4005 16.1703C62.7067 16.6333 62.5212 17.6513 62.9177 18.3607C63.443 19.0743 64.301 19.424 65.1137 19.7001C65.9774 20.0201 66.8907 20.2155 67.7218 20.6162C67.7586 20.6643 67.8322 20.7606 67.869 20.8101C67.3409 20.6685 66.817 20.5114 66.2917 20.3613L66.1785 20.3302C65.9604 20.2579 65.7452 20.1801 65.5286 20.1064L65.4139 20.0696C64.873 19.8629 64.3293 19.6647 63.8012 19.4282C63.3793 19.2201 62.9757 18.9468 62.7081 18.5518C62.357 18.0846 62.4929 17.4644 62.415 16.9235C62.82 16.4662 63.1754 15.9253 63.7488 15.6648Z" fill="white"/>
<path d="M133.505 16.3415C133.973 15.8615 134.635 15.6463 135.238 15.3872C135.507 15.5288 135.786 15.6576 136.082 15.7412C135.172 16.1121 134.218 16.4307 133.457 17.0792C133.442 16.8385 133.299 16.5412 133.505 16.3415Z" fill="white"/>
<path d="M134.713 16.5583C136.217 15.6903 138.258 15.6124 139.751 16.5483C138.9 16.3317 138.05 16.0429 137.158 16.1137C136.31 16.0585 135.528 16.411 134.713 16.5583Z" fill="white"/>
<path d="M96.5068 17.5876C96.7857 17.514 97.076 17.4885 97.3648 17.4772C98.7722 17.4545 100.236 17.354 101.56 17.9274C103.289 18.5108 104.407 20.1957 104.761 21.9216C104.883 22.5956 105.088 23.2611 105.093 23.9506C105.097 26.7795 105.086 29.6085 105.1 32.4374C104.14 32.6399 103.154 32.4941 102.184 32.5365C101.662 32.5125 101.113 32.6172 100.61 32.4572C100.357 32.1188 100.348 31.6502 100.191 31.2622C100.232 31.1999 100.316 31.0753 100.357 31.013C100.47 30.9904 100.696 30.9465 100.808 30.9253C100.814 31.3741 100.818 31.8243 100.82 32.2732C102.101 32.3511 103.405 32.4487 104.678 32.2307C104.682 29.2842 104.692 26.3392 104.669 23.3928C104.693 22.5999 104.42 21.848 104.202 21.0976C104.053 20.636 103.818 20.2084 103.549 19.8077C103.429 19.6336 103.303 19.4623 103.17 19.2994C102.469 18.3069 101.222 17.9147 100.073 17.7391C98.4522 17.4928 96.7305 17.5848 95.2141 18.2474C94.2385 18.6085 93.3055 19.1295 92.5395 19.8389C92.3738 19.9776 92.5154 20.2198 92.6301 20.3458C93.2404 21.0523 93.8662 21.7475 94.5415 22.3946C94.6789 22.2954 94.8176 22.1963 94.955 22.0944L94.8998 22.2162C94.8644 22.5574 94.4637 22.6806 94.2286 22.4342C93.5943 21.8863 93.0733 21.2194 92.5027 20.6077C92.3059 20.3826 92.0581 20.1022 92.1926 19.7808C93.3522 18.6085 94.9437 18.0081 96.5068 17.5876Z" fill="white"/>
<path d="M133.033 17.596C133.177 17.5337 133.323 17.47 133.47 17.4077C133.207 17.9387 132.745 18.3351 132.469 18.8562C132.038 19.6278 131.839 20.5014 131.688 21.3651C131.464 22.5587 131.9 23.7268 132.131 24.8822C132.646 26.0616 133.524 27.149 134.715 27.6955C134.944 27.8031 135.143 27.9617 135.322 28.1401C134.129 27.973 133.22 27.023 132.522 26.1083C132.152 25.5023 131.835 24.8595 131.624 24.1813C131.328 22.8306 131.356 21.4217 131.637 20.0696C131.907 19.1563 132.38 18.2941 133.033 17.596Z" fill="white"/>
<path d="M163.985 19.6379C165.365 18.4797 167.091 17.7364 168.871 17.4858C170.37 17.449 171.942 17.3116 173.355 17.9276C174.086 18.2589 174.928 18.6468 175.241 19.444C175.044 19.2967 174.84 19.1608 174.645 19.0178C174.294 18.7459 173.923 18.501 173.532 18.2928C173.178 18.096 172.806 17.9162 172.404 17.8468C171.342 17.6472 170.253 17.5254 169.175 17.6599C168.036 17.8044 166.858 18.0281 165.901 18.7049C165.695 18.8196 165.49 18.9357 165.289 19.0546C164.865 19.3024 164.456 19.5728 164.054 19.8503C164.288 20.4209 164.758 20.8301 165.157 21.2804C165.177 21.3455 165.218 21.4743 165.238 21.5395C164.751 21.2237 164.35 20.7975 163.975 20.3615C163.778 20.1746 163.738 19.7994 163.985 19.6379Z" fill="white"/>
<path d="M82.0791 17.7885C82.78 17.6866 83.4808 17.4289 84.1958 17.5634C84.9533 17.6937 85.7533 17.7687 86.4032 18.2204C88.1164 19.1789 88.8399 21.2405 88.898 23.1066C88.9291 25.7968 88.8952 28.487 88.915 31.1786C88.9235 31.5906 88.8768 32.0012 88.8201 32.4104C87.6591 32.4472 86.4967 32.3891 85.3356 32.4217C84.9548 32.4203 84.5555 32.4854 84.1944 32.3283C84.2596 32.3297 84.3912 32.3311 84.4564 32.3311C85.8425 32.3707 87.2329 32.4274 88.6148 32.2886C88.7196 29.277 88.6205 26.2612 88.6658 23.2482C88.5539 21.719 88.2 20.0837 87.0842 18.9566C86.3367 18.3889 85.4602 17.8905 84.4974 17.8692C83.4256 17.8112 82.2801 17.8183 81.3301 18.3875C80.6363 18.6975 80.1068 19.2639 79.7245 19.9095C79.5404 19.9308 79.3563 19.952 79.1723 19.9747C79.1553 19.4083 79.1624 18.842 79.1425 18.2756C77.7805 18.2572 76.4113 18.1864 75.0521 18.3124C75.0988 22.9608 75.0648 27.6105 75.069 32.2589C76.5147 32.2858 77.9589 32.2603 79.4031 32.2716C79.5206 29.4087 79.3903 26.5387 79.464 23.6744C79.539 23.0245 79.9765 22.4879 80.3928 22.0107C81.0115 21.3552 81.9687 21.1499 82.8196 21.4061C83.5771 21.8139 84.1463 22.57 84.2511 23.4351C84.2298 23.5059 84.1859 23.6461 84.1647 23.7154C84.0019 23.3091 83.8928 22.8801 83.6847 22.4935C83.4723 22.1212 83.1113 21.8663 82.7545 21.644C82.7318 21.6369 82.6879 21.6242 82.6667 21.6171C82.2235 21.6058 81.7605 21.5435 81.3315 21.6865C80.6377 21.9824 80.0841 22.5983 79.8632 23.3218C79.5376 24.3016 79.6523 25.3494 79.6339 26.3646C79.6225 28.3765 79.6622 30.3899 79.614 32.4019C78.0452 32.4642 76.4722 32.4543 74.9034 32.409C74.8751 27.6204 74.8836 22.8319 74.8991 18.0434H75.0237C76.475 18.0434 77.9249 18.0307 79.3762 18.0533C79.4413 18.597 79.5022 19.1407 79.5999 19.6802C79.6494 19.5938 79.7514 19.4196 79.8023 19.3333C80.0317 18.8363 80.5358 18.5928 80.9733 18.3138C81.3216 18.1015 81.6628 17.8423 82.0791 17.7885Z" fill="white"/>
<path d="M95.2139 18.2476C96.7303 17.5849 98.452 17.4929 100.073 17.7393C101.221 17.9148 102.469 18.307 103.17 19.2996C102.891 19.0914 102.602 18.896 102.306 18.712C101.663 18.3325 100.967 17.9984 100.209 17.9573C98.5398 17.8568 96.8492 17.8497 95.2139 18.2476Z" fill="white"/>
<path d="M113.075 19.3519C114.166 18.1824 115.753 17.5693 117.335 17.5127C117.908 17.524 118.469 17.667 119.035 17.7392C119.76 17.8185 120.399 18.2022 120.985 18.6114C122.395 19.594 123.439 21.126 123.821 22.7996C123.967 24.5539 124.126 26.3648 123.585 28.0724C123.416 28.6472 123.098 29.1598 122.748 29.6397C123.112 28.7053 123.573 27.7906 123.733 26.791C123.82 25.848 123.787 24.898 123.77 23.9521C123.766 23.3985 123.565 22.8775 123.379 22.3649C122.868 20.6843 121.659 19.2755 120.147 18.4047C118.939 17.7704 117.532 17.7095 116.204 17.8737C115.527 17.9686 114.888 18.2504 114.315 18.6143C113.668 18.9342 113.308 19.6705 112.59 19.856C112.562 19.7144 112.534 19.5742 112.507 19.4355C112.561 19.022 112.599 18.6072 112.585 18.1909C112.641 18.1909 112.753 18.1923 112.81 18.1937C112.841 18.6497 112.849 19.1084 112.866 19.5657C112.934 19.4949 113.004 19.4227 113.075 19.3519Z" fill="white"/>
<path d="M165.901 18.7047C166.859 18.0279 168.037 17.8042 169.176 17.6597C170.254 17.5252 171.343 17.647 172.405 17.8466C172.807 17.916 173.179 18.0958 173.533 18.2926C172.657 18.0718 171.765 17.8849 170.857 17.9104C169.665 17.9387 168.42 17.7928 167.286 18.2388C166.827 18.4045 166.366 18.5617 165.901 18.7047Z" fill="white"/>
<path d="M75.0263 17.7718C76.2949 17.7747 77.5621 17.7803 78.8308 17.7676C79.0743 17.7888 79.3971 17.735 79.55 17.98C79.6477 18.4288 79.6449 18.8975 79.802 19.3335C79.7511 19.4199 79.6491 19.5941 79.5996 19.6804C79.5019 19.141 79.441 18.5973 79.3759 18.0536C77.9246 18.0309 76.4747 18.0437 75.0234 18.0437C75.0249 17.9757 75.0263 17.8398 75.0263 17.7718Z" fill="white"/>
<path d="M108.148 18.5675C108.142 18.2645 108.179 17.7958 108.584 17.8001C109.984 17.7576 111.386 17.8043 112.786 17.7803C112.89 18.3027 112.946 18.8337 113.074 19.3519C113.003 19.4227 112.934 19.4949 112.866 19.5657C112.849 19.1084 112.84 18.6496 112.809 18.1937C112.752 18.1923 112.641 18.1909 112.584 18.1909C111.226 18.2022 109.867 18.2107 108.509 18.1909C108.247 19.2018 108.461 20.2425 108.447 21.2676C108.441 26.5064 108.448 31.7466 108.442 36.9853C108.45 37.7046 108.285 38.4479 108.512 39.1502C108.896 39.2465 109.295 39.2267 109.687 39.2267C110.749 39.2054 111.814 39.2493 112.876 39.187C112.968 36.4544 112.81 33.7146 112.953 30.9848C113.305 31.1618 113.643 31.3629 113.966 31.5894C114.18 31.748 114.401 31.8952 114.628 32.034C114.704 32.0821 114.854 32.1784 114.929 32.2251C115.011 32.2591 115.176 32.3271 115.259 32.3596C115.273 32.3639 115.302 32.371 115.317 32.3752C115.426 32.3809 115.641 32.3936 115.75 32.4007C115.822 32.5805 115.962 32.6598 116.17 32.6343C116.939 32.8127 117.735 32.8425 118.499 32.6287L118.618 32.6103C118.81 32.6442 118.955 32.5791 119.056 32.4134C119.151 32.3979 119.341 32.3653 119.434 32.3497C119.454 32.3441 119.493 32.3342 119.513 32.3285C120.85 31.8159 122.018 30.8786 122.747 29.6397C123.097 29.1597 123.415 28.6472 123.584 28.0723C124.125 26.3648 123.966 24.5539 123.82 22.7996C124.186 23.5557 124.237 24.4066 124.23 25.2321C124.275 26.3676 123.934 27.4692 123.604 28.5424C123.006 29.9413 122.008 31.1944 120.734 32.0354C119.366 32.9189 117.663 33.0548 116.085 32.8354C115.014 32.6541 114.116 32.0071 113.215 31.4436C113.145 33.9044 113.207 36.3694 113.187 38.8331C113.183 39.0667 113.162 39.3838 112.888 39.4589C112.44 39.541 111.981 39.4985 111.529 39.5028C110.422 39.4787 109.312 39.5481 108.206 39.4575C108.114 38.4465 108.173 37.4313 108.164 36.4176C108.156 30.468 108.178 24.5171 108.148 18.5675Z" fill="white"/>
<path d="M81.3307 18.3876C82.2807 17.8184 83.4262 17.8113 84.498 17.8694C85.4608 17.8906 86.3372 18.389 87.0848 18.9568C88.2005 20.0838 88.5545 21.7192 88.6664 23.2483C88.6211 26.2613 88.7202 29.2772 88.6154 32.2888C87.2335 32.4275 85.8431 32.3709 84.4569 32.3312C84.3904 29.726 84.4442 27.1179 84.4329 24.5127C84.4244 24.146 84.3394 23.7892 84.2516 23.4352C84.1469 22.5701 83.5777 21.814 82.8202 21.4063C81.9692 21.15 81.0121 21.3553 80.3933 22.0109C80.2914 21.8424 80.1895 21.6753 80.0889 21.5068C80.5123 21.0622 81.0192 20.6389 81.6549 20.5709C82.68 20.3868 83.6768 20.9504 84.3267 21.7064C85.0205 22.573 85.2031 23.7241 85.1946 24.8044C85.1805 26.7895 85.2017 28.7731 85.1748 30.7582C85.1705 31.183 85.2442 31.6021 85.3362 32.0155C86.1786 32.0721 87.0253 32.0792 87.8692 32.0084C87.9641 29.8464 87.8791 27.6786 87.9103 25.5152C87.8961 24.3966 87.8395 23.2625 88.1212 22.168C87.906 21.957 87.6724 21.7574 87.5053 21.5026C87.1839 20.9404 87.2222 20.1999 86.7379 19.727C86.2948 19.3037 85.7199 19.0078 85.4169 18.4513C84.3805 19.0063 83.1586 18.4457 82.0825 18.8548C81.4043 19.1168 80.9993 19.7851 80.3579 20.1051C79.9856 20.275 79.5651 20.1631 79.1813 20.1051L79.1729 19.9748C79.3569 19.9522 79.541 19.9309 79.725 19.9097C80.1073 19.264 80.6369 18.6977 81.3307 18.3876Z" fill="white"/>
<path d="M114.314 18.614C114.888 18.2502 115.526 17.9684 116.203 17.8735C117.531 17.7093 118.939 17.7702 120.146 18.4045C120.006 18.5971 119.866 18.7896 119.727 18.9822C118.733 18.4073 117.562 18.6806 116.477 18.607C115.991 18.5588 115.556 18.7939 115.099 18.9029C114.821 18.8562 114.571 18.7202 114.314 18.614Z" fill="white"/>
<path d="M66.2922 20.3613C66.8175 20.5114 67.3414 20.6686 67.8695 20.8102L67.9431 20.8512C68.6355 21.2873 69.3803 21.6385 70.0443 22.1184C71 22.7981 71.5395 23.9478 71.6867 25.0876C71.7349 26.0872 71.7958 27.1109 71.5593 28.0906C71.3498 27.9207 71.1402 27.7494 70.9321 27.5781C71 26.4808 70.9151 25.3693 71.1303 24.2833C70.4422 23.9959 70.2213 23.2214 69.679 22.7655C68.6567 21.8692 67.3258 21.4742 66.1152 20.9093C66.1733 20.7266 66.2328 20.544 66.2922 20.3613Z" fill="white"/>
<path d="M61.651 28.2788C61.8549 28.3581 62.0616 28.4303 62.2669 28.5068C63.3345 29.0377 64.5521 28.8522 65.6976 28.8324C65.1128 29.2402 64.3822 29.2175 63.7054 29.1382C63.619 29.277 63.5369 29.4186 63.4293 29.5446C63.2537 29.563 63.0768 29.5517 62.9012 29.5474C62.9338 29.3662 62.9663 29.185 62.9989 29.0052C62.6761 29.066 62.3518 29.1496 62.0205 29.1368C61.6708 28.9952 61.5759 28.6172 61.651 28.2788Z" fill="white"/>
<path d="M95.2139 18.2476C96.8492 17.8497 98.5398 17.8568 100.209 17.9573C100.967 17.9984 101.663 18.3325 102.306 18.712C102.235 18.8536 102.166 18.9951 102.096 19.1382C102.395 19.4369 102.71 19.7201 103.038 19.9877C103.208 19.9268 103.378 19.8673 103.549 19.8079C103.818 20.2086 104.053 20.6362 104.202 21.0977C104.223 21.7009 104.101 22.2956 103.957 22.8789C103.78 23.6039 103.862 24.3529 103.875 25.0905C103.917 26.9312 103.871 28.7718 103.907 30.6111C103.923 31.1449 103.848 31.6772 103.706 32.1912C104.031 32.1997 104.353 32.2124 104.678 32.2308C103.405 32.4489 102.101 32.3512 100.819 32.2733C100.818 31.8245 100.814 31.3742 100.808 30.9254C100.485 30.8659 100.148 30.7328 99.8212 30.8319C99.3143 31.0188 98.9291 31.4408 98.4152 31.6107C98.0655 31.7098 97.7016 31.7409 97.3448 31.7947C97.6662 32.1855 98.1221 32.4192 98.6389 32.3469C97.298 32.7816 95.834 32.8198 94.4932 32.3583C93.8589 31.9618 93.1141 31.7013 92.6256 31.108C91.9446 30.3123 91.568 29.2518 91.6119 28.2041C91.5708 26.8661 92.324 25.5578 93.4652 24.8739C94.6291 24.1716 95.9869 23.9196 97.3122 23.7285C98.4279 23.4184 99.6144 23.7738 100.72 23.4042C100.665 22.6425 100.488 21.7193 99.732 21.3441C99.0721 20.9052 98.2509 21.0227 97.5034 21.0142C96.559 21.0043 95.5763 21.3668 94.9548 22.0945C94.8174 22.1965 94.6787 22.2956 94.5413 22.3947C93.8659 21.7476 93.2401 21.0524 92.6299 20.3459C92.5152 20.2199 92.3736 19.9778 92.5393 19.839C93.3053 19.1297 94.2383 18.6086 95.2139 18.2476ZM97.7143 26.2728C96.8634 26.4724 95.7292 26.8972 95.7264 27.9421C95.5763 28.7251 96.2475 29.3467 96.937 29.5322C97.5557 29.5803 98.1801 29.5789 98.7989 29.5194C100.12 29.0536 100.986 27.5669 100.657 26.1907C100.335 26.0604 99.9727 26.1425 99.6343 26.1255C98.9943 26.1567 98.3316 26.0604 97.7143 26.2728Z" fill="white"/>
<path d="M167.286 18.239C168.42 17.793 169.665 17.9389 170.857 17.9105C171.764 17.8851 172.656 18.0719 173.533 18.2928C173.924 18.501 174.295 18.7459 174.646 19.0178C175.492 20.0018 176.011 21.2294 176.164 22.5178C176.573 24.0045 176.365 25.5521 176.411 27.0727C176.38 28.7392 176.481 30.4114 176.348 32.075C176.158 30.9338 176.263 29.7785 176.243 28.6302C176.234 27.2101 176.249 25.7914 176.25 24.3712C176.268 24.0357 176.165 23.7171 175.97 23.4466C175.64 24.3372 175.817 25.2972 175.778 26.2232C175.743 28.221 175.88 30.2245 175.684 32.2166C174.692 32.228 173.701 32.2435 172.712 32.194C172.683 31.6956 172.642 31.1986 172.569 30.7059C172.104 30.8857 171.491 31.0528 171.469 31.6531C171.372 31.8882 171.085 31.9745 170.881 32.0963C169.015 33.0152 166.666 32.8495 164.93 31.7154C165.067 31.5441 165.207 31.3728 165.348 31.2014C164.984 30.7951 164.634 30.3774 164.301 29.9456C164.157 30.1084 164.011 30.2712 163.867 30.434C163.879 29.5321 164.34 28.6854 164.184 27.7736C164.221 27.3318 163.834 27.077 163.554 26.8122C163.664 26.6126 163.782 26.4158 163.905 26.2232C164.027 26.3492 164.151 26.4752 164.276 26.6027C164.699 25.9768 165.322 25.5407 165.982 25.1924C165.938 25.0013 165.894 24.8087 165.852 24.6176C166.326 24.4179 166.812 24.2452 167.306 24.0937C167.976 23.8799 168.732 24.0116 169.348 23.6222L169.459 23.5727C170.412 23.6265 171.367 23.5897 172.321 23.5783C172.328 23.1663 172.383 22.7458 172.298 22.338C171.968 21.817 171.507 21.3398 170.94 21.0793C170.255 20.9632 169.551 21.0099 168.859 21.0241C168.153 21.0354 167.534 21.4233 166.953 21.783C166.126 21.4177 165.491 20.7381 164.654 20.3982C164.965 20.0896 165.271 19.7753 165.58 19.4652C165.482 19.3278 165.386 19.1905 165.29 19.0546C165.491 18.9356 165.696 18.8195 165.901 18.7048C166.366 18.5618 166.827 18.4047 167.286 18.239ZM169.397 25.4657C169.513 25.6512 169.629 25.8367 169.748 26.0236C169.141 26.1892 168.465 26.3096 168.007 26.7782C167.745 27.0288 167.496 27.2979 167.304 27.6065C167.212 27.952 167.232 28.3286 167.294 28.6783C167.777 29.4698 168.71 29.6907 169.564 29.8026C170.557 29.6723 171.62 29.2971 172.15 28.3824C172.489 27.6462 172.709 26.8363 172.608 26.0193C172.547 26.0179 172.427 26.0122 172.368 26.0108C172.366 25.8013 172.366 25.5917 172.37 25.3836C171.97 25.2661 171.555 25.2137 171.14 25.2264C170.554 25.2392 169.929 25.1698 169.397 25.4657Z" fill="white"/>
<path d="M108.51 18.1909C109.868 18.2107 111.227 18.2022 112.585 18.1909C112.599 18.6072 112.561 19.022 112.507 19.4355C112.435 19.1183 112.36 18.804 112.292 18.4868C112.241 18.4727 112.137 18.4429 112.086 18.4274C112.054 18.6015 112.021 18.7743 111.99 18.9484C111.14 19.0376 110.285 18.998 109.433 19.0192C109.347 19.7654 109.297 20.5144 109.301 21.2662C109.307 25.9386 109.301 30.6125 109.305 35.2849C109.317 36.3001 109.253 37.3153 109.327 38.3291C110.226 38.4098 111.129 38.4041 112.028 38.3319C112.095 36.133 112.015 33.9313 112.055 31.7324C112.04 31.3926 112.173 31.0811 112.362 30.8093C112.682 31.8471 112.503 32.943 112.541 34.0106C112.511 35.6021 112.614 37.1963 112.48 38.785C111.282 38.8643 110.079 38.8713 108.882 38.7864C108.797 37.7146 108.847 36.6399 108.834 35.5681C108.834 31.2256 108.834 26.8845 108.834 22.5419C108.844 21.1883 108.806 19.8348 108.886 18.484C108.821 18.433 108.688 18.3325 108.623 18.2815L108.51 18.1909Z" fill="white"/>
<path d="M108.447 21.2676C108.461 20.2425 108.247 19.2019 108.509 18.1909L108.622 18.2815C108.69 25.184 108.598 32.0907 108.668 38.9945C110.007 39.037 111.349 39.037 112.689 38.9959C112.743 37.0986 112.694 35.1999 112.711 33.3027C112.717 32.3979 112.636 31.4818 112.823 30.5884C113.299 30.8022 113.667 31.1703 113.966 31.5894C113.643 31.3629 113.305 31.1618 112.954 30.9849C112.811 33.7147 112.968 36.4544 112.876 39.1871C111.814 39.2494 110.749 39.2055 109.687 39.2267C109.295 39.2267 108.896 39.2465 108.512 39.1503C108.285 38.448 108.45 37.7046 108.443 36.9854C108.448 31.7466 108.441 26.5064 108.447 21.2676Z" fill="white"/>
<path d="M126.146 20.8386C126.228 19.9621 126.314 19.0135 126.8 18.2603C126.692 18.7572 126.583 19.257 126.539 19.7653C126.321 20.8173 126.136 21.8991 126.28 22.9737C126.411 24.0257 126.613 25.0678 126.861 26.0986C126.558 25.8466 126.497 25.4487 126.401 25.0905C126.001 23.7086 126.168 22.2559 126.146 20.8386Z" fill="white"/>
<path d="M184.715 18.2586C185.769 18.2246 186.825 18.2161 187.88 18.2671C187.924 19.2823 187.922 20.3003 187.884 21.3155C186.818 21.3877 185.75 21.3197 184.686 21.3664C184.582 23.5837 184.65 25.8052 184.653 28.0239C184.473 28.0763 184.295 28.1287 184.118 28.1811C183.948 27.8384 183.836 27.4661 183.854 27.0795C183.861 25.6127 183.88 24.1472 183.852 22.6804C183.86 22.2797 183.815 21.8153 184.125 21.5052C184.408 21.1923 184.693 20.8326 185.093 20.667C185.77 20.5948 186.458 20.6967 187.132 20.5622C187.144 20.061 187.132 19.5583 187.095 19.0585C186.334 19.0345 185.559 19.0656 184.817 18.8617C184.783 18.6607 184.749 18.4596 184.715 18.2586Z" fill="white"/>
<path d="M164.055 19.8499C164.457 19.5724 164.866 19.302 165.289 19.0542C165.386 19.1901 165.482 19.3275 165.58 19.4648C165.271 19.7749 164.965 20.0892 164.654 20.3979C165.49 20.7377 166.126 21.4173 166.953 21.7826C166.705 21.9369 166.456 22.0842 166.205 22.23C165.859 21.91 165.51 21.5943 165.158 21.28C164.758 20.8297 164.288 20.4205 164.055 19.8499Z" fill="white"/>
<path d="M169.396 25.4653C169.929 25.1694 170.553 25.2387 171.139 25.226C171.554 25.2132 171.969 25.2656 172.37 25.3832C172.366 25.5913 172.366 25.8008 172.367 26.0104C171.493 25.9835 170.618 25.9778 169.748 26.0231C169.629 25.8362 169.513 25.6508 169.396 25.4653Z" fill="white"/>
<path d="M163.44 29.8009C163.484 28.8056 163.338 27.7946 163.553 26.812C163.833 27.0768 164.22 27.3316 164.183 27.7734C164.339 28.6852 163.879 29.5319 163.866 30.4338C164.01 30.271 164.156 30.1082 164.301 29.9454C164.633 30.3772 164.983 30.7949 165.347 31.2013C165.207 31.3726 165.067 31.5439 164.929 31.7152C164.261 31.2282 163.75 30.5669 163.44 29.8009Z" fill="white"/>
<path d="M102.306 18.7119C102.602 18.896 102.891 19.0914 103.17 19.2995C103.303 19.4623 103.429 19.6337 103.549 19.8078C103.378 19.8673 103.208 19.9267 103.038 19.9876C102.71 19.72 102.395 19.4368 102.097 19.1381C102.166 18.9951 102.235 18.8535 102.306 18.7119Z" fill="white"/>
<path d="M174.645 19.0176C174.84 19.1606 175.044 19.2965 175.241 19.4438C175.336 19.5259 175.414 19.6236 175.476 19.7354C176.234 21.2575 176.613 22.9679 176.583 24.667C176.559 27.2255 176.624 29.7868 176.552 32.3453C175.194 32.4657 173.827 32.3821 172.466 32.3864C172.449 31.9404 172.452 31.4944 172.457 31.0484C172.084 31.1715 171.792 31.4434 171.468 31.6529C171.49 31.0526 172.103 30.8855 172.568 30.7057C172.642 31.1984 172.683 31.6954 172.711 32.1938C173.701 32.2434 174.692 32.2278 175.683 32.2165C175.904 32.2136 176.126 32.2108 176.351 32.2094L176.347 32.0749C176.48 30.4112 176.379 28.739 176.411 27.0725C176.364 25.5519 176.572 24.0043 176.163 22.5176C176.01 21.2292 175.492 20.0016 174.645 19.0176Z" fill="white"/>
<path d="M63.8015 19.4282C64.3296 19.6647 64.8733 19.8629 65.4142 20.0696C65.0333 20.1347 64.6567 20.2707 64.2659 20.2509C63.9898 20.1786 63.7477 20.0201 63.4971 19.887C63.599 19.7341 63.6995 19.5811 63.8015 19.4282Z" fill="white"/>
<path d="M104.203 21.0977C104.421 21.8481 104.694 22.5999 104.67 23.3928C104.692 26.3393 104.683 29.2843 104.678 32.2308C104.354 32.2124 104.031 32.1996 103.707 32.1911C103.849 31.6771 103.924 31.1448 103.908 30.611C103.871 28.7718 103.918 26.9311 103.876 25.0905C103.863 24.3528 103.781 23.6038 103.958 22.8788C104.102 22.2955 104.224 21.7008 104.203 21.0977Z" fill="white"/>
<path d="M175.477 19.7354C175.659 19.8444 175.835 19.9775 175.91 20.187C176.261 20.9827 176.578 21.8153 176.649 22.6903C176.704 23.3982 176.914 24.0878 176.901 24.8014C176.888 26.785 176.894 28.7701 176.895 30.7538C176.884 31.2861 176.955 31.8284 176.839 32.3523C176.486 32.7601 175.86 32.5845 175.384 32.6312C174.376 32.5619 173.339 32.77 172.354 32.4854C173.746 32.3551 175.149 32.4273 176.546 32.45L176.553 32.3452C176.625 29.7867 176.56 27.2254 176.584 24.6669C176.613 22.9678 176.234 21.2574 175.477 19.7354Z" fill="white"/>
<path d="M65.5285 20.1064C65.7451 20.1801 65.9603 20.2579 66.1784 20.3302C65.983 20.5114 65.7932 20.7011 65.6049 20.888C65.4294 20.7578 65.2552 20.6275 65.0811 20.4958C65.2297 20.3656 65.3784 20.2367 65.5285 20.1064Z" fill="white"/>
<path d="M67.9429 20.8511C68.4285 20.8865 68.9114 21.0181 69.3163 21.2985C70.4278 22.0503 71.5095 23.04 71.8479 24.3894C72.0065 25.2686 72.1212 26.1706 71.9683 27.0597C71.9668 29.2274 70.4405 31.1531 68.5517 32.0819C67.7787 32.4358 66.9787 32.7997 66.1178 32.8606C64.8662 32.9456 63.6117 32.9441 62.3615 32.8535C61.4525 32.7629 60.5845 32.433 59.735 32.1159C58.7113 31.5778 57.6551 31.0171 56.8735 30.1449C56.7532 29.7839 57.1354 29.4922 57.3521 29.2487C58.1945 28.4841 58.8826 27.5709 59.7124 26.7964C59.9247 26.5854 60.2518 26.7383 60.4118 26.9365C60.821 27.3882 61.3335 27.7195 61.8149 28.0862C61.9679 28.2236 62.1151 28.368 62.2666 28.5068C62.0613 28.4303 61.8546 28.3581 61.6507 28.2788C61.2826 28.0976 60.9612 27.8385 60.6624 27.5595C60.4599 27.3712 60.3028 27.0965 60.0139 27.0328C59.4504 27.3684 59.0554 27.9093 58.5881 28.3595C58.1421 28.8352 57.6112 29.2388 57.253 29.791C57.1185 30.0416 57.3507 30.237 57.5036 30.4069C57.9623 30.8727 58.5301 31.2111 59.1049 31.5127C59.4759 31.6783 59.8554 31.827 60.232 31.9856C60.6851 32.1951 61.1636 32.3551 61.6649 32.3948C61.7243 32.4033 61.8418 32.4189 61.9013 32.4259C62.8669 32.8295 63.9289 32.6482 64.9455 32.6879C65.9805 32.7275 66.9829 32.4118 67.9401 32.0521C68.0378 32.0125 68.2317 31.9346 68.3294 31.8964C69.4621 31.3853 70.4391 30.5074 70.997 29.3889C71.2221 28.974 71.4019 28.5365 71.5591 28.0905C71.7955 27.1107 71.7346 26.087 71.6865 25.0874C71.5392 23.9476 70.9998 22.7979 70.0441 22.1183C69.38 21.6383 68.6353 21.2872 67.9429 20.8511Z" fill="white"/>
<path d="M94.9556 22.0944C95.5772 21.3666 96.5598 21.0042 97.5042 21.0141C98.2518 21.0226 99.073 20.9051 99.7328 21.344C100.489 21.7192 100.666 22.6424 100.721 23.4041C100.633 23.4013 100.461 23.3928 100.373 23.3885C100.366 23.3163 100.35 23.1705 100.343 23.0983C100.313 22.3408 99.8333 21.5493 99.0503 21.3907C98.1045 21.0113 97.0738 21.2605 96.1619 21.6116C95.7343 21.7985 95.3563 22.093 94.9004 22.2162L94.9556 22.0944Z" fill="white"/>
<path d="M166.953 21.7831C167.533 21.4235 168.152 21.0355 168.858 21.0242C169.551 21.0101 170.254 20.9633 170.94 21.0794C171.506 21.34 171.968 21.8171 172.298 22.3382C172.382 22.7459 172.327 23.1665 172.32 23.5785C171.366 23.5898 170.412 23.6266 169.459 23.5728L169.286 23.5402C170.179 23.2033 171.162 23.3718 172.096 23.3307C172.157 22.712 171.969 22.0479 171.441 21.6769C170.587 21.1927 169.528 21.0355 168.591 21.3711C167.859 21.5523 167.223 21.9615 166.611 22.3863C166.01 22.8012 165.45 22.0309 165.238 21.5396C165.218 21.4745 165.177 21.3456 165.157 21.2805C165.51 21.5948 165.858 21.9106 166.205 22.2306C166.456 22.0847 166.705 21.9375 166.953 21.7831Z" fill="white"/>
<path d="M115.231 21.3909C115.862 21.3074 116.511 21.3144 117.146 21.3767C118.082 21.7293 118.905 22.4627 119.343 23.3646C119.64 24.091 119.583 24.8952 119.578 25.664C119.58 26.1936 119.46 26.716 119.25 27.2017C118.953 27.7992 118.438 28.2721 117.881 28.6261C117.35 28.8639 116.777 29.0084 116.201 29.0735C115.463 29.0027 114.727 28.7592 114.132 28.3075C113.968 28.1801 113.816 28.0371 113.685 27.8785C113.335 27.4495 113.081 26.9567 112.788 26.4909C112.689 25.664 112.698 24.8188 112.777 23.9905C113.023 23.4454 113.305 22.9031 113.702 22.4486C114.115 21.9714 114.7 21.7095 115.231 21.3909ZM115.412 21.6543C113.697 22.2758 112.579 24.2722 113.066 26.0492C113.301 26.7854 113.574 27.5882 114.231 28.0583C114.681 28.3882 115.168 28.7662 115.76 28.7365C116.42 28.7365 117.152 28.8257 117.734 28.442C118.466 27.9649 119.025 27.2215 119.217 26.3635C119.597 25.2209 119.354 23.9621 118.79 22.9257C118.5 22.4089 117.958 22.1201 117.458 21.8426C116.842 21.4858 116.087 21.5566 115.412 21.6543Z" fill="white"/>
<path d="M180.343 21.3413C180.625 21.4376 180.919 21.5523 181.123 21.7802C181.231 22.1158 181.212 22.4754 181.221 22.8252C181.195 24.4308 181.205 26.0364 181.215 27.642C181.26 28.466 180.661 29.1966 180.912 30.0334C181.059 29.7885 181.205 29.5407 181.351 29.2929C181.575 29.8876 181.692 30.5785 182.199 31.0132C182.461 31.2398 182.729 31.4918 183.068 31.5966C183.558 31.6815 184.059 31.6688 184.556 31.7212C184.426 31.8925 184.299 32.0638 184.173 32.2365C184.915 32.4518 185.691 32.3909 186.435 32.2153C186.308 32.0737 186.183 31.9321 186.059 31.792C186.38 31.7013 186.711 31.6277 187.009 31.4691C187.165 31.0387 187.095 30.5729 187.081 30.1269C186.583 30.0419 186.09 29.9286 185.614 29.7587C186.057 29.5237 186.537 29.3694 187.033 29.2887C187.271 29.2674 187.51 29.2448 187.751 29.2207C187.8 30.2472 187.81 31.2766 187.745 32.3031C187.109 32.3597 186.485 32.4787 185.856 32.5735C184.959 32.7165 184.067 32.473 183.193 32.3017C182.086 32.0411 181.358 31.0883 180.775 30.1821C180.674 29.4756 180.442 28.7889 180.442 28.0696C180.436 26.9822 180.452 25.8948 180.445 24.8074C180.411 23.652 180.542 22.4868 180.343 21.3413Z" fill="white"/>
<path d="M175.97 23.4468C176.165 23.7172 176.268 24.0358 176.25 24.3713C176.249 25.7915 176.234 27.2102 176.243 28.6303C176.263 29.7786 176.158 30.934 176.348 32.0752L176.352 32.2097C176.127 32.2111 175.904 32.2139 175.684 32.2168C175.88 30.2246 175.743 28.2211 175.778 26.2233C175.817 25.2973 175.64 24.3374 175.97 23.4468Z" fill="white"/>
<path d="M152.891 21.5819C153.747 21.1373 154.895 21.4219 155.48 22.178C155.776 22.6197 156.04 23.1195 156.047 23.6646C156.083 26.5516 156.006 29.44 156.084 32.3256C157.489 32.3539 158.895 32.3015 160.298 32.3553C160.37 32.3596 160.514 32.3667 160.585 32.3695C159.028 32.4814 157.462 32.446 155.903 32.4077C155.814 30.6308 155.886 28.851 155.863 27.0727C155.841 25.8267 155.924 24.5609 155.661 23.3347C155.55 22.699 155.14 22.1482 154.622 21.7801C154.126 21.4375 153.479 21.4757 152.985 21.7971C152.59 22.0505 152.174 22.3153 151.913 22.7132C151.519 23.4367 151.385 24.2749 151.4 25.0904C151.413 27.312 151.395 29.5321 151.412 31.7536C151.403 31.9929 151.422 32.2435 151.335 32.4743C150.578 32.5677 149.81 32.4884 149.05 32.5111C148.328 32.4884 147.602 32.5592 146.884 32.4898C146.855 32.4502 146.799 32.3723 146.771 32.3327L146.905 32.3171C148.249 32.1982 149.614 32.4247 150.947 32.2024C150.994 32.1798 151.086 32.1359 151.133 32.1132C151.175 29.3848 151.112 26.6536 151.163 23.9237C151.332 23.4098 151.495 22.8916 151.736 22.4045C152.101 22.1057 152.468 21.7985 152.891 21.5819Z" fill="white"/>
<path d="M152.985 21.797C153.479 21.4756 154.127 21.4374 154.622 21.78C154.077 21.797 153.53 21.8013 152.985 21.797Z" fill="white"/>
<path d="M98.0527 23.4082C98.7338 22.9764 99.5791 23.1505 100.342 23.0981C100.349 23.1704 100.365 23.3162 100.372 23.3884C99.5989 23.3742 98.8258 23.4196 98.0527 23.4082Z" fill="white"/>
<path d="M95.8077 23.6915C96.5312 23.4451 97.2986 23.4239 98.0533 23.4083C98.8263 23.4197 99.5994 23.3744 100.372 23.3885C100.46 23.3928 100.633 23.4013 100.721 23.4041C99.615 23.7736 98.4285 23.4182 97.3128 23.7283C95.9875 23.9195 94.6297 24.1715 93.4658 24.8738C92.3246 25.5576 91.5713 26.8659 91.6124 28.2039C91.5685 29.2517 91.9451 30.3122 92.6262 31.1079C93.1147 31.7012 93.8594 31.9617 94.4937 32.3581C94.27 32.3723 94.0307 32.4204 93.8311 32.2902C92.5724 31.687 91.5728 30.4708 91.4071 29.0634C91.3108 28.0043 91.3193 26.8319 92.0046 25.9527C92.8456 24.6472 94.379 24.0837 95.8077 23.6915Z" fill="white"/>
<path d="M119.342 23.3643C119.637 23.4379 119.937 23.5016 120.216 23.6276C120.439 23.9334 120.262 24.3002 120.156 24.6131C120.029 24.6159 119.901 24.6187 119.774 24.623C119.788 24.9387 119.799 25.2559 119.808 25.573C119.969 25.6198 120.132 25.6665 120.296 25.7132C120.313 26.0247 120.377 26.3716 120.183 26.6463C120.026 26.7284 119.846 26.7454 119.676 26.7822C119.771 26.996 119.945 27.2098 119.856 27.4576C119.598 27.6247 119.433 27.3344 119.25 27.2013C119.46 26.7157 119.58 26.1932 119.577 25.6637C119.583 24.8948 119.639 24.0906 119.342 23.3643Z" fill="white"/>
<path d="M63.6484 23.8313C64.1638 23.7605 64.665 23.5537 65.1903 23.5665C65.7029 23.7123 66.1149 24.0748 66.5439 24.3764C66.3924 24.5307 66.2409 24.6836 66.0894 24.8379C65.3532 24.4089 64.5433 24.1229 63.7362 23.8596L63.6484 23.8313Z" fill="white"/>
<path d="M111.938 26.0897C111.901 25.7329 112.214 25.6494 112.498 25.6196C112.517 25.917 112.534 26.2157 112.549 26.5159C112.609 26.5088 112.729 26.4961 112.788 26.4904C113.082 26.9562 113.335 27.449 113.685 27.878C113.342 27.8808 112.916 27.9459 112.691 27.6203C112.372 27.1516 112.075 26.6405 111.938 26.0897Z" fill="white"/>
<path d="M155.661 23.335C155.924 24.5611 155.841 25.8269 155.864 27.0729C155.886 28.8512 155.814 30.631 155.903 32.4079C157.462 32.4462 159.028 32.4816 160.586 32.3697L160.734 32.374C160.414 32.6925 159.931 32.5637 159.528 32.5948C158.276 32.5481 157.018 32.6713 155.77 32.5297C155.454 31.4451 155.655 30.3068 155.604 29.1967C155.647 27.2428 155.505 25.2832 155.661 23.335Z" fill="white"/>
<path d="M84.2512 23.4351C84.339 23.789 84.4239 24.1458 84.4324 24.5125C84.4438 27.1178 84.39 29.7258 84.4565 32.3311C84.3914 32.3311 84.2597 32.3296 84.1946 32.3282L84.1025 32.3268C84.1408 29.9156 84.111 27.5029 84.1195 25.0902C84.1351 24.6329 84.0544 24.1642 84.1648 23.7154C84.1861 23.646 84.23 23.5059 84.2512 23.4351Z" fill="white"/>
<path d="M166.922 23.9379C167.702 23.6972 168.526 23.4806 169.347 23.6221C168.731 24.0115 167.975 23.8798 167.305 24.0936C166.811 24.2451 166.326 24.4179 165.851 24.6175C165.064 24.9502 164.368 25.4996 163.905 26.2231C163.781 26.4157 163.664 26.6125 163.553 26.8121C163.338 27.7948 163.484 28.8057 163.44 29.8011L163.416 29.709C163.141 28.7505 163.215 27.7395 163.351 26.7654C163.504 26.1608 163.98 25.7219 164.402 25.2943C165.085 24.6019 166.023 24.2536 166.922 23.9379Z" fill="white"/>
<path d="M63.3507 23.9292C63.447 23.9108 63.6395 23.8769 63.7358 23.8599C64.5429 24.1232 65.3527 24.4092 66.089 24.8382C66.3849 25.0634 66.661 25.3154 66.9187 25.583C67.2614 26.2697 67.2387 27.1079 66.9315 27.8045C66.5704 28.2024 66.1683 28.5691 65.6968 28.8324C64.5514 28.8523 63.3337 29.0378 62.2661 28.5068C62.1146 28.368 61.9674 28.2236 61.8145 28.0863C62.7546 28.3298 63.6707 28.8112 64.6703 28.6866C65.5552 28.6002 66.5902 28.1996 66.838 27.2495C67.2373 26.3547 66.5633 25.3749 65.7775 24.9628C65.0214 24.4928 64.0954 24.4121 63.3507 23.9292Z" fill="white"/>
<path d="M150.925 24.796C150.892 24.4817 151.003 24.1886 151.163 23.9238C151.112 26.6537 151.175 29.3849 151.133 32.1133C151.086 32.136 150.994 32.1799 150.947 32.2025C150.922 29.7332 150.961 27.2639 150.925 24.796Z" fill="white"/>
<path d="M168.006 26.7779C168.465 26.3093 169.141 26.1889 169.748 26.0233C170.619 25.978 171.494 25.9836 172.367 26.0105C172.427 26.0119 172.547 26.0176 172.608 26.019C172.709 26.836 172.489 27.6459 172.149 28.3821C171.62 29.2968 170.556 29.672 169.564 29.8023C168.71 29.6904 167.777 29.4695 167.294 28.678C167.232 28.3283 167.212 27.9517 167.304 27.6062C167.495 27.2976 167.744 27.0285 168.006 26.7779ZM168.849 26.5386C168.241 26.717 167.626 27.2282 167.654 27.9163C167.645 28.283 167.617 28.7488 167.974 28.9768C168.93 29.6833 170.323 29.5644 171.27 28.9018C172.059 28.3099 172.367 27.2508 172.172 26.3036C171.06 26.2555 169.935 26.288 168.849 26.5386Z" fill="white"/>
<path d="M140.469 27.4053C140.86 27.1292 141.119 26.5161 141.69 26.686C142 26.8644 142.209 27.1745 142.471 27.4152C143.152 28.1331 143.981 28.7051 144.608 29.4725C144.73 29.893 144.268 30.1238 144.02 30.3815C143.382 30.8431 142.807 31.425 142.055 31.6997C141.33 31.9474 140.639 32.3071 139.874 32.4175C139.75 32.2094 139.627 31.9998 139.505 31.7903C140.017 31.5383 140.551 31.7747 141.048 31.9404C140.97 31.779 140.894 31.619 140.82 31.459C141.766 31.1206 142.654 30.5839 143.375 29.8817C143.712 29.5631 143.29 29.1851 143.08 28.9359C142.579 28.4502 142.133 27.8782 141.518 27.5327C140.99 27.5653 140.771 28.1784 140.349 28.429C139.521 28.9344 138.558 29.2431 137.584 29.2544C136.89 29.2771 136.176 29.2898 135.519 29.0321C136.577 28.4814 137.806 28.8537 138.94 28.7844C138.027 28.5578 137.085 28.7405 136.159 28.6725C135.869 28.6683 135.617 28.5111 135.369 28.378C135.502 28.3808 135.767 28.3851 135.9 28.3865C136.648 28.4276 137.4 28.4488 138.149 28.4049C138.964 28.1982 139.782 27.9037 140.469 27.4053Z" fill="white"/>
<path d="M162.976 28.619C162.95 27.9861 162.962 27.2994 163.351 26.7656C163.215 27.7398 163.142 28.7507 163.416 29.7092C163.043 29.4841 163.011 29.0084 162.976 28.619Z" fill="white"/>
<path d="M58.5884 28.3599C59.0557 27.9096 59.4507 27.3688 60.0142 27.0332C60.3031 27.0969 60.4602 27.3716 60.6627 27.5599C60.4616 27.441 60.2549 27.332 60.0496 27.2201C60.0539 27.3943 60.0581 27.5684 60.0624 27.744C59.4408 28.3372 58.7159 28.8385 58.2175 29.5492C57.9399 29.9358 58.1976 30.4115 58.2727 30.8235C58.4695 30.7796 58.6649 30.7343 58.8617 30.689C58.89 30.7386 58.9452 30.8391 58.9735 30.8901C58.9127 30.975 58.8518 31.0614 58.7923 31.1463C59.0755 31.1294 59.3587 31.1124 59.6433 31.0954C59.4634 31.2341 59.285 31.3743 59.1052 31.5131C58.5304 31.2115 57.9626 30.8731 57.5039 30.4073C57.3509 30.2374 57.1187 30.042 57.2532 29.7913C57.6115 29.2392 58.1424 28.8356 58.5884 28.3599Z" fill="white"/>
<path d="M135.092 32.2944C135.327 32.1415 135.577 31.9871 135.871 31.9999C137.173 31.9914 138.548 31.8186 139.75 32.443C139.518 32.5039 139.288 32.5776 139.052 32.6144C137.758 32.2165 136.384 32.6993 135.092 32.2944Z" fill="white"/>
<path d="M114.132 28.3071C114.726 28.7588 115.462 29.0023 116.2 29.0731C116.776 29.008 117.35 28.8636 117.881 28.6257C118.029 28.7333 118.181 28.8409 118.334 28.9499C118.035 29.2275 117.734 29.5404 117.33 29.6551C116.943 29.5729 116.598 29.3421 116.202 29.3138C115.761 29.3521 115.377 29.6352 114.937 29.6522C114.388 29.5489 114.056 29.0547 113.755 28.6328C113.879 28.5238 114.005 28.4147 114.132 28.3071Z" fill="white"/>
<path d="M128.471 28.6514C128.624 28.5679 128.778 28.483 128.934 28.3994C129.448 28.9077 129.929 29.4557 130.519 29.8776C130.878 30.1381 131.219 30.4213 131.54 30.7271C131.47 30.89 131.399 31.0528 131.328 31.2156C130.154 30.645 129.269 29.6553 128.471 28.6514Z" fill="white"/>
<path d="M99.8211 30.832C100.148 30.7329 100.485 30.866 100.808 30.9254C100.696 30.9467 100.47 30.9906 100.356 31.0132C100.315 31.0755 100.232 31.2001 100.191 31.2624C99.8438 31.8174 99.1953 32.0596 98.6388 32.347C98.122 32.4192 97.6661 32.1856 97.3447 31.7948C97.7015 31.741 98.0654 31.7098 98.4151 31.6107C98.9291 31.4408 99.3142 31.0189 99.8211 30.832Z" fill="white"/>
<path d="M131.328 31.2157C131.616 31.1208 131.914 30.9269 132.229 31.0288C132.727 31.1676 133.22 31.3318 133.705 31.5159C134.232 31.7226 134.587 32.187 134.94 32.6075C133.79 32.4206 132.714 31.9902 131.63 31.5895C131.593 31.5711 131.519 31.5357 131.481 31.5173C131.443 31.4423 131.366 31.2922 131.328 31.2157Z" fill="white"/>
<path d="M60.2324 31.9856C60.8144 31.7123 61.4572 31.5297 62.0971 31.7081C61.9541 31.9375 61.8097 32.1668 61.6653 32.3948C61.1641 32.3552 60.6855 32.1952 60.2324 31.9856Z" fill="white"/>
<path d="M131.63 31.5894C132.714 31.9901 133.791 32.4205 134.94 32.6074C135.624 32.7263 136.324 32.6838 137.016 32.6909C137.694 32.6824 138.378 32.7221 139.052 32.6145C139.288 32.5776 139.518 32.504 139.75 32.4431L139.875 32.4176C140.639 32.3072 141.33 31.9476 142.055 31.6998C142.107 31.7281 142.214 31.7833 142.266 31.8117C141.132 32.4389 139.873 32.9019 138.568 32.9387C137.34 32.9854 136.105 33.0166 134.882 32.8835C134.041 32.7985 133.251 32.4856 132.467 32.1897C132.147 32.0566 131.75 31.9589 131.63 31.5894Z" fill="white"/>
<path d="M119.457 32.3356L119.513 32.3286C119.494 32.3342 119.454 32.3441 119.435 32.3497L119.457 32.3356Z" fill="white"/>
<path d="M115.75 32.4008C115.951 32.3668 116.091 32.4447 116.17 32.6344C115.962 32.6599 115.822 32.5806 115.75 32.4008Z" fill="white"/>
<path d="M118.619 32.6104C118.705 32.4179 118.851 32.3528 119.057 32.4136C118.956 32.5793 118.81 32.6444 118.619 32.6104Z" fill="white"/>
<path d="M183.3 32.5068C183.605 32.5691 183.906 32.647 184.209 32.7249C183.87 32.749 183.53 32.7518 183.191 32.7376C183.218 32.6796 183.274 32.5635 183.3 32.5068Z" fill="white"/>
<path d="M186.385 32.725C186.862 32.5933 187.345 32.4814 187.836 32.4248C187.444 32.7844 186.882 32.7944 186.385 32.725Z" fill="white"/>
<path d="M116.171 32.6341C116.947 32.627 117.724 32.6327 118.5 32.6284C117.735 32.8422 116.94 32.8125 116.171 32.6341Z" fill="white"/>
<path d="M62.3613 32.8535C63.6116 32.9441 64.866 32.9455 66.1177 32.8606C65.5782 33.2655 64.8703 33.1424 64.2402 33.1693C63.6101 33.1268 62.9022 33.257 62.3613 32.8535Z" fill="white"/>
</svg>
