<svg width="101" height="51" viewBox="0 0 101 51" fill="none" xmlns="http://www.w3.org/2000/svg">
<path d="M38.5152 0.641602L48.7886 0.641602C48.7928 4.13996 48.782 7.63749 48.7936 11.1359C45.3678 11.1559 41.9394 11.1525 38.5127 11.1375C38.5219 7.63916 38.5169 4.13996 38.5152 0.641602Z" fill="white"/>
<path d="M10.4512 10.8698C13.7479 9.82067 17.3213 9.72983 20.6988 10.439C23.6255 11.069 26.4464 12.4115 28.5897 14.5299C30.3531 16.2507 31.6073 18.5532 31.8231 21.0299C28.9456 21.6808 26.0672 22.3274 23.1897 22.9766C23.0605 22.0416 22.7188 21.1349 22.1705 20.3649C21.418 19.2649 20.1988 18.5707 18.9455 18.1899C17.418 17.7507 15.7788 17.7374 14.2313 18.0774C13.0829 18.3449 11.9229 18.9016 11.2529 19.9116C10.6196 20.8491 10.5454 22.1658 11.1529 23.1349C11.5821 23.8216 12.2813 24.2925 13.0154 24.6041C13.9021 24.9875 14.8671 25.1166 15.808 25.3058C17.6013 25.66 19.3988 25.9983 21.1905 26.3633C23.9114 26.9541 26.568 28.09 28.6597 29.96C30.1406 31.2625 31.2698 32.9709 31.8298 34.8659C32.4514 36.9567 32.4331 39.2234 31.8489 41.3201C31.1806 43.716 29.6764 45.8585 27.6722 47.3276C24.8439 49.4452 21.2988 50.4077 17.8063 50.5727C14.0188 50.7552 10.1254 50.0377 6.81371 48.1402C5.16287 47.1926 3.70285 45.921 2.52201 44.4301C1.25867 42.8284 0.432827 40.8784 0.229492 38.8442V38.7759C3.18618 38.1242 6.14371 37.4784 9.1004 36.8301C9.17207 38.2134 9.76041 39.5651 10.7696 40.5209C12.1779 41.9334 14.1963 42.5709 16.1538 42.6518C17.5221 42.6968 18.933 42.5793 20.1997 42.0234C21.0613 41.6476 21.8463 40.9918 22.1855 40.0926C22.5013 39.2467 22.4938 38.2626 22.1038 37.4426C21.728 36.6701 20.9905 36.1542 20.2297 35.8042C19.0388 35.2634 17.7405 35.0384 16.4788 34.7242C14.7771 34.3125 13.0671 33.9359 11.3721 33.4975C8.62956 32.7425 5.91871 31.5234 3.91286 29.455C2.36701 27.8808 1.46534 25.7375 1.29117 23.5474C1.04033 20.9016 1.70367 18.1632 3.22368 15.9741C4.92536 13.4774 7.61122 11.7907 10.4512 10.8698Z" fill="white"/>
<path d="M76.2398 10.7919C79.174 9.94019 82.2923 9.78186 85.3107 10.2152C87.829 10.5802 90.289 11.411 92.4649 12.7377C93.9807 13.6702 95.3941 14.8002 96.5233 16.1836C98.1441 18.1369 99.36 20.4369 99.9933 22.8986C96.9074 23.9378 93.8224 24.9786 90.7341 26.0087C90.3524 24.8095 89.8282 23.6395 89.0549 22.6386C88.229 21.5536 87.1057 20.6961 85.839 20.1911C84.5132 19.6586 83.0615 19.4986 81.6423 19.5711C78.929 19.6961 76.2289 20.9853 74.6214 23.2086C73.5272 24.677 72.8989 26.4545 72.6597 28.2603C72.4722 29.6879 72.4806 31.1429 72.6997 32.5662C72.9622 34.2562 73.5672 35.9096 74.5723 37.3021C76.0798 39.4288 78.5748 40.743 81.1406 41.038C83.229 41.2688 85.4323 40.9346 87.2415 39.8229C89.1374 38.6804 90.5382 36.7812 91.1232 34.6512C94.1591 35.6612 97.1966 36.6679 100.229 37.6879C99.3783 40.778 97.6558 43.6213 95.2958 45.7913C92.7424 48.193 89.4332 49.7297 85.9857 50.298C81.3673 51.0722 76.4648 50.3722 72.3472 48.1022C70.0647 46.858 68.0539 45.128 66.463 43.0746C64.2438 40.2554 62.8405 36.8196 62.3722 33.2671C61.9163 29.7804 62.2472 26.1753 63.4372 22.8603C64.4855 19.9419 66.2097 17.2586 68.4797 15.1411C70.6789 13.1102 73.3639 11.6169 76.2398 10.7919Z" fill="white"/>
<path d="M48.7881 11.146C52.2123 11.1493 55.6373 11.146 59.0615 11.1477C59.0607 14.4685 59.0648 17.7894 59.0598 21.1094C55.6373 21.1069 52.2139 21.1086 48.7906 21.1094C48.7872 17.7886 48.7923 14.4669 48.7881 11.146Z" fill="white"/>
<path d="M38.5175 38.4734C38.5175 32.685 38.52 26.8967 38.5167 21.1083C41.9409 21.1074 45.3651 21.1083 48.7893 21.1083C48.7901 25.9817 48.7893 30.8542 48.7893 35.7276C48.7851 36.5184 48.7951 37.3159 48.9559 38.0934C49.1176 38.8859 49.4251 39.6918 50.0376 40.2459C50.9318 41.0409 52.1476 41.3493 53.3185 41.4035C55.3243 41.5035 57.406 41.0343 59.0602 39.8651C59.0619 42.6701 59.0677 45.4743 59.0577 48.2793C58.0435 49.1094 56.8118 49.6219 55.5635 49.9835C53.5893 50.5419 51.5135 50.6944 49.4718 50.5485C47.5501 50.4044 45.6301 49.9435 43.9284 49.0194C42.8001 48.4002 41.7609 47.591 40.96 46.5768C40.0334 45.4202 39.385 44.0535 39.0009 42.6251C38.6342 41.2751 38.5042 39.8701 38.5175 38.4734Z" fill="white"/>
</svg>
