<svg width="23" height="24" viewBox="0 0 23 24" fill="none" xmlns="http://www.w3.org/2000/svg">
<path d="M13.4118 0.0195495C13.7814 -0.0121845 14.1566 -0.00615899 14.5245 0.044053C14.8877 0.0561039 15.1733 0.30636 15.481 0.467842C15.8505 0.738585 16.1799 1.06275 16.476 1.41223C16.8415 1.85209 17.1898 2.31283 17.4412 2.82861C17.6047 3.10216 17.7373 3.39299 17.8265 3.69908C17.9691 4.01723 18.0382 4.35987 18.1089 4.69931C18.2004 5.09136 18.1542 5.49627 18.1643 5.89475C18.1739 6.06186 18.106 6.22575 18.1322 6.39205C18.2133 6.50694 18.3302 6.58969 18.4258 6.69172C18.6495 6.92591 18.8644 7.16934 19.0621 7.42602C19.2878 7.67065 19.4975 7.92894 19.7056 8.18884C19.8249 8.37402 19.9607 8.54715 20.0936 8.72269C20.4186 9.23205 20.7866 9.71689 21.0545 10.2604C21.3276 10.6946 21.4787 11.1887 21.7257 11.6366C21.8394 11.9431 21.9422 12.2544 22.0619 12.5593C22.1314 12.7304 22.1893 12.9068 22.2158 13.0903C22.2548 13.3571 22.3592 13.6089 22.3945 13.8765C22.446 14.2432 22.5813 14.5971 22.5813 14.9711C22.5854 15.6009 22.5841 16.2308 22.5829 16.8607C22.5886 17.2037 22.5018 17.5383 22.4319 17.8717C22.3853 18.1312 22.35 18.3931 22.2813 18.6482C22.2082 18.9173 22.1977 19.2025 22.084 19.4604C21.9467 19.7922 21.8482 20.1377 21.7281 20.4755C21.5124 20.9089 21.3538 21.3693 21.1079 21.7879C20.9758 22.0397 20.8464 22.2936 20.6809 22.5262C20.4519 22.9082 20.2117 23.2846 19.9422 23.6397C19.8317 23.7895 19.6634 23.9172 19.469 23.9104C18.4495 23.9092 17.43 23.9076 16.4105 23.9112C16.1887 23.914 15.9634 23.8048 15.8373 23.6208C15.7075 23.444 15.7481 23.2115 15.7573 23.0074C15.8172 22.7387 15.9457 22.4908 16.0176 22.2253C16.1377 21.924 16.1803 21.6007 16.288 21.2962C16.3438 21.1206 16.3723 20.9379 16.388 20.7551C16.4181 20.3245 16.4972 19.8995 16.5475 19.4717C16.5599 18.5466 16.5531 17.6215 16.5495 16.6968C16.525 16.4228 16.4989 16.1484 16.4478 15.8781C16.4149 15.5343 16.3912 15.1896 16.355 14.8461C16.3434 14.5461 16.2213 14.2653 16.1835 13.9692C16.1333 13.7001 16.1422 13.3767 15.9092 13.1875C15.8019 13.163 15.7376 13.2795 15.6794 13.3494C15.6043 13.4342 15.6698 13.5467 15.6661 13.6455C15.6681 13.8604 15.718 14.0713 15.7135 14.2866C15.7168 15.1575 15.72 16.0287 15.7079 16.8992C15.6224 17.4483 15.5713 18.0035 15.5384 18.5582C15.5139 18.7165 15.4753 18.8719 15.436 19.0274C15.3669 19.2913 15.3436 19.5649 15.2628 19.8256C15.1813 20.0754 15.1857 20.3442 15.0993 20.5928C14.9479 21.0074 14.8194 21.4307 14.6595 21.8425C14.5281 22.1152 14.4145 22.3964 14.2751 22.6648C14.1011 22.958 13.9525 23.2685 13.7376 23.5356C13.6448 23.6481 13.5705 23.7891 13.4347 23.8554C13.2295 23.9249 13.0105 23.9088 12.7976 23.9096C11.6596 23.9088 10.5216 23.9084 9.38362 23.9096C9.1912 23.9084 8.98272 23.9369 8.8124 23.8249C8.56295 23.6963 8.46494 23.4119 8.40589 23.156C8.37697 22.9379 8.41432 22.7154 8.37215 22.4985C8.3384 22.0775 8.34403 21.6489 8.23597 21.2375C8.18455 21.0098 8.16728 20.7764 8.12149 20.5478C8.0773 20.3064 7.97487 20.0782 7.95037 19.8328C7.89252 19.3407 7.71778 18.8744 7.57759 18.4024C7.49645 17.9617 7.32653 17.5459 7.16907 17.1294C7.09274 16.7827 6.9397 16.4618 6.79951 16.1376C6.68583 15.805 6.58701 15.4668 6.4673 15.1362C6.35523 14.8948 6.29779 14.6345 6.21986 14.3814C6.1343 14.1123 6.1359 13.8234 6.0395 13.5571C5.8973 13.1819 5.90975 12.7742 5.82981 12.3854C5.76514 12.1383 5.79486 11.8804 5.75068 11.6302C5.73461 11.016 5.74666 10.4014 5.74465 9.78719C5.74023 9.61205 5.78281 9.44053 5.78482 9.26619C5.78362 9.00549 5.86878 8.75523 5.89569 8.49774C5.91337 8.29248 5.95193 8.08842 6.02745 7.896C6.12144 7.65619 6.13791 7.39107 6.25762 7.1605C6.39821 6.8769 6.56411 6.60656 6.69989 6.32015C6.79669 6.10444 6.94171 5.91685 7.0582 5.71238C7.21245 5.42839 7.40848 5.17009 7.57759 4.89493C7.8648 4.48721 8.13756 4.06704 8.46655 3.69025C8.71238 3.41348 8.93131 3.11301 9.19562 2.85231C9.40732 2.64744 9.58446 2.40884 9.81182 2.22004C9.98656 2.07382 10.1388 1.9019 10.322 1.76572C10.5224 1.61589 10.6964 1.43071 10.9149 1.30538C11.1334 1.18166 11.3222 1.01335 11.5383 0.885204C11.8147 0.719705 12.085 0.543763 12.3698 0.391922C12.6996 0.224013 13.0358 0.0480699 13.4118 0.0195495ZM12.9394 3.95095C12.8547 4.05137 12.9133 4.22932 13.0467 4.2466C13.3371 4.30886 13.6299 4.20723 13.9232 4.22691C14.0843 4.22209 14.2429 4.27672 14.4044 4.25423C14.6434 4.21808 14.8873 4.22008 15.1279 4.23736C15.3404 4.2719 15.5581 4.27672 15.7706 4.23736C15.9453 4.20562 16.1176 4.28677 16.2924 4.25624C16.4121 4.23615 16.5342 4.21928 16.6543 4.24619C16.8805 4.28958 17.1094 4.24941 17.3344 4.21767C17.2946 3.99714 17.1267 3.83566 16.9753 3.68382C16.8174 3.53118 16.631 3.38496 16.4121 3.34037C16.2687 3.39018 16.1747 3.51752 16.0751 3.62477C15.953 3.52515 15.8381 3.40866 15.6894 3.34881C15.4079 3.33555 15.1251 3.3464 14.8435 3.34198C14.6229 3.32029 14.496 3.56291 14.2895 3.585C14.1521 3.52877 14.0971 3.31667 13.924 3.33916C13.5183 3.35001 13.1519 3.61674 12.9394 3.95095ZM14.8957 5.26048C14.7125 5.42075 14.782 5.72403 14.5747 5.86704C14.3092 6.08034 14.0678 6.34144 13.9573 6.67003C13.9192 6.79335 13.9682 6.91787 13.9967 7.03758C14.249 7.01147 14.486 6.90984 14.7378 6.8777C15.0419 6.83834 15.3396 6.73912 15.6489 6.75117C15.9971 6.758 16.3542 6.71421 16.6909 6.82789C17.0339 6.88011 17.3677 6.97371 17.7076 7.03999C17.7373 6.95282 17.7783 6.86806 17.7927 6.77648C17.7092 6.47962 17.5031 6.23298 17.2769 6.03053C17.1681 5.92046 17.0235 5.83048 16.9749 5.67543C16.9307 5.56777 16.9066 5.44727 16.8291 5.35688C16.5447 5.06606 16.1357 4.90377 15.73 4.91301C15.4259 4.9355 15.113 5.03794 14.8957 5.26048ZM14.8065 7.48266C14.5233 7.51921 14.269 7.65378 14.016 7.7775C14.0172 7.88556 14.0128 8.00406 14.0947 8.08761C14.3249 8.37643 14.6667 8.56041 15.0138 8.67248C15.3713 8.70542 15.732 8.7002 16.0911 8.68775C16.4358 8.70823 16.7732 8.59817 17.0801 8.45115C17.3099 8.29288 17.53 8.08801 17.6164 7.81446C17.4637 7.65539 17.2749 7.52644 17.0564 7.48025C16.8154 7.42803 16.5864 7.30872 16.335 7.31555C16.106 7.31395 15.877 7.31515 15.6481 7.31636C15.358 7.31314 15.0909 7.4453 14.8065 7.48266Z" fill="white"/>
<path d="M15.2253 5.42529C15.3353 5.4265 15.4466 5.43292 15.5506 5.47269C15.5551 5.594 15.5531 5.71773 15.5109 5.83342C15.4145 5.83261 15.3185 5.83342 15.2221 5.83542C15.1706 5.70246 15.1698 5.55705 15.2253 5.42529Z" fill="white"/>
<path d="M16.1037 5.61048C16.0876 5.49519 16.2141 5.45582 16.2889 5.40039C16.3391 5.45864 16.4078 5.50523 16.4395 5.57674C16.4503 5.69483 16.3531 5.77999 16.2913 5.86837C16.2061 5.80409 16.084 5.73701 16.1037 5.61048Z" fill="white"/>
<path d="M4.1719 12.5559C4.2683 12.5294 4.3848 12.515 4.47799 12.5555C4.69973 12.77 4.70856 13.099 4.81099 13.3734C4.91021 13.6321 4.91423 13.9117 4.96163 14.1816C5.00542 14.3953 5.07973 14.6014 5.11829 14.8163C5.16288 15.0525 5.26371 15.2738 5.30749 15.5104C5.38301 15.929 5.48544 16.3451 5.64612 16.74C5.70678 16.8951 5.73409 17.0601 5.77908 17.22C5.86585 17.5189 5.98234 17.8077 6.08718 18.1005C6.14945 18.3408 6.21412 18.581 6.29968 18.8144C6.36716 19.0501 6.48848 19.2687 6.53146 19.5117C6.56038 19.6756 6.59975 19.8375 6.64835 19.9965C6.73673 20.2834 6.73472 20.5874 6.81385 20.8763C6.8733 21.1004 6.92151 21.3278 6.94721 21.5583C6.96449 21.7724 6.94199 21.9882 6.96569 22.2019C7.00907 22.4814 6.9918 22.7654 6.9906 23.0474C6.97413 23.2109 6.96569 23.3812 6.90343 23.5355C6.79618 23.7279 6.59814 23.8898 6.37399 23.9095C4.81903 23.9107 3.26366 23.9067 1.7087 23.9115C1.51347 23.9123 1.31945 23.8613 1.14271 23.7805C0.971986 23.701 0.936236 23.5001 0.876785 23.3415C0.789617 23.0715 0.641391 22.8269 0.542172 22.5622C0.440944 22.1998 0.335298 21.8383 0.209969 21.4836C0.116374 21.239 0.10593 20.9739 0.0842384 20.716C0.0890587 20.4983 -0.000519544 20.2922 0.000685544 20.0749C-0.000117848 19.7121 0.00108746 19.349 0.000284068 18.9863C-0.00453628 18.8071 0.0533077 18.6352 0.0737942 18.4585C0.0986993 18.156 0.104323 17.8427 0.227242 17.5595C0.3831 17.1055 0.472678 16.6207 0.727354 16.2073C0.849871 15.9884 0.912536 15.7386 1.06598 15.5373C1.19975 15.3549 1.29053 15.1469 1.41385 14.9585C1.91718 14.2615 2.56471 13.6863 3.248 13.1705C3.54766 12.954 3.83608 12.7158 4.1719 12.5559Z" fill="white"/>
</svg>
