<svg width="39" height="39" viewBox="0 0 39 39" fill="none" xmlns="http://www.w3.org/2000/svg">
<path d="M19.5001 0C8.74754 0 0 8.74754 0 19.4999C0 30.2522 8.74778 38.9998 19.5001 38.9998C30.2525 38.9998 39 30.2522 39 19.4999C39 8.74754 30.2522 0 19.5001 0ZM36.5028 18.2566H27.0413C26.848 17.0609 26.3757 15.9581 25.6944 15.0155L32.374 8.33592C34.7188 11.0361 36.2285 14.4767 36.5028 18.2566ZM20.7236 2.49547C24.5012 2.76484 27.9406 4.26882 30.6423 6.60693L23.9642 13.2852C23.0215 12.6042 21.919 12.1322 20.7236 11.9389V2.49547ZM18.2764 2.49547V11.9386C17.081 12.1319 15.9782 12.604 15.0355 13.2852L8.35723 6.60718C11.0589 4.26907 14.4988 2.76484 18.2764 2.49547ZM6.62527 8.33617L13.3051 15.0157C12.6238 15.9581 12.1517 17.0609 11.9584 18.2564H2.49696C2.77129 14.4767 4.28096 11.0363 6.62527 8.33617ZM2.49423 20.7035H11.9587C12.1517 21.899 12.6241 23.0017 13.3053 23.9444L6.60718 30.6425C4.26485 27.9359 2.75964 24.4888 2.49423 20.7035ZM18.2764 36.5043C14.4886 36.2342 11.041 34.723 8.33592 32.3742L15.0355 25.6746C15.9782 26.3559 17.081 26.8279 18.2764 27.0212V36.5043ZM18.2764 24.504V24.5218C17.7483 24.3934 17.2527 24.1848 16.8012 23.9087L16.8128 23.8971C16.1066 23.4664 15.5133 22.8731 15.0826 22.1666L15.0712 22.178C14.7952 21.7265 14.5865 21.2311 14.4581 20.703H14.4757C14.3803 20.3102 14.3243 19.9018 14.3243 19.4796C14.3243 19.0573 14.3806 18.6489 14.4757 18.2561H14.4581C14.5865 17.7283 14.7949 17.2329 15.0712 16.7814L15.0826 16.7928C15.5133 16.0865 16.1068 15.493 16.8128 15.0625L16.8012 15.0509C17.2527 14.7748 17.7483 14.5659 18.2764 14.4378V14.4557C18.6695 14.3602 19.0776 14.304 19.5001 14.304C19.9226 14.304 20.3308 14.3602 20.7238 14.4557V14.4378C21.2519 14.5662 21.7473 14.7746 22.1986 15.0506L22.1869 15.0623C22.8934 15.4927 23.4867 16.0863 23.9174 16.7925L23.9288 16.7811C24.2051 17.2326 24.4138 17.7283 24.5421 18.2564H24.5245C24.6199 18.6491 24.6759 19.0575 24.6759 19.4798C24.6759 19.9021 24.6197 20.3105 24.5245 20.7033H24.5421C24.4138 21.2313 24.2053 21.727 23.9288 22.1785L23.9174 22.1671C23.4867 22.8734 22.8932 23.4666 22.1869 23.8973L22.1986 23.9087C21.7473 24.1848 21.2519 24.3934 20.7238 24.5218V24.504C20.3308 24.5994 19.9226 24.6556 19.5001 24.6556C19.0776 24.6556 18.6695 24.5996 18.2764 24.504ZM20.7236 36.5043V27.0212C21.919 26.8279 23.0215 26.3559 23.9642 25.6749L30.6636 32.3742C27.9587 34.723 24.5111 36.2342 20.7236 36.5043ZM32.3926 30.6425L25.6947 23.9446C26.3759 23.002 26.848 21.8992 27.0416 20.7035H36.5058C36.2401 24.4888 34.7351 27.9359 32.3926 30.6425Z" fill="white"/>
<path d="M15.7639 19.0785C15.9845 18.6133 16.4047 18.2982 16.8038 17.9951C16.7498 18.6148 16.7378 19.2826 17.1009 19.8198C17.5106 20.5161 18.3014 20.8657 19.0832 20.9287C18.681 21.4854 18.2849 22.0481 17.8902 22.6093C17.353 22.5388 16.7963 22.4098 16.3807 22.0391C15.5148 21.3564 15.2492 20.0509 15.7639 19.0785Z" fill="white"/>
<path d="M16.8394 18.0273C17.129 17.1675 17.8943 16.4487 18.8291 16.4067C19.983 16.3737 21.1385 16.4052 22.2939 16.3932C22.2804 17.8623 22.3209 19.3313 22.2759 20.7989C22.2099 21.7472 21.3335 22.4375 20.4212 22.496C20.4122 21.0075 20.4227 19.5189 20.4152 18.0288C19.2238 18.0318 18.0308 18.0363 16.8394 18.0273Z" fill="#1ED760"/>
</svg>
