<svg width="190" height="41" viewBox="0 0 190 41" fill="none" xmlns="http://www.w3.org/2000/svg">
<path d="M180.721 0.00584995C183.701 -0.00131436 186.682 -0.00847954 189.669 0.027342C189.583 10.4084 189.748 20.7895 189.59 31.1634C189.433 35.8202 185.22 39.2949 180.743 39.5672C180.7 32.4673 180.735 25.3603 180.728 18.2533C175.033 18.2104 169.337 18.3465 163.641 18.1674C162.624 22.1364 163.777 26.6213 166.994 29.2721C168.957 31.1204 171.651 31.7151 174.252 32.059C172.324 34.6954 170.705 37.5827 168.492 39.997C163.183 40.0185 158.254 35.8847 157.373 30.6476C156.527 26.3705 158.318 21.6707 161.986 19.2492C164.472 17.7877 164.823 14.5064 167.181 12.8873C170.899 9.60601 176.143 10.5374 180.692 10.4657C180.743 6.97673 180.728 3.4877 180.721 0.00584995Z" fill="white"/>
<path d="M74.188 10.43C77.1325 10.4659 80.0842 10.4444 83.0359 10.3799C83.0646 15.5883 83.2938 20.8255 82.9499 26.0268C82.4341 30.44 78.4364 33.4919 74.2023 33.9648C74.1522 26.1199 74.1737 18.275 74.188 10.43Z" fill="white"/>
<path d="M134.533 13.9333C136.983 11.3326 140.544 9.68484 144.169 10.0932C149.95 10.4729 154.944 15.6742 154.93 21.4988C153.934 23.9203 152.071 25.8475 150.624 27.9968C144.477 27.7604 138.23 28.4267 132.154 27.6744C132.656 25.5896 134.633 24.0994 135.665 22.2081C139.197 22.1866 142.736 22.2152 146.282 22.1866C145.337 19.5501 143.667 17.0498 141.031 15.8748C138.624 14.5566 135.822 14.8431 133.222 15.2229C130.822 19.1274 130.349 23.9705 131.488 28.3694C133.093 30.7622 135.092 33.0763 137.871 34.1223C142.12 35.9205 146.841 35.1325 151.154 33.9933C147.257 39.2018 140.228 40.9212 134.046 39.9397C129.038 39.0442 124.632 35.0823 123.521 30.0745C122.418 25.7974 124.051 21.0618 127.49 18.3107C129.568 16.4265 132.599 16.0181 134.533 13.9333Z" fill="white"/>
<path d="M37.6431 10.437C40.6234 10.437 43.5966 10.437 46.5841 10.4513C47.5155 16.8706 48.5328 23.2826 49.8296 29.6374C50.3167 31.5216 50.7824 33.7927 52.6451 34.81C54.2786 35.6482 56.0625 34.6165 57.7103 34.3873C56.5712 35.9276 55.5825 37.7044 53.8917 38.7217C50.9758 40.5414 46.8421 40.4698 44.1984 38.1844C41.7912 36.1641 40.7166 33.0332 40.2939 30.0171C39.3052 23.5047 38.4025 16.978 37.6431 10.437Z" fill="white"/>
<path d="M54.1284 10.4443C57.1088 10.4372 60.0819 10.4372 63.0623 10.4443C64.0151 16.8564 65.0182 23.2613 66.3149 29.616C66.8021 31.4787 67.2534 33.7355 69.0732 34.7743C70.7138 35.6699 72.5407 34.6239 74.21 34.3803C72.5192 37.3248 69.7251 40.0759 66.0999 39.9899C61.5148 40.3482 57.9828 36.2502 57.1804 32.0662C55.8908 24.9019 55.0311 17.666 54.1284 10.4443Z" fill="white"/>
<path d="M93.0093 18.2247C94.2917 14.0264 98.1174 10.6521 102.595 10.4944C108.04 10.3368 113.499 10.4945 118.951 10.4443C118.894 17.4367 119.066 24.4362 118.88 31.4285C118.586 35.9421 114.416 39.3809 110.01 39.4812C110.025 32.4101 110.017 25.3317 110.017 18.2534C104.343 18.2391 98.6762 18.282 93.0093 18.2247Z" fill="white"/>
<path d="M1.24844 23.261C2.30159 21.0401 4.30759 19.5356 6.2133 18.0884C5.95538 21.0472 5.89805 24.2354 7.63181 26.8002C9.58767 30.1244 13.3633 31.7937 17.0959 32.0946C15.1758 34.7526 13.2845 37.4392 11.4002 40.1186C8.83543 39.7819 6.17747 39.1658 4.19296 37.3962C0.0591499 34.1364 -1.20892 27.9035 1.24844 23.261Z" fill="white"/>
<path d="M87.8508 23.1676C88.9255 20.9395 90.9673 19.4636 92.873 18.0093C92.4646 20.9896 92.4145 24.2422 94.2056 26.8285C96.1471 30.1456 99.9083 31.7504 103.605 32.1086C101.728 34.7594 99.8367 37.3959 98.017 40.0825C95.6026 39.8246 93.1309 39.3016 91.1965 37.7613C86.6974 34.5731 85.2215 27.9891 87.8508 23.1676Z" fill="white"/>
<path d="M6.38525 18.2392C7.76797 14.1341 11.4218 10.7024 15.8851 10.5018C21.3945 10.3442 26.911 10.4946 32.4275 10.4373C32.363 17.4512 32.5565 24.465 32.3415 31.4717C32.0263 35.9996 27.8424 39.2952 23.4865 39.5746C23.4435 32.4676 23.4936 25.3606 23.4578 18.2464C17.7694 18.2607 12.0737 18.2822 6.38525 18.2392Z" fill="#1ED760"/>
</svg>
