<svg width="316" height="29" viewBox="0 0 316 29" fill="none" xmlns="http://www.w3.org/2000/svg">
<path d="M8.92108 13.103C8.92108 14.0559 8.59249 14.85 7.93532 15.4853C7.2891 16.1096 6.29787 16.4217 4.96163 16.4217H2.76011V21.2026H1.26505V9.75146H4.96163C6.25406 9.75146 7.23434 10.0636 7.90246 10.6879C8.58154 11.3122 8.92108 12.1173 8.92108 13.103ZM4.96163 15.1895C5.79404 15.1895 6.4074 15.0088 6.8017 14.6474C7.19601 14.2859 7.39316 13.7711 7.39316 13.103C7.39316 11.6901 6.58265 10.9837 4.96163 10.9837H2.76011V15.1895H4.96163ZM14.7058 21.3505C13.8625 21.3505 13.0958 21.1588 12.4057 20.7755C11.7267 20.3921 11.19 19.85 10.7957 19.149C10.4123 18.437 10.2207 17.6156 10.2207 16.6846C10.2207 15.7646 10.4178 14.9541 10.8121 14.2531C11.2174 13.5411 11.765 12.999 12.455 12.6266C13.1451 12.2432 13.9172 12.0516 14.7716 12.0516C15.6259 12.0516 16.398 12.2432 17.0881 12.6266C17.7781 12.999 18.3203 13.5357 18.7146 14.2366C19.1198 14.9376 19.3225 15.7536 19.3225 16.6846C19.3225 17.6156 19.1143 18.437 18.6981 19.149C18.2929 19.85 17.7398 20.3921 17.0388 20.7755C16.3378 21.1588 15.5602 21.3505 14.7058 21.3505ZM14.7058 20.0362C15.2425 20.0362 15.7464 19.9102 16.2173 19.6583C16.6883 19.4064 17.0662 19.0285 17.3509 18.5247C17.6467 18.0208 17.7945 17.4075 17.7945 16.6846C17.7945 15.9617 17.6521 15.3484 17.3674 14.8445C17.0826 14.3407 16.7102 13.9683 16.2502 13.7273C15.7902 13.4754 15.2918 13.3495 14.7551 13.3495C14.2075 13.3495 13.7037 13.4754 13.2436 13.7273C12.7946 13.9683 12.4331 14.3407 12.1593 14.8445C11.8855 15.3484 11.7486 15.9617 11.7486 16.6846C11.7486 17.4184 11.88 18.0373 12.1429 18.5411C12.4167 19.0449 12.7781 19.4228 13.2272 19.6747C13.6763 19.9157 14.1691 20.0362 14.7058 20.0362ZM33.2815 12.1994L30.4721 21.2026H28.9278L26.7591 14.0559L24.5905 21.2026H23.0461L20.2203 12.1994H21.7482L23.8183 19.7569L26.0527 12.1994H27.5806L29.7657 19.7733L31.8029 12.1994H33.2815ZM42.9799 16.356C42.9799 16.6408 42.9635 16.942 42.9306 17.2596H35.7346C35.7894 18.1468 36.0906 18.8423 36.6382 19.3461C37.1968 19.839 37.8704 20.0854 38.659 20.0854C39.3052 20.0854 39.8419 19.9376 40.2691 19.6419C40.7072 19.3352 41.0139 18.9299 41.1891 18.4261H42.7992C42.5582 19.2914 42.0763 19.9978 41.3534 20.5455C40.6305 21.0822 39.7324 21.3505 38.659 21.3505C37.8047 21.3505 37.038 21.1588 36.3589 20.7755C35.6908 20.3921 35.1651 19.85 34.7817 19.149C34.3984 18.437 34.2067 17.6156 34.2067 16.6846C34.2067 15.7536 34.3929 14.9376 34.7653 14.2366C35.1377 13.5357 35.6579 12.999 36.3261 12.6266C37.0051 12.2432 37.7828 12.0516 38.659 12.0516C39.5133 12.0516 40.2691 12.2378 40.9263 12.6101C41.5834 12.9825 42.0873 13.4973 42.4377 14.1545C42.7992 14.8007 42.9799 15.5346 42.9799 16.356ZM41.4356 16.0439C41.4356 15.4743 41.3096 14.9869 41.0577 14.5817C40.8058 14.1654 40.4608 13.8533 40.0226 13.6452C39.5955 13.4261 39.119 13.3166 38.5933 13.3166C37.8376 13.3166 37.1913 13.5576 36.6546 14.0395C36.1289 14.5214 35.8277 15.1895 35.751 16.0439H41.4356ZM46.4484 13.6616C46.7113 13.1468 47.0837 12.7471 47.5656 12.4623C48.0585 12.1775 48.6554 12.0351 49.3564 12.0351V13.5795H48.9621C47.2863 13.5795 46.4484 14.4886 46.4484 16.3067V21.2026H44.9533V12.1994H46.4484V13.6616ZM59.2968 16.356C59.2968 16.6408 59.2804 16.942 59.2475 17.2596H52.0515C52.1063 18.1468 52.4075 18.8423 52.9551 19.3461C53.5137 19.839 54.1873 20.0854 54.9759 20.0854C55.6222 20.0854 56.1589 19.9376 56.586 19.6419C57.0241 19.3352 57.3308 18.9299 57.506 18.4261H59.1161C58.8752 19.2914 58.3932 19.9978 57.6703 20.5455C56.9475 21.0822 56.0493 21.3505 54.9759 21.3505C54.1216 21.3505 53.3549 21.1588 52.6759 20.7755C52.0077 20.3921 51.482 19.85 51.0986 19.149C50.7153 18.437 50.5236 17.6156 50.5236 16.6846C50.5236 15.7536 50.7098 14.9376 51.0822 14.2366C51.4546 13.5357 51.9749 12.999 52.643 12.6266C53.3221 12.2432 54.0997 12.0516 54.9759 12.0516C55.8303 12.0516 56.586 12.2378 57.2432 12.6101C57.9003 12.9825 58.4042 13.4973 58.7547 14.1545C59.1161 14.8007 59.2968 15.5346 59.2968 16.356ZM57.7525 16.0439C57.7525 15.4743 57.6265 14.9869 57.3746 14.5817C57.1227 14.1654 56.7777 13.8533 56.3396 13.6452C55.9124 13.4261 55.436 13.3166 54.9102 13.3166C54.1545 13.3166 53.5083 13.5576 52.9716 14.0395C52.4458 14.5214 52.1446 15.1895 52.068 16.0439H57.7525ZM60.7117 16.6682C60.7117 15.7481 60.8979 14.9431 61.2703 14.2531C61.6427 13.5521 62.152 13.0099 62.7982 12.6266C63.4554 12.2432 64.1892 12.0516 64.9997 12.0516C65.7007 12.0516 66.3524 12.2158 66.9548 12.5444C67.5572 12.8621 68.0172 13.2837 68.3348 13.8095V9.045H69.8463V21.2026H68.3348V19.5104C68.0391 20.0471 67.601 20.4907 67.0205 20.8412C66.44 21.1807 65.7609 21.3505 64.9833 21.3505C64.1837 21.3505 63.4554 21.1533 62.7982 20.759C62.152 20.3647 61.6427 19.8116 61.2703 19.0997C60.8979 18.3878 60.7117 17.5773 60.7117 16.6682ZM68.3348 16.6846C68.3348 16.0055 68.1979 15.4141 67.9241 14.9102C67.6503 14.4064 67.2779 14.0231 66.8069 13.7602C66.3469 13.4864 65.8376 13.3495 65.279 13.3495C64.7204 13.3495 64.2111 13.4809 63.7511 13.7438C63.2911 14.0066 62.9241 14.39 62.6503 14.8938C62.3765 15.3976 62.2396 15.9891 62.2396 16.6682C62.2396 17.3582 62.3765 17.9606 62.6503 18.4754C62.9241 18.9792 63.2911 19.368 63.7511 19.6419C64.2111 19.9047 64.7204 20.0362 65.279 20.0362C65.8376 20.0362 66.3469 19.9047 66.8069 19.6419C67.2779 19.368 67.6503 18.9792 67.9241 18.4754C68.1979 17.9606 68.3348 17.3637 68.3348 16.6846ZM78.248 13.8752C78.5546 13.3385 79.0037 12.9004 79.5952 12.5609C80.1866 12.2213 80.8602 12.0516 81.616 12.0516C82.4265 12.0516 83.1548 12.2432 83.801 12.6266C84.4473 13.0099 84.9566 13.5521 85.329 14.2531C85.7014 14.9431 85.8876 15.7481 85.8876 16.6682C85.8876 17.5773 85.7014 18.3878 85.329 19.0997C84.9566 19.8116 84.4418 20.3647 83.7846 20.759C83.1384 21.1533 82.4155 21.3505 81.616 21.3505C80.8383 21.3505 80.1537 21.1807 79.5623 20.8412C78.9818 20.5017 78.5437 20.069 78.248 19.5433V21.2026H76.7529V9.045H78.248V13.8752ZM84.3596 16.6682C84.3596 15.9891 84.2227 15.3976 83.9489 14.8938C83.6751 14.39 83.3027 14.0066 82.8317 13.7438C82.3717 13.4809 81.8624 13.3495 81.3038 13.3495C80.7562 13.3495 80.2468 13.4864 79.7759 13.7602C79.3159 14.0231 78.9435 14.4119 78.6587 14.9267C78.3849 15.4305 78.248 16.0165 78.248 16.6846C78.248 17.3637 78.3849 17.9606 78.6587 18.4754C78.9435 18.9792 79.3159 19.368 79.7759 19.6419C80.2468 19.9047 80.7562 20.0362 81.3038 20.0362C81.8624 20.0362 82.3717 19.9047 82.8317 19.6419C83.3027 19.368 83.6751 18.9792 83.9489 18.4754C84.2227 17.9606 84.3596 17.3582 84.3596 16.6682ZM95.6101 12.1994L90.1884 25.4414H88.6441L90.4184 21.1041L86.7876 12.1994H88.4469L91.2727 19.494L94.0657 12.1994H95.6101ZM97.5894 21.3012C97.3046 21.3012 97.0637 21.2026 96.8665 21.0055C96.6694 20.8083 96.5708 20.5674 96.5708 20.2826C96.5708 19.9978 96.6694 19.7569 96.8665 19.5597C97.0637 19.3626 97.3046 19.264 97.5894 19.264C97.8632 19.264 98.0932 19.3626 98.2794 19.5597C98.4766 19.7569 98.5752 19.9978 98.5752 20.2826C98.5752 20.5674 98.4766 20.8083 98.2794 21.0055C98.0932 21.2026 97.8632 21.3012 97.5894 21.3012ZM97.5894 14.2695C97.3046 14.2695 97.0637 14.1709 96.8665 13.9738C96.6694 13.7766 96.5708 13.5357 96.5708 13.2509C96.5708 12.9661 96.6694 12.7252 96.8665 12.528C97.0637 12.3308 97.3046 12.2323 97.5894 12.2323C97.8632 12.2323 98.0932 12.3308 98.2794 12.528C98.4766 12.7252 98.5752 12.9661 98.5752 13.2509C98.5752 13.5357 98.4766 13.7766 98.2794 13.9738C98.0932 14.1709 97.8632 14.2695 97.5894 14.2695ZM151.344 19.1654H147.04L146.35 21.2026H143.409L147.582 9.66931H150.835L155.008 21.2026H152.034L151.344 19.1654ZM150.621 16.9968L149.192 12.7744L147.779 16.9968H150.621ZM159.088 13.333C159.361 12.9059 159.739 12.5609 160.221 12.298C160.703 12.0351 161.267 11.9037 161.913 11.9037C162.669 11.9037 163.354 12.0954 163.967 12.4787C164.58 12.8621 165.062 13.4097 165.413 14.1216C165.774 14.8336 165.955 15.6605 165.955 16.6025C165.955 17.5444 165.774 18.3768 165.413 19.0997C165.062 19.8116 164.58 20.3647 163.967 20.759C163.354 21.1424 162.669 21.3341 161.913 21.3341C161.278 21.3341 160.714 21.2026 160.221 20.9398C159.739 20.6769 159.361 20.3374 159.088 19.9212V25.5728H156.278V12.0351H159.088V13.333ZM163.096 16.6025C163.096 15.9015 162.899 15.3538 162.505 14.9595C162.121 14.5543 161.645 14.3516 161.075 14.3516C160.517 14.3516 160.04 14.5543 159.646 14.9595C159.263 15.3648 159.071 15.9179 159.071 16.6189C159.071 17.3199 159.263 17.873 159.646 18.2782C160.04 18.6835 160.517 18.8861 161.075 18.8861C161.634 18.8861 162.11 18.6835 162.505 18.2782C162.899 17.862 163.096 17.3034 163.096 16.6025ZM176.071 16.471C176.071 16.7339 176.054 17.0077 176.021 17.2925H169.663C169.707 17.862 169.888 18.3001 170.205 18.6068C170.534 18.9025 170.934 19.0504 171.405 19.0504C172.106 19.0504 172.593 18.7547 172.867 18.1632H175.857C175.704 18.7656 175.424 19.3078 175.019 19.7897C174.625 20.2716 174.126 20.6495 173.524 20.9233C172.922 21.1972 172.248 21.3341 171.503 21.3341C170.605 21.3341 169.806 21.1424 169.105 20.759C168.404 20.3757 167.856 19.8281 167.462 19.1161C167.067 18.4042 166.87 17.5718 166.87 16.6189C166.87 15.666 167.062 14.8336 167.445 14.1216C167.84 13.4097 168.387 12.8621 169.088 12.4787C169.789 12.0954 170.594 11.9037 171.503 11.9037C172.39 11.9037 173.179 12.0899 173.869 12.4623C174.559 12.8347 175.096 13.3659 175.479 14.0559C175.873 14.7459 176.071 15.551 176.071 16.471ZM173.195 15.7317C173.195 15.2498 173.031 14.8664 172.703 14.5817C172.374 14.2969 171.963 14.1545 171.47 14.1545C170.999 14.1545 170.6 14.2914 170.271 14.5652C169.953 14.839 169.756 15.2279 169.68 15.7317H173.195ZM186.916 21.2026L184.517 16.8489H183.844V21.2026H181.034V9.66931H185.749C186.659 9.66931 187.431 9.82813 188.066 10.1458C188.712 10.4634 189.194 10.9015 189.512 11.4601C189.829 12.0077 189.988 12.6211 189.988 13.3002C189.988 14.0669 189.769 14.7514 189.331 15.3538C188.904 15.9562 188.269 16.3834 187.425 16.6353L190.087 21.2026H186.916ZM183.844 14.861H185.585C186.1 14.861 186.483 14.735 186.735 14.4831C186.998 14.2312 187.129 13.8752 187.129 13.4152C187.129 12.9771 186.998 12.6321 186.735 12.3801C186.483 12.1282 186.1 12.0023 185.585 12.0023H183.844V14.861ZM200.394 16.471C200.394 16.7339 200.377 17.0077 200.344 17.2925H193.986C194.03 17.862 194.211 18.3001 194.528 18.6068C194.857 18.9025 195.257 19.0504 195.728 19.0504C196.429 19.0504 196.916 18.7547 197.19 18.1632H200.18C200.027 18.7656 199.747 19.3078 199.342 19.7897C198.948 20.2716 198.449 20.6495 197.847 20.9233C197.245 21.1972 196.571 21.3341 195.826 21.3341C194.928 21.3341 194.129 21.1424 193.428 20.759C192.727 20.3757 192.179 19.8281 191.785 19.1161C191.39 18.4042 191.193 17.5718 191.193 16.6189C191.193 15.666 191.385 14.8336 191.768 14.1216C192.162 13.4097 192.71 12.8621 193.411 12.4787C194.112 12.0954 194.917 11.9037 195.826 11.9037C196.713 11.9037 197.502 12.0899 198.192 12.4623C198.882 12.8347 199.419 13.3659 199.802 14.0559C200.196 14.7459 200.394 15.551 200.394 16.471ZM197.518 15.7317C197.518 15.2498 197.354 14.8664 197.026 14.5817C196.697 14.2969 196.286 14.1545 195.793 14.1545C195.322 14.1545 194.923 14.2914 194.594 14.5652C194.276 14.839 194.079 15.2279 194.003 15.7317H197.518ZM205.999 18.574L207.987 12.0351H210.977L207.724 21.2026H204.258L201.005 12.0351H204.011L205.999 18.574ZM216.333 21.3341C215.435 21.3341 214.624 21.1424 213.901 20.759C213.19 20.3757 212.625 19.8281 212.209 19.1161C211.804 18.4042 211.601 17.5718 211.601 16.6189C211.601 15.6769 211.809 14.85 212.226 14.1381C212.642 13.4152 213.211 12.8621 213.934 12.4787C214.657 12.0954 215.468 11.9037 216.366 11.9037C217.264 11.9037 218.074 12.0954 218.797 12.4787C219.52 12.8621 220.09 13.4152 220.506 14.1381C220.922 14.85 221.13 15.6769 221.13 16.6189C221.13 17.5608 220.917 18.3932 220.49 19.1161C220.073 19.8281 219.498 20.3757 218.765 20.759C218.042 21.1424 217.231 21.3341 216.333 21.3341ZM216.333 18.9025C216.87 18.9025 217.324 18.7054 217.697 18.3111C218.08 17.9168 218.272 17.3527 218.272 16.6189C218.272 15.885 218.085 15.321 217.713 14.9267C217.352 14.5324 216.903 14.3352 216.366 14.3352C215.818 14.3352 215.364 14.5324 215.002 14.9267C214.641 15.31 214.46 15.8741 214.46 16.6189C214.46 17.3527 214.635 17.9168 214.986 18.3111C215.347 18.7054 215.796 18.9025 216.333 18.9025ZM225.43 9.045V21.2026H222.621V9.045H225.43ZM236.519 12.0351V21.2026H233.709V19.954C233.424 20.3593 233.036 20.6879 232.543 20.9398C232.061 21.1807 231.524 21.3012 230.933 21.3012C230.232 21.3012 229.613 21.1479 229.076 20.8412C228.539 20.5236 228.123 20.069 227.828 19.4776C227.532 18.8861 227.384 18.1906 227.384 17.3911V12.0351H230.177V17.0132C230.177 17.6265 230.336 18.103 230.653 18.4425C230.971 18.7821 231.398 18.9518 231.935 18.9518C232.483 18.9518 232.915 18.7821 233.233 18.4425C233.55 18.103 233.709 17.6265 233.709 17.0132V12.0351H236.519ZM243.646 18.8204V21.2026H242.217C241.198 21.2026 240.404 20.9562 239.834 20.4633C239.265 19.9595 238.98 19.1435 238.98 18.0154V14.3681H237.863V12.0351H238.98V9.80075H241.79V12.0351H243.63V14.3681H241.79V18.0482C241.79 18.322 241.855 18.5192 241.987 18.6397C242.118 18.7602 242.337 18.8204 242.644 18.8204H243.646ZM246.624 11.0822C246.131 11.0822 245.726 10.9398 245.408 10.6551C245.101 10.3593 244.948 9.9979 244.948 9.57074C244.948 9.13262 245.101 8.77118 245.408 8.48641C245.726 8.19068 246.131 8.04282 246.624 8.04282C247.106 8.04282 247.5 8.19068 247.807 8.48641C248.124 8.77118 248.283 9.13262 248.283 9.57074C248.283 9.9979 248.124 10.3593 247.807 10.6551C247.5 10.9398 247.106 11.0822 246.624 11.0822ZM248.02 12.0351V21.2026H245.211V12.0351H248.02ZM254.229 21.3341C253.331 21.3341 252.521 21.1424 251.798 20.759C251.086 20.3757 250.522 19.8281 250.106 19.1161C249.7 18.4042 249.498 17.5718 249.498 16.6189C249.498 15.6769 249.706 14.85 250.122 14.1381C250.538 13.4152 251.108 12.8621 251.831 12.4787C252.554 12.0954 253.364 11.9037 254.262 11.9037C255.16 11.9037 255.971 12.0954 256.694 12.4787C257.417 12.8621 257.986 13.4152 258.402 14.1381C258.819 14.85 259.027 15.6769 259.027 16.6189C259.027 17.5608 258.813 18.3932 258.386 19.1161C257.97 19.8281 257.395 20.3757 256.661 20.759C255.938 21.1424 255.127 21.3341 254.229 21.3341ZM254.229 18.9025C254.766 18.9025 255.221 18.7054 255.593 18.3111C255.976 17.9168 256.168 17.3527 256.168 16.6189C256.168 15.885 255.982 15.321 255.609 14.9267C255.248 14.5324 254.799 14.3352 254.262 14.3352C253.715 14.3352 253.26 14.5324 252.899 14.9267C252.537 15.31 252.356 15.8741 252.356 16.6189C252.356 17.3527 252.532 17.9168 252.882 18.3111C253.244 18.7054 253.693 18.9025 254.229 18.9025ZM266.103 11.9365C267.176 11.9365 268.031 12.287 268.666 12.988C269.312 13.678 269.635 14.6309 269.635 15.8467V21.2026H266.842V16.2246C266.842 15.6112 266.684 15.1348 266.366 14.7952C266.048 14.4557 265.621 14.2859 265.084 14.2859C264.548 14.2859 264.121 14.4557 263.803 14.7952C263.485 15.1348 263.327 15.6112 263.327 16.2246V21.2026H260.517V12.0351H263.327V13.2509C263.611 12.8456 263.995 12.528 264.477 12.298C264.958 12.057 265.501 11.9365 266.103 11.9365ZM278.059 18.9025H283.021V21.2026H274.872V19.0668L279.801 11.9694H274.872V9.66931H283.021V11.8051L278.059 18.9025ZM289.029 21.3341C288.131 21.3341 287.32 21.1424 286.598 20.759C285.886 20.3757 285.322 19.8281 284.905 19.1161C284.5 18.4042 284.298 17.5718 284.298 16.6189C284.298 15.6769 284.506 14.85 284.922 14.1381C285.338 13.4152 285.908 12.8621 286.63 12.4787C287.353 12.0954 288.164 11.9037 289.062 11.9037C289.96 11.9037 290.771 12.0954 291.494 12.4787C292.216 12.8621 292.786 13.4152 293.202 14.1381C293.618 14.85 293.826 15.6769 293.826 16.6189C293.826 17.5608 293.613 18.3932 293.186 19.1161C292.77 19.8281 292.194 20.3757 291.461 20.759C290.738 21.1424 289.927 21.3341 289.029 21.3341ZM289.029 18.9025C289.566 18.9025 290.02 18.7054 290.393 18.3111C290.776 17.9168 290.968 17.3527 290.968 16.6189C290.968 15.885 290.782 15.321 290.409 14.9267C290.048 14.5324 289.599 14.3352 289.062 14.3352C288.514 14.3352 288.06 14.5324 287.698 14.9267C287.337 15.31 287.156 15.8741 287.156 16.6189C287.156 17.3527 287.331 17.9168 287.682 18.3111C288.043 18.7054 288.492 18.9025 289.029 18.9025ZM300.903 11.9365C301.976 11.9365 302.831 12.287 303.466 12.988C304.112 13.678 304.435 14.6309 304.435 15.8467V21.2026H301.642V16.2246C301.642 15.6112 301.483 15.1348 301.166 14.7952C300.848 14.4557 300.421 14.2859 299.884 14.2859C299.348 14.2859 298.92 14.4557 298.603 14.7952C298.285 15.1348 298.126 15.6112 298.126 16.2246V21.2026H295.317V12.0351H298.126V13.2509C298.411 12.8456 298.794 12.528 299.276 12.298C299.758 12.057 300.3 11.9365 300.903 11.9365ZM315.029 16.471C315.029 16.7339 315.013 17.0077 314.98 17.2925H308.622C308.666 17.862 308.846 18.3001 309.164 18.6068C309.493 18.9025 309.892 19.0504 310.363 19.0504C311.064 19.0504 311.552 18.7547 311.825 18.1632H314.816C314.662 18.7656 314.383 19.3078 313.978 19.7897C313.583 20.2716 313.085 20.6495 312.483 20.9233C311.88 21.1972 311.207 21.3341 310.462 21.3341C309.564 21.3341 308.764 21.1424 308.063 20.759C307.362 20.3757 306.815 19.8281 306.42 19.1161C306.026 18.4042 305.829 17.5718 305.829 16.6189C305.829 15.666 306.02 14.8336 306.404 14.1216C306.798 13.4097 307.346 12.8621 308.047 12.4787C308.748 12.0954 309.553 11.9037 310.462 11.9037C311.349 11.9037 312.138 12.0899 312.828 12.4623C313.518 12.8347 314.054 13.3659 314.438 14.0559C314.832 14.7459 315.029 15.551 315.029 16.471ZM312.154 15.7317C312.154 15.2498 311.99 14.8664 311.661 14.5817C311.333 14.2969 310.922 14.1545 310.429 14.1545C309.958 14.1545 309.558 14.2914 309.23 14.5652C308.912 14.839 308.715 15.2279 308.638 15.7317H312.154Z" fill="white"/>
<path d="M125.411 0.0195495C125.781 -0.0121845 126.156 -0.00615899 126.524 0.044053C126.887 0.0561039 127.173 0.30636 127.48 0.467842C127.85 0.738585 128.179 1.06275 128.475 1.41223C128.841 1.85209 129.189 2.31283 129.441 2.82861C129.604 3.10216 129.737 3.39299 129.826 3.69908C129.969 4.01723 130.038 4.35987 130.108 4.69931C130.2 5.09136 130.154 5.49627 130.164 5.89475C130.173 6.06186 130.106 6.22575 130.132 6.39205C130.213 6.50694 130.33 6.58969 130.425 6.69172C130.649 6.92591 130.864 7.16934 131.062 7.42602C131.287 7.67065 131.497 7.92894 131.705 8.18884C131.824 8.37402 131.96 8.54715 132.093 8.72269C132.418 9.23205 132.786 9.71689 133.054 10.2604C133.327 10.6946 133.478 11.1887 133.725 11.6366C133.839 11.9431 133.942 12.2544 134.061 12.5593C134.131 12.7304 134.189 12.9068 134.215 13.0903C134.254 13.3571 134.359 13.6089 134.394 13.8765C134.445 14.2432 134.581 14.5971 134.581 14.9711C134.585 15.6009 134.584 16.2308 134.582 16.8607C134.588 17.2037 134.501 17.5383 134.431 17.8717C134.385 18.1312 134.349 18.3931 134.281 18.6482C134.208 18.9173 134.197 19.2025 134.084 19.4604C133.946 19.7922 133.848 20.1377 133.728 20.4755C133.512 20.9089 133.353 21.3693 133.107 21.7879C132.975 22.0397 132.846 22.2936 132.68 22.5262C132.451 22.9082 132.211 23.2846 131.942 23.6397C131.831 23.7895 131.663 23.9172 131.469 23.9104C130.449 23.9092 129.429 23.9076 128.41 23.9112C128.188 23.914 127.963 23.8048 127.837 23.6208C127.707 23.444 127.748 23.2115 127.757 23.0074C127.817 22.7387 127.945 22.4908 128.017 22.2253C128.137 21.924 128.18 21.6007 128.287 21.2962C128.343 21.1206 128.372 20.9379 128.387 20.7551C128.418 20.3245 128.497 19.8995 128.547 19.4717C128.559 18.5466 128.553 17.6215 128.549 16.6968C128.524 16.4228 128.498 16.1484 128.447 15.8781C128.414 15.5343 128.391 15.1896 128.355 14.8461C128.343 14.5461 128.221 14.2653 128.183 13.9692C128.133 13.7001 128.142 13.3767 127.909 13.1875C127.801 13.163 127.737 13.2795 127.679 13.3494C127.604 13.4342 127.669 13.5467 127.666 13.6455C127.668 13.8604 127.717 14.0713 127.713 14.2866C127.716 15.1575 127.719 16.0287 127.707 16.8992C127.622 17.4483 127.571 18.0035 127.538 18.5582C127.513 18.7165 127.475 18.8719 127.435 19.0274C127.366 19.2913 127.343 19.5649 127.262 19.8256C127.181 20.0754 127.185 20.3442 127.099 20.5928C126.947 21.0074 126.819 21.4307 126.659 21.8425C126.528 22.1152 126.414 22.3964 126.275 22.6648C126.101 22.958 125.952 23.2685 125.737 23.5356C125.644 23.6481 125.57 23.7891 125.434 23.8554C125.229 23.9249 125.01 23.9088 124.797 23.9096C123.659 23.9088 122.521 23.9084 121.383 23.9096C121.191 23.9084 120.982 23.9369 120.812 23.8249C120.562 23.6963 120.464 23.4119 120.405 23.156C120.376 22.9379 120.414 22.7154 120.372 22.4985C120.338 22.0775 120.344 21.6489 120.235 21.2375C120.184 21.0098 120.167 20.7764 120.121 20.5478C120.077 20.3064 119.974 20.0782 119.95 19.8328C119.892 19.3407 119.717 18.8744 119.577 18.4024C119.496 17.9617 119.326 17.5459 119.169 17.1294C119.092 16.7827 118.939 16.4618 118.799 16.1376C118.685 15.805 118.587 15.4668 118.467 15.1362C118.355 14.8948 118.297 14.6345 118.219 14.3814C118.134 14.1123 118.135 13.8234 118.039 13.5571C117.897 13.1819 117.909 12.7742 117.829 12.3854C117.765 12.1383 117.794 11.8804 117.75 11.6302C117.734 11.016 117.746 10.4014 117.744 9.78719C117.74 9.61205 117.782 9.44053 117.784 9.26619C117.783 9.00549 117.868 8.75523 117.895 8.49774C117.913 8.29248 117.951 8.08842 118.027 7.896C118.121 7.65619 118.137 7.39107 118.257 7.1605C118.398 6.8769 118.564 6.60656 118.699 6.32015C118.796 6.10444 118.941 5.91685 119.058 5.71238C119.212 5.42839 119.408 5.17009 119.577 4.89493C119.864 4.48721 120.137 4.06704 120.466 3.69025C120.712 3.41348 120.931 3.11301 121.195 2.85231C121.407 2.64744 121.584 2.40884 121.811 2.22004C121.986 2.07382 122.138 1.9019 122.321 1.76572C122.522 1.61589 122.696 1.43071 122.914 1.30538C123.133 1.18166 123.322 1.01335 123.538 0.885204C123.814 0.719705 124.085 0.543763 124.369 0.391922C124.699 0.224013 125.035 0.0480699 125.411 0.0195495ZM124.939 3.95095C124.854 4.05137 124.913 4.22932 125.046 4.2466C125.337 4.30886 125.629 4.20723 125.923 4.22691C126.084 4.22209 126.242 4.27672 126.404 4.25423C126.643 4.21808 126.887 4.22008 127.127 4.23736C127.34 4.2719 127.558 4.27672 127.77 4.23736C127.945 4.20562 128.117 4.28677 128.292 4.25624C128.412 4.23615 128.534 4.21928 128.654 4.24619C128.88 4.28958 129.109 4.24941 129.334 4.21767C129.294 3.99714 129.126 3.83566 128.975 3.68382C128.817 3.53118 128.631 3.38496 128.412 3.34037C128.268 3.39018 128.174 3.51752 128.075 3.62477C127.952 3.52515 127.838 3.40866 127.689 3.34881C127.407 3.33555 127.125 3.3464 126.843 3.34198C126.622 3.32029 126.496 3.56291 126.289 3.585C126.152 3.52877 126.097 3.31667 125.923 3.33916C125.518 3.35001 125.151 3.61674 124.939 3.95095ZM126.895 5.26048C126.712 5.42075 126.782 5.72403 126.574 5.86704C126.309 6.08034 126.067 6.34144 125.957 6.67003C125.919 6.79335 125.968 6.91787 125.996 7.03758C126.248 7.01147 126.485 6.90984 126.737 6.8777C127.041 6.83834 127.339 6.73912 127.648 6.75117C127.997 6.758 128.354 6.71421 128.69 6.82789C129.033 6.88011 129.367 6.97371 129.707 7.03999C129.737 6.95282 129.778 6.86806 129.792 6.77648C129.709 6.47962 129.503 6.23298 129.276 6.03053C129.168 5.92046 129.023 5.83048 128.974 5.67543C128.93 5.56777 128.906 5.44727 128.829 5.35688C128.544 5.06606 128.135 4.90377 127.73 4.91301C127.425 4.9355 127.113 5.03794 126.895 5.26048ZM126.806 7.48266C126.523 7.51921 126.269 7.65378 126.015 7.7775C126.017 7.88556 126.012 8.00406 126.094 8.08761C126.324 8.37643 126.666 8.56041 127.013 8.67248C127.371 8.70542 127.732 8.7002 128.091 8.68775C128.435 8.70823 128.773 8.59817 129.08 8.45115C129.309 8.29288 129.53 8.08801 129.616 7.81446C129.463 7.65539 129.274 7.52644 129.056 7.48025C128.815 7.42803 128.586 7.30872 128.334 7.31555C128.106 7.31395 127.877 7.31515 127.648 7.31636C127.358 7.31314 127.09 7.4453 126.806 7.48266Z" fill="white"/>
<path d="M127.226 5.42529C127.336 5.4265 127.447 5.43292 127.551 5.47269C127.556 5.594 127.554 5.71773 127.511 5.83342C127.415 5.83261 127.319 5.83342 127.223 5.83542C127.171 5.70246 127.17 5.55705 127.226 5.42529Z" fill="white"/>
<path d="M128.104 5.61048C128.088 5.49519 128.214 5.45582 128.289 5.40039C128.339 5.45864 128.408 5.50523 128.439 5.57674C128.45 5.69483 128.353 5.77999 128.291 5.86837C128.206 5.80409 128.084 5.73701 128.104 5.61048Z" fill="white"/>
<path d="M116.172 12.5559C116.268 12.5294 116.385 12.515 116.478 12.5555C116.7 12.77 116.709 13.099 116.811 13.3734C116.91 13.6321 116.914 13.9117 116.962 14.1816C117.005 14.3953 117.08 14.6014 117.118 14.8163C117.163 15.0525 117.264 15.2738 117.307 15.5104C117.383 15.929 117.485 16.3451 117.646 16.74C117.707 16.8951 117.734 17.0601 117.779 17.22C117.866 17.5189 117.982 17.8077 118.087 18.1005C118.149 18.3408 118.214 18.581 118.3 18.8144C118.367 19.0501 118.488 19.2687 118.531 19.5117C118.56 19.6756 118.6 19.8375 118.648 19.9965C118.737 20.2834 118.735 20.5874 118.814 20.8763C118.873 21.1004 118.922 21.3278 118.947 21.5583C118.964 21.7724 118.942 21.9882 118.966 22.2019C119.009 22.4814 118.992 22.7654 118.991 23.0474C118.974 23.2109 118.966 23.3812 118.903 23.5355C118.796 23.7279 118.598 23.8898 118.374 23.9095C116.819 23.9107 115.264 23.9067 113.709 23.9115C113.513 23.9123 113.319 23.8613 113.143 23.7805C112.972 23.701 112.936 23.5001 112.877 23.3415C112.79 23.0715 112.641 22.8269 112.542 22.5622C112.441 22.1998 112.335 21.8383 112.21 21.4836C112.116 21.239 112.106 20.9739 112.084 20.716C112.089 20.4983 111.999 20.2922 112.001 20.0749C112 19.7121 112.001 19.349 112 18.9863C111.995 18.8071 112.053 18.6352 112.074 18.4585C112.099 18.156 112.104 17.8427 112.227 17.5595C112.383 17.1055 112.473 16.6207 112.727 16.2073C112.85 15.9884 112.913 15.7386 113.066 15.5373C113.2 15.3549 113.291 15.1469 113.414 14.9585C113.917 14.2615 114.565 13.6863 115.248 13.1705C115.548 12.954 115.836 12.7158 116.172 12.5559Z" fill="white"/>
</svg>
