<svg width="138" height="47" viewBox="0 0 138 47" fill="none" xmlns="http://www.w3.org/2000/svg">
<g filter="url(#filter0_d_144_4420)">
<rect x="4" width="130" height="39" rx="19.5" fill="#787878" fill-opacity="0.43" shape-rendering="crispEdges"/>
<path d="M30.433 10.7361C30.4029 10.7415 30.3732 10.7489 30.344 10.7582C30.1834 10.7942 30.0401 10.8848 29.9388 11.0146C29.8374 11.1444 29.7842 11.3053 29.7882 11.4699V12.1816H23.3827C22.8164 12.1816 22.2734 12.4066 21.8729 12.807C21.4725 13.2074 21.2476 13.7505 21.2476 14.3168V23.5691C21.2476 24.7477 22.2041 25.7043 23.3827 25.7043H29.7882V25.9712L25.9179 27.9063C25.7468 27.9889 25.6156 28.136 25.5531 28.3154C25.4906 28.4947 25.5018 28.6915 25.5844 28.8625C25.667 29.0335 25.8141 29.1647 25.9935 29.2273C26.1728 29.2898 26.3696 29.2785 26.5406 29.196L29.7882 27.5725V27.8394C29.7882 28.0282 29.8632 28.2092 29.9966 28.3427C30.1301 28.4762 30.3111 28.5511 30.4999 28.5511C30.6887 28.5511 30.8697 28.4762 31.0032 28.3427C31.1366 28.2092 31.2116 28.0282 31.2116 27.8394V27.5725L34.4592 29.196C34.6302 29.2785 34.827 29.2898 35.0064 29.2273C35.1857 29.1647 35.3328 29.0335 35.4154 28.8625C35.498 28.6915 35.5092 28.4947 35.4467 28.3154C35.3842 28.136 35.253 27.9889 35.082 27.9063L31.2116 25.9712V25.7043H37.6171C38.7957 25.7043 39.7523 24.7477 39.7523 23.5691V14.3168C39.7523 13.7505 39.5273 13.2074 39.1269 12.807C38.7265 12.4066 38.1834 12.1816 37.6171 12.1816H31.2116V11.4699C31.2152 11.3687 31.1972 11.2679 31.1587 11.1742C31.1202 11.0805 31.0622 10.9961 30.9885 10.9267C30.9148 10.8572 30.8271 10.8043 30.7313 10.7714C30.6355 10.7386 30.5338 10.7265 30.433 10.7361ZM22.671 14.3168H38.3288V23.5691H22.671V14.3168ZM36.1047 15.0285C35.9453 15.0456 35.7963 15.1161 35.6819 15.2285L33.3468 17.5643L31.7234 15.9395C31.6456 15.8597 31.5502 15.7993 31.4449 15.7631C31.3395 15.7269 31.2271 15.716 31.1168 15.7311C31.0064 15.7463 30.9012 15.7871 30.8095 15.8504C30.7178 15.9137 30.6422 15.9976 30.5889 16.0953L28.4758 19.7877L27.6082 17.6078C27.5661 17.4952 27.4961 17.3951 27.4049 17.3169C27.3136 17.2387 27.2041 17.1848 27.0864 17.1604C26.9687 17.136 26.8468 17.1417 26.7319 17.1771C26.6171 17.2125 26.5131 17.2765 26.4296 17.3629L24.2944 19.4981C24.2271 19.5653 24.1737 19.6452 24.1373 19.7331C24.1009 19.8209 24.0821 19.9151 24.0821 20.0103C24.082 20.1054 24.1007 20.1996 24.1371 20.2875C24.1735 20.3754 24.2268 20.4553 24.2941 20.5226C24.3613 20.5899 24.4412 20.6433 24.529 20.6797C24.6169 20.7162 24.7111 20.7349 24.8063 20.735C24.9014 20.735 24.9956 20.7163 25.0835 20.6799C25.1714 20.6435 25.2513 20.5902 25.3186 20.523L26.6751 19.1664L27.6986 21.7016C27.7469 21.8287 27.8306 21.9393 27.9398 22.0204C28.0491 22.1014 28.1792 22.1495 28.3149 22.1588C28.4506 22.1682 28.5861 22.1385 28.7055 22.0732C28.8248 22.0079 28.9229 21.9098 28.9882 21.7905L31.3682 17.6312L32.8358 19.0995C32.9021 19.1682 32.9817 19.2228 33.0696 19.2601C33.1575 19.2974 33.252 19.3166 33.3475 19.3166C33.443 19.3166 33.5375 19.2974 33.6254 19.2601C33.7133 19.2228 33.7929 19.1682 33.8592 19.0995L36.7061 16.2526C36.8185 16.1486 36.8944 16.011 36.9223 15.8603C36.9503 15.7097 36.9289 15.5541 36.8614 15.4165C36.7938 15.279 36.6837 15.167 36.5474 15.0971C36.411 15.0272 36.2558 15.0031 36.1047 15.0285Z" fill="white"/>
<path d="M50.3333 25.1015C49.5892 25.1015 48.9223 24.9807 48.3328 24.7391C47.7433 24.4975 47.2697 24.1399 46.9122 23.6663C46.5642 23.1928 46.3806 22.6226 46.3613 21.9558H48.9996C49.0383 22.3327 49.1688 22.6226 49.391 22.8255C49.6133 23.0188 49.9032 23.1155 50.2608 23.1155C50.6281 23.1155 50.918 23.0333 51.1306 22.869C51.3432 22.6951 51.4495 22.4583 51.4495 22.1587C51.4495 21.9074 51.3625 21.6997 51.1886 21.5354C51.0243 21.3711 50.8165 21.2358 50.5652 21.1295C50.3236 21.0232 49.9757 20.9024 49.5215 20.7671C48.8643 20.5641 48.328 20.3612 47.9124 20.1582C47.4968 19.9553 47.1393 19.6557 46.8397 19.2594C46.5401 18.8632 46.3903 18.3462 46.3903 17.7083C46.3903 16.7612 46.7334 16.0219 47.4195 15.4904C48.1057 14.9492 48.9996 14.6786 50.1014 14.6786C51.2224 14.6786 52.126 14.9492 52.8122 15.4904C53.4983 16.0219 53.8656 16.7661 53.9139 17.7228H51.2321C51.2127 17.3942 51.0919 17.1381 50.8697 16.9545C50.6474 16.7612 50.3623 16.6646 50.0144 16.6646C49.7148 16.6646 49.4732 16.7467 49.2896 16.911C49.1059 17.0656 49.0141 17.2928 49.0141 17.5923C49.0141 17.9209 49.1688 18.177 49.478 18.3607C49.7873 18.5443 50.2705 18.7424 50.9277 18.955C51.5848 19.1773 52.1164 19.3899 52.5223 19.5928C52.9378 19.7958 53.2954 20.0906 53.595 20.4771C53.8946 20.8637 54.0444 21.3614 54.0444 21.9703C54.0444 22.5501 53.8946 23.0768 53.595 23.5504C53.3051 24.0239 52.8798 24.4008 52.3193 24.6811C51.7588 24.9613 51.0968 25.1015 50.3333 25.1015ZM60.0783 22.898V25H58.8171C57.9183 25 57.2176 24.7826 56.7151 24.3477C56.2126 23.9031 55.9613 23.1831 55.9613 22.1877V18.9695H54.9755V16.911H55.9613V14.9395H58.4402V16.911H60.0638V18.9695H58.4402V22.2167C58.4402 22.4583 58.4982 22.6323 58.6141 22.7386C58.7301 22.8449 58.9234 22.898 59.194 22.898H60.0783ZM60.9662 20.941C60.9662 20.1099 61.1208 19.3802 61.4301 18.7521C61.749 18.1239 62.179 17.6407 62.7202 17.3024C63.2614 16.9642 63.8654 16.795 64.5323 16.795C65.1025 16.795 65.6002 16.911 66.0254 17.143C66.4603 17.3749 66.7937 17.6793 67.0257 18.0562V16.911H69.5045V25H67.0257V23.8548C66.7841 24.2317 66.4458 24.5361 66.0109 24.7681C65.5857 25 65.088 25.116 64.5178 25.116C63.8606 25.116 63.2614 24.9468 62.7202 24.6086C62.179 24.2607 61.749 23.7726 61.4301 23.1445C61.1208 22.5066 60.9662 21.7721 60.9662 20.941ZM67.0257 20.9555C67.0257 20.337 66.8517 19.849 66.5038 19.4914C66.1655 19.1338 65.75 18.955 65.2571 18.955C64.7642 18.955 64.3438 19.1338 63.9959 19.4914C63.6577 19.8393 63.4885 20.3225 63.4885 20.941C63.4885 21.5595 63.6577 22.0524 63.9959 22.4196C64.3438 22.7772 64.7642 22.956 65.2571 22.956C65.75 22.956 66.1655 22.7772 66.5038 22.4196C66.8517 22.0621 67.0257 21.574 67.0257 20.9555ZM75.8063 22.898V25H74.5451C73.6463 25 72.9457 24.7826 72.4431 24.3477C71.9406 23.9031 71.6893 23.1831 71.6893 22.1877V18.9695H70.7036V16.911H71.6893V14.9395H74.1682V16.911H75.7918V18.9695H74.1682V22.2167C74.1682 22.4583 74.2262 22.6323 74.3421 22.7386C74.4581 22.8449 74.6514 22.898 74.922 22.898H75.8063ZM78.4337 16.0702C77.9989 16.0702 77.6413 15.9446 77.361 15.6933C77.0904 15.4324 76.9551 15.1135 76.9551 14.7366C76.9551 14.35 77.0904 14.0311 77.361 13.7798C77.6413 13.5189 77.9989 13.3884 78.4337 13.3884C78.859 13.3884 79.2069 13.5189 79.4775 13.7798C79.7578 14.0311 79.8979 14.35 79.8979 14.7366C79.8979 15.1135 79.7578 15.4324 79.4775 15.6933C79.2069 15.9446 78.859 16.0702 78.4337 16.0702ZM79.6659 16.911V25H77.1871V16.911H79.6659ZM84.753 25.116C84.0475 25.116 83.4194 24.9952 82.8685 24.7536C82.3176 24.512 81.8828 24.1834 81.5638 23.7678C81.2449 23.3426 81.0661 22.869 81.0275 22.3472H83.4774C83.5063 22.6274 83.6368 22.8545 83.8688 23.0285C84.1007 23.2024 84.3858 23.2894 84.724 23.2894C85.0333 23.2894 85.2701 23.2314 85.4344 23.1155C85.6083 22.9898 85.6953 22.8304 85.6953 22.6371C85.6953 22.4051 85.5745 22.236 85.3329 22.1297C85.0913 22.0137 84.6999 21.8881 84.1587 21.7528C83.5788 21.6175 83.0956 21.4774 82.709 21.3324C82.3225 21.1778 81.9891 20.941 81.7088 20.6221C81.4285 20.2935 81.2884 19.8538 81.2884 19.3029C81.2884 18.839 81.414 18.4186 81.6653 18.0417C81.9262 17.6552 82.3031 17.3507 82.796 17.1285C83.2986 16.9062 83.8929 16.795 84.5791 16.795C85.5938 16.795 86.3911 17.0463 86.971 17.5489C87.5605 18.0514 87.8988 18.7182 87.9857 19.5494H85.6953C85.6566 19.2691 85.531 19.0468 85.3184 18.8825C85.1154 18.7182 84.8448 18.6361 84.5066 18.6361C84.2167 18.6361 83.9944 18.6941 83.8398 18.81C83.6851 18.9164 83.6078 19.0661 83.6078 19.2594C83.6078 19.4914 83.7286 19.6653 83.9702 19.7813C84.2215 19.8973 84.6081 20.0132 85.1299 20.1292C85.7291 20.2838 86.2172 20.4385 86.5941 20.5931C86.971 20.7381 87.2996 20.9797 87.5798 21.3179C87.8698 21.6465 88.0196 22.0911 88.0292 22.6516C88.0292 23.1251 87.8939 23.5504 87.6233 23.9273C87.3624 24.2945 86.9806 24.5844 86.4781 24.7971C85.9852 25.0097 85.4102 25.116 84.753 25.116ZM94.0542 22.898V25H92.793C91.8942 25 91.1936 24.7826 90.691 24.3477C90.1885 23.9031 89.9372 23.1831 89.9372 22.1877V18.9695H88.9514V16.911H89.9372V14.9395H92.4161V16.911H94.0397V18.9695H92.4161V22.2167C92.4161 22.4583 92.4741 22.6323 92.59 22.7386C92.706 22.8449 92.8993 22.898 93.1699 22.898H94.0542ZM96.6816 16.0702C96.2467 16.0702 95.8892 15.9446 95.6089 15.6933C95.3383 15.4324 95.203 15.1135 95.203 14.7366C95.203 14.35 95.3383 14.0311 95.6089 13.7798C95.8892 13.5189 96.2467 13.3884 96.6816 13.3884C97.1069 13.3884 97.4548 13.5189 97.7254 13.7798C98.0056 14.0311 98.1458 14.35 98.1458 14.7366C98.1458 15.1135 98.0056 15.4324 97.7254 15.6933C97.4548 15.9446 97.1069 16.0702 96.6816 16.0702ZM97.9138 16.911V25H95.435V16.911H97.9138ZM99.2174 20.9555C99.2174 20.1147 99.3865 19.3802 99.7247 18.7521C100.073 18.1239 100.551 17.6407 101.16 17.3024C101.778 16.9642 102.484 16.795 103.276 16.795C104.291 16.795 105.137 17.0608 105.813 17.5923C106.499 18.1239 106.949 18.8729 107.161 19.8393H104.523C104.301 19.2208 103.871 18.9115 103.233 18.9115C102.779 18.9115 102.416 19.0903 102.146 19.4479C101.875 19.7958 101.74 20.2983 101.74 20.9555C101.74 21.6127 101.875 22.1201 102.146 22.4776C102.416 22.8255 102.779 22.9995 103.233 22.9995C103.871 22.9995 104.301 22.6902 104.523 22.0717H107.161C106.949 23.0188 106.499 23.763 105.813 24.3042C105.127 24.8454 104.281 25.116 103.276 25.116C102.484 25.116 101.778 24.9468 101.16 24.6086C100.551 24.2703 100.073 23.7871 99.7247 23.159C99.3865 22.5308 99.2174 21.7963 99.2174 20.9555ZM111.778 25.116C111.073 25.116 110.444 24.9952 109.894 24.7536C109.343 24.512 108.908 24.1834 108.589 23.7678C108.27 23.3426 108.091 22.869 108.052 22.3472H110.502C110.531 22.6274 110.662 22.8545 110.894 23.0285C111.126 23.2024 111.411 23.2894 111.749 23.2894C112.058 23.2894 112.295 23.2314 112.459 23.1155C112.633 22.9898 112.72 22.8304 112.72 22.6371C112.72 22.4051 112.6 22.236 112.358 22.1297C112.116 22.0137 111.725 21.8881 111.184 21.7528C110.604 21.6175 110.121 21.4774 109.734 21.3324C109.347 21.1778 109.014 20.941 108.734 20.6221C108.454 20.2935 108.313 19.8538 108.313 19.3029C108.313 18.839 108.439 18.4186 108.69 18.0417C108.951 17.6552 109.328 17.3507 109.821 17.1285C110.324 16.9062 110.918 16.795 111.604 16.795C112.619 16.795 113.416 17.0463 113.996 17.5489C114.586 18.0514 114.924 18.7182 115.011 19.5494H112.72C112.682 19.2691 112.556 19.0468 112.343 18.8825C112.14 18.7182 111.87 18.6361 111.532 18.6361C111.242 18.6361 111.019 18.6941 110.865 18.81C110.71 18.9164 110.633 19.0661 110.633 19.2594C110.633 19.4914 110.754 19.6653 110.995 19.7813C111.247 19.8973 111.633 20.0132 112.155 20.1292C112.754 20.2838 113.242 20.4385 113.619 20.5931C113.996 20.7381 114.325 20.9797 114.605 21.3179C114.895 21.6465 115.045 22.0911 115.054 22.6516C115.054 23.1251 114.919 23.5504 114.648 23.9273C114.387 24.2945 114.006 24.5844 113.503 24.7971C113.01 25.0097 112.435 25.116 111.778 25.116Z" fill="white"/>
</g>
<defs>
<filter id="filter0_d_144_4420" x="0" y="0" width="138" height="47" filterUnits="userSpaceOnUse" color-interpolation-filters="sRGB">
<feFlood flood-opacity="0" result="BackgroundImageFix"/>
<feColorMatrix in="SourceAlpha" type="matrix" values="0 0 0 0 0 0 0 0 0 0 0 0 0 0 0 0 0 0 127 0" result="hardAlpha"/>
<feOffset dy="4"/>
<feGaussianBlur stdDeviation="2"/>
<feComposite in2="hardAlpha" operator="out"/>
<feColorMatrix type="matrix" values="0 0 0 0 0 0 0 0 0 0 0 0 0 0 0 0 0 0 0.25 0"/>
<feBlend mode="normal" in2="BackgroundImageFix" result="effect1_dropShadow_144_4420"/>
<feBlend mode="normal" in="SourceGraphic" in2="effect1_dropShadow_144_4420" result="shape"/>
</filter>
</defs>
</svg>
