<svg width="228" height="53" viewBox="0 0 228 53" fill="none" xmlns="http://www.w3.org/2000/svg">
<path d="M22.1197 4.4569C22.0473 4.46998 21.9757 4.48772 21.9056 4.51C21.5189 4.59666 21.1743 4.81473 20.9304 5.12703C20.6865 5.43933 20.5584 5.82655 20.568 6.22269V7.93539H5.15371C3.79101 7.93539 2.48411 8.47672 1.52054 9.4403C0.556958 10.4039 0.015625 11.7108 0.015625 13.0735L0.015625 35.3385C0.015625 38.1748 2.31749 40.4766 5.15371 40.4766H20.568V41.1189L11.2543 45.7757C10.8428 45.9744 10.5271 46.3285 10.3766 46.76C10.2261 47.1915 10.2532 47.6652 10.4519 48.0767C10.6507 48.4882 11.0047 48.804 11.4363 48.9545C11.8678 49.1049 12.3414 49.0778 12.7529 48.8791L20.568 44.9724V45.6147C20.568 46.0689 20.7484 46.5046 21.0696 46.8258C21.3908 47.147 21.8264 47.3274 22.2807 47.3274C22.7349 47.3274 23.1705 47.147 23.4917 46.8258C23.8129 46.5046 23.9934 46.0689 23.9934 45.6147V44.9724L31.8084 48.8791C32.2199 49.0778 32.6936 49.1049 33.1251 48.9545C33.5566 48.804 33.9107 48.4882 34.1094 48.0767C34.3081 47.6652 34.3353 47.1915 34.1848 46.76C34.0343 46.3285 33.7186 45.9744 33.307 45.7757L23.9934 41.1189V40.4766H39.4076C42.2439 40.4766 44.5457 38.1748 44.5457 35.3385V13.0735C44.5457 11.7108 44.0044 10.4039 43.0408 9.4403C42.0772 8.47672 40.7703 7.93539 39.4076 7.93539H23.9934V6.22269C24.002 5.97915 23.9586 5.73655 23.866 5.51113C23.7734 5.28571 23.6337 5.08264 23.4564 4.9155C23.279 4.74836 23.0681 4.62099 22.8375 4.54191C22.607 4.46282 22.3623 4.43384 22.1197 4.4569ZM3.44102 13.0735H41.1203V35.3385H3.44102V13.0735ZM35.7682 14.7862C35.3845 14.8274 35.026 14.997 34.7508 15.2674L29.1315 20.8885L25.2248 16.9784C25.0377 16.7865 24.8082 16.6411 24.5546 16.554C24.3011 16.4669 24.0307 16.4405 23.7651 16.477C23.4996 16.5135 23.2463 16.6118 23.0256 16.7641C22.805 16.9163 22.6231 17.1182 22.4948 17.3535L17.4098 26.239L15.322 20.993C15.2206 20.7221 15.0523 20.4813 14.8327 20.2931C14.6131 20.1049 14.3495 19.9753 14.0663 19.9165C13.7831 19.8576 13.4897 19.8715 13.2133 19.9567C12.9369 20.0419 12.6866 20.1957 12.4858 20.4038L7.34768 25.5419C7.18574 25.7037 7.05726 25.8959 6.96958 26.1073C6.88189 26.3188 6.83672 26.5455 6.83664 26.7744C6.83656 27.0034 6.88158 27.2301 6.96911 27.4416C7.05665 27.6532 7.185 27.8454 7.34682 28.0073C7.50865 28.1693 7.70079 28.2978 7.91226 28.3854C8.12374 28.4731 8.35042 28.5183 8.57936 28.5184C8.80829 28.5184 9.035 28.4734 9.24654 28.3859C9.45808 28.2984 9.65031 28.17 9.81225 28.0082L13.0766 24.7438L15.5395 30.8444C15.6557 31.1504 15.8572 31.4166 16.1201 31.6116C16.3829 31.8067 16.6962 31.9223 17.0227 31.9448C17.3492 31.9673 17.6753 31.8958 17.9625 31.7387C18.2496 31.5817 18.4858 31.3456 18.6429 31.0585L24.3702 21.0495L27.9017 24.5828C28.0615 24.748 28.2528 24.8794 28.4644 24.9692C28.6759 25.0589 28.9034 25.1052 29.1332 25.1052C29.363 25.1052 29.5904 25.0589 29.802 24.9692C30.0136 24.8794 30.2049 24.748 30.3646 24.5828L37.2154 17.732C37.4859 17.4815 37.6684 17.1505 37.7358 16.788C37.8031 16.4255 37.7516 16.0509 37.5891 15.72C37.4265 15.3891 37.1615 15.1195 36.8334 14.9512C36.5054 14.783 36.1318 14.7251 35.7682 14.7862Z" fill="white"/>
<path d="M70.0078 38.9942C68.2171 38.9942 66.6124 38.7035 65.1938 38.1221C63.7752 37.5407 62.6356 36.6802 61.7751 35.5406C60.9379 34.4011 60.496 33.029 60.4495 31.4243H66.7985C66.8915 32.3313 67.2055 33.029 67.7404 33.5173C68.2753 33.9825 68.9729 34.215 69.8334 34.215C70.7172 34.215 71.4149 34.0173 71.9265 33.622C72.4381 33.2034 72.6939 32.6336 72.6939 31.9127C72.6939 31.308 72.4846 30.808 72.066 30.4126C71.6707 30.0173 71.1707 29.6917 70.566 29.4359C69.9846 29.18 69.1474 28.8893 68.0543 28.5638C66.4729 28.0754 65.1822 27.587 64.1822 27.0986C63.1821 26.6102 62.3217 25.8893 61.6007 24.9358C60.8798 23.9823 60.5193 22.7381 60.5193 21.2031C60.5193 18.924 61.3449 17.1449 62.9961 15.8658C64.6473 14.5635 66.7985 13.9123 69.4497 13.9123C72.1474 13.9123 74.3219 14.5635 75.9731 15.8658C77.6243 17.1449 78.508 18.9357 78.6243 21.238H72.1707C72.1242 20.4473 71.8335 19.831 71.2986 19.3892C70.7637 18.924 70.0776 18.6915 69.2404 18.6915C68.5194 18.6915 67.938 18.8891 67.4962 19.2845C67.0543 19.6566 66.8334 20.2031 66.8334 20.9241C66.8334 21.7148 67.2055 22.3311 67.9497 22.7729C68.6939 23.2148 69.8567 23.6916 71.4381 24.2032C73.0195 24.7381 74.2986 25.2497 75.2754 25.7381C76.2754 26.2265 77.1359 26.9358 77.8568 27.8661C78.5778 28.7963 78.9383 29.994 78.9383 31.4592C78.9383 32.8545 78.5778 34.122 77.8568 35.2616C77.1592 36.4011 76.1359 37.3081 74.787 37.9825C73.4381 38.657 71.8451 38.9942 70.0078 38.9942ZM93.4583 33.6918V38.75H90.4234C88.2606 38.75 86.5745 38.2267 85.3652 37.1802C84.1558 36.1104 83.5512 34.3778 83.5512 31.9824V24.2381H81.179V19.2845H83.5512V14.5402H89.5164V19.2845H93.4235V24.2381H89.5164V32.0522C89.5164 32.6336 89.6559 33.0522 89.935 33.308C90.2141 33.5639 90.6792 33.6918 91.3304 33.6918H93.4583ZM95.595 28.9824C95.595 26.9823 95.9671 25.2265 96.7113 23.7148C97.4788 22.2032 98.5137 21.0403 99.816 20.2264C101.118 19.4124 102.572 19.0054 104.177 19.0054C105.549 19.0054 106.746 19.2845 107.77 19.8426C108.816 20.4008 109.619 21.1334 110.177 22.0404V19.2845H116.142V38.75H110.177V35.9941C109.595 36.9011 108.781 37.6337 107.735 38.1918C106.712 38.75 105.514 39.0291 104.142 39.0291C102.56 39.0291 101.118 38.6221 99.816 37.8081C98.5137 36.9709 97.4788 35.7965 96.7113 34.2848C95.9671 32.7499 95.595 30.9824 95.595 28.9824ZM110.177 29.0172C110.177 27.5288 109.758 26.3544 108.921 25.4939C108.107 24.6334 107.107 24.2032 105.921 24.2032C104.735 24.2032 103.723 24.6334 102.886 25.4939C102.072 26.3312 101.665 27.494 101.665 28.9824C101.665 30.4708 102.072 31.6568 102.886 32.5406C103.723 33.4011 104.735 33.8313 105.921 33.8313C107.107 33.8313 108.107 33.4011 108.921 32.5406C109.758 31.6801 110.177 30.5057 110.177 29.0172ZM131.307 33.6918V38.75H128.272C126.109 38.75 124.423 38.2267 123.213 37.1802C122.004 36.1104 121.399 34.3778 121.399 31.9824V24.2381H119.027V19.2845H121.399V14.5402H127.365V19.2845H131.272V24.2381H127.365V32.0522C127.365 32.6336 127.504 33.0522 127.783 33.308C128.062 33.5639 128.527 33.6918 129.179 33.6918H131.307ZM137.629 17.2612C136.583 17.2612 135.722 16.9589 135.048 16.3542C134.397 15.7263 134.071 14.9588 134.071 14.0518C134.071 13.1216 134.397 12.3541 135.048 11.7495C135.722 11.1215 136.583 10.8076 137.629 10.8076C138.653 10.8076 139.49 11.1215 140.141 11.7495C140.815 12.3541 141.153 13.1216 141.153 14.0518C141.153 14.9588 140.815 15.7263 140.141 16.3542C139.49 16.9589 138.653 17.2612 137.629 17.2612ZM140.595 19.2845V38.75H134.629V19.2845H140.595ZM152.836 39.0291C151.139 39.0291 149.627 38.7384 148.301 38.157C146.976 37.5756 145.929 36.7848 145.162 35.7848C144.394 34.7615 143.964 33.622 143.871 32.3662H149.766C149.836 33.0406 150.15 33.5871 150.708 34.0057C151.266 34.4243 151.953 34.6336 152.766 34.6336C153.511 34.6336 154.08 34.4941 154.476 34.215C154.894 33.9127 155.104 33.529 155.104 33.0638C155.104 32.5057 154.813 32.0987 154.232 31.8429C153.65 31.5638 152.708 31.2615 151.406 30.9359C150.011 30.6103 148.848 30.2731 147.918 29.9242C146.987 29.5521 146.185 28.9824 145.511 28.2149C144.836 27.4242 144.499 26.366 144.499 25.0404C144.499 23.9241 144.801 22.9125 145.406 22.0055C146.034 21.0752 146.941 20.3427 148.127 19.8078C149.336 19.2729 150.766 19.0054 152.418 19.0054C154.86 19.0054 156.778 19.6101 158.174 20.8194C159.592 22.0287 160.406 23.6334 160.615 25.6335H155.104C155.011 24.959 154.708 24.4241 154.197 24.0288C153.708 23.6334 153.057 23.4357 152.243 23.4357C151.546 23.4357 151.011 23.5753 150.639 23.8544C150.266 24.1102 150.08 24.4706 150.08 24.9358C150.08 25.4939 150.371 25.9125 150.952 26.1916C151.557 26.4707 152.487 26.7498 153.743 27.0288C155.185 27.4009 156.36 27.773 157.267 28.1451C158.174 28.494 158.964 29.0754 159.639 29.8894C160.336 30.6801 160.697 31.7499 160.72 33.0987C160.72 34.2383 160.395 35.2616 159.743 36.1686C159.115 37.0523 158.197 37.75 156.987 38.2616C155.801 38.7733 154.418 39.0291 152.836 39.0291ZM175.219 33.6918V38.75H172.184C170.021 38.75 168.335 38.2267 167.125 37.1802C165.916 36.1104 165.311 34.3778 165.311 31.9824V24.2381H162.939V19.2845H165.311V14.5402H171.277V19.2845H175.184V24.2381H171.277V32.0522C171.277 32.6336 171.416 33.0522 171.695 33.308C171.974 33.5639 172.44 33.6918 173.091 33.6918H175.219ZM181.541 17.2612C180.495 17.2612 179.634 16.9589 178.96 16.3542C178.309 15.7263 177.983 14.9588 177.983 14.0518C177.983 13.1216 178.309 12.3541 178.96 11.7495C179.634 11.1215 180.495 10.8076 181.541 10.8076C182.565 10.8076 183.402 11.1215 184.053 11.7495C184.728 12.3541 185.065 13.1216 185.065 14.0518C185.065 14.9588 184.728 15.7263 184.053 16.3542C183.402 16.9589 182.565 17.2612 181.541 17.2612ZM184.507 19.2845V38.75H178.541V19.2845H184.507ZM187.644 29.0172C187.644 26.994 188.051 25.2265 188.864 23.7148C189.702 22.2032 190.853 21.0403 192.318 20.2264C193.806 19.4124 195.504 19.0054 197.411 19.0054C199.853 19.0054 201.888 19.645 203.516 20.9241C205.167 22.2032 206.249 24.0055 206.76 26.3312H200.411C199.876 24.8427 198.841 24.0985 197.307 24.0985C196.213 24.0985 195.341 24.5288 194.69 25.3893C194.039 26.2265 193.713 27.4358 193.713 29.0172C193.713 30.5987 194.039 31.8196 194.69 32.6801C195.341 33.5173 196.213 33.936 197.307 33.936C198.841 33.936 199.876 33.1918 200.411 31.7033H206.76C206.249 33.9825 205.167 35.7732 203.516 37.0755C201.865 38.3779 199.83 39.0291 197.411 39.0291C195.504 39.0291 193.806 38.6221 192.318 37.8081C190.853 36.9942 189.702 35.8313 188.864 34.3197C188.051 32.808 187.644 31.0405 187.644 29.0172ZM217.87 39.0291C216.172 39.0291 214.66 38.7384 213.335 38.157C212.009 37.5756 210.963 36.7848 210.195 35.7848C209.428 34.7615 208.998 33.622 208.904 32.3662H214.8C214.87 33.0406 215.184 33.5871 215.742 34.0057C216.3 34.4243 216.986 34.6336 217.8 34.6336C218.544 34.6336 219.114 34.4941 219.509 34.215C219.928 33.9127 220.137 33.529 220.137 33.0638C220.137 32.5057 219.847 32.0987 219.265 31.8429C218.684 31.5638 217.742 31.2615 216.44 30.9359C215.044 30.6103 213.881 30.2731 212.951 29.9242C212.021 29.5521 211.218 28.9824 210.544 28.2149C209.87 27.4242 209.532 26.366 209.532 25.0404C209.532 23.9241 209.835 22.9125 210.439 22.0055C211.067 21.0752 211.974 20.3427 213.16 19.8078C214.37 19.2729 215.8 19.0054 217.451 19.0054C219.893 19.0054 221.812 19.6101 223.207 20.8194C224.626 22.0287 225.44 23.6334 225.649 25.6335H220.137C220.044 24.959 219.742 24.4241 219.23 24.0288C218.742 23.6334 218.091 23.4357 217.277 23.4357C216.579 23.4357 216.044 23.5753 215.672 23.8544C215.3 24.1102 215.114 24.4706 215.114 24.9358C215.114 25.4939 215.405 25.9125 215.986 26.1916C216.591 26.4707 217.521 26.7498 218.777 27.0288C220.219 27.4009 221.393 27.773 222.3 28.1451C223.207 28.494 223.998 29.0754 224.672 29.8894C225.37 30.6801 225.73 31.7499 225.754 33.0987C225.754 34.2383 225.428 35.2616 224.777 36.1686C224.149 37.0523 223.23 37.75 222.021 38.2616C220.835 38.7733 219.451 39.0291 217.87 39.0291Z" fill="white"/>
</svg>
