<svg width="138" height="47" viewBox="0 0 138 47" fill="none" xmlns="http://www.w3.org/2000/svg">
<g filter="url(#filter0_d_162_11405)">
<rect x="4" width="130" height="39" rx="19.5" fill="#787878" fill-opacity="0.43" shape-rendering="crispEdges"/>
<path d="M41.6944 19C41.3187 19 40.9584 18.8507 40.6927 18.5851C40.427 18.3194 40.2778 17.9591 40.2778 17.5833C40.2778 17.2076 40.427 16.8473 40.6927 16.5816C40.9584 16.3159 41.3187 16.1667 41.6944 16.1667C42.0702 16.1667 42.4305 16.3159 42.6962 16.5816C42.9619 16.8473 43.1111 17.2076 43.1111 17.5833C43.1111 17.9591 42.9619 18.3194 42.6962 18.5851C42.4305 18.8507 42.0702 19 41.6944 19ZM38.8611 15.2222C38.4854 15.2222 38.1251 15.073 37.8594 14.8073C37.5937 14.5416 37.4444 14.1813 37.4444 13.8056C37.4444 13.4298 37.5937 13.0695 37.8594 12.8038C38.1251 12.5381 38.4854 12.3889 38.8611 12.3889C39.2368 12.3889 39.5972 12.5381 39.8628 12.8038C40.1285 13.0695 40.2778 13.4298 40.2778 13.8056C40.2778 14.1813 40.1285 14.5416 39.8628 14.8073C39.5972 15.073 39.2368 15.2222 38.8611 15.2222ZM34.1389 15.2222C33.7632 15.2222 33.4028 15.073 33.1372 14.8073C32.8715 14.5416 32.7222 14.1813 32.7222 13.8056C32.7222 13.4298 32.8715 13.0695 33.1372 12.8038C33.4028 12.5381 33.7632 12.3889 34.1389 12.3889C34.5146 12.3889 34.8749 12.5381 35.1406 12.8038C35.4063 13.0695 35.5556 13.4298 35.5556 13.8056C35.5556 14.1813 35.4063 14.5416 35.1406 14.8073C34.8749 15.073 34.5146 15.2222 34.1389 15.2222ZM31.3056 19C30.9298 19 30.5695 18.8507 30.3038 18.5851C30.0381 18.3194 29.8889 17.9591 29.8889 17.5833C29.8889 17.2076 30.0381 16.8473 30.3038 16.5816C30.5695 16.3159 30.9298 16.1667 31.3056 16.1667C31.6813 16.1667 32.0416 16.3159 32.3073 16.5816C32.573 16.8473 32.7222 17.2076 32.7222 17.5833C32.7222 17.9591 32.573 18.3194 32.3073 18.5851C32.0416 18.8507 31.6813 19 31.3056 19ZM36.5 10.5C34.2457 10.5 32.0837 11.3955 30.4896 12.9896C28.8955 14.5837 28 16.7457 28 19C28 21.2543 28.8955 23.4163 30.4896 25.0104C32.0837 26.6045 34.2457 27.5 36.5 27.5C36.8757 27.5 37.2361 27.3507 37.5017 27.0851C37.7674 26.8194 37.9167 26.4591 37.9167 26.0833C37.9167 25.715 37.775 25.3844 37.5483 25.1389C37.3311 24.8839 37.1894 24.5533 37.1894 24.1944C37.1894 23.8187 37.3387 23.4584 37.6044 23.1927C37.8701 22.927 38.2304 22.7778 38.6061 22.7778H40.2778C41.5302 22.7778 42.7313 22.2803 43.6169 21.3947C44.5025 20.5091 45 19.308 45 18.0556C45 13.8811 41.1939 10.5 36.5 10.5Z" fill="white"/>
<path d="M57.2195 13.8235V15.8095H54.5231V24H52.0442V15.8095H49.3479V13.8235H57.2195ZM63.4358 15.824C64.3636 15.824 65.1077 16.1333 65.6682 16.7518C66.2288 17.3607 66.509 18.2014 66.509 19.2742V24H64.0446V19.6076C64.0446 19.0664 63.9045 18.646 63.6242 18.3464C63.344 18.0468 62.9671 17.897 62.4935 17.897C62.02 17.897 61.6431 18.0468 61.3628 18.3464C61.0825 18.646 60.9424 19.0664 60.9424 19.6076V24H58.4635V13.2727H60.9424V16.9982C61.1937 16.6407 61.5368 16.3556 61.9717 16.143C62.4066 15.9303 62.8946 15.824 63.4358 15.824ZM75.8567 19.825C75.8567 20.057 75.8422 20.2986 75.8132 20.5499H70.2031C70.2418 21.0524 70.4012 21.439 70.6815 21.7096C70.9714 21.9705 71.3242 22.101 71.7397 22.101C72.3582 22.101 72.7883 21.84 73.0299 21.3182H75.6683C75.533 21.8497 75.2865 22.3281 74.9289 22.7533C74.581 23.1785 74.1413 23.512 73.6098 23.7536C73.0782 23.9952 72.4839 24.116 71.8267 24.116C71.0342 24.116 70.3288 23.9468 69.7102 23.6086C69.0917 23.2703 68.6085 22.7871 68.2606 22.159C67.9127 21.5308 67.7387 20.7963 67.7387 19.9555C67.7387 19.1147 67.9079 18.3802 68.2461 17.7521C68.594 17.1239 69.0772 16.6407 69.6957 16.3024C70.3143 15.9642 71.0246 15.795 71.8267 15.795C72.6095 15.795 73.3053 15.9593 73.9142 16.2879C74.523 16.6165 74.9966 17.0852 75.3348 17.6941C75.6827 18.3029 75.8567 19.0132 75.8567 19.825ZM73.3198 19.1727C73.3198 18.7475 73.1749 18.4092 72.8849 18.158C72.595 17.9067 72.2326 17.7811 71.7977 17.7811C71.3822 17.7811 71.0294 17.9019 70.7395 18.1435C70.4592 18.3851 70.2853 18.7281 70.2176 19.1727H73.3198ZM87.4859 15.824C88.4909 15.824 89.2882 16.1285 89.8778 16.7373C90.477 17.3462 90.7765 18.1918 90.7765 19.2742V24H88.3122V19.6076C88.3122 19.0857 88.172 18.6847 87.8918 18.4044C87.6212 18.1145 87.2443 17.9695 86.761 17.9695C86.2778 17.9695 85.8961 18.1145 85.6158 18.4044C85.3452 18.6847 85.2099 19.0857 85.2099 19.6076V24H82.7455V19.6076C82.7455 19.0857 82.6054 18.6847 82.3252 18.4044C82.0546 18.1145 81.6776 17.9695 81.1944 17.9695C80.7112 17.9695 80.3295 18.1145 80.0492 18.4044C79.7786 18.6847 79.6433 19.0857 79.6433 19.6076V24H77.1644V15.911H79.6433V16.9258C79.8946 16.5875 80.2232 16.3217 80.6291 16.1285C81.035 15.9255 81.494 15.824 82.0062 15.824C82.6151 15.824 83.1563 15.9545 83.6298 16.2154C84.113 16.4764 84.4899 16.8484 84.7605 17.3317C85.0408 16.8871 85.4225 16.5247 85.9058 16.2444C86.389 15.9642 86.9157 15.824 87.4859 15.824ZM100.135 19.825C100.135 20.057 100.121 20.2986 100.092 20.5499H94.4817C94.5204 21.0524 94.6798 21.439 94.9601 21.7096C95.25 21.9705 95.6028 22.101 96.0183 22.101C96.6369 22.101 97.0669 21.84 97.3085 21.3182H99.9469C99.8116 21.8497 99.5651 22.3281 99.2075 22.7533C98.8596 23.1785 98.4199 23.512 97.8884 23.7536C97.3568 23.9952 96.7625 24.116 96.1053 24.116C95.3129 24.116 94.6074 23.9468 93.9888 23.6086C93.3703 23.2703 92.8871 22.7871 92.5392 22.159C92.1913 21.5308 92.0173 20.7963 92.0173 19.9555C92.0173 19.1147 92.1865 18.3802 92.5247 17.7521C92.8726 17.1239 93.3558 16.6407 93.9744 16.3024C94.5929 15.9642 95.3032 15.795 96.1053 15.795C96.8881 15.795 97.584 15.9593 98.1928 16.2879C98.8016 16.6165 99.2752 17.0852 99.6134 17.6941C99.9614 18.3029 100.135 19.0132 100.135 19.825ZM97.5984 19.1727C97.5984 18.7475 97.4535 18.4092 97.1636 18.158C96.8736 17.9067 96.5112 17.7811 96.0763 17.7811C95.6608 17.7811 95.308 17.9019 95.0181 18.1435C94.7378 18.3851 94.5639 18.7281 94.4962 19.1727H97.5984ZM104.734 24.116C104.028 24.116 103.4 23.9952 102.849 23.7536C102.298 23.512 101.863 23.1834 101.545 22.7678C101.226 22.3426 101.047 21.869 101.008 21.3472H103.458C103.487 21.6274 103.618 21.8545 103.849 22.0285C104.081 22.2024 104.366 22.2894 104.705 22.2894C105.014 22.2894 105.251 22.2314 105.415 22.1155C105.589 21.9898 105.676 21.8304 105.676 21.6371C105.676 21.4051 105.555 21.236 105.314 21.1297C105.072 21.0137 104.681 20.8881 104.139 20.7528C103.56 20.6175 103.076 20.4774 102.69 20.3324C102.303 20.1778 101.97 19.941 101.689 19.6221C101.409 19.2935 101.269 18.8538 101.269 18.3029C101.269 17.839 101.395 17.4186 101.646 17.0417C101.907 16.6552 102.284 16.3507 102.777 16.1285C103.279 15.9062 103.874 15.795 104.56 15.795C105.575 15.795 106.372 16.0463 106.952 16.5489C107.541 17.0514 107.879 17.7182 107.966 18.5494H105.676C105.637 18.2691 105.512 18.0468 105.299 17.8825C105.096 17.7182 104.826 17.6361 104.487 17.6361C104.197 17.6361 103.975 17.6941 103.82 17.81C103.666 17.9164 103.589 18.0661 103.589 18.2594C103.589 18.4914 103.709 18.6653 103.951 18.7813C104.202 18.8973 104.589 19.0132 105.111 19.1292C105.71 19.2838 106.198 19.4385 106.575 19.5931C106.952 19.7381 107.28 19.9797 107.561 20.3179C107.85 20.6465 108 21.0911 108.01 21.6516C108.01 22.1251 107.875 22.5504 107.604 22.9273C107.343 23.2945 106.961 23.5844 106.459 23.7971C105.966 24.0097 105.391 24.116 104.734 24.116Z" fill="white"/>
</g>
<defs>
<filter id="filter0_d_162_11405" x="0" y="0" width="138" height="47" filterUnits="userSpaceOnUse" color-interpolation-filters="sRGB">
<feFlood flood-opacity="0" result="BackgroundImageFix"/>
<feColorMatrix in="SourceAlpha" type="matrix" values="0 0 0 0 0 0 0 0 0 0 0 0 0 0 0 0 0 0 127 0" result="hardAlpha"/>
<feOffset dy="4"/>
<feGaussianBlur stdDeviation="2"/>
<feComposite in2="hardAlpha" operator="out"/>
<feColorMatrix type="matrix" values="0 0 0 0 0 0 0 0 0 0 0 0 0 0 0 0 0 0 0.25 0"/>
<feBlend mode="normal" in2="BackgroundImageFix" result="effect1_dropShadow_162_11405"/>
<feBlend mode="normal" in="SourceGraphic" in2="effect1_dropShadow_162_11405" result="shape"/>
</filter>
</defs>
</svg>
