<svg width="138" height="47" viewBox="0 0 138 47" fill="none" xmlns="http://www.w3.org/2000/svg">
<g filter="url(#filter0_d_148_3273)">
<rect x="4" width="130" height="39" rx="19.5" fill="#787878" fill-opacity="0.43" shape-rendering="crispEdges"/>
<path d="M31.6944 19C31.3187 19 30.9584 18.8507 30.6927 18.5851C30.427 18.3194 30.2778 17.9591 30.2778 17.5833C30.2778 17.2076 30.427 16.8473 30.6927 16.5816C30.9584 16.3159 31.3187 16.1667 31.6944 16.1667C32.0702 16.1667 32.4305 16.3159 32.6962 16.5816C32.9619 16.8473 33.1111 17.2076 33.1111 17.5833C33.1111 17.9591 32.9619 18.3194 32.6962 18.5851C32.4305 18.8507 32.0702 19 31.6944 19ZM28.8611 15.2222C28.4854 15.2222 28.1251 15.073 27.8594 14.8073C27.5937 14.5416 27.4444 14.1813 27.4444 13.8056C27.4444 13.4298 27.5937 13.0695 27.8594 12.8038C28.1251 12.5381 28.4854 12.3889 28.8611 12.3889C29.2368 12.3889 29.5972 12.5381 29.8628 12.8038C30.1285 13.0695 30.2778 13.4298 30.2778 13.8056C30.2778 14.1813 30.1285 14.5416 29.8628 14.8073C29.5972 15.073 29.2368 15.2222 28.8611 15.2222ZM24.1389 15.2222C23.7632 15.2222 23.4028 15.073 23.1372 14.8073C22.8715 14.5416 22.7222 14.1813 22.7222 13.8056C22.7222 13.4298 22.8715 13.0695 23.1372 12.8038C23.4028 12.5381 23.7632 12.3889 24.1389 12.3889C24.5146 12.3889 24.8749 12.5381 25.1406 12.8038C25.4063 13.0695 25.5556 13.4298 25.5556 13.8056C25.5556 14.1813 25.4063 14.5416 25.1406 14.8073C24.8749 15.073 24.5146 15.2222 24.1389 15.2222ZM21.3056 19C20.9298 19 20.5695 18.8507 20.3038 18.5851C20.0381 18.3194 19.8889 17.9591 19.8889 17.5833C19.8889 17.2076 20.0381 16.8473 20.3038 16.5816C20.5695 16.3159 20.9298 16.1667 21.3056 16.1667C21.6813 16.1667 22.0416 16.3159 22.3073 16.5816C22.573 16.8473 22.7222 17.2076 22.7222 17.5833C22.7222 17.9591 22.573 18.3194 22.3073 18.5851C22.0416 18.8507 21.6813 19 21.3056 19ZM26.5 10.5C24.2457 10.5 22.0837 11.3955 20.4896 12.9896C18.8955 14.5837 18 16.7457 18 19C18 21.2543 18.8955 23.4163 20.4896 25.0104C22.0837 26.6045 24.2457 27.5 26.5 27.5C26.8757 27.5 27.2361 27.3507 27.5017 27.0851C27.7674 26.8194 27.9167 26.4591 27.9167 26.0833C27.9167 25.715 27.775 25.3844 27.5483 25.1389C27.3311 24.8839 27.1894 24.5533 27.1894 24.1944C27.1894 23.8187 27.3387 23.4584 27.6044 23.1927C27.8701 22.927 28.2304 22.7778 28.6061 22.7778H30.2778C31.5302 22.7778 32.7313 22.2803 33.6169 21.3947C34.5025 20.5091 35 19.308 35 18.0556C35 13.8811 31.1939 10.5 26.5 10.5Z" fill="white"/>
<path d="M47.2195 13.8235V15.8095H44.5231V24H42.0442V15.8095H39.3479V13.8235H47.2195ZM53.4358 15.824C54.3636 15.824 55.1077 16.1333 55.6682 16.7518C56.2288 17.3607 56.509 18.2014 56.509 19.2742V24H54.0446V19.6076C54.0446 19.0664 53.9045 18.646 53.6242 18.3464C53.344 18.0468 52.9671 17.897 52.4935 17.897C52.02 17.897 51.6431 18.0468 51.3628 18.3464C51.0825 18.646 50.9424 19.0664 50.9424 19.6076V24H48.4635V13.2727H50.9424V16.9982C51.1937 16.6407 51.5368 16.3556 51.9717 16.143C52.4066 15.9303 52.8946 15.824 53.4358 15.824ZM65.8567 19.825C65.8567 20.057 65.8422 20.2986 65.8132 20.5499H60.2031C60.2418 21.0524 60.4012 21.439 60.6815 21.7096C60.9714 21.9705 61.3242 22.101 61.7397 22.101C62.3582 22.101 62.7883 21.84 63.0299 21.3182H65.6683C65.533 21.8497 65.2865 22.3281 64.9289 22.7533C64.581 23.1785 64.1413 23.512 63.6098 23.7536C63.0782 23.9952 62.4839 24.116 61.8267 24.116C61.0342 24.116 60.3288 23.9468 59.7102 23.6086C59.0917 23.2703 58.6085 22.7871 58.2606 22.159C57.9127 21.5308 57.7387 20.7963 57.7387 19.9555C57.7387 19.1147 57.9079 18.3802 58.2461 17.7521C58.594 17.1239 59.0772 16.6407 59.6957 16.3024C60.3143 15.9642 61.0246 15.795 61.8267 15.795C62.6095 15.795 63.3053 15.9593 63.9142 16.2879C64.523 16.6165 64.9966 17.0852 65.3348 17.6941C65.6827 18.3029 65.8567 19.0132 65.8567 19.825ZM63.3198 19.1727C63.3198 18.7475 63.1749 18.4092 62.8849 18.158C62.595 17.9067 62.2326 17.7811 61.7977 17.7811C61.3822 17.7811 61.0294 17.9019 60.7395 18.1435C60.4592 18.3851 60.2853 18.7281 60.2176 19.1727H63.3198ZM77.4859 15.824C78.4909 15.824 79.2882 16.1285 79.8778 16.7373C80.477 17.3462 80.7765 18.1918 80.7765 19.2742V24H78.3122V19.6076C78.3122 19.0857 78.172 18.6847 77.8918 18.4044C77.6212 18.1145 77.2443 17.9695 76.761 17.9695C76.2778 17.9695 75.8961 18.1145 75.6158 18.4044C75.3452 18.6847 75.2099 19.0857 75.2099 19.6076V24H72.7455V19.6076C72.7455 19.0857 72.6054 18.6847 72.3252 18.4044C72.0546 18.1145 71.6776 17.9695 71.1944 17.9695C70.7112 17.9695 70.3295 18.1145 70.0492 18.4044C69.7786 18.6847 69.6433 19.0857 69.6433 19.6076V24H67.1644V15.911H69.6433V16.9258C69.8946 16.5875 70.2232 16.3217 70.6291 16.1285C71.035 15.9255 71.494 15.824 72.0062 15.824C72.6151 15.824 73.1563 15.9545 73.6298 16.2154C74.113 16.4764 74.4899 16.8484 74.7605 17.3317C75.0408 16.8871 75.4225 16.5247 75.9058 16.2444C76.389 15.9642 76.9157 15.824 77.4859 15.824ZM90.1353 19.825C90.1353 20.057 90.1208 20.2986 90.0918 20.5499H84.4817C84.5204 21.0524 84.6798 21.439 84.9601 21.7096C85.25 21.9705 85.6028 22.101 86.0183 22.101C86.6369 22.101 87.0669 21.84 87.3085 21.3182H89.9469C89.8116 21.8497 89.5651 22.3281 89.2075 22.7533C88.8596 23.1785 88.4199 23.512 87.8884 23.7536C87.3568 23.9952 86.7625 24.116 86.1053 24.116C85.3129 24.116 84.6074 23.9468 83.9888 23.6086C83.3703 23.2703 82.8871 22.7871 82.5392 22.159C82.1913 21.5308 82.0173 20.7963 82.0173 19.9555C82.0173 19.1147 82.1865 18.3802 82.5247 17.7521C82.8726 17.1239 83.3558 16.6407 83.9744 16.3024C84.5929 15.9642 85.3032 15.795 86.1053 15.795C86.8881 15.795 87.584 15.9593 88.1928 16.2879C88.8016 16.6165 89.2752 17.0852 89.6134 17.6941C89.9614 18.3029 90.1353 19.0132 90.1353 19.825ZM87.5984 19.1727C87.5984 18.7475 87.4535 18.4092 87.1636 18.158C86.8736 17.9067 86.5112 17.7811 86.0763 17.7811C85.6608 17.7811 85.308 17.9019 85.0181 18.1435C84.7378 18.3851 84.5639 18.7281 84.4962 19.1727H87.5984ZM94.7337 24.116C94.0282 24.116 93.4001 23.9952 92.8492 23.7536C92.2983 23.512 91.8634 23.1834 91.5445 22.7678C91.2256 22.3426 91.0468 21.869 91.0082 21.3472H93.458C93.487 21.6274 93.6175 21.8545 93.8494 22.0285C94.0814 22.2024 94.3665 22.2894 94.7047 22.2894C95.014 22.2894 95.2508 22.2314 95.4151 22.1155C95.589 21.9898 95.676 21.8304 95.676 21.6371C95.676 21.4051 95.5552 21.236 95.3136 21.1297C95.072 21.0137 94.6806 20.8881 94.1394 20.7528C93.5595 20.6175 93.0763 20.4774 92.6897 20.3324C92.3032 20.1778 91.9698 19.941 91.6895 19.6221C91.4092 19.2935 91.2691 18.8538 91.2691 18.3029C91.2691 17.839 91.3947 17.4186 91.646 17.0417C91.9069 16.6552 92.2838 16.3507 92.7767 16.1285C93.2793 15.9062 93.8736 15.795 94.5598 15.795C95.5745 15.795 96.3718 16.0463 96.9517 16.5489C97.5412 17.0514 97.8794 17.7182 97.9664 18.5494H95.676C95.6373 18.2691 95.5117 18.0468 95.2991 17.8825C95.0961 17.7182 94.8255 17.6361 94.4873 17.6361C94.1974 17.6361 93.9751 17.6941 93.8205 17.81C93.6658 17.9164 93.5885 18.0661 93.5885 18.2594C93.5885 18.4914 93.7093 18.6653 93.9509 18.7813C94.2022 18.8973 94.5888 19.0132 95.1106 19.1292C95.7098 19.2838 96.1979 19.4385 96.5748 19.5931C96.9517 19.7381 97.2803 19.9797 97.5605 20.3179C97.8505 20.6465 98.0002 21.0911 98.0099 21.6516C98.0099 22.1251 97.8746 22.5504 97.604 22.9273C97.3431 23.2945 96.9613 23.5844 96.4588 23.7971C95.9659 24.0097 95.3909 24.116 94.7337 24.116Z" fill="white"/>
</g>
<defs>
<filter id="filter0_d_148_3273" x="0" y="0" width="138" height="47" filterUnits="userSpaceOnUse" color-interpolation-filters="sRGB">
<feFlood flood-opacity="0" result="BackgroundImageFix"/>
<feColorMatrix in="SourceAlpha" type="matrix" values="0 0 0 0 0 0 0 0 0 0 0 0 0 0 0 0 0 0 127 0" result="hardAlpha"/>
<feOffset dy="4"/>
<feGaussianBlur stdDeviation="2"/>
<feComposite in2="hardAlpha" operator="out"/>
<feColorMatrix type="matrix" values="0 0 0 0 0 0 0 0 0 0 0 0 0 0 0 0 0 0 0.25 0"/>
<feBlend mode="normal" in2="BackgroundImageFix" result="effect1_dropShadow_148_3273"/>
<feBlend mode="normal" in="SourceGraphic" in2="effect1_dropShadow_148_3273" result="shape"/>
</filter>
</defs>
</svg>
