<svg width="429" height="41" viewBox="0 0 429 41" fill="none" xmlns="http://www.w3.org/2000/svg">
<g filter="url(#filter0_dd_187_3930)">
<path d="M7.15858 18.5581C7.15858 16.1047 7.64925 13.9201 8.63058 12.0041C9.63529 10.0882 11.0606 8.6045 12.9064 7.55307C14.7523 6.47827 16.9252 5.94087 19.4253 5.94087C21.5749 5.94087 23.4908 6.34977 25.1731 7.16755C26.8788 7.96196 28.2573 9.09517 29.3087 10.5672C30.3835 12.0392 31.0962 13.7565 31.4467 15.7192H23.2455C22.8716 14.9014 22.3342 14.2706 21.6333 13.8266C20.9557 13.3593 20.173 13.1257 19.2851 13.1257C17.9766 13.1257 16.9369 13.6163 16.1658 14.5977C15.4182 15.579 15.0443 16.8991 15.0443 18.5581C15.0443 20.217 15.4182 21.5371 16.1658 22.5184C16.9369 23.4998 17.9766 23.9905 19.2851 23.9905C20.173 23.9905 20.9557 23.7685 21.6333 23.3245C22.3342 22.8572 22.8716 22.2147 23.2455 21.3969H31.4467C31.0962 23.3596 30.3835 25.0769 29.3087 26.5489C28.2573 28.0209 26.8788 29.1658 25.1731 29.9836C23.4908 30.778 21.5749 31.1752 19.4253 31.1752C16.9252 31.1752 14.7523 30.6495 12.9064 29.5981C11.0606 28.5233 9.63529 27.0279 8.63058 25.112C7.64925 23.196 7.15858 21.0114 7.15858 18.5581ZM43.6408 31.2453C41.6548 31.2453 39.8673 30.8364 38.2785 30.0187C36.6897 29.2009 35.4396 28.0326 34.5284 26.5139C33.6405 24.9718 33.1966 23.1727 33.1966 21.1165C33.1966 19.0604 33.6405 17.273 34.5284 15.7542C35.4396 14.2121 36.6897 13.0322 38.2785 12.2144C39.8673 11.3966 41.6548 10.9877 43.6408 10.9877C45.6268 10.9877 47.4143 11.3966 49.0031 12.2144C50.5919 13.0322 51.8303 14.2121 52.7182 15.7542C53.6294 17.273 54.085 19.0604 54.085 21.1165C54.085 23.1727 53.6294 24.9718 52.7182 26.5139C51.8303 28.0326 50.5919 29.2009 49.0031 30.0187C47.4143 30.8364 45.6268 31.2453 43.6408 31.2453ZM43.6408 24.5162C44.3651 24.5162 44.9726 24.2358 45.4633 23.675C45.9539 23.0909 46.1993 22.2381 46.1993 21.1165C46.1993 19.995 45.9539 19.1539 45.4633 18.5931C44.9726 18.009 44.3651 17.7169 43.6408 17.7169C42.9165 17.7169 42.309 18.009 41.8183 18.5931C41.3276 19.1539 41.0823 19.995 41.0823 21.1165C41.0823 22.2381 41.316 23.0909 41.7833 23.675C42.2739 24.2358 42.8931 24.5162 43.6408 24.5162ZM82.9203 11.0929C85.4437 11.0929 87.3947 11.8523 88.7732 13.371C90.1751 14.8897 90.8761 16.9459 90.8761 19.5394V31H83.1305V20.5207C83.1305 19.6796 82.8735 19.0254 82.3595 18.5581C81.8688 18.0674 81.2029 17.8221 80.3618 17.8221C79.4973 17.8221 78.8197 18.0674 78.329 18.5581C77.8383 19.0254 77.593 19.6796 77.593 20.5207V31H69.8475V20.5207C69.8475 19.6796 69.5904 19.0254 69.0764 18.5581C68.5857 18.0674 67.9198 17.8221 67.0787 17.8221C66.2142 17.8221 65.5366 18.0674 65.0459 18.5581C64.5553 19.0254 64.3099 19.6796 64.3099 20.5207V31H56.5293V11.2331H64.3099V13.8967C64.8707 13.0556 65.6301 12.378 66.588 11.8639C67.5694 11.3499 68.7143 11.0929 70.0227 11.0929C71.448 11.0929 72.7097 11.4083 73.8079 12.0392C74.906 12.6467 75.7822 13.5112 76.4364 14.6327C77.1608 13.6046 78.0837 12.7635 79.2052 12.1093C80.3267 11.4317 81.5651 11.0929 82.9203 11.0929ZM113.383 20.9413C113.383 21.4787 113.348 21.9927 113.278 22.4834H100.766C100.882 24.1891 101.595 25.0419 102.903 25.0419C103.745 25.0419 104.352 24.6564 104.726 23.8853H112.962C112.682 25.2872 112.086 26.5489 111.175 27.6705C110.287 28.7686 109.154 29.6448 107.775 30.299C106.42 30.9299 104.925 31.2453 103.289 31.2453C101.326 31.2453 99.574 30.8364 98.0319 30.0187C96.5131 29.2009 95.3215 28.0326 94.457 26.5139C93.6158 24.9718 93.1953 23.1727 93.1953 21.1165C93.1953 19.0604 93.6158 17.273 94.457 15.7542C95.3215 14.2121 96.5131 13.0322 98.0319 12.2144C99.574 11.3966 101.326 10.9877 103.289 10.9877C105.252 10.9877 106.992 11.3966 108.511 12.2144C110.053 13.0088 111.245 14.1537 112.086 15.6491C112.951 17.1445 113.383 18.9085 113.383 20.9413ZM105.497 19.0838C105.497 18.4295 105.287 17.9389 104.866 17.6118C104.446 17.2613 103.92 17.0861 103.289 17.0861C101.91 17.0861 101.104 17.752 100.871 19.0838H105.497ZM138.411 18.2777C139.907 18.6282 141.063 19.3525 141.881 20.4506C142.722 21.5254 143.143 22.7755 143.143 24.2007C143.143 26.3737 142.419 28.056 140.97 29.2476C139.545 30.4159 137.489 31 134.802 31H121.799V6.18621H134.451C136.975 6.18621 138.961 6.73529 140.409 7.83345C141.858 8.93161 142.582 10.5321 142.582 12.635C142.582 14.0836 142.197 15.3103 141.426 16.315C140.678 17.2963 139.673 17.9506 138.411 18.2777ZM129.579 15.8594H132.594C133.295 15.8594 133.809 15.7192 134.136 15.4388C134.486 15.1584 134.661 14.7262 134.661 14.142C134.661 13.5345 134.486 13.0906 134.136 12.8102C133.809 12.5065 133.295 12.3546 132.594 12.3546H129.579V15.8594ZM133.119 24.7615C133.82 24.7615 134.334 24.633 134.661 24.376C135.012 24.0956 135.187 23.6517 135.187 23.0442C135.187 21.8525 134.498 21.2567 133.119 21.2567H129.579V24.7615H133.119ZM144.706 21.1165C144.706 19.037 145.056 17.2379 145.757 15.7192C146.482 14.1771 147.463 13.0088 148.701 12.2144C149.94 11.3966 151.33 10.9877 152.872 10.9877C154.157 10.9877 155.267 11.2564 156.201 11.7938C157.136 12.3079 157.849 13.0205 158.339 13.9318V11.2331H166.085V31H158.339V28.3013C157.849 29.2126 157.136 29.9369 156.201 30.4743C155.267 30.9883 154.157 31.2453 152.872 31.2453C151.33 31.2453 149.94 30.8481 148.701 30.0537C147.463 29.2359 146.482 28.0677 145.757 26.5489C145.056 25.0068 144.706 23.196 144.706 21.1165ZM158.339 21.1165C158.339 20.0651 158.071 19.2473 157.533 18.6632C156.996 18.0791 156.307 17.787 155.465 17.787C154.624 17.787 153.935 18.0791 153.398 18.6632C152.86 19.2473 152.592 20.0651 152.592 21.1165C152.592 22.168 152.86 22.9858 153.398 23.5699C153.935 24.154 154.624 24.4461 155.465 24.4461C156.307 24.4461 156.996 24.154 157.533 23.5699C158.071 22.9858 158.339 22.168 158.339 21.1165ZM168.527 21.1165C168.527 19.0604 168.948 17.273 169.789 15.7542C170.654 14.2121 171.845 13.0322 173.364 12.2144C174.906 11.3966 176.658 10.9877 178.621 10.9877C181.191 10.9877 183.353 11.7121 185.105 13.1607C186.881 14.6093 188.002 16.6187 188.469 19.1889H180.233C179.93 18.1608 179.334 17.6468 178.446 17.6468C177.815 17.6468 177.313 17.9389 176.939 18.523C176.588 19.1071 176.413 19.9716 176.413 21.1165C176.413 22.2614 176.588 23.1259 176.939 23.7101C177.313 24.2942 177.815 24.5863 178.446 24.5863C179.334 24.5863 179.93 24.0722 180.233 23.0442H188.469C188.002 25.6143 186.881 27.6237 185.105 29.0724C183.353 30.521 181.191 31.2453 178.621 31.2453C176.658 31.2453 174.906 30.8364 173.364 30.0187C171.845 29.2009 170.654 28.0326 169.789 26.5139C168.948 24.9718 168.527 23.1727 168.527 21.1165ZM203.588 31L198.717 23.1143V31H190.936V5.06468H198.717V18.6282L203.658 11.2331H212.701L205.306 21.1866L212.876 31H203.588ZM240.062 6.18621V12.3546H233.474V31H225.693V12.3546H219.174V6.18621H240.062ZM251.566 31.2453C249.58 31.2453 247.792 30.8364 246.203 30.0187C244.614 29.2009 243.364 28.0326 242.453 26.5139C241.565 24.9718 241.121 23.1727 241.121 21.1165C241.121 19.0604 241.565 17.273 242.453 15.7542C243.364 14.2121 244.614 13.0322 246.203 12.2144C247.792 11.3966 249.58 10.9877 251.566 10.9877C253.552 10.9877 255.339 11.3966 256.928 12.2144C258.517 13.0322 259.755 14.2121 260.643 15.7542C261.554 17.273 262.01 19.0604 262.01 21.1165C262.01 23.1727 261.554 24.9718 260.643 26.5139C259.755 28.0326 258.517 29.2009 256.928 30.0187C255.339 30.8364 253.552 31.2453 251.566 31.2453ZM251.566 24.5162C252.29 24.5162 252.897 24.2358 253.388 23.675C253.879 23.0909 254.124 22.2381 254.124 21.1165C254.124 19.995 253.879 19.1539 253.388 18.5931C252.897 18.009 252.29 17.7169 251.566 17.7169C250.841 17.7169 250.234 18.009 249.743 18.5931C249.252 19.1539 249.007 19.995 249.007 21.1165C249.007 22.2381 249.241 23.0909 249.708 23.675C250.199 24.2358 250.818 24.5162 251.566 24.5162ZM290.845 11.0929C293.368 11.0929 295.319 11.8523 296.698 13.371C298.1 14.8897 298.801 16.9459 298.801 19.5394V31H291.055V20.5207C291.055 19.6796 290.798 19.0254 290.284 18.5581C289.794 18.0674 289.128 17.8221 288.287 17.8221C287.422 17.8221 286.744 18.0674 286.254 18.5581C285.763 19.0254 285.518 19.6796 285.518 20.5207V31H277.772V20.5207C277.772 19.6796 277.515 19.0254 277.001 18.5581C276.51 18.0674 275.845 17.8221 275.003 17.8221C274.139 17.8221 273.461 18.0674 272.971 18.5581C272.48 19.0254 272.235 19.6796 272.235 20.5207V31H264.454V11.2331H272.235V13.8967C272.795 13.0556 273.555 12.378 274.513 11.8639C275.494 11.3499 276.639 11.0929 277.947 11.0929C279.373 11.0929 280.634 11.4083 281.733 12.0392C282.831 12.6467 283.707 13.5112 284.361 14.6327C285.086 13.6046 286.008 12.7635 287.13 12.1093C288.251 11.4317 289.49 11.0929 290.845 11.0929ZM311.564 31.2453C309.578 31.2453 307.791 30.8364 306.202 30.0187C304.613 29.2009 303.363 28.0326 302.452 26.5139C301.564 24.9718 301.12 23.1727 301.12 21.1165C301.12 19.0604 301.564 17.273 302.452 15.7542C303.363 14.2121 304.613 13.0322 306.202 12.2144C307.791 11.3966 309.578 10.9877 311.564 10.9877C313.55 10.9877 315.338 11.3966 316.927 12.2144C318.515 13.0322 319.754 14.2121 320.642 15.7542C321.553 17.273 322.008 19.0604 322.008 21.1165C322.008 23.1727 321.553 24.9718 320.642 26.5139C319.754 28.0326 318.515 29.2009 316.927 30.0187C315.338 30.8364 313.55 31.2453 311.564 31.2453ZM311.564 24.5162C312.289 24.5162 312.896 24.2358 313.387 23.675C313.877 23.0909 314.123 22.2381 314.123 21.1165C314.123 19.995 313.877 19.1539 313.387 18.5931C312.896 18.009 312.289 17.7169 311.564 17.7169C310.84 17.7169 310.232 18.009 309.742 18.5931C309.251 19.1539 309.006 19.995 309.006 21.1165C309.006 22.2381 309.239 23.0909 309.707 23.675C310.197 24.2358 310.817 24.5162 311.564 24.5162ZM332.233 14.878C333.028 13.7332 333.997 12.8219 335.142 12.1443C336.287 11.4434 337.479 11.0929 338.717 11.0929V19.3992H336.509C335.037 19.3992 333.951 19.6562 333.25 20.1703C332.572 20.6843 332.233 21.5955 332.233 22.904V31H324.453V11.2331H332.233V14.878ZM348.594 14.878C349.388 13.7332 350.358 12.8219 351.502 12.1443C352.647 11.4434 353.839 11.0929 355.077 11.0929V19.3992H352.869C351.397 19.3992 350.311 19.6562 349.61 20.1703C348.932 20.6843 348.594 21.5955 348.594 22.904V31H340.813V11.2331H348.594V14.878ZM366.566 31.2453C364.58 31.2453 362.792 30.8364 361.204 30.0187C359.615 29.2009 358.365 28.0326 357.453 26.5139C356.566 24.9718 356.122 23.1727 356.122 21.1165C356.122 19.0604 356.566 17.273 357.453 15.7542C358.365 14.2121 359.615 13.0322 361.204 12.2144C362.792 11.3966 364.58 10.9877 366.566 10.9877C368.552 10.9877 370.339 11.3966 371.928 12.2144C373.517 13.0322 374.755 14.2121 375.643 15.7542C376.554 17.273 377.01 19.0604 377.01 21.1165C377.01 23.1727 376.554 24.9718 375.643 26.5139C374.755 28.0326 373.517 29.2009 371.928 30.0187C370.339 30.8364 368.552 31.2453 366.566 31.2453ZM366.566 24.5162C367.29 24.5162 367.898 24.2358 368.388 23.675C368.879 23.0909 369.124 22.2381 369.124 21.1165C369.124 19.995 368.879 19.1539 368.388 18.5931C367.898 18.009 367.29 17.7169 366.566 17.7169C365.842 17.7169 365.234 18.009 364.743 18.5931C364.253 19.1539 364.007 19.995 364.007 21.1165C364.007 22.2381 364.241 23.0909 364.708 23.675C365.199 24.2358 365.818 24.5162 366.566 24.5162ZM409.455 11.2331L404.759 31H395.997L393.614 19.8548L391.09 31H382.328L377.667 11.2331H385.377L387.025 23.2545L389.583 11.2331H397.89L400.588 23.3946L402.27 11.2331H409.455ZM421.593 4.53897L420.682 21.1516H414.023L413.111 4.53897H421.593ZM417.352 31.2804C415.997 31.2804 414.911 30.9182 414.093 30.1939C413.275 29.4696 412.866 28.5583 412.866 27.4602C412.866 26.3387 413.275 25.4157 414.093 24.6914C414.911 23.9437 415.997 23.5699 417.352 23.5699C418.684 23.5699 419.759 23.9437 420.577 24.6914C421.394 25.4157 421.803 26.3387 421.803 27.4602C421.803 28.5583 421.394 29.4696 420.577 30.1939C419.759 30.9182 418.684 31.2804 417.352 31.2804Z" fill="url(#paint0_linear_187_3930)"/>
</g>
<defs>
<filter id="filter0_dd_187_3930" x="0.463711" y="0.723644" width="428.034" height="40.1312" filterUnits="userSpaceOnUse" color-interpolation-filters="sRGB">
<feFlood flood-opacity="0" result="BackgroundImageFix"/>
<feColorMatrix in="SourceAlpha" type="matrix" values="0 0 0 0 0 0 0 0 0 0 0 0 0 0 0 0 0 0 127 0" result="hardAlpha"/>
<feOffset dy="2.87956"/>
<feGaussianBlur stdDeviation="1.43978"/>
<feComposite in2="hardAlpha" operator="out"/>
<feColorMatrix type="matrix" values="0 0 0 0 0 0 0 0 0 0 0 0 0 0 0 0 0 0 0.25 0"/>
<feBlend mode="normal" in2="BackgroundImageFix" result="effect1_dropShadow_187_3930"/>
<feColorMatrix in="SourceAlpha" type="matrix" values="0 0 0 0 0 0 0 0 0 0 0 0 0 0 0 0 0 0 127 0" result="hardAlpha"/>
<feOffset dy="2.87956"/>
<feGaussianBlur stdDeviation="3.34749"/>
<feComposite in2="hardAlpha" operator="out"/>
<feColorMatrix type="matrix" values="0 0 0 0 1 0 0 0 0 1 0 0 0 0 1 0 0 0 0.51 0"/>
<feBlend mode="normal" in2="effect1_dropShadow_187_3930" result="effect2_dropShadow_187_3930"/>
<feBlend mode="normal" in="SourceGraphic" in2="effect2_dropShadow_187_3930" result="shape"/>
</filter>
<linearGradient id="paint0_linear_187_3930" x1="5.70898" y1="18.5" x2="314.074" y2="90.0196" gradientUnits="userSpaceOnUse">
<stop stop-color="#D3F3FF"/>
<stop offset="1" stop-color="#DCF5FF"/>
</linearGradient>
</defs>
</svg>
