<svg width="339" height="192" viewBox="0 0 339 192" fill="none" xmlns="http://www.w3.org/2000/svg">
<path fill-rule="evenodd" clip-rule="evenodd" d="M169.5 125.118C179.187 125.119 188.693 122.496 197.009 117.527C205.324 112.558 212.139 105.43 216.728 96.8987C221.317 88.3677 223.509 78.7529 223.072 69.0758C222.635 59.3987 219.584 50.0208 214.245 41.9384L171.615 89.3046C169.624 91.5175 166.876 92.9049 163.914 93.1938C160.951 93.4827 157.987 92.6521 155.606 90.8656L136.135 76.2625C134.871 75.3144 134.035 73.903 133.812 72.3387C133.588 70.7744 133.995 69.1854 134.944 67.9213C135.892 66.6572 137.303 65.8214 138.867 65.598C140.432 65.3745 142.021 65.7816 143.285 66.7297L162.756 81.3328L206.523 32.7095C200.183 26.6568 192.455 22.2508 184.017 19.8772C175.579 17.5037 166.687 17.235 158.121 19.0947C149.555 20.9543 141.575 24.8856 134.881 30.5444C128.186 36.2032 122.981 43.4168 119.721 51.5537C116.461 59.6906 115.246 68.5026 116.181 77.2182C117.117 85.9339 120.174 94.2873 125.087 101.547C129.999 108.807 136.617 114.752 144.359 118.861C152.102 122.97 160.734 125.119 169.5 125.118Z" fill="#1ED760"/>
<path d="M1.84346 154.905V148.755H12.5581V176.992H5.67289V154.905H1.84346ZM17.0829 162.487C17.0829 158.051 17.9339 154.557 19.6359 152.004C21.3636 149.451 24.1358 148.175 27.9523 148.175C31.7688 148.175 34.5281 149.451 36.23 152.004C37.9578 154.557 38.8217 158.051 38.8217 162.487C38.8217 166.974 37.9578 170.494 36.23 173.047C34.5281 175.6 31.7688 176.876 27.9523 176.876C24.1358 176.876 21.3636 175.6 19.6359 173.047C17.9339 170.494 17.0829 166.974 17.0829 162.487ZM32.3233 162.487C32.3233 159.882 32.0396 157.884 31.4723 156.491C30.9049 155.073 29.7316 154.364 27.9523 154.364C26.173 154.364 24.9996 155.073 24.4323 156.491C23.865 157.884 23.5813 159.882 23.5813 162.487C23.5813 164.24 23.6845 165.697 23.8908 166.858C24.0971 167.992 24.5097 168.921 25.1286 169.643C25.7733 170.339 26.7145 170.687 27.9523 170.687C29.1901 170.687 30.1184 170.339 30.7373 169.643C31.382 168.921 31.8075 167.992 32.0138 166.858C32.2201 165.697 32.3233 164.24 32.3233 162.487ZM42.3163 162.487C42.3163 158.051 43.1673 154.557 44.8692 152.004C46.597 149.451 49.3691 148.175 53.1857 148.175C57.0022 148.175 59.7614 149.451 61.4634 152.004C63.1912 154.557 64.055 158.051 64.055 162.487C64.055 166.974 63.1912 170.494 61.4634 173.047C59.7614 175.6 57.0022 176.876 53.1857 176.876C49.3691 176.876 46.597 175.6 44.8692 173.047C43.1673 170.494 42.3163 166.974 42.3163 162.487ZM57.5566 162.487C57.5566 159.882 57.273 157.884 56.7056 156.491C56.1383 155.073 54.965 154.364 53.1857 154.364C51.4063 154.364 50.233 155.073 49.6657 156.491C49.0984 157.884 48.8147 159.882 48.8147 162.487C48.8147 164.24 48.9178 165.697 49.1241 166.858C49.3304 167.992 49.743 168.921 50.3619 169.643C51.0066 170.339 51.9479 170.687 53.1857 170.687C54.4235 170.687 55.3518 170.339 55.9707 169.643C56.6154 168.921 57.0409 167.992 57.2472 166.858C57.4535 165.697 57.5566 164.24 57.5566 162.487ZM75.2052 155.872C75.2052 153.784 75.7983 152.172 76.9845 151.037C78.1965 149.903 79.7566 149.335 81.6649 149.335C83.5732 149.335 85.1204 149.903 86.3066 151.037C87.4929 152.172 88.086 153.784 88.086 155.872C88.086 157.961 87.4929 159.573 86.3066 160.707C85.1204 161.842 83.5732 162.409 81.6649 162.409C79.7566 162.409 78.1965 161.842 76.9845 160.707C75.7983 159.573 75.2052 157.961 75.2052 155.872ZM101.47 149.761L86.5774 176.992H80.195L95.0873 149.761H101.47ZM81.6262 153.203C80.3884 153.203 79.7695 154.093 79.7695 155.872C79.7695 157.626 80.3884 158.503 81.6262 158.503C82.2193 158.503 82.6835 158.283 83.0188 157.845C83.354 157.407 83.5216 156.749 83.5216 155.872C83.5216 154.093 82.8898 153.203 81.6262 153.203ZM93.6174 170.881C93.6174 168.792 94.2105 167.18 95.3967 166.045C96.5829 164.911 98.1302 164.343 100.038 164.343C101.947 164.343 103.494 164.911 104.68 166.045C105.866 167.18 106.459 168.792 106.459 170.881C106.459 172.969 105.866 174.581 104.68 175.716C103.494 176.85 101.947 177.418 100.038 177.418C98.1302 177.418 96.5829 176.85 95.3967 175.716C94.2105 174.581 93.6174 172.969 93.6174 170.881ZM99.9998 168.212C99.4066 168.212 98.9425 168.431 98.6072 168.869C98.2978 169.308 98.1431 169.978 98.1431 170.881C98.1431 172.634 98.762 173.511 99.9998 173.511C100.593 173.511 101.057 173.292 101.392 172.853C101.728 172.415 101.895 171.757 101.895 170.881C101.895 170.004 101.728 169.346 101.392 168.908C101.057 168.444 100.593 168.212 99.9998 168.212ZM117.137 163.376C117.137 160.695 117.717 158.309 118.877 156.22C120.038 154.106 121.649 152.468 123.712 151.308C125.801 150.122 128.161 149.529 130.791 149.529C134.015 149.529 136.774 150.38 139.069 152.082C141.364 153.784 142.898 156.104 143.672 159.044H136.4C135.858 157.91 135.085 157.046 134.079 156.453C133.099 155.859 131.977 155.563 130.714 155.563C128.677 155.563 127.026 156.272 125.763 157.69C124.499 159.109 123.867 161.004 123.867 163.376C123.867 165.749 124.499 167.644 125.763 169.063C127.026 170.481 128.677 171.19 130.714 171.19C131.977 171.19 133.099 170.893 134.079 170.3C135.085 169.707 135.858 168.843 136.4 167.709H143.672C142.898 170.648 141.364 172.969 139.069 174.671C136.774 176.348 134.015 177.186 130.791 177.186C128.161 177.186 125.801 176.605 123.712 175.445C121.649 174.259 120.038 172.621 118.877 170.532C117.717 168.444 117.137 166.058 117.137 163.376ZM157.548 177.302C155.433 177.302 153.525 176.85 151.823 175.948C150.147 175.045 148.819 173.756 147.839 172.08C146.884 170.404 146.407 168.444 146.407 166.2C146.407 163.982 146.897 162.035 147.877 160.359C148.857 158.657 150.198 157.355 151.9 156.453C153.602 155.55 155.51 155.099 157.625 155.099C159.739 155.099 161.648 155.55 163.35 156.453C165.052 157.355 166.393 158.657 167.373 160.359C168.352 162.035 168.842 163.982 168.842 166.2C168.842 168.418 168.34 170.378 167.334 172.08C166.354 173.756 165 175.045 163.272 175.948C161.57 176.85 159.662 177.302 157.548 177.302ZM157.548 171.577C158.811 171.577 159.881 171.113 160.758 170.184C161.661 169.256 162.112 167.928 162.112 166.2C162.112 164.472 161.674 163.144 160.797 162.216C159.946 161.288 158.888 160.823 157.625 160.823C156.336 160.823 155.265 161.288 154.414 162.216C153.563 163.119 153.138 164.447 153.138 166.2C153.138 167.928 153.551 169.256 154.376 170.184C155.227 171.113 156.284 171.577 157.548 171.577ZM199.892 155.176C202.574 155.176 204.702 155.988 206.275 157.613C207.874 159.238 208.673 161.494 208.673 164.382V176.992H202.097V165.272C202.097 163.879 201.723 162.809 200.976 162.061C200.253 161.288 199.248 160.901 197.958 160.901C196.669 160.901 195.65 161.288 194.903 162.061C194.181 162.809 193.82 163.879 193.82 165.272V176.992H187.244V165.272C187.244 163.879 186.87 162.809 186.122 162.061C185.4 161.288 184.394 160.901 183.105 160.901C181.815 160.901 180.797 161.288 180.049 162.061C179.327 162.809 178.966 163.879 178.966 165.272V176.992H172.352V155.408H178.966V158.116C179.636 157.213 180.513 156.504 181.596 155.988C182.679 155.447 183.904 155.176 185.271 155.176C186.896 155.176 188.34 155.524 189.603 156.22C190.893 156.917 191.898 157.91 192.62 159.199C193.368 158.013 194.387 157.046 195.676 156.298C196.966 155.55 198.371 155.176 199.892 155.176ZM219.914 158.464C220.558 157.458 221.448 156.646 222.583 156.027C223.717 155.408 225.045 155.099 226.567 155.099C228.346 155.099 229.958 155.55 231.402 156.453C232.846 157.355 233.981 158.644 234.806 160.321C235.657 161.997 236.082 163.944 236.082 166.161C236.082 168.379 235.657 170.339 234.806 172.041C233.981 173.717 232.846 175.019 231.402 175.948C229.958 176.85 228.346 177.302 226.567 177.302C225.071 177.302 223.743 176.992 222.583 176.373C221.448 175.754 220.558 174.955 219.914 173.975V187.281H213.299V155.408H219.914V158.464ZM229.352 166.161C229.352 164.511 228.888 163.222 227.959 162.293C227.057 161.339 225.935 160.862 224.594 160.862C223.279 160.862 222.157 161.339 221.229 162.293C220.326 163.248 219.875 164.55 219.875 166.2C219.875 167.851 220.326 169.153 221.229 170.107C222.157 171.061 223.279 171.538 224.594 171.538C225.909 171.538 227.031 171.061 227.959 170.107C228.888 169.127 229.352 167.812 229.352 166.161ZM246.167 148.368V176.992H239.552V148.368H246.167ZM271.307 165.852C271.307 166.471 271.268 167.116 271.19 167.786H256.221C256.324 169.127 256.75 170.159 257.497 170.881C258.271 171.577 259.212 171.925 260.321 171.925C261.971 171.925 263.119 171.229 263.764 169.836H270.804C270.443 171.254 269.785 172.531 268.831 173.666C267.903 174.8 266.729 175.69 265.311 176.335C263.893 176.979 262.307 177.302 260.553 177.302C258.439 177.302 256.556 176.85 254.906 175.948C253.255 175.045 251.966 173.756 251.038 172.08C250.109 170.404 249.645 168.444 249.645 166.2C249.645 163.957 250.096 161.997 250.999 160.321C251.927 158.644 253.217 157.355 254.867 156.453C256.517 155.55 258.413 155.099 260.553 155.099C262.642 155.099 264.499 155.537 266.123 156.414C267.748 157.291 269.011 158.541 269.914 160.166C270.842 161.791 271.307 163.686 271.307 165.852ZM264.537 164.111C264.537 162.977 264.151 162.074 263.377 161.404C262.603 160.733 261.636 160.398 260.476 160.398C259.367 160.398 258.426 160.72 257.652 161.365C256.904 162.01 256.44 162.925 256.26 164.111H264.537ZM286.826 171.383V176.992H283.461C281.062 176.992 279.193 176.412 277.852 175.252C276.511 174.065 275.84 172.144 275.84 169.488V160.901H273.21V155.408H275.84V150.148H282.455V155.408H286.787V160.901H282.455V169.565C282.455 170.21 282.61 170.674 282.919 170.958C283.228 171.242 283.744 171.383 284.466 171.383H286.826ZM310.856 165.852C310.856 166.471 310.818 167.116 310.74 167.786H295.771C295.874 169.127 296.299 170.159 297.047 170.881C297.821 171.577 298.762 171.925 299.871 171.925C301.521 171.925 302.669 171.229 303.314 169.836H310.354C309.993 171.254 309.335 172.531 308.381 173.666C307.452 174.8 306.279 175.69 304.861 176.335C303.443 176.979 301.857 177.302 300.103 177.302C297.989 177.302 296.106 176.85 294.456 175.948C292.805 175.045 291.516 173.756 290.588 172.08C289.659 170.404 289.195 168.444 289.195 166.2C289.195 163.957 289.646 161.997 290.549 160.321C291.477 158.644 292.767 157.355 294.417 156.453C296.067 155.55 297.963 155.099 300.103 155.099C302.192 155.099 304.049 155.537 305.673 156.414C307.298 157.291 308.561 158.541 309.464 160.166C310.392 161.791 310.856 163.686 310.856 165.852ZM304.087 164.111C304.087 162.977 303.7 162.074 302.927 161.404C302.153 160.733 301.186 160.398 300.026 160.398C298.917 160.398 297.976 160.72 297.202 161.365C296.454 162.01 295.99 162.925 295.809 164.111H304.087ZM313.031 166.161C313.031 163.944 313.443 161.997 314.269 160.321C315.12 158.644 316.267 157.355 317.711 156.453C319.155 155.55 320.767 155.099 322.546 155.099C323.965 155.099 325.254 155.395 326.414 155.988C327.601 156.581 328.529 157.381 329.199 158.387V148.368H335.814V176.992H329.199V173.898C328.581 174.929 327.691 175.754 326.53 176.373C325.396 176.992 324.068 177.302 322.546 177.302C320.767 177.302 319.155 176.85 317.711 175.948C316.267 175.019 315.12 173.717 314.269 172.041C313.443 170.339 313.031 168.379 313.031 166.161ZM329.199 166.2C329.199 164.55 328.735 163.248 327.807 162.293C326.904 161.339 325.795 160.862 324.48 160.862C323.165 160.862 322.043 161.339 321.115 162.293C320.213 163.222 319.761 164.511 319.761 166.161C319.761 167.812 320.213 169.127 321.115 170.107C322.043 171.061 323.165 171.538 324.48 171.538C325.795 171.538 326.904 171.061 327.807 170.107C328.735 169.153 329.199 167.851 329.199 166.2Z" fill="#1ED760"/>
</svg>
