<svg width="541" height="87" viewBox="0 0 541 87" fill="none" xmlns="http://www.w3.org/2000/svg">
<g filter="url(#filter0_d_187_3929)">
<mask id="path-1-outside-1_187_3929" maskUnits="userSpaceOnUse" x="4" y="-0.0351562" width="532" height="79" fill="black">
<rect fill="white" x="4" y="-0.0351562" width="532" height="79"/>
<path d="M26.9035 11.6901C31.5706 11.6901 35.6491 12.6151 39.1389 14.4652C42.6288 16.3152 45.3197 18.9221 47.2118 22.2858C49.1459 25.6074 50.113 29.4547 50.113 33.8275C50.113 38.1583 49.1459 42.0055 47.2118 45.3692C45.3197 48.7329 42.6077 51.3398 39.0759 53.1898C35.586 55.0398 31.5286 55.9648 26.9035 55.9648H10.3162V11.6901H26.9035ZM26.2097 46.6306C30.2882 46.6306 33.4627 45.5163 35.7332 43.2879C38.0037 41.0594 39.1389 37.906 39.1389 33.8275C39.1389 29.749 38.0037 26.5745 35.7332 24.304C33.4627 22.0335 30.2882 20.8983 26.2097 20.8983H21.1011V46.6306H26.2097ZM53.9957 38.3054C53.9957 34.6894 54.6684 31.5149 56.0139 28.7819C57.4015 26.0489 59.2725 23.9466 61.6271 22.475C63.9817 21.0034 66.6096 20.2676 69.5108 20.2676C71.9915 20.2676 74.1569 20.7721 76.0069 21.7812C77.899 22.7903 79.3496 24.1148 80.3587 25.7546V20.7721H91.1436V55.9648H80.3587V50.9824C79.3076 52.6222 77.8359 53.9466 75.9439 54.9557C74.0938 55.9648 71.9284 56.4694 69.4477 56.4694C66.5886 56.4694 63.9817 55.7336 61.6271 54.262C59.2725 52.7483 57.4015 50.625 56.0139 47.892C54.6684 45.1169 53.9957 41.9214 53.9957 38.3054ZM80.3587 38.3685C80.3587 35.6775 79.6019 33.5542 78.0882 31.9985C76.6166 30.4428 74.8086 29.6649 72.6642 29.6649C70.5199 29.6649 68.6909 30.4428 67.1772 31.9985C65.7056 33.5121 64.9698 35.6145 64.9698 38.3054C64.9698 40.9964 65.7056 43.1407 67.1772 44.7385C68.6909 46.2942 70.5199 47.0721 72.6642 47.0721C74.8086 47.0721 76.6166 46.2942 78.0882 44.7385C79.6019 43.1828 80.3587 41.0594 80.3587 38.3685ZM104.37 17.1141C102.478 17.1141 100.922 16.5675 99.7028 15.4743C98.5255 14.339 97.9368 12.9515 97.9368 11.3117C97.9368 9.62986 98.5255 8.24234 99.7028 7.14913C100.922 6.01388 102.478 5.44626 104.37 5.44626C106.22 5.44626 107.734 6.01388 108.911 7.14913C110.13 8.24234 110.74 9.62986 110.74 11.3117C110.74 12.9515 110.13 14.339 108.911 15.4743C107.734 16.5675 106.22 17.1141 104.37 17.1141ZM109.731 20.7721V55.9648H98.946V20.7721H109.731ZM128.331 9.2935V55.9648H117.546V9.2935H128.331ZM172.097 20.7721L150.022 72.6782H138.418L146.49 54.7665L132.174 20.7721H144.22L152.356 42.7833L160.429 20.7721H172.097ZM205.381 56.4063C202.144 56.4063 199.243 55.8808 196.678 54.8296C194.113 53.7784 192.053 52.2227 190.497 50.1625C188.983 48.1022 188.185 45.6215 188.1 42.7203H199.579C199.747 44.3601 200.315 45.6215 201.282 46.5044C202.249 47.3454 203.51 47.7658 205.066 47.7658C206.664 47.7658 207.925 47.4084 208.85 46.6936C209.775 45.9368 210.238 44.9067 210.238 43.6032C210.238 42.51 209.859 41.606 209.103 40.8913C208.388 40.1765 207.484 39.5878 206.391 39.1253C205.339 38.6628 203.826 38.1372 201.85 37.5486C198.99 36.6656 196.657 35.7826 194.849 34.8997C193.041 34.0167 191.485 32.7133 190.182 30.9894C188.878 29.2655 188.227 27.016 188.227 24.2409C188.227 20.1204 189.719 16.9039 192.705 14.5913C195.69 12.2367 199.579 11.0594 204.372 11.0594C209.25 11.0594 213.181 12.2367 216.166 14.5913C219.152 16.9039 220.749 20.1414 220.96 24.304H209.292C209.208 22.8744 208.682 21.7602 207.715 20.9613C206.748 20.1204 205.508 19.6999 203.994 19.6999C202.691 19.6999 201.639 20.0573 200.84 20.7721C200.042 21.4449 199.642 22.4329 199.642 23.7364C199.642 25.166 200.315 26.2802 201.66 27.0791C203.006 27.8779 205.108 28.7399 207.967 29.6649C210.826 30.632 213.139 31.557 214.905 32.44C216.713 33.3229 218.269 34.6053 219.572 36.2872C220.876 37.969 221.527 40.1344 221.527 42.7833C221.527 45.3061 220.876 47.5976 219.572 49.6579C218.311 51.7182 216.461 53.358 214.022 54.5773C211.583 55.7967 208.703 56.4063 205.381 56.4063ZM238.949 25.7546C240 24.1148 241.451 22.7903 243.301 21.7812C245.151 20.7721 247.316 20.2676 249.797 20.2676C252.698 20.2676 255.326 21.0034 257.681 22.475C260.035 23.9466 261.885 26.0489 263.231 28.7819C264.618 31.5149 265.312 34.6894 265.312 38.3054C265.312 41.9214 264.618 45.1169 263.231 47.892C261.885 50.625 260.035 52.7483 257.681 54.262C255.326 55.7336 252.698 56.4694 249.797 56.4694C247.358 56.4694 245.193 55.9648 243.301 54.9557C241.451 53.9466 240 52.6432 238.949 51.0454V72.7413H228.164V20.7721H238.949V25.7546ZM254.338 38.3054C254.338 35.6145 253.581 33.5121 252.068 31.9985C250.596 30.4428 248.767 29.6649 246.581 29.6649C244.436 29.6649 242.607 30.4428 241.094 31.9985C239.622 33.5542 238.886 35.6775 238.886 38.3685C238.886 41.0594 239.622 43.1828 241.094 44.7385C242.607 46.2942 244.436 47.0721 246.581 47.0721C248.725 47.0721 250.554 46.2942 252.068 44.7385C253.581 43.1407 254.338 40.9964 254.338 38.3054ZM276.394 17.1141C274.502 17.1141 272.946 16.5675 271.727 15.4743C270.55 14.339 269.961 12.9515 269.961 11.3117C269.961 9.62986 270.55 8.24234 271.727 7.14913C272.946 6.01388 274.502 5.44626 276.394 5.44626C278.244 5.44626 279.758 6.01388 280.935 7.14913C282.154 8.24234 282.764 9.62986 282.764 11.3117C282.764 12.9515 282.154 14.339 280.935 15.4743C279.758 16.5675 278.244 17.1141 276.394 17.1141ZM281.755 20.7721V55.9648H270.97V20.7721H281.755ZM311.014 20.3937C315.135 20.3937 318.414 21.7392 320.853 24.4301C323.334 27.0791 324.574 30.7371 324.574 35.4042V55.9648H313.852V36.8548C313.852 34.5002 313.243 32.6712 312.023 31.3678C310.804 30.0643 309.164 29.4126 307.104 29.4126C305.044 29.4126 303.404 30.0643 302.185 31.3678C300.965 32.6712 300.356 34.5002 300.356 36.8548V55.9648H289.571V20.7721H300.356V25.4393C301.449 23.8835 302.92 22.6642 304.77 21.7812C306.62 20.8562 308.702 20.3937 311.014 20.3937ZM346.385 56.4694C343.316 56.4694 340.583 55.9438 338.186 54.8927C335.79 53.8415 333.898 52.4119 332.51 50.6039C331.123 48.7539 330.345 46.6936 330.177 44.4231H340.835C340.961 45.6425 341.529 46.6306 342.538 47.3874C343.547 48.1442 344.788 48.5227 346.259 48.5227C347.605 48.5227 348.635 48.2704 349.35 47.7658C350.107 47.2192 350.485 46.5255 350.485 45.6845C350.485 44.6754 349.959 43.9396 348.908 43.4771C347.857 42.9725 346.154 42.4259 343.8 41.8373C341.277 41.2487 339.174 40.639 337.493 40.0083C335.811 39.3355 334.36 38.3054 333.141 36.9179C331.921 35.4883 331.312 33.5752 331.312 31.1786C331.312 29.1604 331.858 27.3313 332.952 25.6915C334.087 24.0097 335.727 22.6852 337.871 21.7182C340.057 20.7511 342.643 20.2676 345.629 20.2676C350.043 20.2676 353.512 21.3608 356.035 23.5472C358.6 25.7336 360.071 28.6348 360.45 32.2508H350.485C350.317 31.0314 349.77 30.0643 348.845 29.3496C347.962 28.6348 346.785 28.2774 345.313 28.2774C344.052 28.2774 343.085 28.5297 342.412 29.0342C341.739 29.4967 341.403 30.1484 341.403 30.9894C341.403 31.9985 341.929 32.7553 342.98 33.2599C344.073 33.7644 345.755 34.269 348.025 34.7735C350.632 35.4463 352.755 36.119 354.395 36.7917C356.035 37.4224 357.465 38.4736 358.684 39.9452C359.945 41.3748 360.597 43.3089 360.639 45.7476C360.639 47.8079 360.05 49.6579 358.873 51.2977C357.738 52.8955 356.077 54.1569 353.891 55.0819C351.746 56.0069 349.245 56.4694 346.385 56.4694ZM401.542 56.4063C397.379 56.4063 393.553 55.4393 390.063 53.5051C386.615 51.571 383.861 48.88 381.801 45.4323C379.783 41.9424 378.773 38.0321 378.773 33.7013C378.773 29.3706 379.783 25.4813 381.801 22.0335C383.861 18.5857 386.615 15.8948 390.063 13.9606C393.553 12.0265 397.379 11.0594 401.542 11.0594C405.704 11.0594 409.509 12.0265 412.957 13.9606C416.447 15.8948 419.18 18.5857 421.156 22.0335C423.174 25.4813 424.183 29.3706 424.183 33.7013C424.183 38.0321 423.174 41.9424 421.156 45.4323C419.138 48.88 416.405 51.571 412.957 53.5051C409.509 55.4393 405.704 56.4063 401.542 56.4063ZM401.542 46.5675C405.073 46.5675 407.891 45.3902 409.993 43.0356C412.137 40.681 413.209 37.5696 413.209 33.7013C413.209 29.791 412.137 26.6796 409.993 24.3671C407.891 22.0125 405.073 20.8352 401.542 20.8352C397.968 20.8352 395.108 21.9915 392.964 24.304C390.862 26.6166 389.811 29.749 389.811 33.7013C389.811 37.6117 390.862 40.7441 392.964 43.0987C395.108 45.4112 397.968 46.5675 401.542 46.5675ZM446.014 45.8737L453.645 20.7721H465.124L452.636 55.9648H439.328L426.841 20.7721H438.382L446.014 45.8737ZM502.838 37.8009C502.838 38.81 502.775 39.8611 502.649 40.9543H478.241C478.409 43.1407 479.103 44.8226 480.322 45.9999C481.583 47.1351 483.118 47.7028 484.926 47.7028C487.617 47.7028 489.488 46.5675 490.539 44.297H502.018C501.429 46.6096 500.357 48.6908 498.801 50.5409C497.288 52.3909 495.375 53.8415 493.062 54.8927C490.75 55.9438 488.164 56.4694 485.305 56.4694C481.857 56.4694 478.787 55.7336 476.096 54.262C473.406 52.7904 471.303 50.688 469.79 47.955C468.276 45.222 467.519 42.0265 467.519 38.3685C467.519 34.7105 468.255 31.5149 469.726 28.7819C471.24 26.0489 473.342 23.9466 476.033 22.475C478.724 21.0034 481.815 20.2676 485.305 20.2676C488.71 20.2676 491.738 20.9824 494.387 22.4119C497.036 23.8415 499.096 25.8807 500.567 28.5297C502.081 31.1786 502.838 34.269 502.838 37.8009ZM491.801 34.9627C491.801 33.1127 491.17 31.6411 489.909 30.5479C488.647 29.4547 487.071 28.9081 485.178 28.9081C483.37 28.9081 481.836 29.4337 480.574 30.4848C479.355 31.536 478.598 33.0286 478.304 34.9627H491.801ZM519.312 26.6376C520.574 24.7034 522.15 23.1898 524.043 22.0966C525.935 20.9613 528.037 20.3937 530.349 20.3937V31.8093H527.385C524.694 31.8093 522.676 32.3979 521.331 33.5752C519.985 34.7105 519.312 36.7287 519.312 39.6299V55.9648H508.527V20.7721H519.312V26.6376Z"/>
</mask>
<path d="M26.9035 11.6901C31.5706 11.6901 35.6491 12.6151 39.1389 14.4652C42.6288 16.3152 45.3197 18.9221 47.2118 22.2858C49.1459 25.6074 50.113 29.4547 50.113 33.8275C50.113 38.1583 49.1459 42.0055 47.2118 45.3692C45.3197 48.7329 42.6077 51.3398 39.0759 53.1898C35.586 55.0398 31.5286 55.9648 26.9035 55.9648H10.3162V11.6901H26.9035ZM26.2097 46.6306C30.2882 46.6306 33.4627 45.5163 35.7332 43.2879C38.0037 41.0594 39.1389 37.906 39.1389 33.8275C39.1389 29.749 38.0037 26.5745 35.7332 24.304C33.4627 22.0335 30.2882 20.8983 26.2097 20.8983H21.1011V46.6306H26.2097ZM53.9957 38.3054C53.9957 34.6894 54.6684 31.5149 56.0139 28.7819C57.4015 26.0489 59.2725 23.9466 61.6271 22.475C63.9817 21.0034 66.6096 20.2676 69.5108 20.2676C71.9915 20.2676 74.1569 20.7721 76.0069 21.7812C77.899 22.7903 79.3496 24.1148 80.3587 25.7546V20.7721H91.1436V55.9648H80.3587V50.9824C79.3076 52.6222 77.8359 53.9466 75.9439 54.9557C74.0938 55.9648 71.9284 56.4694 69.4477 56.4694C66.5886 56.4694 63.9817 55.7336 61.6271 54.262C59.2725 52.7483 57.4015 50.625 56.0139 47.892C54.6684 45.1169 53.9957 41.9214 53.9957 38.3054ZM80.3587 38.3685C80.3587 35.6775 79.6019 33.5542 78.0882 31.9985C76.6166 30.4428 74.8086 29.6649 72.6642 29.6649C70.5199 29.6649 68.6909 30.4428 67.1772 31.9985C65.7056 33.5121 64.9698 35.6145 64.9698 38.3054C64.9698 40.9964 65.7056 43.1407 67.1772 44.7385C68.6909 46.2942 70.5199 47.0721 72.6642 47.0721C74.8086 47.0721 76.6166 46.2942 78.0882 44.7385C79.6019 43.1828 80.3587 41.0594 80.3587 38.3685ZM104.37 17.1141C102.478 17.1141 100.922 16.5675 99.7028 15.4743C98.5255 14.339 97.9368 12.9515 97.9368 11.3117C97.9368 9.62986 98.5255 8.24234 99.7028 7.14913C100.922 6.01388 102.478 5.44626 104.37 5.44626C106.22 5.44626 107.734 6.01388 108.911 7.14913C110.13 8.24234 110.74 9.62986 110.74 11.3117C110.74 12.9515 110.13 14.339 108.911 15.4743C107.734 16.5675 106.22 17.1141 104.37 17.1141ZM109.731 20.7721V55.9648H98.946V20.7721H109.731ZM128.331 9.2935V55.9648H117.546V9.2935H128.331ZM172.097 20.7721L150.022 72.6782H138.418L146.49 54.7665L132.174 20.7721H144.22L152.356 42.7833L160.429 20.7721H172.097ZM205.381 56.4063C202.144 56.4063 199.243 55.8808 196.678 54.8296C194.113 53.7784 192.053 52.2227 190.497 50.1625C188.983 48.1022 188.185 45.6215 188.1 42.7203H199.579C199.747 44.3601 200.315 45.6215 201.282 46.5044C202.249 47.3454 203.51 47.7658 205.066 47.7658C206.664 47.7658 207.925 47.4084 208.85 46.6936C209.775 45.9368 210.238 44.9067 210.238 43.6032C210.238 42.51 209.859 41.606 209.103 40.8913C208.388 40.1765 207.484 39.5878 206.391 39.1253C205.339 38.6628 203.826 38.1372 201.85 37.5486C198.99 36.6656 196.657 35.7826 194.849 34.8997C193.041 34.0167 191.485 32.7133 190.182 30.9894C188.878 29.2655 188.227 27.016 188.227 24.2409C188.227 20.1204 189.719 16.9039 192.705 14.5913C195.69 12.2367 199.579 11.0594 204.372 11.0594C209.25 11.0594 213.181 12.2367 216.166 14.5913C219.152 16.9039 220.749 20.1414 220.96 24.304H209.292C209.208 22.8744 208.682 21.7602 207.715 20.9613C206.748 20.1204 205.508 19.6999 203.994 19.6999C202.691 19.6999 201.639 20.0573 200.84 20.7721C200.042 21.4449 199.642 22.4329 199.642 23.7364C199.642 25.166 200.315 26.2802 201.66 27.0791C203.006 27.8779 205.108 28.7399 207.967 29.6649C210.826 30.632 213.139 31.557 214.905 32.44C216.713 33.3229 218.269 34.6053 219.572 36.2872C220.876 37.969 221.527 40.1344 221.527 42.7833C221.527 45.3061 220.876 47.5976 219.572 49.6579C218.311 51.7182 216.461 53.358 214.022 54.5773C211.583 55.7967 208.703 56.4063 205.381 56.4063ZM238.949 25.7546C240 24.1148 241.451 22.7903 243.301 21.7812C245.151 20.7721 247.316 20.2676 249.797 20.2676C252.698 20.2676 255.326 21.0034 257.681 22.475C260.035 23.9466 261.885 26.0489 263.231 28.7819C264.618 31.5149 265.312 34.6894 265.312 38.3054C265.312 41.9214 264.618 45.1169 263.231 47.892C261.885 50.625 260.035 52.7483 257.681 54.262C255.326 55.7336 252.698 56.4694 249.797 56.4694C247.358 56.4694 245.193 55.9648 243.301 54.9557C241.451 53.9466 240 52.6432 238.949 51.0454V72.7413H228.164V20.7721H238.949V25.7546ZM254.338 38.3054C254.338 35.6145 253.581 33.5121 252.068 31.9985C250.596 30.4428 248.767 29.6649 246.581 29.6649C244.436 29.6649 242.607 30.4428 241.094 31.9985C239.622 33.5542 238.886 35.6775 238.886 38.3685C238.886 41.0594 239.622 43.1828 241.094 44.7385C242.607 46.2942 244.436 47.0721 246.581 47.0721C248.725 47.0721 250.554 46.2942 252.068 44.7385C253.581 43.1407 254.338 40.9964 254.338 38.3054ZM276.394 17.1141C274.502 17.1141 272.946 16.5675 271.727 15.4743C270.55 14.339 269.961 12.9515 269.961 11.3117C269.961 9.62986 270.55 8.24234 271.727 7.14913C272.946 6.01388 274.502 5.44626 276.394 5.44626C278.244 5.44626 279.758 6.01388 280.935 7.14913C282.154 8.24234 282.764 9.62986 282.764 11.3117C282.764 12.9515 282.154 14.339 280.935 15.4743C279.758 16.5675 278.244 17.1141 276.394 17.1141ZM281.755 20.7721V55.9648H270.97V20.7721H281.755ZM311.014 20.3937C315.135 20.3937 318.414 21.7392 320.853 24.4301C323.334 27.0791 324.574 30.7371 324.574 35.4042V55.9648H313.852V36.8548C313.852 34.5002 313.243 32.6712 312.023 31.3678C310.804 30.0643 309.164 29.4126 307.104 29.4126C305.044 29.4126 303.404 30.0643 302.185 31.3678C300.965 32.6712 300.356 34.5002 300.356 36.8548V55.9648H289.571V20.7721H300.356V25.4393C301.449 23.8835 302.92 22.6642 304.77 21.7812C306.62 20.8562 308.702 20.3937 311.014 20.3937ZM346.385 56.4694C343.316 56.4694 340.583 55.9438 338.186 54.8927C335.79 53.8415 333.898 52.4119 332.51 50.6039C331.123 48.7539 330.345 46.6936 330.177 44.4231H340.835C340.961 45.6425 341.529 46.6306 342.538 47.3874C343.547 48.1442 344.788 48.5227 346.259 48.5227C347.605 48.5227 348.635 48.2704 349.35 47.7658C350.107 47.2192 350.485 46.5255 350.485 45.6845C350.485 44.6754 349.959 43.9396 348.908 43.4771C347.857 42.9725 346.154 42.4259 343.8 41.8373C341.277 41.2487 339.174 40.639 337.493 40.0083C335.811 39.3355 334.36 38.3054 333.141 36.9179C331.921 35.4883 331.312 33.5752 331.312 31.1786C331.312 29.1604 331.858 27.3313 332.952 25.6915C334.087 24.0097 335.727 22.6852 337.871 21.7182C340.057 20.7511 342.643 20.2676 345.629 20.2676C350.043 20.2676 353.512 21.3608 356.035 23.5472C358.6 25.7336 360.071 28.6348 360.45 32.2508H350.485C350.317 31.0314 349.77 30.0643 348.845 29.3496C347.962 28.6348 346.785 28.2774 345.313 28.2774C344.052 28.2774 343.085 28.5297 342.412 29.0342C341.739 29.4967 341.403 30.1484 341.403 30.9894C341.403 31.9985 341.929 32.7553 342.98 33.2599C344.073 33.7644 345.755 34.269 348.025 34.7735C350.632 35.4463 352.755 36.119 354.395 36.7917C356.035 37.4224 357.465 38.4736 358.684 39.9452C359.945 41.3748 360.597 43.3089 360.639 45.7476C360.639 47.8079 360.05 49.6579 358.873 51.2977C357.738 52.8955 356.077 54.1569 353.891 55.0819C351.746 56.0069 349.245 56.4694 346.385 56.4694ZM401.542 56.4063C397.379 56.4063 393.553 55.4393 390.063 53.5051C386.615 51.571 383.861 48.88 381.801 45.4323C379.783 41.9424 378.773 38.0321 378.773 33.7013C378.773 29.3706 379.783 25.4813 381.801 22.0335C383.861 18.5857 386.615 15.8948 390.063 13.9606C393.553 12.0265 397.379 11.0594 401.542 11.0594C405.704 11.0594 409.509 12.0265 412.957 13.9606C416.447 15.8948 419.18 18.5857 421.156 22.0335C423.174 25.4813 424.183 29.3706 424.183 33.7013C424.183 38.0321 423.174 41.9424 421.156 45.4323C419.138 48.88 416.405 51.571 412.957 53.5051C409.509 55.4393 405.704 56.4063 401.542 56.4063ZM401.542 46.5675C405.073 46.5675 407.891 45.3902 409.993 43.0356C412.137 40.681 413.209 37.5696 413.209 33.7013C413.209 29.791 412.137 26.6796 409.993 24.3671C407.891 22.0125 405.073 20.8352 401.542 20.8352C397.968 20.8352 395.108 21.9915 392.964 24.304C390.862 26.6166 389.811 29.749 389.811 33.7013C389.811 37.6117 390.862 40.7441 392.964 43.0987C395.108 45.4112 397.968 46.5675 401.542 46.5675ZM446.014 45.8737L453.645 20.7721H465.124L452.636 55.9648H439.328L426.841 20.7721H438.382L446.014 45.8737ZM502.838 37.8009C502.838 38.81 502.775 39.8611 502.649 40.9543H478.241C478.409 43.1407 479.103 44.8226 480.322 45.9999C481.583 47.1351 483.118 47.7028 484.926 47.7028C487.617 47.7028 489.488 46.5675 490.539 44.297H502.018C501.429 46.6096 500.357 48.6908 498.801 50.5409C497.288 52.3909 495.375 53.8415 493.062 54.8927C490.75 55.9438 488.164 56.4694 485.305 56.4694C481.857 56.4694 478.787 55.7336 476.096 54.262C473.406 52.7904 471.303 50.688 469.79 47.955C468.276 45.222 467.519 42.0265 467.519 38.3685C467.519 34.7105 468.255 31.5149 469.726 28.7819C471.24 26.0489 473.342 23.9466 476.033 22.475C478.724 21.0034 481.815 20.2676 485.305 20.2676C488.71 20.2676 491.738 20.9824 494.387 22.4119C497.036 23.8415 499.096 25.8807 500.567 28.5297C502.081 31.1786 502.838 34.269 502.838 37.8009ZM491.801 34.9627C491.801 33.1127 491.17 31.6411 489.909 30.5479C488.647 29.4547 487.071 28.9081 485.178 28.9081C483.37 28.9081 481.836 29.4337 480.574 30.4848C479.355 31.536 478.598 33.0286 478.304 34.9627H491.801ZM519.312 26.6376C520.574 24.7034 522.15 23.1898 524.043 22.0966C525.935 20.9613 528.037 20.3937 530.349 20.3937V31.8093H527.385C524.694 31.8093 522.676 32.3979 521.331 33.5752C519.985 34.7105 519.312 36.7287 519.312 39.6299V55.9648H508.527V20.7721H519.312V26.6376Z" fill="white"/>
<path d="M39.1389 14.4652L41.6684 9.69376L41.6684 9.69376L39.1389 14.4652ZM47.2118 22.2858L42.5049 24.9334L42.5247 24.9685L42.5449 25.0032L47.2118 22.2858ZM47.2118 45.3692L42.5302 42.6772L42.5174 42.6993L42.5049 42.7216L47.2118 45.3692ZM39.0759 53.1898L36.57 48.4059L36.5582 48.4121L36.5464 48.4184L39.0759 53.1898ZM10.3162 55.9648H4.91581V61.3653H10.3162V55.9648ZM10.3162 11.6901V6.28972H4.91581V11.6901H10.3162ZM21.1011 20.8983V15.4978H15.7007V20.8983H21.1011ZM21.1011 46.6306H15.7007V52.031H21.1011V46.6306ZM26.9035 17.0905C30.8487 17.0905 34.0288 17.8685 36.6095 19.2366L41.6684 9.69376C37.2694 7.36177 32.2925 6.28972 26.9035 6.28972V17.0905ZM36.6095 19.2366C39.2077 20.614 41.1327 22.4938 42.5049 24.9334L51.9187 19.6382C49.5068 15.3504 46.0498 12.0165 41.6684 9.69376L36.6095 19.2366ZM42.5449 25.0032C43.9355 27.3914 44.7126 30.2756 44.7126 33.8275H55.5134C55.5134 28.6337 54.3564 23.8235 51.8787 19.5684L42.5449 25.0032ZM44.7126 33.8275C44.7126 37.3257 43.9404 40.2246 42.5302 42.6772L51.8935 48.0611C54.3515 43.7864 55.5134 38.9908 55.5134 33.8275H44.7126ZM42.5049 42.7216C41.1423 45.1441 39.2095 47.0233 36.57 48.4059L41.5817 57.9736C46.006 55.6562 49.4972 52.3216 51.9187 48.0168L42.5049 42.7216ZM36.5464 48.4184C33.959 49.79 30.7977 50.5644 26.9035 50.5644V61.3653C32.2594 61.3653 37.213 60.2896 41.6053 57.9612L36.5464 48.4184ZM26.9035 50.5644H10.3162V61.3653H26.9035V50.5644ZM15.7166 55.9648V11.6901H4.91581V55.9648H15.7166ZM10.3162 17.0905H26.9035V6.28972H10.3162V17.0905ZM26.2097 52.031C31.2864 52.031 35.973 50.6195 39.516 47.1421L31.9504 39.4337C30.9524 40.4132 29.29 41.2302 26.2097 41.2302V52.031ZM39.516 47.1421C43.092 43.6323 44.5393 38.9263 44.5393 33.8275H33.7385C33.7385 36.8856 32.9154 38.4866 31.9504 39.4337L39.516 47.1421ZM44.5393 33.8275C44.5393 28.7233 43.0903 24.0238 39.5518 20.4853L31.9145 28.1227C32.917 29.1252 33.7385 30.7747 33.7385 33.8275H44.5393ZM39.5518 20.4853C36.0134 16.9469 31.3139 15.4978 26.2097 15.4978V26.2987C29.2625 26.2987 30.912 27.1202 31.9145 28.1227L39.5518 20.4853ZM26.2097 15.4978H21.1011V26.2987H26.2097V15.4978ZM15.7007 20.8983V46.6306H26.5015V20.8983H15.7007ZM21.1011 52.031H26.2097V41.2302H21.1011V52.031ZM56.0139 28.7819L51.1986 26.3372L51.1835 26.3668L51.1688 26.3967L56.0139 28.7819ZM61.6271 22.475L64.4893 27.0545L61.6271 22.475ZM76.0069 21.7812L73.4209 26.5222L73.4432 26.5344L73.4656 26.5463L76.0069 21.7812ZM80.3587 25.7546L75.7594 28.5849L85.7591 44.8345V25.7546H80.3587ZM80.3587 20.7721V15.3717H74.9583V20.7721H80.3587ZM91.1436 20.7721H96.544V15.3717H91.1436V20.7721ZM91.1436 55.9648V61.3653H96.544V55.9648H91.1436ZM80.3587 55.9648H74.9583V61.3653H80.3587V55.9648ZM80.3587 50.9824H85.7591V32.5508L75.8122 48.0679L80.3587 50.9824ZM75.9439 54.9557L73.4025 50.1907L73.3801 50.2026L73.3579 50.2147L75.9439 54.9557ZM61.6271 54.262L58.7068 58.8047L58.7357 58.8233L58.7649 58.8415L61.6271 54.262ZM56.0139 47.892L51.1546 50.248L51.1762 50.2926L51.1986 50.3367L56.0139 47.892ZM78.0882 31.9985L74.165 35.7096L74.1911 35.7372L74.2176 35.7645L78.0882 31.9985ZM67.1772 31.9985L63.3066 28.2325L63.3051 28.234L67.1772 31.9985ZM67.1772 44.7385L63.205 48.3971L63.255 48.4515L63.3066 48.5045L67.1772 44.7385ZM78.0882 44.7385L74.2176 40.9725L74.1911 40.9997L74.165 41.0273L78.0882 44.7385ZM59.3961 38.3054C59.3961 35.3631 59.9411 33.0318 60.859 31.1672L51.1688 26.3967C49.3958 29.9981 48.5953 34.0158 48.5953 38.3054H59.3961ZM60.8293 31.2267C61.8197 29.2759 63.0527 27.9524 64.4893 27.0545L58.7649 17.8955C55.4923 19.9408 52.9832 22.8219 51.1986 26.3372L60.8293 31.2267ZM64.4893 27.0545C65.9461 26.1441 67.5741 25.668 69.5108 25.668V14.8672C65.6451 14.8672 62.0173 15.8627 58.7649 17.8955L64.4893 27.0545ZM69.5108 25.668C71.2484 25.668 72.494 26.0166 73.4209 26.5222L78.5929 17.0402C75.8198 15.5276 72.7347 14.8672 69.5108 14.8672V25.668ZM73.4656 26.5463C74.6107 27.157 75.3079 27.8513 75.7594 28.5849L84.958 22.9243C83.3913 20.3783 81.1873 18.4237 78.5483 17.0162L73.4656 26.5463ZM85.7591 25.7546V20.7721H74.9583V25.7546H85.7591ZM80.3587 26.1725H91.1436V15.3717H80.3587V26.1725ZM85.7432 20.7721V55.9648H96.544V20.7721H85.7432ZM91.1436 50.5644H80.3587V61.3653H91.1436V50.5644ZM85.7591 55.9648V50.9824H74.9583V55.9648H85.7591ZM75.8122 48.0679C75.3092 48.8527 74.5631 49.5717 73.4025 50.1907L78.4852 59.7208C81.1087 58.3216 83.306 56.3916 84.9052 53.8968L75.8122 48.0679ZM73.3579 50.2147C72.4309 50.7203 71.1853 51.069 69.4477 51.069V61.8698C72.6716 61.8698 75.7567 61.2094 78.5299 59.6967L73.3579 50.2147ZM69.4477 51.069C67.569 51.069 65.9591 50.6011 64.4893 49.6824L58.7649 58.8415C62.0043 60.8661 65.6081 61.8698 69.4477 61.8698V51.069ZM64.5474 49.7193C63.075 48.7727 61.8251 47.4087 60.8293 45.4472L51.1986 50.3367C52.9778 53.8412 55.47 56.7239 58.7068 58.8047L64.5474 49.7193ZM60.8733 45.5359C59.9403 43.6116 59.3961 41.2453 59.3961 38.3054H48.5953C48.5953 42.5975 49.3966 46.6222 51.1546 50.248L60.8733 45.5359ZM85.7591 38.3685C85.7591 34.6265 84.6763 31.0254 81.9588 28.2325L74.2176 35.7645C74.5275 36.083 74.9583 36.7285 74.9583 38.3685H85.7591ZM82.0114 28.2873C79.5182 25.6516 76.2906 24.2645 72.6642 24.2645V35.0653C73.3266 35.0653 73.715 35.2339 74.165 35.7096L82.0114 28.2873ZM72.6642 24.2645C69.042 24.2645 65.8229 25.6462 63.3066 28.2325L71.0478 35.7645C71.5588 35.2393 71.9978 35.0653 72.6642 35.0653V24.2645ZM63.3051 28.234C60.6042 31.012 59.5694 34.612 59.5694 38.3054H70.3702C70.3702 36.6169 70.807 36.0122 71.0493 35.763L63.3051 28.234ZM59.5694 38.3054C59.5694 42.0132 60.6087 45.5784 63.205 48.3971L71.1495 41.0798C70.8025 40.7031 70.3702 39.9795 70.3702 38.3054H59.5694ZM63.3066 48.5045C65.8229 51.0907 69.042 52.4725 72.6642 52.4725V41.6716C71.9978 41.6716 71.5588 41.4977 71.0478 40.9725L63.3066 48.5045ZM72.6642 52.4725C76.2906 52.4725 79.5182 51.0853 82.0114 48.4497L74.165 41.0273C73.715 41.5031 73.3266 41.6716 72.6642 41.6716V52.4725ZM81.9588 48.5045C84.6763 45.7116 85.7591 42.1104 85.7591 38.3685H74.9583C74.9583 40.0085 74.5275 40.654 74.2176 40.9725L81.9588 48.5045ZM99.7028 15.4743L95.9542 19.3617L96.0248 19.4298L96.0978 19.4953L99.7028 15.4743ZM99.7028 7.14913L103.378 11.1065L103.383 11.1017L99.7028 7.14913ZM108.911 7.14913L105.162 11.0366L105.233 11.1047L105.306 11.1701L108.911 7.14913ZM108.911 15.4743L112.586 19.4317L112.591 19.4268L108.911 15.4743ZM109.731 20.7721H115.131V15.3717H109.731V20.7721ZM109.731 55.9648V61.3653H115.131V55.9648H109.731ZM98.946 55.9648H93.5455V61.3653H98.946V55.9648ZM98.946 20.7721V15.3717H93.5455V20.7721H98.946ZM104.37 11.7137C103.588 11.7137 103.384 11.5215 103.308 11.4533L96.0978 19.4953C98.4604 21.6135 101.368 22.5145 104.37 22.5145V11.7137ZM103.451 11.5868C103.392 11.5293 103.364 11.4923 103.354 11.4786C103.345 11.4658 103.346 11.465 103.35 11.4731C103.353 11.4811 103.352 11.4805 103.348 11.4635C103.345 11.4454 103.337 11.3974 103.337 11.3117H92.5364C92.5364 14.4135 93.7182 17.2056 95.9542 19.3617L103.451 11.5868ZM103.337 11.3117C103.337 11.2069 103.346 11.1468 103.351 11.1227C103.355 11.0999 103.357 11.1018 103.35 11.1188C103.342 11.1362 103.334 11.1503 103.33 11.1561C103.326 11.1611 103.337 11.1437 103.378 11.1065L96.0281 3.19175C93.6936 5.35951 92.5364 8.20748 92.5364 11.3117H103.337ZM103.383 11.1017C103.466 11.0245 103.644 10.8467 104.37 10.8467V0.0458488C101.312 0.0458488 98.3787 1.00323 96.0229 3.19661L103.383 11.1017ZM104.37 10.8467C104.74 10.8467 104.927 10.9024 104.996 10.9285C105.054 10.9502 105.098 10.975 105.162 11.0366L112.66 3.26168C110.341 1.02608 107.419 0.0458488 104.37 0.0458488V10.8467ZM105.306 11.1701C105.353 11.2127 105.368 11.2335 105.364 11.229C105.36 11.2235 105.349 11.2065 105.338 11.1821C105.328 11.158 105.326 11.1466 105.329 11.1576C105.331 11.1701 105.34 11.2184 105.34 11.3117H116.14C116.14 8.14253 114.913 5.27682 112.516 3.12815L105.306 11.1701ZM105.34 11.3117C105.34 11.3857 105.333 11.4216 105.331 11.4281C105.33 11.4334 105.332 11.4246 105.338 11.4098C105.345 11.395 105.348 11.3928 105.339 11.4057C105.329 11.4196 105.298 11.4595 105.231 11.5218L112.591 19.4268C114.888 17.2885 116.14 14.4777 116.14 11.3117H105.34ZM105.236 11.5169C105.209 11.5422 105.078 11.7137 104.37 11.7137V22.5145C107.362 22.5145 110.258 21.5928 112.586 19.4317L105.236 11.5169ZM104.33 20.7721V55.9648H115.131V20.7721H104.33ZM109.731 50.5644H98.946V61.3653H109.731V50.5644ZM104.346 55.9648V20.7721H93.5455V55.9648H104.346ZM98.946 26.1725H109.731V15.3717H98.946V26.1725ZM128.331 9.2935H133.732V3.89308H128.331V9.2935ZM128.331 55.9648V61.3653H133.732V55.9648H128.331ZM117.546 55.9648H112.146V61.3653H117.546V55.9648ZM117.546 9.2935V3.89308H112.146V9.2935H117.546ZM122.931 9.2935V55.9648H133.732V9.2935H122.931ZM128.331 50.5644H117.546V61.3653H128.331V50.5644ZM122.947 55.9648V9.2935H112.146V55.9648H122.947ZM117.546 14.6939H128.331V3.89308H117.546V14.6939ZM172.097 20.7721L177.066 22.8856L180.262 15.3717H172.097V20.7721ZM150.022 72.6782V78.0786H153.594L154.992 74.7917L150.022 72.6782ZM138.418 72.6782L133.494 70.4592L130.06 78.0786H138.418V72.6782ZM146.49 54.7665L151.414 56.9855L152.381 54.8397L151.467 52.6704L146.49 54.7665ZM132.174 20.7721V15.3717H124.039L127.197 22.8682L132.174 20.7721ZM144.22 20.7721L149.285 18.8998L147.981 15.3717H144.22V20.7721ZM152.356 42.7833L147.29 44.6557L152.376 58.4132L157.426 44.6429L152.356 42.7833ZM160.429 20.7721V15.3717H156.657L155.359 18.9126L160.429 20.7721ZM167.127 18.6587L145.053 70.5648L154.992 74.7917L177.066 22.8856L167.127 18.6587ZM150.022 67.2778H138.418V78.0786H150.022V67.2778ZM143.341 74.8973L151.414 56.9855L141.567 52.5475L133.494 70.4592L143.341 74.8973ZM151.467 52.6704L137.151 18.676L127.197 22.8682L141.513 56.8626L151.467 52.6704ZM132.174 26.1725H144.22V15.3717H132.174V26.1725ZM139.154 22.6445L147.29 44.6557L157.421 40.911L149.285 18.8998L139.154 22.6445ZM157.426 44.6429L165.499 22.6317L155.359 18.9126L147.286 40.9238L157.426 44.6429ZM160.429 26.1725H172.097V15.3717H160.429V26.1725ZM196.678 54.8296L194.63 59.8266L196.678 54.8296ZM190.497 50.1625L186.145 53.3599L186.166 53.3885L186.187 53.4168L190.497 50.1625ZM188.1 42.7203V37.3199H182.541L182.702 42.8767L188.1 42.7203ZM199.579 42.7203L204.951 42.1693L204.454 37.3199H199.579V42.7203ZM201.282 46.5044L197.641 50.4926L197.689 50.5367L197.738 50.5796L201.282 46.5044ZM208.85 46.6936L212.152 50.9669L212.212 50.9209L212.27 50.8733L208.85 46.6936ZM209.103 40.8913L205.284 44.7099L205.338 44.7645L205.395 44.8174L209.103 40.8913ZM206.391 39.1253L204.216 44.0684L204.251 44.0839L204.286 44.0989L206.391 39.1253ZM201.85 37.5486L200.256 42.7085L200.282 42.7165L200.308 42.7243L201.85 37.5486ZM194.849 34.8997L192.479 39.7523L194.849 34.8997ZM190.182 30.9894L194.489 27.7323L190.182 30.9894ZM192.705 14.5913L196.012 18.8606L196.03 18.8462L196.049 18.8315L192.705 14.5913ZM216.166 14.5913L212.822 18.8315L212.84 18.8462L212.859 18.8606L216.166 14.5913ZM220.96 24.304V29.7044H226.64L226.353 24.0316L220.96 24.304ZM209.292 24.304L203.901 24.6211L204.2 29.7044H209.292V24.304ZM207.715 20.9613L204.171 25.0365L204.223 25.0813L204.276 25.1248L207.715 20.9613ZM200.84 20.7721L204.319 24.903L204.381 24.8508L204.441 24.7967L200.84 20.7721ZM201.66 27.0791L204.417 22.4355L201.66 27.0791ZM207.967 29.6649L209.698 24.5492L209.664 24.5377L209.63 24.5267L207.967 29.6649ZM214.905 32.44L212.49 37.2702L212.512 37.2815L212.535 37.2926L214.905 32.44ZM219.572 36.2872L215.304 39.5953V39.5953L219.572 36.2872ZM219.572 49.6579L215.008 46.7706L214.987 46.8042L214.966 46.8381L219.572 49.6579ZM214.022 54.5773L211.607 49.747L214.022 54.5773ZM205.381 51.0059C202.73 51.0059 200.541 50.5765 198.726 49.8326L194.63 59.8266C197.944 61.185 201.558 61.8067 205.381 61.8067V51.0059ZM198.726 49.8326C196.989 49.1208 195.736 48.1381 194.807 46.9082L186.187 53.4168C188.37 56.3073 191.237 58.4361 194.63 59.8266L198.726 49.8326ZM194.849 46.965C194.07 45.9049 193.555 44.5223 193.499 42.5638L182.702 42.8767C182.814 46.7206 183.896 50.2994 186.145 53.3599L194.849 46.965ZM188.1 48.1207H199.579V37.3199H188.1V48.1207ZM194.207 43.2713C194.474 45.8767 195.46 48.5015 197.641 50.4926L204.923 42.5163C204.962 42.552 204.997 42.5912 205.023 42.6283C205.049 42.6646 205.058 42.6855 205.056 42.68C205.05 42.6668 204.987 42.5209 204.951 42.1693L194.207 43.2713ZM197.738 50.5796C199.888 52.4485 202.499 53.1662 205.066 53.1662V42.3654C204.772 42.3654 204.657 42.3257 204.661 42.3272C204.663 42.328 204.687 42.3362 204.723 42.3565C204.759 42.3771 204.795 42.4025 204.826 42.4293L197.738 50.5796ZM205.066 53.1662C207.426 53.1662 209.988 52.6391 212.152 50.9669L205.548 42.4204C205.694 42.3081 205.786 42.2884 205.738 42.3019C205.678 42.3191 205.472 42.3654 205.066 42.3654V53.1662ZM212.27 50.8733C214.573 48.9895 215.638 46.3593 215.638 43.6032H204.837C204.837 43.6095 204.839 43.4214 204.964 43.1415C205.096 42.8481 205.284 42.634 205.431 42.514L212.27 50.8733ZM215.638 43.6032C215.638 41.1079 214.707 38.7561 212.811 36.9651L205.395 44.8174C205.259 44.6897 205.092 44.4772 204.972 44.1906C204.855 43.9099 204.837 43.6899 204.837 43.6032H215.638ZM212.921 37.0726C211.637 35.7882 210.119 34.8388 208.495 34.1517L204.286 44.0989C204.849 44.3369 205.139 44.5647 205.284 44.7099L212.921 37.0726ZM208.566 34.1822C207.207 33.5847 205.443 32.9839 203.391 32.3729L200.308 42.7243C202.209 43.2905 203.471 43.7409 204.216 44.0684L208.566 34.1822ZM203.443 32.3886C200.735 31.5524 198.687 30.7643 197.219 30.047L192.479 39.7523C194.626 40.801 197.246 41.7789 200.256 42.7085L203.443 32.3886ZM197.219 30.047C196.229 29.5636 195.32 28.8309 194.489 27.7323L185.874 34.2464C187.65 36.5957 189.853 38.4698 192.479 39.7523L197.219 30.047ZM194.489 27.7323C194.074 27.1831 193.627 26.1766 193.627 24.2409H182.826C182.826 27.8554 183.682 31.3479 185.874 34.2464L194.489 27.7323ZM193.627 24.2409C193.627 21.6155 194.479 20.0476 196.012 18.8606L189.397 10.322C184.959 13.7601 182.826 18.6253 182.826 24.2409H193.627ZM196.049 18.8315C197.856 17.4062 200.47 16.4598 204.372 16.4598V5.65903C198.688 5.65903 193.524 7.06723 189.36 10.3511L196.049 18.8315ZM204.372 16.4598C208.384 16.4598 211.03 17.4186 212.822 18.8315L219.511 10.3511C215.332 7.05491 210.116 5.65903 204.372 5.65903V16.4598ZM212.859 18.8606C214.461 20.1016 215.426 21.803 215.566 24.5764L226.353 24.0316C226.073 18.4799 223.842 13.7061 219.474 10.322L212.859 18.8606ZM220.96 18.9036H209.292V29.7044H220.96V18.9036ZM214.683 23.9869C214.524 21.293 213.447 18.6914 211.154 16.7978L204.276 25.1248C204.225 25.0831 204.163 25.0222 204.1 24.9416C204.037 24.8608 203.987 24.7774 203.95 24.7001C203.875 24.5407 203.893 24.4846 203.901 24.6211L214.683 23.9869ZM211.259 16.8862C209.136 15.0406 206.561 14.2995 203.994 14.2995V25.1004C204.251 25.1004 204.343 25.1358 204.326 25.1298C204.318 25.1271 204.293 25.1177 204.259 25.0983C204.225 25.0789 204.195 25.0568 204.171 25.0365L211.259 16.8862ZM203.994 14.2995C201.663 14.2995 199.232 14.9649 197.24 16.7475L204.441 24.7967C204.367 24.8632 204.283 24.9241 204.195 24.9755C204.107 25.0266 204.028 25.0602 203.966 25.0809C203.844 25.1224 203.833 25.1004 203.994 25.1004V14.2995ZM197.362 16.6413C195.05 18.5879 194.242 21.2695 194.242 23.7364H205.043C205.043 23.6281 205.06 23.7667 204.949 24.0418C204.825 24.3467 204.607 24.6602 204.319 24.903L197.362 16.6413ZM194.242 23.7364C194.242 27.2799 196.106 30.0619 198.903 31.7226L204.417 22.4355C204.356 22.399 204.562 22.5086 204.77 22.8529C204.991 23.2196 205.043 23.5671 205.043 23.7364H194.242ZM198.903 31.7226C200.779 32.8364 203.345 33.8454 206.305 34.8031L209.63 24.5267C206.871 23.6343 205.233 22.9194 204.417 22.4355L198.903 31.7226ZM206.237 34.7806C208.97 35.7051 211.029 36.5396 212.49 37.2702L217.32 27.6097C215.249 26.5744 212.683 25.5588 209.698 24.5492L206.237 34.7806ZM212.535 37.2926C213.558 37.792 214.477 38.5283 215.304 39.5953L223.841 32.9791C222.061 30.6824 219.868 28.8538 217.275 27.5873L212.535 37.2926ZM215.304 39.5953C215.709 40.1184 216.127 41.0328 216.127 42.7833H226.928C226.928 39.236 226.042 35.8197 223.841 32.9791L215.304 39.5953ZM216.127 42.7833C216.127 44.3214 215.746 45.6053 215.008 46.7706L224.136 52.5452C226.005 49.59 226.928 46.2909 226.928 42.7833H216.127ZM214.966 46.8381C214.298 47.9292 213.261 48.92 211.607 49.747L216.437 59.4076C219.66 57.796 222.323 55.5071 224.178 52.4777L214.966 46.8381ZM211.607 49.747C210.064 50.5184 208.045 51.0059 205.381 51.0059V61.8067C209.361 61.8067 213.102 61.0749 216.437 59.4076L211.607 49.747ZM238.949 25.7546H233.549V44.1862L243.496 28.669L238.949 25.7546ZM243.301 21.7812L240.715 17.0402V17.0402L243.301 21.7812ZM257.681 22.475L254.819 27.0545L257.681 22.475ZM263.231 28.7819L258.386 31.1672L258.4 31.197L258.415 31.2267L263.231 28.7819ZM263.231 47.892L258.401 45.4768L258.393 45.4917L258.386 45.5067L263.231 47.892ZM257.681 54.262L260.543 58.8415L260.572 58.8233L260.601 58.8047L257.681 54.262ZM243.301 54.9557L240.715 59.6967L240.737 59.7089L240.76 59.7208L243.301 54.9557ZM238.949 51.0454L243.461 48.0773L233.549 33.011V51.0454H238.949ZM238.949 72.7413V78.1417H244.35V72.7413H238.949ZM228.164 72.7413H222.764V78.1417H228.164V72.7413ZM228.164 20.7721V15.3717H222.764V20.7721H228.164ZM238.949 20.7721H244.35V15.3717H238.949V20.7721ZM252.068 31.9985L248.144 35.7096L248.196 35.7641L248.249 35.8171L252.068 31.9985ZM241.094 31.9985L237.223 28.2325L237.196 28.2597L237.17 28.2873L241.094 31.9985ZM241.094 44.7385L237.17 48.4497L237.196 48.4773L237.223 48.5045L241.094 44.7385ZM252.068 44.7385L255.938 48.5045L255.963 48.4787L255.988 48.4526L252.068 44.7385ZM243.496 28.669C244.018 27.8549 244.766 27.1334 245.887 26.5222L240.715 17.0402C238.135 18.4473 235.983 20.3747 234.403 22.8402L243.496 28.669ZM245.887 26.5222C246.814 26.0166 248.06 25.668 249.797 25.668V14.8672C246.573 14.8672 243.488 15.5276 240.715 17.0402L245.887 26.5222ZM249.797 25.668C251.734 25.668 253.362 26.1441 254.819 27.0545L260.543 17.8955C257.291 15.8627 253.663 14.8672 249.797 14.8672V25.668ZM254.819 27.0545C256.239 27.9424 257.44 29.2453 258.386 31.1672L268.076 26.3967C266.331 22.8526 263.832 19.9508 260.543 17.8955L254.819 27.0545ZM258.415 31.2267C259.355 33.0772 259.912 35.3869 259.912 38.3054H270.713C270.713 33.992 269.882 29.9526 268.046 26.3372L258.415 31.2267ZM259.912 38.3054C259.912 41.2215 259.356 43.5664 258.401 45.4768L268.061 50.3071C269.881 46.6674 270.713 42.6213 270.713 38.3054H259.912ZM258.386 45.5067C257.434 47.4394 256.217 48.7829 254.76 49.7193L260.601 58.8047C263.854 56.7137 266.336 53.8106 268.076 50.2772L258.386 45.5067ZM254.819 49.6824C253.362 50.5929 251.734 51.069 249.797 51.069V61.8698C253.663 61.8698 257.291 60.8743 260.543 58.8415L254.819 49.6824ZM249.797 51.069C248.122 51.069 246.85 50.7284 245.842 50.1907L240.76 59.7208C243.536 61.2013 246.595 61.8698 249.797 61.8698V51.069ZM245.887 50.2147C244.734 49.5857 243.977 48.8619 243.461 48.0773L234.438 54.0136C236.024 56.4245 238.168 58.3076 240.715 59.6967L245.887 50.2147ZM233.549 51.0454V72.7413H244.35V51.0454H233.549ZM238.949 67.3409H228.164V78.1417H238.949V67.3409ZM233.565 72.7413V20.7721H222.764V72.7413H233.565ZM228.164 26.1725H238.949V15.3717H228.164V26.1725ZM233.549 20.7721V25.7546H244.35V20.7721H233.549ZM259.738 38.3054C259.738 34.5704 258.658 30.9512 255.886 28.1798L248.249 35.8171C248.505 36.0731 248.938 36.6585 248.938 38.3054H259.738ZM255.991 28.2873C253.475 25.628 250.216 24.2645 246.581 24.2645V35.0653C247.318 35.0653 247.717 35.2576 248.144 35.7096L255.991 28.2873ZM246.581 24.2645C242.958 24.2645 239.739 25.6462 237.223 28.2325L244.964 35.7645C245.475 35.2393 245.914 35.0653 246.581 35.0653V24.2645ZM237.17 28.2873C234.523 31.0859 233.486 34.6675 233.486 38.3685H244.286C244.286 36.6876 244.721 36.0224 245.017 35.7096L237.17 28.2873ZM233.486 38.3685C233.486 42.0695 234.523 45.651 237.17 48.4497L245.017 41.0273C244.721 40.7145 244.286 40.0494 244.286 38.3685H233.486ZM237.223 48.5045C239.739 51.0907 242.958 52.4725 246.581 52.4725V41.6716C245.914 41.6716 245.475 41.4977 244.964 40.9725L237.223 48.5045ZM246.581 52.4725C250.203 52.4725 253.422 51.0907 255.938 48.5045L248.197 40.9725C247.686 41.4977 247.247 41.6716 246.581 41.6716V52.4725ZM255.988 48.4526C258.654 45.6385 259.738 42.0535 259.738 38.3054H248.938C248.938 39.9392 248.509 40.6429 248.147 41.0244L255.988 48.4526ZM271.727 15.4743L267.978 19.3617L268.049 19.4298L268.122 19.4953L271.727 15.4743ZM271.727 7.14913L275.402 11.1065L275.407 11.1017L271.727 7.14913ZM280.935 7.14913L277.187 11.0366L277.257 11.1047L277.33 11.1701L280.935 7.14913ZM280.935 15.4743L284.61 19.4317L284.615 19.4268L280.935 15.4743ZM281.755 20.7721H287.155V15.3717H281.755V20.7721ZM281.755 55.9648V61.3653H287.155V55.9648H281.755ZM270.97 55.9648H265.57V61.3653H270.97V55.9648ZM270.97 20.7721V15.3717H265.57V20.7721H270.97ZM276.394 11.7137C275.612 11.7137 275.408 11.5215 275.332 11.4533L268.122 19.4953C270.485 21.6135 273.392 22.5145 276.394 22.5145V11.7137ZM275.476 11.5868C275.416 11.5293 275.388 11.4923 275.379 11.4786C275.37 11.4658 275.371 11.465 275.374 11.4731C275.377 11.4811 275.376 11.4805 275.373 11.4635C275.369 11.4454 275.361 11.3974 275.361 11.3117H264.561C264.561 14.4135 265.742 17.2056 267.978 19.3617L275.476 11.5868ZM275.361 11.3117C275.361 11.2069 275.371 11.1468 275.375 11.1227C275.38 11.0999 275.381 11.1018 275.374 11.1188C275.367 11.1362 275.358 11.1503 275.354 11.1561C275.35 11.1611 275.362 11.1437 275.402 11.1065L268.052 3.19175C265.718 5.35951 264.561 8.20748 264.561 11.3117H275.361ZM275.407 11.1017C275.49 11.0245 275.668 10.8467 276.394 10.8467V0.0458488C273.336 0.0458488 270.403 1.00323 268.047 3.19661L275.407 11.1017ZM276.394 10.8467C276.764 10.8467 276.951 10.9024 277.021 10.9285C277.078 10.9502 277.123 10.975 277.187 11.0366L284.684 3.26168C282.365 1.02608 279.444 0.0458488 276.394 0.0458488V10.8467ZM277.33 11.1701C277.378 11.2127 277.392 11.2335 277.389 11.229C277.385 11.2235 277.373 11.2065 277.363 11.1821C277.352 11.158 277.351 11.1466 277.353 11.1576C277.355 11.1701 277.364 11.2184 277.364 11.3117H288.165C288.165 8.14253 286.937 5.27682 284.54 3.12815L277.33 11.1701ZM277.364 11.3117C277.364 11.3857 277.357 11.4216 277.356 11.4281C277.355 11.4334 277.356 11.4246 277.363 11.4098C277.369 11.395 277.372 11.3928 277.363 11.4057C277.353 11.4196 277.322 11.4595 277.255 11.5218L284.615 19.4268C286.912 17.2885 288.165 14.4777 288.165 11.3117H277.364ZM277.26 11.5169C277.233 11.5422 277.102 11.7137 276.394 11.7137V22.5145C279.386 22.5145 282.282 21.5928 284.61 19.4317L277.26 11.5169ZM276.355 20.7721V55.9648H287.155V20.7721H276.355ZM281.755 50.5644H270.97V61.3653H281.755V50.5644ZM276.371 55.9648V20.7721H265.57V55.9648H276.371ZM270.97 26.1725H281.755V15.3717H270.97V26.1725ZM320.853 24.4301L316.852 28.0566L316.881 28.0894L316.911 28.1216L320.853 24.4301ZM324.574 55.9648V61.3653H329.975V55.9648H324.574ZM313.852 55.9648H308.452V61.3653H313.852V55.9648ZM312.023 31.3678L308.08 35.0571V35.0571L312.023 31.3678ZM302.185 31.3678L306.128 35.0571V35.0571L302.185 31.3678ZM300.356 55.9648V61.3653H305.756V55.9648H300.356ZM289.571 55.9648H284.17V61.3653H289.571V55.9648ZM289.571 20.7721V15.3717H284.17V20.7721H289.571ZM300.356 20.7721H305.756V15.3717H300.356V20.7721ZM300.356 25.4393H294.955V42.5174L304.774 28.5442L300.356 25.4393ZM304.77 21.7812L307.097 26.655L307.141 26.6337L307.186 26.6115L304.77 21.7812ZM311.014 25.7941C313.837 25.7941 315.58 26.6533 316.852 28.0566L324.855 20.8037C321.249 16.8251 316.432 14.9933 311.014 14.9933V25.7941ZM316.911 28.1216C318.21 29.5082 319.174 31.7019 319.174 35.4042H329.975C329.975 29.7722 328.458 24.6499 324.795 20.7387L316.911 28.1216ZM319.174 35.4042V55.9648H329.975V35.4042H319.174ZM324.574 50.5644H313.852V61.3653H324.574V50.5644ZM319.253 55.9648V36.8548H308.452V55.9648H319.253ZM319.253 36.8548C319.253 33.5792 318.39 30.268 315.967 27.6785L308.08 35.0571C308.096 35.0744 308.452 35.4213 308.452 36.8548H319.253ZM315.967 27.6785C313.566 25.1118 310.406 24.0122 307.104 24.0122V34.813C307.564 34.813 307.796 34.8849 307.885 34.92C307.956 34.9484 308.007 34.9798 308.08 35.0571L315.967 27.6785ZM307.104 24.0122C303.802 24.0122 300.642 25.1118 298.241 27.6785L306.128 35.0571C306.201 34.9798 306.252 34.9484 306.324 34.92C306.412 34.8849 306.644 34.813 307.104 34.813V24.0122ZM298.241 27.6785C295.818 30.268 294.955 33.5792 294.955 36.8548H305.756C305.756 35.4213 306.112 35.0744 306.128 35.0571L298.241 27.6785ZM294.955 36.8548V55.9648H305.756V36.8548H294.955ZM300.356 50.5644H289.571V61.3653H300.356V50.5644ZM294.971 55.9648V20.7721H284.17V55.9648H294.971ZM289.571 26.1725H300.356V15.3717H289.571V26.1725ZM294.955 20.7721V25.4393H305.756V20.7721H294.955ZM304.774 28.5442C305.292 27.8071 306.017 27.1702 307.097 26.655L302.444 16.9075C299.824 18.1582 297.605 19.96 295.937 22.3343L304.774 28.5442ZM307.186 26.6115C308.201 26.1037 309.44 25.7941 311.014 25.7941V14.9933C307.963 14.9933 305.04 15.6087 302.355 16.951L307.186 26.6115ZM338.186 54.8927L340.356 49.947L338.186 54.8927ZM332.51 50.6039L328.19 53.8442L328.208 53.8681L328.226 53.8918L332.51 50.6039ZM330.177 44.4231V39.0227H324.361L324.791 44.8221L330.177 44.4231ZM340.835 44.4231L346.207 43.8674L345.706 39.0227H340.835V44.4231ZM342.538 47.3874L345.778 43.0671L342.538 47.3874ZM349.35 47.7658L352.464 52.1778L352.488 52.1609L352.512 52.1438L349.35 47.7658ZM348.908 43.4771L346.571 48.3457L346.652 48.3843L346.733 48.4202L348.908 43.4771ZM343.8 41.8373L345.109 36.5981L345.068 36.5878L345.027 36.5782L343.8 41.8373ZM337.493 40.0083L335.487 45.0224L335.541 45.0442L335.596 45.0648L337.493 40.0083ZM333.141 36.9179L329.032 40.4225L329.058 40.4528L329.084 40.4828L333.141 36.9179ZM332.952 25.6915L328.475 22.6702L328.467 22.683L328.458 22.6959L332.952 25.6915ZM337.871 21.7182L335.687 16.7793L335.669 16.7872L335.651 16.7952L337.871 21.7182ZM356.035 23.5472L352.498 27.6282L352.515 27.6427L352.532 27.657L356.035 23.5472ZM360.45 32.2508V37.6512H366.445L365.821 31.6887L360.45 32.2508ZM350.485 32.2508L345.135 32.9886L345.778 37.6512H350.485V32.2508ZM348.845 29.3496L345.447 33.547L345.495 33.5855L345.543 33.6228L348.845 29.3496ZM342.412 29.0342L345.472 33.4844L345.563 33.4213L345.652 33.3545L342.412 29.0342ZM342.98 33.2599L340.643 38.1285L340.68 38.1461L340.717 38.1632L342.98 33.2599ZM348.025 34.7735L349.375 29.5444L349.286 29.5216L349.197 29.5017L348.025 34.7735ZM354.395 36.7917L352.345 41.788L352.401 41.8107L352.457 41.8322L354.395 36.7917ZM358.684 39.9452L354.526 43.3908L354.579 43.4554L354.635 43.5182L358.684 39.9452ZM360.639 45.7476H366.039V45.701L366.039 45.6545L360.639 45.7476ZM358.873 51.2977L354.486 48.1482L354.479 48.1589L354.471 48.1698L358.873 51.2977ZM353.891 55.0819L351.786 50.1083L351.769 50.1157L351.752 50.1232L353.891 55.0819ZM346.385 51.069C343.935 51.069 341.96 50.6509 340.356 49.947L336.017 59.8383C339.206 61.2367 342.697 61.8698 346.385 61.8698V51.069ZM340.356 49.947C338.667 49.2066 337.55 48.3011 336.794 47.3161L328.226 53.8918C330.245 56.5227 332.912 58.4764 336.017 59.8383L340.356 49.947ZM336.83 47.3637C336.052 46.3257 335.653 45.2482 335.562 44.0242L324.791 44.8221C325.037 48.1391 326.193 51.1821 328.19 53.8442L336.83 47.3637ZM330.177 49.8236H340.835V39.0227H330.177V49.8236ZM335.464 44.9788C335.75 47.7437 337.124 50.0775 339.298 51.7077L345.778 43.0671C345.797 43.0813 345.92 43.1821 346.038 43.3886C346.159 43.5985 346.198 43.783 346.207 43.8674L335.464 44.9788ZM339.298 51.7077C341.391 53.2779 343.821 53.9231 346.259 53.9231V43.1222C345.987 43.1222 345.847 43.0875 345.801 43.0735C345.777 43.0663 345.769 43.0618 345.772 43.0629C345.772 43.0631 345.774 43.0639 345.775 43.0651C345.776 43.0656 345.777 43.0661 345.778 43.0665C345.778 43.0669 345.778 43.0671 345.778 43.0671L339.298 51.7077ZM346.259 53.9231C348.159 53.9231 350.468 53.5869 352.464 52.1778L346.235 43.3539C346.534 43.1431 346.75 43.0895 346.756 43.088C346.761 43.0869 346.725 43.096 346.639 43.1051C346.553 43.1142 346.429 43.1222 346.259 43.1222V53.9231ZM352.512 52.1438C354.495 50.7116 355.885 48.4697 355.885 45.6845H345.085C345.085 45.2612 345.189 44.7468 345.46 44.2496C345.721 43.7716 346.03 43.5016 346.188 43.3878L352.512 52.1438ZM355.885 45.6845C355.885 44.1908 355.477 42.6258 354.485 41.2369C353.525 39.8925 352.261 39.0522 351.083 38.534L346.733 48.4202C346.607 48.3645 346.131 48.1234 345.696 47.5148C345.23 46.8617 345.085 46.1691 345.085 45.6845H355.885ZM351.245 38.6085C349.673 37.854 347.524 37.2017 345.109 36.5981L342.49 47.0765C344.785 47.6502 346.041 48.0911 346.571 48.3457L351.245 38.6085ZM345.027 36.5782C342.641 36.0215 340.78 35.4735 339.389 34.9517L335.596 45.0648C337.569 45.8045 339.912 46.4758 342.572 47.0964L345.027 36.5782ZM339.498 34.9941C338.62 34.643 337.868 34.116 337.197 33.353L329.084 40.4828C330.852 42.4948 333.001 44.0281 335.487 45.0224L339.498 34.9941ZM337.25 33.4133C337.073 33.2057 336.712 32.6534 336.712 31.1786H325.911C325.911 34.497 326.77 37.771 329.032 40.4225L337.25 33.4133ZM336.712 31.1786C336.712 30.1993 336.958 29.4174 337.445 28.6871L328.458 22.6959C326.759 25.2452 325.911 28.1214 325.911 31.1786H336.712ZM337.428 28.7129C337.918 27.9872 338.713 27.2628 340.091 26.6411L335.651 16.7952C332.741 18.1076 330.256 20.0322 328.475 22.6702L337.428 28.7129ZM340.056 26.657C341.405 26.06 343.214 25.668 345.629 25.668V14.8672C342.072 14.8672 338.71 15.4422 335.687 16.7793L340.056 26.657ZM345.629 25.668C349.169 25.668 351.237 26.535 352.498 27.6282L359.572 19.4661C355.788 16.1865 350.918 14.8672 345.629 14.8672V25.668ZM352.532 27.657C353.954 28.8695 354.832 30.4562 355.079 32.8128L365.821 31.6887C365.311 26.8133 363.246 22.5976 359.538 19.4374L352.532 27.657ZM360.45 26.8503H350.485V37.6512H360.45V26.8503ZM355.835 31.5129C355.485 28.9746 354.255 26.7054 352.147 25.0763L345.543 33.6228C345.466 33.5636 345.347 33.4438 345.247 33.2683C345.151 33.0977 345.134 32.981 345.135 32.9886L355.835 31.5129ZM352.243 25.1521C350.146 23.4543 347.652 22.877 345.313 22.877V33.6778C345.618 33.6778 345.739 33.7154 345.731 33.713C345.725 33.7112 345.69 33.6998 345.635 33.671C345.579 33.6418 345.514 33.6008 345.447 33.547L352.243 25.1521ZM345.313 22.877C343.439 22.877 341.143 23.2356 339.172 24.7139L345.652 33.3545C345.333 33.5944 345.075 33.674 345.005 33.6921C344.945 33.7078 345.028 33.6778 345.313 33.6778V22.877ZM339.353 24.584C337.163 26.0897 336.003 28.4339 336.003 30.9894H346.803C346.803 31.3036 346.736 31.8013 346.454 32.3467C346.169 32.8983 345.784 33.2694 345.472 33.4844L339.353 24.584ZM336.003 30.9894C336.003 32.4853 336.411 34.0252 337.361 35.3942C338.281 36.7183 339.494 37.5772 340.643 38.1285L345.317 28.3913C345.414 28.4379 345.839 28.6662 346.233 29.2335C346.658 29.8456 346.803 30.5025 346.803 30.9894H336.003ZM340.717 38.1632C342.348 38.9161 344.486 39.5193 346.854 40.0453L349.197 29.5017C347.023 29.0187 345.798 28.6127 345.243 28.3565L340.717 38.1632ZM346.676 40.0026C349.153 40.6419 351.018 41.2434 352.345 41.788L356.445 31.7955C354.493 30.9946 352.111 30.2506 349.375 29.5444L346.676 40.0026ZM352.457 41.8322C353.157 42.1016 353.844 42.568 354.526 43.3908L362.842 36.4997C361.085 34.3792 358.913 32.7432 356.334 31.7513L352.457 41.8322ZM354.635 43.5182C354.832 43.7417 355.213 44.3185 355.239 45.8407L366.039 45.6545C365.981 42.2993 365.059 39.0079 362.733 36.3722L354.635 43.5182ZM355.239 45.7476C355.239 46.7028 354.99 47.4464 354.486 48.1482L363.26 54.4473C365.111 51.8694 366.039 48.9129 366.039 45.7476H355.239ZM354.471 48.1698C354.027 48.7937 353.246 49.4907 351.786 50.1083L355.995 60.0555C358.908 58.823 361.448 56.9972 363.275 54.4257L354.471 48.1698ZM351.752 50.1232C350.416 50.6992 348.67 51.069 346.385 51.069V61.8698C349.819 61.8698 353.076 61.3146 356.03 60.0406L351.752 50.1232ZM390.063 53.5051L387.421 58.2151L387.433 58.2219L387.445 58.2286L390.063 53.5051ZM381.801 45.4323L377.126 48.1358L377.145 48.1693L377.165 48.2024L381.801 45.4323ZM381.801 22.0335L377.165 19.2633L377.153 19.2843L377.14 19.3053L381.801 22.0335ZM390.063 13.9606L387.445 9.23714L387.433 9.24389L387.421 9.2507L390.063 13.9606ZM412.957 13.9606L410.315 18.6706L410.327 18.6774L410.339 18.6841L412.957 13.9606ZM421.156 22.0335L416.471 24.719L416.483 24.7404L416.495 24.7617L421.156 22.0335ZM421.156 45.4323L425.817 48.1604L425.824 48.1482L425.831 48.1358L421.156 45.4323ZM412.957 53.5051L415.599 58.2151H415.599L412.957 53.5051ZM409.993 43.0356L406 39.3994L405.982 39.419L405.964 39.4389L409.993 43.0356ZM409.993 24.3671L405.964 27.9638L405.998 28.0018L406.033 28.039L409.993 24.3671ZM392.964 24.304L389.004 20.6321L388.986 20.6516L388.968 20.6713L392.964 24.304ZM392.964 43.0987L388.936 46.6954L388.97 46.7334L389.004 46.7706L392.964 43.0987ZM401.542 51.0059C398.254 51.0059 395.334 50.2523 392.681 48.7816L387.445 58.2286C391.771 60.6263 396.504 61.8067 401.542 61.8067V51.0059ZM392.705 48.7952C390.093 47.3302 388.021 45.3139 386.437 42.6621L377.165 48.2024C379.701 52.4462 383.137 55.8119 387.421 58.2151L392.705 48.7952ZM386.476 42.7287C384.968 40.1215 384.174 37.1557 384.174 33.7013H373.373C373.373 38.9085 374.597 43.7633 377.126 48.1358L386.476 42.7287ZM384.174 33.7013C384.174 30.2463 384.968 27.3129 386.461 24.7617L377.14 19.3053C374.597 23.6497 373.373 28.4949 373.373 33.7013H384.174ZM386.437 24.8037C388.021 22.1519 390.093 20.1356 392.705 18.6706L387.421 9.2507C383.137 11.6539 379.701 15.0196 377.165 19.2633L386.437 24.8037ZM392.681 18.6841C395.334 17.2135 398.254 16.4598 401.542 16.4598V5.65903C396.504 5.65903 391.771 6.8395 387.445 9.23714L392.681 18.6841ZM401.542 16.4598C404.83 16.4598 407.717 17.2134 410.315 18.6706L415.599 9.2507C411.301 6.83963 406.579 5.65903 401.542 5.65903V16.4598ZM410.339 18.6841C412.97 20.1424 414.987 22.1302 416.471 24.719L425.841 19.348C423.373 15.0413 419.923 11.6471 415.575 9.23714L410.339 18.6841ZM416.495 24.7617C417.989 27.3129 418.783 30.2463 418.783 33.7013H429.584C429.584 28.4949 428.36 23.6497 425.817 19.3053L416.495 24.7617ZM418.783 33.7013C418.783 37.1557 417.989 40.1215 416.481 42.7287L425.831 48.1358C428.36 43.7633 429.584 38.9085 429.584 33.7013H418.783ZM416.495 42.7041C414.957 45.3329 412.917 47.3358 410.315 48.7952L415.599 58.2151C419.893 55.8062 423.319 52.4272 425.817 48.1604L416.495 42.7041ZM410.315 48.7952C407.717 50.2524 404.83 51.0059 401.542 51.0059V61.8067C406.579 61.8067 411.301 60.6261 415.599 58.2151L410.315 48.7952ZM401.542 51.9679C406.408 51.9679 410.766 50.2782 414.021 46.6324L405.964 39.4389C405.015 40.5022 403.739 41.1671 401.542 41.1671V51.9679ZM413.986 46.6719C417.221 43.1191 418.61 38.6112 418.61 33.7013H407.809C407.809 36.528 407.053 38.2429 406 39.3994L413.986 46.6719ZM418.61 33.7013C418.61 28.7713 417.232 24.2316 413.953 20.6951L406.033 28.039C407.042 29.1277 407.809 30.8108 407.809 33.7013H418.61ZM414.021 20.7703C410.766 17.1245 406.408 15.4348 401.542 15.4348V26.2356C403.739 26.2356 405.015 26.9005 405.964 27.9638L414.021 20.7703ZM401.542 15.4348C396.685 15.4348 392.311 17.0653 389.004 20.6321L396.924 27.976C397.905 26.9176 399.25 26.2356 401.542 26.2356V15.4348ZM388.968 20.6713C385.741 24.2206 384.41 28.7743 384.41 33.7013H395.211C395.211 30.7237 395.982 29.0125 396.96 27.9367L388.968 20.6713ZM384.41 33.7013C384.41 38.6084 385.752 43.1299 388.936 46.6954L396.992 39.5019C395.971 38.3583 395.211 36.6149 395.211 33.7013H384.41ZM389.004 46.7706C392.311 50.3374 396.685 51.9679 401.542 51.9679V41.1671C399.25 41.1671 397.905 40.4851 396.924 39.4267L389.004 46.7706ZM446.014 45.8737L440.847 47.4446L446.014 64.4398L451.181 47.4446L446.014 45.8737ZM453.645 20.7721V15.3717H449.643L448.478 19.2013L453.645 20.7721ZM465.124 20.7721L470.213 22.5781L472.77 15.3717H465.124V20.7721ZM452.636 55.9648V61.3653H456.45L457.726 57.7708L452.636 55.9648ZM439.328 55.9648L434.239 57.7708L435.514 61.3653H439.328V55.9648ZM426.841 20.7721V15.3717H419.194L421.751 22.5781L426.841 20.7721ZM438.382 20.7721L443.549 19.2013L442.385 15.3717H438.382V20.7721ZM451.181 47.4446L458.812 22.343L448.478 19.2013L440.847 44.3029L451.181 47.4446ZM453.645 26.1725H465.124V15.3717H453.645V26.1725ZM460.034 18.9662L447.547 54.1589L457.726 57.7708L470.213 22.5781L460.034 18.9662ZM452.636 50.5644H439.328V61.3653H452.636V50.5644ZM444.418 54.1589L431.93 18.9662L421.751 22.5781L434.239 57.7708L444.418 54.1589ZM426.841 26.1725H438.382V15.3717H426.841V26.1725ZM433.216 22.343L440.847 47.4446L451.181 44.3029L443.549 19.2013L433.216 22.343ZM502.649 40.9543V46.3547H507.462L508.013 41.5733L502.649 40.9543ZM478.241 40.9543V35.5539H472.409L472.856 41.3685L478.241 40.9543ZM480.322 45.9999L476.571 49.8849L476.639 49.9507L476.709 50.014L480.322 45.9999ZM490.539 44.297V38.8966H487.088L485.639 42.0282L490.539 44.297ZM502.018 44.297L507.251 45.6292L508.965 38.8966H502.018V44.297ZM498.801 50.5409L494.668 47.0652L494.645 47.093L494.622 47.1211L498.801 50.5409ZM493.062 54.8927L495.297 59.809L493.062 54.8927ZM476.096 54.262L473.505 59.0001L476.096 54.262ZM469.79 47.955L474.514 45.3385L469.79 47.955ZM469.726 28.7819L465.002 26.1654L464.987 26.1934L464.972 26.2216L469.726 28.7819ZM476.033 22.475L478.625 27.2132L476.033 22.475ZM494.387 22.4119L491.822 27.1644L494.387 22.4119ZM500.567 28.5297L495.847 31.1523L495.862 31.1808L495.879 31.209L500.567 28.5297ZM491.801 34.9627V40.3631H497.201V34.9627H491.801ZM489.909 30.5479L493.446 26.4668L489.909 30.5479ZM480.574 30.4848L477.117 26.3361L477.082 26.365L477.048 26.3945L480.574 30.4848ZM478.304 34.9627L472.965 34.1503L472.02 40.3631H478.304V34.9627ZM497.437 37.8009C497.437 38.5856 497.388 39.4294 497.284 40.3353L508.013 41.5733C508.161 40.2929 508.238 39.0344 508.238 37.8009H497.437ZM502.649 35.5539H478.241V46.3547H502.649V35.5539ZM472.856 41.3685C473.095 44.4756 474.149 47.5462 476.571 49.8849L484.073 42.1148C484.057 42.099 483.723 41.8058 483.625 40.5401L472.856 41.3685ZM476.709 50.014C479.031 52.1034 481.879 53.1032 484.926 53.1032V42.3023C484.357 42.3023 484.136 42.1669 483.935 41.9858L476.709 50.014ZM484.926 53.1032C487.033 53.1032 489.194 52.6543 491.149 51.4683C493.129 50.2671 494.53 48.5312 495.44 46.5658L485.639 42.0282C485.561 42.1961 485.506 42.2622 485.499 42.2704C485.496 42.2742 485.514 42.2539 485.546 42.2343C485.63 42.1836 485.51 42.3023 484.926 42.3023V53.1032ZM490.539 49.6974H502.018V38.8966H490.539V49.6974ZM496.784 42.9648C496.399 44.4786 495.707 45.8293 494.668 47.0652L502.935 54.0166C505.007 51.5524 506.46 48.7405 507.251 45.6292L496.784 42.9648ZM494.622 47.1211C493.666 48.2897 492.434 49.2461 490.827 49.9763L495.297 59.809C498.315 58.4369 500.91 56.4921 502.981 53.9606L494.622 47.1211ZM490.827 49.9763C489.3 50.6706 487.49 51.069 485.305 51.069V61.8698C488.838 61.8698 492.199 61.217 495.297 59.809L490.827 49.9763ZM485.305 51.069C482.648 51.069 480.49 50.5092 478.688 49.5238L473.505 59.0001C477.085 60.958 481.065 61.8698 485.305 61.8698V51.069ZM478.688 49.5238C476.912 48.5527 475.542 47.1942 474.514 45.3385L465.065 50.5715C467.065 54.1819 469.899 57.028 473.505 59.0001L478.688 49.5238ZM474.514 45.3385C473.514 43.5334 472.919 41.2683 472.919 38.3685H462.119C462.119 42.7847 463.038 46.9107 465.065 50.5715L474.514 45.3385ZM472.919 38.3685C472.919 35.4445 473.503 33.1589 474.481 31.3423L464.972 26.2216C463.007 29.871 462.119 33.9764 462.119 38.3685H472.919ZM474.451 31.3984C475.478 29.5428 476.849 28.1843 478.625 27.2132L473.442 17.7368C469.836 19.7089 467.002 22.5551 465.002 26.1654L474.451 31.3984ZM478.625 27.2132C480.417 26.2329 482.594 25.668 485.305 25.668V14.8672C481.036 14.8672 477.032 15.7738 473.442 17.7368L478.625 27.2132ZM485.305 25.668C487.934 25.668 490.06 26.2134 491.822 27.1644L496.951 17.6594C493.416 15.7513 489.487 14.8672 485.305 14.8672V25.668ZM491.822 27.1644C493.557 28.1009 494.872 29.3982 495.847 31.1523L505.288 25.907C503.319 22.3633 500.514 19.5821 496.951 17.6594L491.822 27.1644ZM495.879 31.209C496.857 32.921 497.437 35.059 497.437 37.8009H508.238C508.238 33.479 507.305 29.4361 505.256 25.8503L495.879 31.209ZM497.201 34.9627C497.201 31.737 496.027 28.7043 493.446 26.4668L486.372 34.6289C486.4 34.6536 486.402 34.6595 486.391 34.6447C486.379 34.6291 486.369 34.6112 486.364 34.5988C486.35 34.566 486.4 34.6563 486.4 34.9627H497.201ZM493.446 26.4668C491.071 24.4089 488.185 23.5077 485.178 23.5077V34.3085C485.956 34.3085 486.224 34.5005 486.372 34.6289L493.446 26.4668ZM485.178 23.5077C482.244 23.5077 479.449 24.3928 477.117 26.3361L484.032 34.6335C484.222 34.4745 484.497 34.3085 485.178 34.3085V23.5077ZM477.048 26.3945C474.654 28.4582 473.41 31.228 472.965 34.1503L483.643 35.7752C483.787 34.8292 484.056 34.6137 484.101 34.5751L477.048 26.3945ZM478.304 40.3631H491.801V29.5623H478.304V40.3631ZM519.312 26.6376H513.912V44.8042L523.836 29.5876L519.312 26.6376ZM524.042 22.0966L526.744 26.7726L526.783 26.7503L526.821 26.7274L524.042 22.0966ZM530.349 20.3937H535.75V14.9933H530.349V20.3937ZM530.349 31.8093V37.2097H535.75V31.8093H530.349ZM521.331 33.5752L524.813 37.7027L524.85 37.6714L524.887 37.6394L521.331 33.5752ZM519.312 55.9648V61.3653H524.713V55.9648H519.312ZM508.527 55.9648H503.127V61.3653H508.527V55.9648ZM508.527 20.7721V15.3717H503.127V20.7721H508.527ZM519.312 20.7721H524.713V15.3717H519.312V20.7721ZM523.836 29.5876C524.661 28.3225 525.628 27.4175 526.744 26.7726L521.341 17.4206C518.673 18.9621 516.487 21.0844 514.789 23.6875L523.836 29.5876ZM526.821 26.7274C527.833 26.1204 528.967 25.7941 530.349 25.7941V14.9933C527.107 14.9933 524.037 15.8022 521.264 17.4658L526.821 26.7274ZM524.949 20.3937V31.8093H535.75V20.3937H524.949ZM530.349 26.4089H527.385V37.2097H530.349V26.4089ZM527.385 26.4089C524.026 26.4089 520.498 27.1282 517.774 29.511L524.887 37.6394C524.887 37.6393 524.888 37.6382 524.891 37.636C524.894 37.6338 524.898 37.6304 524.905 37.6259C524.918 37.617 524.941 37.6025 524.976 37.5841C525.046 37.5472 525.17 37.4921 525.365 37.4351C525.768 37.3176 526.416 37.2097 527.385 37.2097V26.4089ZM517.848 29.4477C514.684 32.117 513.912 36.1439 513.912 39.6299H524.713C524.713 38.5636 524.84 37.9471 524.94 37.6481C525.028 37.3839 525.044 37.508 524.813 37.7027L517.848 29.4477ZM513.912 39.6299V55.9648H524.713V39.6299H513.912ZM519.312 50.5644H508.527V61.3653H519.312V50.5644ZM513.928 55.9648V20.7721H503.127V55.9648H513.928ZM508.527 26.1725H519.312V15.3717H508.527V26.1725ZM513.912 20.7721V26.6376H524.713V20.7721H513.912Z" fill="url(#paint0_linear_187_3929)" mask="url(#path-1-outside-1_187_3929)"/>
</g>
<defs>
<filter id="filter0_d_187_3929" x="0.595687" y="0.0458984" width="539.475" height="86.7364" filterUnits="userSpaceOnUse" color-interpolation-filters="sRGB">
<feFlood flood-opacity="0" result="BackgroundImageFix"/>
<feColorMatrix in="SourceAlpha" type="matrix" values="0 0 0 0 0 0 0 0 0 0 0 0 0 0 0 0 0 0 127 0" result="hardAlpha"/>
<feOffset dy="4.32033"/>
<feGaussianBlur stdDeviation="2.16016"/>
<feComposite in2="hardAlpha" operator="out"/>
<feColorMatrix type="matrix" values="0 0 0 0 0 0 0 0 0 0 0 0 0 0 0 0 0 0 0.25 0"/>
<feBlend mode="normal" in2="BackgroundImageFix" result="effect1_dropShadow_187_3929"/>
<feBlend mode="normal" in="SourceGraphic" in2="effect1_dropShadow_187_3929" result="shape"/>
</filter>
<linearGradient id="paint0_linear_187_3929" x1="6" y1="33.4648" x2="532" y2="33.4648" gradientUnits="userSpaceOnUse">
<stop stop-color="#1ED760"/>
<stop offset="1" stop-color="#107132"/>
</linearGradient>
</defs>
</svg>
