<svg width="161" height="34" viewBox="0 0 161 34" fill="none" xmlns="http://www.w3.org/2000/svg">
<g filter="url(#filter0_dd_191_4537)">
<path d="M22.8601 5.34732V9.99531H17.8952V24.0449H12.0324V9.99531H7.12031V5.34732H22.8601ZM34.8818 9.04458C36.5896 9.04458 37.9188 9.61678 38.8696 10.7612C39.8379 11.9056 40.3221 13.4549 40.3221 15.4092V24.0449H34.4857V16.1486C34.4857 15.4444 34.292 14.8898 33.9047 14.4848C33.5349 14.0623 33.0332 13.851 32.3993 13.851C31.7479 13.851 31.2373 14.0623 30.8676 14.4848C30.4979 14.8898 30.313 15.4444 30.313 16.1486V24.0449H24.4502V4.50223H30.313V11.4214C30.7708 10.7172 31.3782 10.145 32.1353 9.70481C32.9099 9.26466 33.8254 9.04458 34.8818 9.04458ZM42.0721 16.5976C42.0721 15.0306 42.3362 13.675 42.8643 12.5306C43.4101 11.3686 44.1496 10.4883 45.0827 9.88967C46.0158 9.27346 47.0634 8.96536 48.2254 8.96536C49.1937 8.96536 50.03 9.16783 50.7342 9.57276C51.4385 9.9601 51.9755 10.4971 52.3452 11.1837V9.15022H58.1816V24.0449H52.3452V22.0114C51.9755 22.6981 51.4385 23.2438 50.7342 23.6488C50.03 24.0361 49.1937 24.2298 48.2254 24.2298C47.0634 24.2298 46.0158 23.9305 45.0827 23.3319C44.1496 22.7157 43.4101 21.8354 42.8643 20.691C42.3362 19.529 42.0721 18.1645 42.0721 16.5976ZM52.3452 16.5976C52.3452 15.8053 52.1427 15.1891 51.7378 14.7489C51.3328 14.3088 50.8135 14.0887 50.1796 14.0887C49.5458 14.0887 49.0264 14.3088 48.6215 14.7489C48.2166 15.1891 48.0141 15.8053 48.0141 16.5976C48.0141 17.3898 48.2166 18.0061 48.6215 18.4462C49.0264 18.8864 49.5458 19.1064 50.1796 19.1064C50.8135 19.1064 51.3328 18.8864 51.7378 18.4462C52.1427 18.0061 52.3452 17.3898 52.3452 16.5976ZM71.2458 9.04458C72.9536 9.04458 74.2828 9.61678 75.2336 10.7612C76.2019 11.9056 76.6861 13.4549 76.6861 15.4092V24.0449H70.8497V16.1486C70.8497 15.4444 70.656 14.8898 70.2687 14.4848C69.8989 14.0623 69.3972 13.851 68.7634 13.851C68.1119 13.851 67.6014 14.0623 67.2316 14.4848C66.8619 14.8898 66.677 15.4444 66.677 16.1486V24.0449H60.8142V9.15022H66.677V11.4214C67.1348 10.7172 67.7422 10.145 68.4993 9.70481C69.2739 9.26466 70.1894 9.04458 71.2458 9.04458ZM88.762 24.0449L85.0912 18.1029V24.0449H79.2284V4.50223H85.0912V14.7225L88.8148 9.15022H95.6284L90.0561 16.6504L95.7604 24.0449H88.762ZM119.521 5.34732L112.813 18.367V24.0449H106.95V18.367L100.242 5.34732H106.95L109.934 11.976L112.918 5.34732H119.521ZM127.931 24.2298C126.435 24.2298 125.088 23.9217 123.891 23.3055C122.693 22.6893 121.751 21.809 121.065 20.6646C120.396 19.5026 120.061 18.1469 120.061 16.5976C120.061 15.0482 120.396 13.7014 121.065 12.557C121.751 11.395 122.693 10.5059 123.891 9.88967C125.088 9.27346 126.435 8.96536 127.931 8.96536C129.428 8.96536 130.775 9.27346 131.972 9.88967C133.169 10.5059 134.102 11.395 134.771 12.557C135.458 13.7014 135.801 15.0482 135.801 16.5976C135.801 18.1469 135.458 19.5026 134.771 20.6646C134.102 21.809 133.169 22.6893 131.972 23.3055C130.775 23.9217 129.428 24.2298 127.931 24.2298ZM127.931 19.1592C128.477 19.1592 128.935 18.948 129.304 18.5254C129.674 18.0853 129.859 17.4427 129.859 16.5976C129.859 15.7525 129.674 15.1187 129.304 14.6961C128.935 14.256 128.477 14.0359 127.931 14.0359C127.385 14.0359 126.928 14.256 126.558 14.6961C126.188 15.1187 126.003 15.7525 126.003 16.5976C126.003 17.4427 126.179 18.0853 126.531 18.5254C126.901 18.948 127.368 19.1592 127.931 19.1592ZM153.409 9.15022V24.0449H147.546V21.7737C147.089 22.478 146.472 23.0502 145.698 23.4903C144.941 23.9305 144.034 24.1506 142.978 24.1506C141.27 24.1506 139.932 23.5784 138.963 22.434C138.013 21.2896 137.537 19.7402 137.537 17.786V9.15022H143.374V17.0465C143.374 17.7508 143.559 18.3142 143.928 18.7367C144.316 19.1416 144.826 19.3441 145.46 19.3441C146.111 19.3441 146.622 19.1416 146.992 18.7367C147.361 18.3142 147.546 17.7508 147.546 17.0465V9.15022H153.409Z" fill="url(#paint0_linear_191_4537)"/>
</g>
<defs>
<filter id="filter0_dd_191_4537" x="0.425137" y="0.687022" width="159.679" height="33.1175" filterUnits="userSpaceOnUse" color-interpolation-filters="sRGB">
<feFlood flood-opacity="0" result="BackgroundImageFix"/>
<feColorMatrix in="SourceAlpha" type="matrix" values="0 0 0 0 0 0 0 0 0 0 0 0 0 0 0 0 0 0 127 0" result="hardAlpha"/>
<feOffset dy="2.87956"/>
<feGaussianBlur stdDeviation="1.43978"/>
<feComposite in2="hardAlpha" operator="out"/>
<feColorMatrix type="matrix" values="0 0 0 0 0 0 0 0 0 0 0 0 0 0 0 0 0 0 0.25 0"/>
<feBlend mode="normal" in2="BackgroundImageFix" result="effect1_dropShadow_191_4537"/>
<feColorMatrix in="SourceAlpha" type="matrix" values="0 0 0 0 0 0 0 0 0 0 0 0 0 0 0 0 0 0 127 0" result="hardAlpha"/>
<feOffset dy="2.87956"/>
<feGaussianBlur stdDeviation="3.34749"/>
<feComposite in2="hardAlpha" operator="out"/>
<feColorMatrix type="matrix" values="0 0 0 0 1 0 0 0 0 1 0 0 0 0 1 0 0 0 0.51 0"/>
<feBlend mode="normal" in2="effect1_dropShadow_191_4537" result="effect2_dropShadow_191_4537"/>
<feBlend mode="normal" in="SourceGraphic" in2="effect2_dropShadow_191_4537" result="shape"/>
</filter>
<linearGradient id="paint0_linear_191_4537" x1="6.79639" y1="15.0449" x2="119.976" y2="27.3012" gradientUnits="userSpaceOnUse">
<stop stop-color="#D3F3FF"/>
<stop offset="1" stop-color="#DCF5FF"/>
</linearGradient>
</defs>
</svg>
